<?xml version="1.0" encoding="UTF-8"?><svg id="Warstwa_1" xmlns="http://www.w3.org/2000/svg" viewBox="0 0 600 250"><defs><style>.cls-1{fill:#033;}.cls-2{fill:#fff;}.cls-3{fill:#8cc63f;}.cls-4{fill:#39b54a;}</style></defs><path class="cls-1" d="m375.22,187.77c-1.48-.84-3.19-1.27-5.09-1.27h-7.32c-.66,0-1.22.22-1.67.66-.46.44-.69,1.01-.69,1.7v24.79c0,.66.23,1.22.68,1.68.45.45,1.02.68,1.68.68s1.26-.23,1.7-.69c.44-.45.66-1.01.66-1.67v-7.56h4.96c1.9,0,3.61-.41,5.09-1.23,1.48-.82,2.66-1.97,3.49-3.43.83-1.46,1.25-3.13,1.25-4.98s-.42-3.65-1.25-5.14c-.83-1.49-2-2.68-3.49-3.52Zm-.51,11.37c-.45.78-1.07,1.4-1.84,1.84-.78.45-1.7.67-2.74.67h-4.96v-10.73h4.96c1.03,0,1.95.24,2.73.7.78.47,1.4,1.12,1.85,1.93.45.82.68,1.79.68,2.88,0,1.01-.23,1.92-.67,2.7Z"/><path class="cls-1" d="m401.41,188.08c-.38-1.03-1.15-1.57-2.22-1.57-1.01,0-1.77.54-2.21,1.56l-10.28,24.56c-.36.8-.31,1.57.14,2.29.45.71,1.12,1.09,1.96,1.09.42,0,.84-.12,1.24-.36.41-.24.73-.61.94-1.1l1.98-4.84h12.51l1.95,4.84c.18.46.48.82.89,1.08.4.25.83.38,1.29.38.86,0,1.54-.36,1.97-1.03.44-.68.49-1.44.16-2.27l-10.32-24.63Zm-6.8,17.58l4.64-11.35,4.57,11.35h-9.22Z"/><path class="cls-1" d="m444.19,186.51c-.66,0-1.22.22-1.67.66-.46.44-.69,1.01-.69,1.7v18.67l-15.16-20.17c-.48-.57-1.09-.86-1.81-.86-.66,0-1.22.22-1.66.66-.44.44-.66,1.01-.66,1.69v24.79c0,.66.22,1.22.66,1.67.44.46,1,.69,1.66.69s1.26-.23,1.7-.69c.44-.45.66-1.01.66-1.67v-18.63l15.15,20.15c.22.28.51.5.87.64.33.13.65.2.95.2.69,0,1.26-.23,1.69-.69.42-.45.63-1.01.63-1.66v-24.79c0-.68-.22-1.25-.64-1.69-.43-.44-1-.67-1.68-.67Z"/><path class="cls-1" d="m472.18,188.08c-.38-1.03-1.15-1.57-2.22-1.57-1.01,0-1.77.54-2.21,1.56l-10.28,24.56c-.36.8-.31,1.57.14,2.29.45.71,1.12,1.09,1.96,1.09.42,0,.84-.12,1.24-.36.41-.24.73-.61.94-1.1l1.98-4.84h12.51l1.95,4.84c.18.46.48.82.89,1.08.4.25.83.38,1.29.38.86,0,1.54-.36,1.97-1.03.44-.68.49-1.44.16-2.27l-10.32-24.63Zm-6.8,17.58l4.64-11.35,4.57,11.35h-9.22Z"/><path class="cls-1" d="m520.49,186.51c-.89,0-1.61.43-2.09,1.28l-10.18,20.94-10.47-20.96c-.47-.82-1.19-1.25-2.08-1.25-.66,0-1.22.22-1.67.66-.46.44-.69,1.01-.69,1.7v24.79c0,.66.23,1.22.68,1.68.45.45,1.02.68,1.68.68s1.22-.23,1.68-.68c.45-.45.68-1.02.68-1.68v-15.94l7.89,15.8c.44.91,1.19,1.39,2.17,1.39.84,0,1.53-.39,2.06-1.21l8-16.3v16.25c0,.66.23,1.22.68,1.68.45.45,1.02.68,1.68.68s1.19-.23,1.65-.68c.47-.45.7-1.02.7-1.68v-24.79c0-.69-.23-1.26-.69-1.7-.45-.44-1.01-.66-1.67-.66Z"/><path class="cls-1" d="m558.84,212.72l-10.32-24.63c-.38-1.03-1.15-1.58-2.22-1.58-1.01,0-1.77.54-2.21,1.56l-10.28,24.56c-.36.8-.31,1.57.14,2.29.45.71,1.12,1.09,1.96,1.09.42,0,.84-.12,1.24-.36.41-.24.73-.61.94-1.1l1.98-4.84h12.51l1.95,4.84c.18.46.48.82.89,1.08.4.25.83.38,1.29.38.86,0,1.54-.36,1.97-1.03.44-.68.49-1.44.17-2.26Zm-17.12-7.06l4.64-11.35,4.57,11.35h-9.22Z"/><path class="cls-1" d="m205.34,146.58c.28-.13.56-.25.83-.39,2.99-1.54,5.32-3.68,6.99-6.41,1.67-2.73,2.51-5.84,2.51-9.34,0-3.76-.84-7.05-2.51-9.89-1.67-2.83-4-5.06-6.99-6.68-2.99-1.62-6.41-2.43-10.27-2.43h-13.9c-1.13,0-2.08.37-2.86,1.12-.77.75-1.16,1.71-1.16,2.9v52.29c0,1.13.39,2.09,1.16,2.86s1.72,1.16,2.86,1.16,2.15-.39,2.9-1.16c.75-.77,1.12-1.72,1.12-2.86v-19.23h9.89c.48,0,.95-.01,1.42-.04l13.25,21.35c.41.67.91,1.16,1.51,1.47.59.31,1.25.46,1.97.46,1.65,0,2.81-.66,3.48-1.97.67-1.31.54-2.71-.39-4.21l-11.8-18.99Zm-19.33-5.49v-22.24h9.89c2.37,0,4.45.49,6.26,1.47,1.8.98,3.22,2.34,4.25,4.09,1.03,1.75,1.54,3.76,1.54,6.02,0,2.06-.51,3.9-1.54,5.52-1.03,1.62-2.45,2.88-4.25,3.78-1.8.9-3.89,1.35-6.26,1.35h-9.89Z"/><path class="cls-1" d="m254.29,131.85c-2.88-1.78-6.33-2.67-10.35-2.67s-7.67.92-10.81,2.74c-3.14,1.83-5.6,4.35-7.38,7.57-1.78,3.22-2.67,6.94-2.67,11.16s.94,7.87,2.82,11.08c1.88,3.22,4.48,5.74,7.8,7.57,3.32,1.83,7.12,2.74,11.39,2.74,2.37,0,4.85-.44,7.45-1.31,2.6-.88,4.78-2.01,6.53-3.4.88-.67,1.29-1.47,1.24-2.39-.05-.93-.51-1.78-1.39-2.55-.67-.57-1.46-.84-2.36-.81-.9.03-1.74.32-2.51.89-1.03.77-2.38,1.46-4.05,2.05-1.67.59-3.31.89-4.9.89-2.93,0-5.54-.64-7.8-1.93s-4.04-3.04-5.33-5.25c-.86-1.48-1.43-3.11-1.71-4.87h29.36c1.03,0,1.88-.32,2.55-.96.67-.64,1-1.45,1-2.43,0-4.07-.76-7.66-2.28-10.77-1.52-3.12-3.72-5.56-6.6-7.34Zm-17.88,5.91c2.08-1.29,4.6-1.93,7.53-1.93,2.57,0,4.76.59,6.56,1.78,1.8,1.18,3.19,2.79,4.17,4.83.69,1.44,1.14,3.03,1.37,4.75h-25.69c.27-1.47.69-2.85,1.3-4.13,1.08-2.24,2.67-4,4.75-5.29Z"/><path class="cls-1" d="m298,130.93c-2.52-1.16-5.3-1.74-8.34-1.74-4.07,0-7.67.92-10.81,2.74-3.14,1.83-5.61,4.36-7.42,7.61-1.8,3.24-2.7,6.95-2.7,11.12s.91,7.71,2.74,10.93c1.83,3.22,4.35,5.77,7.57,7.65,3.22,1.88,6.89,2.82,11.01,2.82,5.56,0,10.2-1.72,13.9-5.17.72-.72,1.03-1.53.93-2.43-.1-.9-.59-1.71-1.47-2.43-.67-.57-1.44-.81-2.32-.73-.88.08-1.73.45-2.55,1.12-1.13.93-2.38,1.61-3.75,2.05-1.36.44-2.95.66-4.75.66-2.73,0-5.12-.63-7.18-1.89-2.06-1.26-3.67-2.97-4.83-5.14-1.16-2.16-1.74-4.63-1.74-7.42,0-2.93.57-5.48,1.7-7.65,1.13-2.16,2.7-3.85,4.71-5.06,2.01-1.21,4.33-1.81,6.95-1.81,3.76,0,6.9,1.34,9.42,4.02.72.72,1.52,1.17,2.39,1.35.88.18,1.67.01,2.39-.5.93-.67,1.49-1.44,1.7-2.32.21-.88-.05-1.72-.77-2.55-2.01-2.32-4.27-4.05-6.8-5.21Z"/><path class="cls-1" d="m321.25,129.5c-1.13,0-2.07.36-2.82,1.08-.75.72-1.12,1.67-1.12,2.86v34.37c0,1.13.37,2.07,1.12,2.82.75.75,1.69,1.12,2.82,1.12s2.14-.37,2.86-1.12c.72-.75,1.08-1.69,1.08-2.82v-34.37c0-1.18-.36-2.14-1.08-2.86-.72-.72-1.67-1.08-2.86-1.08Z"/><path class="cls-1" d="m321.25,112.43c-1.39,0-2.59.5-3.59,1.51s-1.51,2.2-1.51,3.59.5,2.59,1.51,3.59,2.2,1.51,3.59,1.51,2.59-.5,3.59-1.51c1-1,1.51-2.2,1.51-3.59s-.5-2.59-1.51-3.59c-1-1-2.2-1.51-3.59-1.51Z"/><path class="cls-1" d="m387.09,113.09c-.59-1.11-1.66-1.66-3.21-1.66-.93,0-1.66.17-2.2.5-.54.34-1.02.97-1.43,1.89l-19.81,46.64-19.43-46.64c-.67-1.6-1.91-2.39-3.71-2.39-1.6,0-2.68.57-3.24,1.7-.57,1.13-.49,2.58.23,4.33l22.63,51.75c.77,1.7,1.98,2.55,3.63,2.55.88,0,1.61-.22,2.2-.66.59-.44,1.07-1.07,1.43-1.89l22.86-52.44c.62-1.34.63-2.56.04-3.67Z"/><path class="cls-1" d="m415.78,131.85c-2.88-1.78-6.33-2.67-10.35-2.67s-7.67.92-10.81,2.74c-3.14,1.83-5.6,4.35-7.38,7.57-1.78,3.22-2.67,6.94-2.67,11.16s.94,7.87,2.82,11.08c1.88,3.22,4.48,5.74,7.8,7.57,3.32,1.83,7.12,2.74,11.39,2.74,2.37,0,4.85-.44,7.45-1.31,2.6-.88,4.78-2.01,6.53-3.4.88-.67,1.29-1.47,1.24-2.39-.05-.93-.51-1.78-1.39-2.55-.67-.57-1.46-.84-2.36-.81-.9.03-1.74.32-2.51.89-1.03.77-2.38,1.46-4.05,2.05-1.67.59-3.31.89-4.9.89-2.93,0-5.54-.64-7.8-1.93s-4.04-3.04-5.33-5.25c-.86-1.48-1.43-3.11-1.71-4.87h29.36c1.03,0,1.88-.32,2.55-.96.67-.64,1-1.45,1-2.43,0-4.07-.76-7.66-2.28-10.77-1.52-3.12-3.72-5.56-6.6-7.34Zm-17.88,5.91c2.08-1.29,4.6-1.93,7.53-1.93,2.57,0,4.76.59,6.56,1.78,1.8,1.18,3.19,2.79,4.17,4.83.69,1.44,1.14,3.03,1.37,4.75h-25.69c.27-1.47.69-2.85,1.3-4.13,1.08-2.24,2.67-4,4.75-5.29Z"/><path class="cls-1" d="m461.54,130.54c-1.52-1-3.82-1.51-6.91-1.51s-5.92.72-8.5,2.16c-1.74.98-3.22,2.2-4.48,3.63v-1.47c0-1.29-.32-2.25-.97-2.9-.64-.64-1.61-.97-2.9-.97s-2.19.34-2.86,1c-.67.67-1,1.62-1,2.86v34.52c0,1.29.33,2.25,1,2.9.67.64,1.62.97,2.86.97s2.25-.33,2.9-1c.64-.67.97-1.62.97-2.86v-22.55c0-2.37.76-4.33,2.28-5.87,1.52-1.54,3.59-2.6,6.22-3.17,2.63-.57,5.59-.51,8.88.15.67.15,1.29.18,1.85.08.57-.1,1.07-.35,1.51-.73s.73-.94.89-1.66c.36-1.39-.22-2.59-1.74-3.59Z"/><path class="cls-1" d="m504.06,111.43c-1.13,0-2.07.36-2.82,1.08-.75.72-1.12,1.67-1.12,2.86v20.85c-1.75-2.16-3.91-3.87-6.49-5.14-2.58-1.26-5.38-1.89-8.42-1.89-3.76,0-7.13.94-10.12,2.82-2.99,1.88-5.34,4.43-7.07,7.65-1.73,3.22-2.59,6.86-2.59,10.93s.94,7.72,2.82,10.97c1.88,3.24,4.43,5.81,7.65,7.68,3.22,1.88,6.83,2.82,10.85,2.82s7.62-.94,10.81-2.82c3.19-1.88,5.73-4.44,7.61-7.68,1.88-3.24,2.82-6.9,2.82-10.97v-35.22c0-1.18-.36-2.14-1.08-2.86-.72-.72-1.67-1.08-2.86-1.08Zm-5.41,46.57c-1.19,2.21-2.81,3.95-4.87,5.21-2.06,1.26-4.4,1.89-7.03,1.89s-4.9-.63-6.99-1.89c-2.08-1.26-3.73-3-4.94-5.21s-1.81-4.69-1.81-7.42.6-5.25,1.81-7.41c1.21-2.16,2.86-3.87,4.94-5.14s4.41-1.89,6.99-1.89,4.97.63,7.03,1.89c2.06,1.26,3.68,2.97,4.87,5.14,1.18,2.16,1.78,4.63,1.78,7.41s-.59,5.2-1.78,7.42Z"/><path class="cls-1" d="m558.04,152.4c.67-.64,1-1.45,1-2.43,0-4.07-.76-7.66-2.28-10.77-1.52-3.12-3.72-5.56-6.6-7.34s-6.33-2.67-10.35-2.67-7.67.92-10.81,2.74c-3.14,1.83-5.6,4.35-7.38,7.57-1.78,3.22-2.67,6.94-2.67,11.16s.94,7.87,2.82,11.08c1.88,3.22,4.48,5.74,7.8,7.57,3.32,1.83,7.12,2.74,11.39,2.74,2.37,0,4.85-.44,7.45-1.31,2.6-.88,4.78-2.01,6.53-3.4.88-.67,1.29-1.47,1.24-2.39-.05-.93-.51-1.78-1.39-2.55-.67-.57-1.46-.84-2.36-.81-.9.03-1.74.32-2.51.89-1.03.77-2.38,1.46-4.05,2.05-1.67.59-3.31.89-4.9.89-2.93,0-5.54-.64-7.8-1.93s-4.04-3.04-5.33-5.25c-.86-1.48-1.43-3.11-1.71-4.87h29.36c1.03,0,1.88-.32,2.55-.96Zm-25.76-14.64c2.08-1.29,4.6-1.93,7.53-1.93,2.57,0,4.76.59,6.56,1.78,1.8,1.18,3.19,2.79,4.17,4.83.69,1.44,1.14,3.03,1.37,4.75h-25.69c.27-1.47.69-2.85,1.3-4.13,1.08-2.24,2.67-4,4.75-5.29Z"/><path class="cls-4" d="m101.18,96.45l16.83-18.31-2.2-2.03-15.2,16.53v-4.87c3.41-19.73,24.32-24.88,24.32-24.88,3.99,27.35-12.1,32.96-23.75,33.56Z"/><path class="cls-4" d="m85.18,85.42l-2.21,2.04,14.64,15.91v2.47c-11.62-.71-27.23-6.53-23.29-33.52,0,0,17.93,4.41,23.29,20.74v5.88l-12.43-13.52Z"/><path class="cls-4" d="m100.61,77.91v-21.07h-3v21.08c-2.73-3.45-8.24-11.59-8.24-21.08,0-12.62,9.74-22.85,9.74-22.85,0,0,9.73,10.23,9.73,22.85,0,9.48-5.5,17.62-8.23,21.07Z"/><path class="cls-1" d="m118.01,78.14l-16.83,18.31-.57.62v12.09c-.16-.01-.32-.01-.48-.01-.84,0-1.68.01-2.52.03v-5.81l-14.64-15.91,2.21-2.04,12.43,13.52v-42.1h3v35.8l15.2-16.53,2.2,2.03Z"/><path class="cls-3" d="m157.97,155.11c0,7.07-.73,13.91-2.09,20.41-1.32,6.3-4.93,11.81-9.99,15.53-1.94,1.43-4.09,2.59-6.41,3.43-11.49,4.18-24.95,6.58-39.35,6.58s-27.86-2.4-39.35-6.58c-2.31-.84-4.46-2-6.4-3.43-5.06-3.72-8.67-9.23-9.99-15.53-1.37-6.5-2.1-13.34-2.1-20.41s.73-13.91,2.1-20.41c1.55-7.38,6.23-13.68,12.71-17.29l1.72,1.72c.79.79,1.82,1.18,2.85,1.18s2.06-.39,2.85-1.18c1.31-1.31,1.53-3.32.64-4.86,9.78-3.05,20.79-4.87,32.45-5.09.84-.02,1.68-.03,2.52-.03.16,0,.32,0,.48.01,12.36.04,24.01,1.86,34.3,5.05-.84,1.53-.61,3.49.68,4.78.79.79,1.82,1.18,2.85,1.18s2.07-.39,2.85-1.18l1.68-1.68c6.58,3.59,11.34,9.94,12.91,17.39,1.36,6.5,2.09,13.34,2.09,20.41Z"/><path class="cls-1" d="m146.09,155.11c0,4.16-.58,8.19-1.66,12.01-1.05,3.71-3.92,6.95-7.94,9.14-1.54.84-3.25,1.52-5.09,2.02-9.13,2.46-19.83,3.87-31.26,3.87s-22.14-1.42-31.26-3.87c-1.84-.5-3.55-1.18-5.09-2.02-4.02-2.19-6.89-5.43-7.94-9.14-1.08-3.83-1.66-7.85-1.66-12.01s.58-8.19,1.66-12.01c1.45-5.13,6.38-9.37,13.03-11.16,9.13-2.46,19.83-3.87,31.26-3.87s22.14,1.42,31.26,3.87c6.65,1.79,11.57,6.03,13.03,11.16,1.08,3.83,1.66,7.85,1.66,12.01Z"/><rect class="cls-2" x="111.49" y="136.6" width="10.13" height="15.69" rx="5.07" ry="5.07"/><rect class="cls-2" x="78.64" y="136.6" width="10.13" height="15.69" rx="5.07" ry="5.07"/><path class="cls-2" d="m100.13,174.03c-8.86,0-16.07-5.84-16.07-13.01,0-1.85,1.5-3.36,3.36-3.36s3.36,1.5,3.36,3.36c0,3.41,4.28,6.29,9.35,6.29s9.35-2.88,9.35-6.29c0-1.85,1.5-3.36,3.36-3.36s3.36,1.5,3.36,3.36c0,7.17-7.21,13.01-16.07,13.01Z"/><path class="cls-1" d="m64.52,119.13c-.79.79-1.82,1.18-2.85,1.18s-2.06-.39-2.85-1.18l-7-7c-2.88.85-6.12.14-8.39-2.13-3.3-3.3-3.3-8.66,0-11.96s8.66-3.3,11.96,0c2.27,2.27,2.98,5.51,2.13,8.39l7,7c.26.26.47.54.64.84.89,1.54.67,3.55-.64,4.86Z"/><path class="cls-1" d="m156.68,109.86c-2.27,2.27-5.51,2.98-8.39,2.13l-7,7c-.78.79-1.82,1.18-2.85,1.18s-2.06-.39-2.85-1.18c-1.29-1.29-1.52-3.25-.68-4.78.18-.33.4-.64.68-.92l7-7c-.85-2.88-.14-6.12,2.13-8.39,3.3-3.3,8.66-3.3,11.96,0,3.3,3.3,3.3,8.66,0,11.96Z"/></svg>