<?xml version="1.0" encoding="UTF-8"?><svg id="Warstwa_1" xmlns="http://www.w3.org/2000/svg" viewBox="0 0 150 150"><defs><style>.cls-1{fill:#033;}.cls-2{fill:#fff;}.cls-3{fill:#8cc63f;}</style></defs><path class="cls-3" d="m113.56,91.12c-1.14-5.45-5.09-10.01-10.29-11.91-8.5-3.09-18.27-4.72-28.27-4.72s-19.78,1.63-28.27,4.72c-5.21,1.9-9.15,6.46-10.3,11.91-.99,4.73-1.49,9.64-1.49,14.58s.5,9.85,1.49,14.58c.83,3.92,3.06,7.39,6.28,9.76,1.24.91,2.6,1.64,4.02,2.15,8.49,3.09,18.27,4.72,28.27,4.72s19.77-1.63,28.27-4.72c1.42-.51,2.77-1.24,4.01-2.15,3.23-2.37,5.46-5.84,6.28-9.76,1-4.73,1.5-9.63,1.5-14.58s-.5-9.85-1.5-14.58Zm-54.56,8.71v-4.13c0-2.08,1.69-3.77,3.77-3.77,1.03,0,1.98.42,2.66,1.11.69.68,1.11,1.62,1.11,2.66v4.13c0,2.08-1.7,3.77-3.77,3.77s-3.77-1.69-3.77-3.77Zm16,19.96c-6.6,0-11.96-4.34-11.96-9.69,0-1.38,1.12-2.5,2.5-2.5s2.5,1.12,2.5,2.5c0,2.54,3.19,4.69,6.96,4.69s6.96-2.15,6.96-4.69c0-1.38,1.12-2.5,2.5-2.5s2.5,1.12,2.5,2.5c0,5.35-5.36,9.69-11.96,9.69Zm16-19.96c0,2.08-1.7,3.77-3.77,3.77s-3.77-1.69-3.77-3.77v-4.13c0-2.08,1.69-3.77,3.77-3.77,1.03,0,1.98.42,2.66,1.11.69.68,1.11,1.62,1.11,2.66v4.13Z"/><path class="cls-1" d="m107.97,96.76c-1.08-3.82-4.75-6.97-9.7-8.31-6.79-1.83-14.76-2.88-23.27-2.88s-16.48,1.05-23.28,2.88c-4.94,1.34-8.61,4.49-9.69,8.31-.81,2.85-1.24,5.85-1.24,8.94s.43,6.1,1.24,8.95c.78,2.76,2.91,5.17,5.91,6.8,1.14.63,2.41,1.14,3.78,1.5,6.8,1.83,14.76,2.89,23.28,2.89s16.48-1.06,23.27-2.89c1.37-.36,2.64-.87,3.79-1.5,2.99-1.63,5.13-4.04,5.91-6.8.81-2.85,1.24-5.85,1.24-8.95s-.43-6.09-1.24-8.94Zm-48.97,3.07v-4.13c0-2.08,1.69-3.77,3.77-3.77,1.03,0,1.98.42,2.66,1.11.69.68,1.11,1.62,1.11,2.66v4.13c0,2.08-1.7,3.77-3.77,3.77s-3.77-1.69-3.77-3.77Zm16,19.96c-6.6,0-11.96-4.34-11.96-9.69,0-1.38,1.12-2.5,2.5-2.5s2.5,1.12,2.5,2.5c0,2.54,3.19,4.69,6.96,4.69s6.96-2.15,6.96-4.69c0-1.38,1.12-2.5,2.5-2.5s2.5,1.12,2.5,2.5c0,5.35-5.36,9.69-11.96,9.69Zm16-19.96c0,2.08-1.7,3.77-3.77,3.77s-3.77-1.69-3.77-3.77v-4.13c0-2.08,1.69-3.77,3.77-3.77,1.03,0,1.98.42,2.66,1.11.69.68,1.11,1.62,1.11,2.66v4.13Z"/><path class="cls-1" d="m119.43,89.89c-1.33-6.38-5.48-11.86-11.11-14.95l3.99-3.98c1.35.13,2.76-.3,3.8-1.34,1.85-1.85,1.85-4.85,0-6.7s-4.85-1.85-6.7,0c-1.04,1.04-1.48,2.44-1.35,3.8l-5.82,5.82c-7.73-2.44-16.27-3.8-25-4v-3.62c6.43-.58,11.59-2.96,14.97-6.98,4.14-4.93,5.56-12.1,4.22-21.32-.12-.84-.59-1.58-1.29-2.06-.71-.47-1.58-.62-2.4-.42-3.45.85-8.4,3.07-12.59,6.95,2.11-3.47,4.33-8.42,4.33-14.03,0-10.47-7.74-18.73-8.07-19.08-1.13-1.19-3.22-1.19-4.35,0-.33.35-8.07,8.61-8.07,19.08,0,8.57,5.18,15.65,7.25,18.14v5.13c-4.55-5.28-10.67-8.17-14.75-9.17-.82-.2-1.68-.05-2.39.42-.7.47-1.17,1.22-1.29,2.06-1.34,9.22.08,16.39,4.22,21.32,1.5,1.78,3.36,3.22,5.52,4.35-5.14.67-10.12,1.75-14.8,3.23l-5.82-5.82c.13-1.36-.3-2.76-1.34-3.8-1.85-1.85-4.85-1.85-6.7,0s-1.85,4.85,0,6.7c1.04,1.04,2.44,1.47,3.8,1.34l3.99,3.98c-5.63,3.09-9.78,8.57-11.12,14.95-1.08,5.14-1.62,10.45-1.62,15.81s.54,10.68,1.62,15.81c1.13,5.37,4.18,10.12,8.6,13.37,1.7,1.25,3.56,2.24,5.52,2.95,9.14,3.33,19.63,5.08,30.32,5.08s21.18-1.75,30.32-5.08c1.95-.71,3.81-1.7,5.52-2.95,4.41-3.25,7.47-8,8.59-13.37,1.08-5.13,1.63-10.45,1.63-15.81s-.55-10.67-1.63-15.81Zm-5.87,30.39c-.82,3.92-3.05,7.39-6.28,9.76-1.24.91-2.59,1.64-4.01,2.15-8.5,3.09-18.27,4.72-28.27,4.72s-19.78-1.63-28.27-4.72c-1.42-.51-2.78-1.24-4.02-2.15-3.22-2.37-5.45-5.84-6.28-9.76-.99-4.73-1.49-9.63-1.49-14.58s.5-9.85,1.49-14.58c1.15-5.45,5.09-10.01,10.3-11.91,8.49-3.09,18.27-4.72,28.27-4.72s19.77,1.63,28.27,4.72c5.2,1.9,9.15,6.46,10.29,11.91,1,4.73,1.5,9.64,1.5,14.58s-.5,9.85-1.5,14.58Zm-22.69-79.12c.32,5.64-.77,9.97-3.25,12.92-2.5,2.97-6.22,4.24-9.6,4.72.44-10.58,8.25-15.59,12.85-17.64Zm-20.88-14.1c0-4.92,2.38-9.39,4.25-12.14,1.86,2.75,4.24,7.22,4.24,12.14s-2.38,9.39-4.24,12.14c-1.87-2.75-4.25-7.22-4.25-12.14Zm-8.37,34.03c-2.48-2.94-3.57-7.28-3.25-12.91,4.61,2.05,12.4,7.06,12.85,17.64-3.38-.49-7.1-1.75-9.6-4.73Z"/><path class="cls-2" d="m86.96,110.1c0,5.35-5.36,9.69-11.96,9.69s-11.96-4.34-11.96-9.69c0-1.38,1.12-2.5,2.5-2.5s2.5,1.12,2.5,2.5c0,2.54,3.19,4.69,6.96,4.69s6.96-2.15,6.96-4.69c0-1.38,1.12-2.5,2.5-2.5s2.5,1.12,2.5,2.5Z"/><path class="cls-2" d="m91,95.7v4.13c0,2.08-1.7,3.77-3.77,3.77s-3.77-1.69-3.77-3.77v-4.13c0-2.08,1.69-3.77,3.77-3.77,1.03,0,1.98.42,2.66,1.11.69.68,1.11,1.62,1.11,2.66Z"/><path class="cls-2" d="m66.54,95.7v4.13c0,2.08-1.7,3.77-3.77,3.77s-3.77-1.69-3.77-3.77v-4.13c0-2.08,1.69-3.77,3.77-3.77,1.03,0,1.98.42,2.66,1.11.69.68,1.11,1.62,1.11,2.66Z"/></svg>