<?xml version="1.0" encoding="UTF-8"?><svg xmlns="http://www.w3.org/2000/svg" viewBox="0 0 1920 450"><defs><style>.cls-1{fill:#033;}.cls-2{fill:#e7ffc0;}.cls-3{fill:#fff;}.cls-4{fill:#8cc63f;}.cls-5{fill:#adcf53;}.cls-6{fill:#d3d3d3;}.cls-7{fill:#39b54a;}.cls-8{fill:#80bd31;}.cls-9{stroke-width:2.29px;}.cls-9,.cls-10,.cls-11{fill:none;stroke:#033;}.cls-9,.cls-11{stroke-miterlimit:10;}.cls-10{stroke-miterlimit:22.93;stroke-width:2.54px;}.cls-11{stroke-width:2.09px;}</style></defs><g id="Warstwa_2"><path class="cls-2" d="m1920,0v450H0V0h1662.81"/><path class="cls-4" d="m1920,0v450H0v-42.15c.26-.19.51-.37.76-.55,98.92-70.49,202.27-95.75,314.03-106.22,100.68-9.43,301.84-12.32,489.02,19.17,8.36,1.39,16.69,2.87,24.98,4.42,8.24,1.53,16.44,3.14,24.59,4.82,8.11,1.66,16.18,3.41,24.19,5.22,1.85.42,3.69.84,5.53,1.27,65.3,15.14,191.77,33.72,244.73,34.15,1.36,0,2.69.02,4.02.02,48.95,0,83.03-7.21,117.46-25.31,3.51-1.84,7.03-3.8,10.56-5.88,22.8-13.41,46.07-31.55,73.72-55.46,18.52-16.01,39.02-34.62,62.66-56.13,1.04-.94,2.09-1.9,3.15-2.86,1.56-1.41,3.12-2.84,4.7-4.28,17.66-16.05,36.69-33.34,57.62-52.04,3.23-2.89,6.52-5.82,9.85-8.78,1.05-.93,2.11-1.87,3.17-2.82,1.8-1.6,3.61-3.2,5.44-4.82,4.53-4.01,9.14-8.08,13.85-12.21,2.65-2.34,5.34-4.7,8.06-7.07,1.11-.98,2.23-1.96,3.35-2.93.77-.68,1.54-1.35,2.32-2.03,14.34-12.51,29.5-25.58,45.59-39.26,2.13-1.81,4.28-3.63,6.44-5.45,20.45-17.33,42.39-35.61,66.05-54.93,11.91-9.72,24.23-19.02,36.97-27.89h257.19Z"/><path class="cls-5" d="m1920,0v450H44.37c.48-.4.98-.79,1.5-1.19,20.52-15.63,42.43-29.41,65.51-41.51,169.35-88.76,401.7-87.14,611.25-64.69,8.86.95,17.68,1.93,26.45,2.96,8.8,1.01,17.56,2.07,26.26,3.15,8.74,1.09,17.43,2.2,26.06,3.34,8.71,1.14,17.35,2.31,25.92,3.49,8.67,1.2,17.26,2.41,25.78,3.63,140.84,20.26,260.41,43.58,326.81,44.12,96.92.78,141.7-25.65,226.24-100.26,1.73-1.52,3.47-3.07,5.24-4.64,6.85-6.08,13.96-12.47,21.38-19.18,12.85-11.61,26.62-24.17,41.56-37.75,4.02-3.64,8.12-7.37,12.31-11.16,11.15-10.11,22.94-20.74,35.45-31.92,10.61-9.48,21.75-19.35,33.45-29.63,2.1-1.85,4.22-3.7,6.36-5.57,5.07-4.44,10.25-8.96,15.53-13.54,6.74-5.85,13.66-11.81,20.76-17.91,26.46-22.68,55.51-47.08,87.59-73.28C1713.07,36.17,1741.76,16.79,1771.4,0h148.6Z"/><path class="cls-4" d="m1920,128.15v321.85h-624.03c2-6.06,4.49-11.96,7.47-17.67,4.65-8.89,10.45-17.24,17.38-25.03,5.38-6.06,11.44-11.77,18.17-17.11h0c3.06-2.46,6.26-4.82,9.6-7.11,2.64-1.81,5.37-3.57,8.18-5.29,21.45-13.07,44.95-20.43,68.79-24.54,6.59-1.14,13.2-2.04,19.81-2.72,19.53-2.07,38.95-2.42,57.32-2.42,6.49,0,12.99.05,19.29.1,6.34.04,12.33.09,18.36.09.94,0,1.87,0,2.79-.01,1.4,0,2.77,0,4.12-.03h0c3.13-.03,6.14-.08,9.04-.15,3.98-.11,7.76-.25,11.35-.43,4.17-.21,8.08-.47,11.76-.78,3.63-.3,7.02-.64,10.2-1.03,30.34-3.67,41.31-11.01,49.5-18.47,11.72-10.68,23.92-28.61,36.74-48.29,1.53-2.35,3.07-4.73,4.62-7.13.24-.37.48-.74.72-1.11,20.17-31.16,43.04-66.47,74.19-94.64,17.75-16.06,36.08-27.99,56.03-36.47,22.6-9.6,47.17-14.47,73.02-14.47h.01c11.46,0,23.35.96,35.55,2.86Z"/><path class="cls-8" d="m1920,136.95v313.05h-570.12c1.23-4.87,2.89-9.81,5.09-14.75,1.38-3.12,2.98-6.25,4.81-9.36,8.32-14.15,21.47-28.04,41.56-40.29,8.79-5.36,18.07-9.62,27.71-13.01,7.55-2.66,15.33-4.77,23.27-6.46,23.48-4.98,48.37-6.19,73.15-6.38,1.54,0,3.09-.02,4.64-.02,17.52-.06,34.92.31,51.69.11h0c2.01-.02,4-.05,5.99-.09,13.74-.27,26.99-1.01,39.45-2.76,5.5-.77,10.83-1.74,15.99-2.95h0c17.1-4.02,32.22-10.72,44.41-21.82,55.12-50.21,95.09-198.59,232.34-195.27Z"/><path class="cls-3" d="m542.9,0c-14.26,13.7-28.73,24.93-43.51,33.75h-.01c-27.51,16.43-56.06,24.5-86.34,24.5-38.07,0-73.56-12.7-104.86-23.9-25.37-9.07-49.33-17.64-70.3-17.86-.54,0-1.07-.01-1.6-.01-21.35,0-35.56,4.38-50.68,15.6-15.35,11.39-31.22,29.62-55.25,57.22-22.17,25.46-49.75,57.15-89.66,98.31C28.26,200.43,14.67,211.78,0,221.62V0h542.9Z"/></g><g id="Warstwa_1"><circle class="cls-4" cx="1901.92" cy="180.82" r="14.16"/><circle class="cls-4" cx="1877.6" cy="226.99" r="12.76"/><circle class="cls-4" cx="1821.2" cy="303.54" r="12.76"/><circle class="cls-4" cx="1901.92" cy="247.16" r="7.41"/><circle class="cls-4" cx="1844" cy="232.71" r="7.41"/><circle class="cls-4" cx="1812.01" cy="262.43" r="18.1"/><circle class="cls-4" cx="1821.2" cy="214.4" r="15.39"/><circle class="cls-4" cx="1853.08" cy="262.43" r="9.35"/><circle class="cls-4" cx="1908.79" cy="208.79" r="4.98"/><circle class="cls-4" cx="1855.23" cy="305.64" r="4.98"/><circle class="cls-4" cx="1890.37" cy="283.57" r="4.98"/><circle class="cls-4" cx="1793.69" cy="303.54" r="4.98"/><circle class="cls-4" cx="1855.23" cy="184.22" r="13.54"/><circle class="cls-4" cx="392.37" cy="369.88" r="17.48"/><circle class="cls-4" cx="521.97" cy="404.46" r="15.75"/><circle class="cls-4" cx="484.18" cy="359.01" r="15.75"/><circle class="cls-4" cx="556.73" cy="348.47" r="9.15"/><circle class="cls-4" cx="595.87" cy="352.87" r="9.15"/><circle class="cls-4" cx="222.33" cy="411.58" r="22.34"/><circle class="cls-4" cx="282" cy="387.57" r="19"/><circle class="cls-4" cx="564.76" cy="377.74" r="11.55"/><circle class="cls-4" cx="438.12" cy="383.41" r="11.55"/><circle class="cls-4" cx="480.07" cy="395.59" r="6.15"/><circle class="cls-4" cx="371.25" cy="401.31" r="6.15"/><circle class="cls-4" cx="315.02" cy="408.2" r="6.15"/><circle class="cls-4" cx="526.15" cy="367.32" r="6.15"/><circle class="cls-4" cx="433.19" cy="351.89" r="6.15"/><circle class="cls-4" cx="335.92" cy="371.93" r="16.72"/><circle class="cls-3" cx="1100.18" cy="314.95" r="19.36"/><circle class="cls-3" cx="1152.15" cy="266.07" r="17.45"/><circle class="cls-3" cx="1289.05" cy="211.69" r="17.45"/><circle class="cls-3" cx="1040.34" cy="331.31" r="10.13"/><circle class="cls-3" cx="1198.13" cy="273.62" r="10.13"/><circle class="cls-3" cx="1282.64" cy="268.92" r="24.74"/><circle class="cls-3" cx="1229.97" cy="312.79" r="21.04"/><circle class="cls-3" cx="1208.93" cy="231.84" r="12.79"/><circle class="cls-3" cx="1065.43" cy="288.69" r="12.79"/><circle class="cls-3" cx="1289.96" cy="171.67" r="6.81"/><circle class="cls-3" cx="1103.74" cy="275.74" r="6.81"/><circle class="cls-3" cx="1247.32" cy="243.95" r="6.81"/><circle class="cls-3" cx="1244.2" cy="197.95" r="6.81"/><circle class="cls-3" cx="1324.61" cy="223.92" r="6.81"/><circle class="cls-3" cx="1162.05" cy="331.31" r="18.51"/><path class="cls-3" d="m1686.11,291c-1.76-9.74-5.06-19.05-9.81-27.66-1.26-2.28-3.61-3.57-6.04-3.57-1.12,0-2.27.28-3.32.86l-52.49,28.93c.37-1.28.71-2.58.98-3.9,2.63-12.51,3.96-25.47,3.96-38.53s-1.33-26.03-3.96-38.53c-2.62-12.46-9.64-23.52-19.42-31.26l1.19-1.2c.68.06,1.37.1,2.06.1,5.95,0,11.54-2.32,15.75-6.52,8.68-8.68,8.68-22.81,0-31.49-4.21-4.21-9.8-6.52-15.75-6.52s-11.54,2.32-15.75,6.52c-4.86,4.86-7,11.43-6.42,17.8l-8.85,8.85c-17.49-4.96-36.52-7.74-55.92-8.15v-4.71s0-.03,0-.05v-4.84c15.8-1.34,28.43-7.14,36.68-16.95,10.04-11.93,13.48-29.34,10.21-51.74-.28-1.92-1.36-3.64-2.97-4.72-1.15-.77-2.49-1.17-3.85-1.17-.55,0-1.1.07-1.65.2-.48.12-11.36,2.86-22.84,10.71,1.29-4.7,2.12-9.74,2.12-15.03,0-25.41-18.8-45.47-19.6-46.31-1.3-1.37-3.11-2.14-4.99-2.14s-3.69.77-4.99,2.14c-.8.84-19.6,20.89-19.6,46.31,0,20.95,12.76,38.24,17.7,44.15v.36c-3.29-3.94-7.15-7.55-11.56-10.81-12.24-9.03-24.48-12.11-24.99-12.23-.54-.13-1.1-.2-1.65-.2-1.36,0-2.7.4-3.85,1.17-1.61,1.08-2.69,2.8-2.97,4.72-3.27,22.4.17,39.8,10.21,51.74,3.89,4.62,8.76,8.35,14.46,11.15-11.13,1.39-21.97,3.58-32.27,6.52l-8.72-8.72c.58-6.37-1.55-12.94-6.42-17.8-4.21-4.21-9.8-6.52-15.75-6.52s-11.54,2.32-15.75,6.52c-8.68,8.68-8.68,22.81,0,31.49,4.21,4.21,9.8,6.52,15.75,6.52h0c.69,0,1.38-.03,2.06-.1l1.18,1.18c-9.62,7.73-16.53,18.69-19.12,31.02-2.63,12.51-3.96,25.47-3.96,38.53s1.33,26.03,3.96,38.53c2.35,11.2,8.15,21.26,16.54,28.87-21.67,13.7-41.65,29.08-58.03,44.69-14.86,14.18-21.87,31.15-18.76,45.36.31,1.48.68,3,1.09,4.5,2.15,8.01,5.4,15.69,9.65,22.83.94,1.57,2.46,2.7,4.23,3.15.56.14,1.12.21,1.69.21,1.23,0,2.45-.33,3.53-.97l68.66-40.94c.43,1.26.86,2.51,1.31,3.76,1.9,5.21,4.57,10.05,7.92,14.38,1.73,2.25,3.67,4.39,5.76,6.35,7.23,6.79,16.17,11.45,25.86,13.48,12.26,2.57,24.96,3.9,37.75,3.95.26,0,.52,0,.78,0s.52,0,.78,0c12.8-.05,25.5-1.38,37.75-3.95,9.69-2.03,18.63-6.69,25.85-13.47,2.1-1.97,4.04-4.11,5.75-6.33,3.39-4.36,6.06-9.21,7.96-14.41,1.04-2.85,2.01-5.76,2.91-8.67,2.81-1.47,5.6-2.96,8.32-4.46,25.95-14.3,49.93-30.99,69.33-48.26,15.33-13.66,22.92-30.38,20.3-44.72Z"/><path class="cls-4" d="m1593.15,377.95c26.44-14.57,49.62-30.95,68.07-47.37,13.43-11.97,20.26-26.51,18.1-38.35-1.6-8.85-4.59-17.45-9.06-25.56l-100.62,55.46c9.11,16.52,13.23,34.42,12.82,51.83-.08,3.5-.85,7.15-2.25,10.82,4.3-2.17,8.61-4.44,12.94-6.83Z"/><path class="cls-4" d="m1431.74,382.98l-40.79,24.33-35.36,21.09c-3.99-6.69-6.95-13.77-8.92-21.09-.37-1.37-.71-2.76-1.01-4.15-2.57-11.76,3.77-26.52,16.78-38.94,16.68-15.89,37.46-31.89,61.22-46.51-.05,1.82-.07,3.66-.07,5.5,0,21.41,2.92,41.68,8.15,59.78Z"/><path class="cls-4" d="m1454.27,369.54l-22.53,13.44c-5.22-18.1-8.15-38.36-8.15-59.78,0-1.84.02-3.68.07-5.5,1.43-.88,2.88-1.76,4.33-2.63.29-.17.58-.35.87-.52.26-.15.51-.3.77-.45,3.99-2.37,7.97-4.63,11.94-6.81-1.27,3.71-1.92,7.38-1.88,10.88h0c0,.66.02,1.32.04,1.96.51,16.79,5.24,33.81,14.53,49.4Z"/><path class="cls-3" d="m1590.73,323.2c0,21.69-3,42.2-8.34,60.46-1.1,3.8-2.32,7.5-3.62,11.1-1.67,4.58-4.02,8.79-6.93,12.54-1.52,1.98-3.2,3.82-5.01,5.52-6.2,5.82-13.98,9.96-22.56,11.76-11.61,2.44-23.82,3.76-36.44,3.8-.23,0-.45,0-.68,0s-.45,0-.68,0c-12.61-.04-24.82-1.36-36.44-3.8-8.58-1.8-16.35-5.93-22.55-11.76-1.81-1.7-3.49-3.54-5.01-5.52-2.91-3.75-5.25-7.97-6.92-12.54-1.39-3.81-2.67-7.74-3.82-11.78-5.22-18.1-8.15-38.36-8.15-59.78,0-1.84.02-3.68.07-5.5.04-1.81.1-3.6.2-5.38.02-.6.06-1.2.09-1.8,1.8,1.32,3.7,2.52,5.69,3.58,1.91,1.01,3.9,1.91,5.97,2.66,1.35.49,2.71.96,4.09,1.43,19.96,6.71,42.98,10.54,67.47,10.54,26.18,0,50.67-4.38,71.57-11.97.78-.28,1.55-.59,2.32-.92,0,0,.01,0,.02,0,2.87-1.23,5.59-2.73,8.12-4.48.4-.27.79-.55,1.19-.83,0,.06,0,.12,0,.17.03.61.07,1.22.1,1.83.17,3.52.26,7.08.26,10.67Z"/><path class="cls-7" d="m1507.32,140.52v-5.65c0-44.36,45.09-55.44,45.09-55.44,7.47,51.22-23.79,60.52-45.09,61.09Z"/><path class="cls-7" d="m1505.44,157.67v-5.65c0-44.36-45.09-55.44-45.09-55.44-7.47,51.22,23.79,60.52,45.09,61.09Z"/><path class="cls-7" d="m1523.14,68.42c0,22.95-17.7,41.56-17.7,41.56,0,0-17.7-18.61-17.7-41.56s17.7-41.56,17.7-41.56c0,0,17.7,18.61,17.7,41.56Z"/><line class="cls-10" x1="1505.44" y1="164.92" x2="1505.44" y2="68.42"/><line class="cls-10" x1="1537.81" y1="105.31" x2="1505.44" y2="140.52"/><line class="cls-10" x1="1478.1" y1="122.25" x2="1505.44" y2="151.97"/><path class="cls-4" d="m1612.5,247.14c0,12.86-1.33,25.29-3.81,37.12-2.4,11.46-8.96,21.48-18.17,28.25-3.53,2.59-7.43,4.71-11.65,6.24-20.89,7.6-45.38,11.97-71.56,11.97s-50.67-4.37-71.56-11.97c-4.21-1.53-8.12-3.65-11.65-6.24-9.21-6.76-15.77-16.79-18.17-28.25-2.48-11.82-3.81-24.26-3.81-37.12s1.33-25.29,3.81-37.12c3.33-15.85,14.6-28.94,29.82-34.49,20.89-7.6,45.38-11.97,71.56-11.97s50.67,4.37,71.56,11.97c15.22,5.54,26.49,18.64,29.82,34.49,2.48,11.82,3.81,24.26,3.81,37.12Z"/><path class="cls-1" d="m1590.88,247.14c0,7.57-1.06,14.89-3.03,21.85-1.91,6.75-7.12,12.65-14.44,16.63-2.8,1.52-5.91,2.77-9.25,3.67-16.6,4.47-36.06,7.05-56.86,7.05s-40.26-2.57-56.86-7.05c-3.35-.9-6.45-2.15-9.25-3.67-7.31-3.98-12.53-9.88-14.44-16.63-1.97-6.96-3.03-14.28-3.03-21.85s1.06-14.89,3.03-21.85c2.64-9.33,11.6-17.04,23.69-20.3,16.6-4.47,36.06-7.05,56.86-7.05s40.26,2.57,56.86,7.05c12.09,3.26,21.05,10.97,23.69,20.3,1.97,6.96,3.03,14.28,3.03,21.85Z"/><rect class="cls-3" x="1527.97" y="213.48" width="18.43" height="28.53" rx="9.21" ry="9.21"/><rect class="cls-3" x="1468.21" y="213.48" width="18.43" height="28.53" rx="9.21" ry="9.21"/><path class="cls-3" d="m1507.3,281.55c-16.11,0-29.22-10.61-29.22-23.66,0-3.37,2.73-6.11,6.11-6.11s6.11,2.73,6.11,6.11c0,6.2,7.79,11.44,17.01,11.44s17.01-5.24,17.01-11.44c0-3.37,2.73-6.11,6.11-6.11s6.11,2.73,6.11,6.11c0,13.05-13.11,23.66-29.22,23.66Z"/><path class="cls-1" d="m1437.35,183.85c-1.88,0-3.75-.71-5.18-2.15l-22.7-22.7c-2.86-2.86-2.86-7.5,0-10.36,2.86-2.86,7.5-2.86,10.36,0l22.7,22.7c2.86,2.86,2.86,7.5,0,10.36-1.43,1.43-3.31,2.15-5.18,2.15Z"/><path class="cls-1" d="m1425.93,143.35c-6.01-6-15.74-6-21.75,0-6,6-6,15.74,0,21.75,6,6,15.74,6,21.75,0,6-6,6-15.74,0-21.75Z"/><path class="cls-1" d="m1576.98,183.6c1.88,0,3.75-.71,5.18-2.15l22.7-22.7c2.86-2.86,2.86-7.5,0-10.36-2.86-2.86-7.5-2.86-10.36,0l-22.7,22.7c-2.86,2.86-2.86,7.5,0,10.36,1.43,1.43,3.31,2.15,5.18,2.15Z"/><path class="cls-1" d="m1588.39,143.1c6.01-6,15.74-6,21.75,0,6,6,6,15.74,0,21.75-6,6-15.74,6-21.75,0-6-6-6-15.74,0-21.75Z"/><circle class="cls-6" cx="1522.06" cy="411.51" r="7.02"/><circle class="cls-6" cx="1534.12" cy="388.62" r="6.33"/><circle class="cls-6" cx="1562.08" cy="350.67" r="6.33"/><circle class="cls-6" cx="1522.06" cy="378.62" r="3.67"/><circle class="cls-6" cx="1550.78" cy="385.78" r="3.67"/><circle class="cls-6" cx="1566.63" cy="371.05" r="8.97"/><circle class="cls-6" cx="1562.08" cy="394.86" r="7.63"/><circle class="cls-6" cx="1546.28" cy="371.05" r="4.64"/><circle class="cls-6" cx="1507.05" cy="406.6" r="4.64"/><circle class="cls-6" cx="1507.05" cy="388.76" r="2.47"/><circle class="cls-6" cx="1518.66" cy="397.64" r="2.47"/><circle class="cls-6" cx="1545.21" cy="349.62" r="2.47"/><circle class="cls-6" cx="1527.79" cy="360.57" r="2.47"/><circle class="cls-6" cx="1575.72" cy="350.67" r="2.47"/><circle class="cls-6" cx="1545.21" cy="409.82" r="6.71"/><path class="cls-3" d="m1920,407.3v42.7H0v-42.7h1346.67c1.97,7.32,4.93,14.4,8.92,21.09l4.19-2.5,31.17-18.59h529.05Z"/><circle class="cls-11" cx="1283.72" cy="303.54" r="53.75"/><path class="cls-1" d="m563.8-.09c-7.73,20.37-27.35,33.97-49.25,33.97-5.06,0-10.06-.72-14.86-2.14l-.16-.04c-15.73-4.66-28.41-16.49-34.24-31.79h-2.24c5.94,16.32,19.36,28.95,36.03,33.84l.15.04c4.95,1.45,10.1,2.18,15.31,2.18,23.04,0,43.64-14.47,51.48-36.06h-2.23Z"/><circle class="cls-9" cx="1828.53" cy="61.49" r="22.69"/><polygon class="cls-1" points="1751.78 -.02 1730.27 21.49 1731.75 22.97 1754.74 -.02 1751.78 -.02"/><polygon class="cls-1" points="1722.38 -.02 1700.86 21.49 1702.34 22.97 1725.33 -.02 1722.38 -.02"/><polygon class="cls-1" points="1692.97 -.02 1671.46 21.49 1672.94 22.97 1695.92 -.02 1692.97 -.02"/><polygon class="cls-1" points="1663.56 -.02 1642.05 21.49 1643.53 22.97 1666.51 -.02 1663.56 -.02"/><polygon class="cls-1" points="1634.16 -.02 1612.65 21.49 1614.12 22.97 1637.11 -.02 1634.16 -.02"/><polygon class="cls-1" points="1604.75 -.02 1583.24 21.49 1584.72 22.97 1607.7 -.02 1604.75 -.02"/><line class="cls-11" x1="894.54" y1="317.73" x2="850.08" y2="362.19"/><line class="cls-11" x1="865.14" y1="317.73" x2="820.68" y2="362.19"/><line class="cls-11" x1="835.73" y1="317.73" x2="791.27" y2="362.19"/><line class="cls-11" x1="806.32" y1="317.73" x2="761.86" y2="362.19"/><line class="cls-11" x1="776.92" y1="317.73" x2="732.46" y2="362.19"/><line class="cls-11" x1="747.51" y1="317.73" x2="703.05" y2="362.19"/><rect class="cls-1" x="64.83" y="44.86" width="62.88" height="2.09" transform="translate(-4.26 81.52) rotate(-45)"/><rect class="cls-1" x="35.43" y="44.86" width="62.88" height="2.09" transform="translate(-12.88 60.73) rotate(-45)"/><rect class="cls-1" x="6.02" y="44.86" width="62.88" height="2.09" transform="translate(-21.49 39.93) rotate(-45)"/><polygon class="cls-1" points="-.02 55.46 31.02 24.41 29.54 22.94 -.02 52.5 -.02 55.46"/></g></svg>