<?xml version="1.0" encoding="UTF-8"?><svg id="Warstwa_1" xmlns="http://www.w3.org/2000/svg" viewBox="0 0 512 512"><defs><style>.cls-1{fill:#677687;}.cls-2{fill:#fff;}.cls-3{fill:#e6cb02;}.cls-4{fill:#fcee21;}.cls-5{fill:#9e6e15;}.cls-6{fill:#ccc;}.cls-7{fill:#6dab0a;}.cls-8{fill:#529125;}.cls-9{fill:#3b8de9;}.cls-10{fill:#3baee9;}.cls-11{fill:#7a5201;}.cls-12{fill:#75868f;}.cls-13{fill:#4d4d4d;}.cls-14{fill:#d3d3d3;fill-rule:evenodd;}</style></defs><path class="cls-3" d="m387.35,94.08h94.99c1.52,0,2.75,1.23,2.75,2.75v9.13h-100.49v-9.13c0-1.52,1.23-2.75,2.75-2.75Z"/><path class="cls-6" d="m477.63,301.91h11.83c.98,0,1.78.8,1.78,1.78v9.49h-15.4v-9.49c0-.98.8-1.78,1.78-1.78Z" transform="translate(791.09 -176) rotate(90)"/><polygon class="cls-4" points="370.3 117.13 370.3 145.74 394.57 307.54 475.06 307.54 499.33 145.74 499.33 117.13 370.3 117.13"/><path class="cls-4" d="m373.37,103.85h122.94c1.7,0,3.08,1.38,3.08,3.08v10.21h-129.09v-10.21c0-1.7,1.38-3.08,3.08-3.08Z"/><rect class="cls-3" x="370.3" y="117.13" width="129.04" height="28.61"/><path class="cls-2" d="m466.31,233.35c1.02-1.12,1.97-2.3,2.86-3.52,12.94-17.91,8.9-42.99-9.01-55.93-.6-.43-1.22-.85-1.84-1.25l4.65,7.73c.94,1.63,1.08,3.63.36,5.36-.75,1.8-2.33,3.11-4.23,3.53l-8.95,2.07c6.66,5.96,8.6,15.66,4.74,23.7l-1.5-2.38c-.29-.47-.83-.74-1.37-.68-.56.04-1.03.4-1.23.91l-9.61,23.77c-.19.43-.15.93.1,1.33.25.4.67.65,1.15.69l25.58,1.79h.1c.52,0,.99-.27,1.25-.71.29-.46.28-1.05-.01-1.52l-3.05-4.89Z"/><path class="cls-14" d="m453.26,192.6c-.2.23-.55.26-.79.06-.23-.2-.26-.55-.06-.79.2-.23.55-.26.79-.06.23.2.26.55.06.79Z"/><path class="cls-14" d="m464.86,181.1c-.2.23-.55.26-.79.06-.23-.2-.26-.55-.06-.79.2-.23.55-.26.78-.06.23.2.26.55.06.79Z"/><path class="cls-14" d="m462.28,177.6c-.2.23-.55.26-.78.06-.23-.2-.26-.55-.06-.79.2-.23.55-.26.79-.06.23.2.26.55.06.79Z"/><path class="cls-14" d="m459.67,191.72c-.2.23-.55.26-.79.06-.23-.2-.26-.55-.06-.79.2-.23.55-.26.79-.06.23.2.26.55.06.79Z"/><path class="cls-14" d="m454.8,195.82c-.09.11-.25.12-.36.03-.11-.09-.12-.25-.03-.36.09-.11.25-.12.36-.03.11.09.12.25.03.36Z"/><path class="cls-14" d="m461.94,188.73c-.09.11-.25.12-.36.03-.11-.09-.12-.25-.03-.36.09-.11.25-.12.36-.03.11.09.12.25.03.36Z"/><path class="cls-14" d="m465.19,183.36c-.09.11-.25.12-.36.03-.11-.09-.12-.25-.03-.36.09-.11.25-.12.36-.03.11.09.12.25.03.36Z"/><path class="cls-14" d="m460.83,174.59c-.09.11-.25.12-.36.03-.11-.09-.12-.25-.03-.36.03-.03.06-.06.1-.07.12.09.23.17.35.26,0,.05-.02.11-.06.15Z"/><path class="cls-14" d="m466.95,184.67c-.2.23-.55.26-.79.06-.23-.2-.26-.55-.06-.79.2-.23.55-.26.79-.06.23.2.26.55.06.79Z"/><path class="cls-14" d="m468.08,181.47c-.36.25-.85.23-1.19-.06-.41-.35-.45-.97-.1-1.37.02-.02.03-.04.05-.05.43.49.84.99,1.24,1.49Z"/><path class="cls-14" d="m458.13,195.18c-.2.23-.55.26-.79.06-.23-.2-.26-.55-.06-.79.2-.23.55-.26.79-.06.23.2.26.55.06.79Z"/><path class="cls-14" d="m461.74,194.22c-.2.23-.55.26-.79.06-.23-.2-.26-.55-.06-.79.2-.23.55-.26.79-.06s.26.55.06.79Z"/><path class="cls-14" d="m470,184.1c-.2.2-.53.22-.75.02-.23-.2-.26-.55-.06-.79.06-.06.12-.11.19-.14.21.3.42.6.62.9Z"/><path class="cls-14" d="m464.54,189.85c-.2.23-.55.26-.79.06-.23-.2-.26-.55-.06-.79.2-.23.55-.26.78-.06.23.2.26.55.06.79Z"/><path class="cls-14" d="m457.21,192.18c-.2.23-.55.26-.79.06-.23-.2-.26-.55-.06-.79.2-.23.55-.26.79-.06.23.2.26.55.06.79Z"/><path class="cls-14" d="m464.43,177.55c-.09.11-.25.12-.36.03-.11-.09-.12-.25-.03-.36.02-.02.04-.04.07-.06.12.11.23.23.35.34,0,.02-.02.04-.04.05Z"/><path class="cls-14" d="m463.6,192.11c-.09.11-.25.12-.36.03-.11-.09-.12-.25-.03-.36.09-.11.25-.12.36-.03.11.09.12.25.03.36Z"/><path class="cls-14" d="m466.58,187.82c-.09.11-.25.12-.36.03-.11-.09-.12-.25-.03-.36.09-.11.25-.12.36-.03.11.09.12.25.03.36Z"/><path class="cls-14" d="m456.83,197.77c-.09.11-.25.12-.36.03-.11-.09-.12-.25-.03-.36.09-.11.25-.12.36-.03.11.09.12.25.03.36Z"/><path class="cls-14" d="m464.31,187.56c-.28.32-.76.36-1.08.08-.32-.28-.35-.76-.08-1.08.28-.32.76-.35,1.08-.08.32.28.36.76.08,1.08Z"/><path class="cls-2" d="m450.85,243.82c-17.69,6.73-38.26.1-48.45-16.63-.78-1.29-1.49-2.63-2.13-4l-5.69.91c-.54.08-1.1-.13-1.4-.58-.31-.42-.38-.96-.18-1.43l.04-.1,11.58-22.88c.23-.42.62-.71,1.08-.79.46-.08.94.08,1.26.42l18.18,18.08c.4.38.54.96.36,1.49-.16.52-.61.91-1.16,1l-2.78.45c4.79,5.41,12.08,7.74,18.96,6.38l-3.55,8.79c-.75,1.79-.58,3.83.46,5.49,1.02,1.6,2.69,2.61,4.59,2.78l8.81.62Z"/><path class="cls-2" d="m459.14,184c-.18.43-.57.75-1.03.85l-24.98,5.78c-.53.13-1.1-.06-1.45-.49-.35-.42-.45-1.01-.23-1.52l1.1-2.59c-8.13,1.35-14.58,7.56-16.35,15.49l-6.01-5.97c-1.12-1.14-2.66-1.78-4.25-1.78-.33,0-.66.03-.98.08-1.87.32-3.46,1.47-4.35,3.16l-4.77,9.43c-.01-.37-.01-.73,0-1.1.32-22.09,18.54-39.8,40.63-39.48,1.51.03,3.02.13,4.52.32l2.26-5.31c.21-.5.69-.85,1.24-.88.51-.05,1.01.19,1.3.62l.06.08,13.21,21.97c.24.41.28.9.1,1.34Z"/><path class="cls-14" d="m404.54,190.62c-.32.37-.87.41-1.24.09-.37-.32-.41-.88-.09-1.24.32-.37.88-.41,1.24-.09.37.32.41.88.09,1.24Z"/><path class="cls-14" d="m396.64,203.14c-.19.22-.47.3-.74.25.03-.51.07-1.01.12-1.52.19,0,.38.05.53.19.32.28.35.76.08,1.08Z"/><path class="cls-14" d="m399.23,195.45c-.28.32-.76.36-1.08.08-.32-.28-.36-.76-.08-1.08.28-.32.76-.36,1.08-.08s.36.76.08,1.08Z"/><path class="cls-14" d="m406.86,193.02c-.28.32-.76.35-1.08.08-.32-.28-.36-.76-.08-1.08.28-.32.76-.36,1.08-.08.32.28.36.76.08,1.08Z"/><path class="cls-14" d="m413.27,193.68c-.2.23-.55.26-.79.06-.23-.2-.26-.55-.06-.79.2-.23.55-.26.79-.06.23.2.26.55.06.79Z"/><path class="cls-14" d="m401.16,190.02c-.2.23-.55.26-.79.06-.23-.2-.26-.55-.06-.79.2-.23.55-.26.78-.06.23.2.26.55.06.79Z"/><path class="cls-14" d="m400.6,192.53c-.2.23-.55.26-.79.06-.23-.2-.26-.55-.06-.79.2-.23.55-.26.79-.06.23.2.26.55.06.79Z"/><path class="cls-14" d="m417.01,198.8c-.17.05-.37.01-.51-.11-.23-.2-.26-.55-.06-.79.2-.23.55-.26.79-.06.05.04.09.09.12.14-.12.27-.23.54-.33.82Z"/><path class="cls-14" d="m401.49,194.58c-.09.11-.25.12-.36.03-.11-.09-.12-.25-.03-.36.09-.11.25-.12.36-.03.11.09.12.25.03.36Z"/><path class="cls-14" d="m413.92,198.83c-.09.11-.25.12-.36.03-.11-.09-.12-.25-.03-.36.09-.11.25-.12.36-.03.11.09.12.25.03.36Z"/><path class="cls-14" d="m418.95,193.78c-.09.11-.25.12-.36.03-.11-.09-.12-.25-.03-.36.09-.11.25-.12.36-.03.11.09.12.25.03.36Z"/><path class="cls-14" d="m410.84,188.74c-.09.11-.25.12-.36.03-.11-.09-.12-.25-.03-.36.09-.11.25-.12.36-.03.11.09.12.25.03.36Z"/><path class="cls-14" d="m409.09,193.13c-.09.11-.25.12-.36.03-.11-.09-.12-.25-.03-.36.09-.11.25-.12.36-.03.11.09.12.25.03.36Z"/><path class="cls-14" d="m402.86,192.33c-.09.11-.25.12-.36.03-.11-.09-.12-.25-.03-.36s.25-.12.36-.03c.11.09.12.25.03.36Z"/><path class="cls-14" d="m412.82,191.04c-.25.29-.69.32-.99.07-.29-.25-.32-.69-.07-.99.25-.29.69-.32.99-.07.29.25.32.69.07.99Z"/><path class="cls-14" d="m412.81,196.73c-.35.41-.97.45-1.38.1-.41-.35-.45-.97-.1-1.37.35-.41.97-.45,1.38-.1.41.35.45.97.1,1.37Z"/><path class="cls-14" d="m398.17,198.37c-.35.41-.97.45-1.38.1-.1-.08-.17-.18-.23-.29.08-.41.17-.81.26-1.21.36-.29.88-.29,1.24.03.41.35.45.97.1,1.37Z"/><path class="cls-14" d="m416.67,191.5c-.2.23-.55.26-.79.06-.23-.2-.26-.55-.06-.79.2-.23.55-.26.79-.06.23.2.26.55.06.79Z"/><path class="cls-14" d="m416.1,195.18c-.2.23-.55.26-.79.06-.23-.2-.26-.55-.06-.79.2-.23.55-.26.79-.06.23.2.26.55.06.79Z"/><path class="cls-14" d="m409.56,191.27c-.09.11-.25.12-.36.03-.11-.09-.12-.25-.03-.36.09-.11.25-.12.36-.03.11.09.12.25.03.36Z"/><path class="cls-14" d="m406.54,188.91c-.09.11-.25.12-.36.03-.11-.09-.12-.25-.03-.36.09-.11.25-.12.36-.03.11.09.12.25.03.36Z"/><path class="cls-14" d="m403.44,187.95c-.09.11-.25.12-.36.03-.11-.09-.12-.25-.03-.36.09-.11.25-.12.36-.03.11.09.12.25.03.36Z"/><path class="cls-14" d="m435.53,238.98c-.5.58-1.38.65-1.96.14-.58-.5-.65-1.38-.14-1.96s1.38-.65,1.96-.14c.58.5.65,1.38.14,1.96Z"/><path class="cls-14" d="m438.17,230.02c-.32.37-.87.41-1.24.09-.37-.32-.41-.87-.09-1.24.32-.37.87-.41,1.24-.09.37.32.41.88.09,1.24Z"/><path class="cls-14" d="m442.24,244.88c-.28.32-.76.36-1.08.08-.32-.28-.35-.76-.08-1.08.28-.32.76-.35,1.08-.08.32.28.35.76.08,1.08Z"/><path class="cls-14" d="m428.96,241.47c-.28.32-.76.36-1.08.08-.32-.28-.35-.76-.08-1.08.28-.32.76-.36,1.08-.08.32.28.36.76.08,1.08Z"/><path class="cls-14" d="m436.46,231.95c-.28.32-.76.35-1.08.08-.32-.28-.35-.76-.08-1.08.28-.32.76-.36,1.08-.08.32.28.35.76.08,1.08Z"/><path class="cls-14" d="m433.61,230.77c-.28.32-.76.36-1.08.08-.32-.28-.36-.76-.08-1.08.28-.32.76-.35,1.08-.08s.36.76.08,1.08Z"/><path class="cls-14" d="m437.59,242.38c-.28.32-.76.35-1.08.08-.32-.28-.36-.76-.08-1.08.28-.32.76-.36,1.08-.08.32.28.36.76.08,1.08Z"/><path class="cls-14" d="m445.83,244.74c-.2.23-.55.26-.79.06-.23-.2-.26-.55-.06-.79.2-.23.55-.26.79-.06.23.2.26.55.06.79Z"/><path class="cls-14" d="m434.59,234.65c-.38.44-1.05.49-1.49.11-.44-.38-.49-1.05-.11-1.49.38-.44,1.05-.49,1.49-.11.44.38.49,1.05.11,1.49Z"/><path class="cls-14" d="m429.7,234.66c-.2.23-.55.26-.79.06-.23-.2-.26-.55-.06-.79.2-.23.55-.26.79-.06.23.2.26.55.06.79Z"/><path class="cls-14" d="m433.57,241.68c-.2.23-.55.26-.79.06-.23-.2-.26-.55-.06-.79.2-.23.55-.26.79-.06.23.2.26.55.06.79Z"/><path class="cls-14" d="m437.43,245.94c-.2.23-.55.26-.78.06-.23-.2-.26-.55-.06-.79.2-.23.55-.26.79-.06.23.2.26.55.06.79Z"/><path class="cls-14" d="m441.16,246.16c.28-.22.67-.27.99-.12-.33.05-.66.09-.99.12Z"/><path class="cls-14" d="m448,244.78s.03-.09.06-.13c.09-.11.25-.12.36-.03,0,0,.02.01.02.02-.15.05-.3.09-.44.13Z"/><path class="cls-14" d="m434.92,227.17c-.09.11-.25.12-.36.03-.11-.09-.12-.25-.03-.36.09-.11.25-.12.36-.03.11.09.12.25.03.36Z"/><path class="cls-14" d="m430.21,228.49c-.09.11-.25.12-.36.03-.11-.09-.12-.25-.03-.36.09-.11.25-.12.36-.03.11.09.12.25.03.36Z"/><path class="cls-14" d="m431.41,237.98c-.09.11-.25.12-.36.03-.11-.09-.12-.25-.03-.36.09-.11.25-.12.36-.03.11.09.12.25.03.36Z"/><path class="cls-14" d="m435.24,240.71c-.09.11-.25.12-.36.03-.11-.09-.12-.25-.03-.36.09-.11.25-.12.36-.03.11.09.12.25.03.36Z"/><path class="cls-14" d="m435.35,244.37c-.09.11-.25.12-.36.03-.11-.09-.12-.25-.03-.36.09-.11.25-.12.36-.03.11.09.12.25.03.36Z"/><path class="cls-14" d="m438,227.18c-.35.41-.97.45-1.37.1-.23-.2-.34-.48-.34-.76.65.01,1.3,0,1.95-.06.02.25-.06.51-.23.72Z"/><path class="cls-14" d="m429.3,231.67c-.35.41-.97.45-1.37.1-.41-.35-.45-.97-.1-1.37.35-.41.97-.45,1.37-.1.41.35.45.97.1,1.37Z"/><path class="cls-14" d="m431.71,244.28c-.35.41-.97.45-1.37.1-.41-.35-.45-.97-.1-1.37.35-.41.97-.45,1.37-.1.41.35.45.97.1,1.37Z"/><path class="cls-14" d="m426.35,236.48c-.2.23-.55.26-.79.06-.23-.2-.26-.55-.06-.79.2-.23.55-.26.79-.06.23.2.26.55.06.79Z"/><path class="cls-14" d="m432.76,236.71c-.2.23-.55.26-.78.06-.23-.2-.26-.55-.06-.79.2-.23.55-.26.79-.06.23.2.26.55.06.79Z"/><path class="cls-14" d="m439.84,245.93c-.28.32-.76.36-1.08.08-.32-.28-.35-.76-.08-1.08.28-.32.76-.36,1.08-.08.32.28.35.76.08,1.08Z"/><rect class="cls-13" x="456.41" y="301.6" width="48.72" height="11.89" rx="1.38" ry="1.38" transform="translate(788.32 -173.23) rotate(90)"/><path class="cls-6" d="m380.43,301.91h15.4v9.49c0,.98-.8,1.78-1.78,1.78h-11.83c-.98,0-1.78-.8-1.78-1.78v-9.49h0Z" transform="translate(695.67 -80.58) rotate(90)"/><rect class="cls-13" x="366.54" y="301.6" width="48.72" height="11.89" rx="1.38" ry="1.38" transform="translate(698.44 -83.35) rotate(90)"/><path class="cls-11" d="m29.66,94.08h94.99c1.52,0,2.75,1.23,2.75,2.75v9.13H26.91v-9.13c0-1.52,1.23-2.75,2.75-2.75Z"/><path class="cls-6" d="m119.94,301.91h11.83c.98,0,1.78.8,1.78,1.78v9.49h-15.4v-9.49c0-.98.8-1.78,1.78-1.78Z" transform="translate(433.4 181.69) rotate(90)"/><polygon class="cls-5" points="12.61 117.13 12.61 145.74 36.88 307.54 117.38 307.54 141.65 145.74 141.65 117.13 12.61 117.13"/><path class="cls-5" d="m15.69,103.85h122.94c1.7,0,3.08,1.38,3.08,3.08v10.21H12.61v-10.21c0-1.7,1.38-3.08,3.08-3.08Z"/><rect class="cls-11" x="12.61" y="117.13" width="129.04" height="28.61"/><path class="cls-2" d="m108.62,233.35c1.02-1.12,1.97-2.3,2.86-3.52,12.94-17.91,8.9-42.99-9.01-55.93-.6-.43-1.22-.85-1.84-1.25l4.65,7.73c.94,1.63,1.08,3.63.36,5.36-.75,1.8-2.33,3.11-4.23,3.53l-8.95,2.07c6.66,5.96,8.6,15.66,4.74,23.7l-1.5-2.38c-.29-.47-.83-.74-1.37-.68-.56.04-1.03.4-1.23.91l-9.61,23.77c-.19.43-.15.93.1,1.33.25.4.67.65,1.15.69l25.58,1.79h.1c.52,0,.99-.27,1.25-.71.29-.46.28-1.05-.01-1.52l-3.05-4.89Z"/><path class="cls-14" d="m95.58,192.6c-.2.23-.55.26-.79.06-.23-.2-.26-.55-.06-.79.2-.23.55-.26.79-.06.23.2.26.55.06.79Z"/><path class="cls-14" d="m107.18,181.1c-.2.23-.55.26-.79.06-.23-.2-.26-.55-.06-.79.2-.23.55-.26.78-.06.23.2.26.55.06.79Z"/><path class="cls-14" d="m104.59,177.6c-.2.23-.55.26-.78.06-.23-.2-.26-.55-.06-.79.2-.23.55-.26.79-.06.23.2.26.55.06.79Z"/><path class="cls-14" d="m101.99,191.72c-.2.23-.55.26-.79.06-.23-.2-.26-.55-.06-.79.2-.23.55-.26.79-.06.23.2.26.55.06.79Z"/><path class="cls-14" d="m97.11,195.82c-.09.11-.25.12-.36.03-.11-.09-.12-.25-.03-.36.09-.11.25-.12.36-.03.11.09.12.25.03.36Z"/><path class="cls-14" d="m104.26,188.73c-.09.11-.25.12-.36.03-.11-.09-.12-.25-.03-.36.09-.11.25-.12.36-.03.11.09.12.25.03.36Z"/><path class="cls-14" d="m107.51,183.36c-.09.11-.25.12-.36.03-.11-.09-.12-.25-.03-.36.09-.11.25-.12.36-.03.11.09.12.25.03.36Z"/><path class="cls-14" d="m103.15,174.59c-.09.11-.25.12-.36.03-.11-.09-.12-.25-.03-.36.03-.03.06-.06.1-.07.12.09.23.17.35.26,0,.05-.02.11-.06.15Z"/><path class="cls-14" d="m109.27,184.67c-.2.23-.55.26-.79.06-.23-.2-.26-.55-.06-.79.2-.23.55-.26.79-.06.23.2.26.55.06.79Z"/><path class="cls-14" d="m110.4,181.47c-.36.25-.85.23-1.19-.06-.41-.35-.45-.97-.1-1.37.02-.02.03-.04.05-.05.43.49.84.99,1.24,1.49Z"/><path class="cls-14" d="m100.45,195.18c-.2.23-.55.26-.79.06-.23-.2-.26-.55-.06-.79.2-.23.55-.26.79-.06.23.2.26.55.06.79Z"/><path class="cls-14" d="m104.06,194.22c-.2.23-.55.26-.79.06-.23-.2-.26-.55-.06-.79.2-.23.55-.26.79-.06s.26.55.06.79Z"/><path class="cls-14" d="m112.31,184.1c-.2.2-.53.22-.75.02-.23-.2-.26-.55-.06-.79.06-.06.12-.11.19-.14.21.3.42.6.62.9Z"/><path class="cls-14" d="m106.85,189.85c-.2.23-.55.26-.79.06-.23-.2-.26-.55-.06-.79.2-.23.55-.26.78-.06.23.2.26.55.06.79Z"/><path class="cls-14" d="m99.53,192.18c-.2.23-.55.26-.79.06-.23-.2-.26-.55-.06-.79.2-.23.55-.26.79-.06.23.2.26.55.06.79Z"/><path class="cls-14" d="m106.75,177.55c-.09.11-.25.12-.36.03-.11-.09-.12-.25-.03-.36.02-.02.04-.04.07-.06.12.11.23.23.35.34,0,.02-.02.04-.04.05Z"/><path class="cls-14" d="m105.92,192.11c-.09.11-.25.12-.36.03-.11-.09-.12-.25-.03-.36.09-.11.25-.12.36-.03.11.09.12.25.03.36Z"/><path class="cls-14" d="m108.89,187.82c-.09.11-.25.12-.36.03-.11-.09-.12-.25-.03-.36.09-.11.25-.12.36-.03.11.09.12.25.03.36Z"/><path class="cls-14" d="m99.15,197.77c-.09.11-.25.12-.36.03-.11-.09-.12-.25-.03-.36.09-.11.25-.12.36-.03.11.09.12.25.03.36Z"/><path class="cls-14" d="m106.63,187.56c-.28.32-.76.36-1.08.08-.32-.28-.35-.76-.08-1.08.28-.32.76-.35,1.08-.08.32.28.36.76.08,1.08Z"/><path class="cls-2" d="m93.16,243.82c-17.69,6.73-38.26.1-48.45-16.63-.78-1.29-1.49-2.63-2.13-4l-5.69.91c-.54.08-1.1-.13-1.4-.58-.31-.42-.38-.96-.18-1.43l.04-.1,11.58-22.88c.23-.42.62-.71,1.08-.79.46-.08.94.08,1.26.42l18.18,18.08c.4.38.54.96.36,1.49-.16.52-.61.91-1.16,1l-2.78.45c4.79,5.41,12.08,7.74,18.96,6.38l-3.55,8.79c-.75,1.79-.58,3.83.46,5.49,1.02,1.6,2.69,2.61,4.59,2.78l8.81.62Z"/><path class="cls-2" d="m101.45,184c-.18.43-.57.75-1.03.85l-24.98,5.78c-.53.13-1.1-.06-1.45-.49-.35-.42-.45-1.01-.23-1.52l1.1-2.59c-8.13,1.35-14.58,7.56-16.35,15.49l-6.01-5.97c-1.12-1.14-2.66-1.78-4.25-1.78-.33,0-.66.03-.98.08-1.87.32-3.46,1.47-4.35,3.16l-4.77,9.43c-.01-.37-.01-.73,0-1.1.32-22.09,18.54-39.8,40.63-39.48,1.51.03,3.02.13,4.52.32l2.26-5.31c.21-.5.69-.85,1.24-.88.51-.05,1.01.19,1.3.62l.06.08,13.21,21.97c.24.41.28.9.1,1.34Z"/><path class="cls-14" d="m46.86,190.62c-.32.37-.87.41-1.24.09-.37-.32-.41-.88-.09-1.24.32-.37.88-.41,1.24-.09.37.32.41.88.09,1.24Z"/><path class="cls-14" d="m38.95,203.14c-.19.22-.47.3-.74.25.03-.51.07-1.01.12-1.52.19,0,.38.05.53.19.32.28.35.76.08,1.08Z"/><path class="cls-14" d="m41.55,195.45c-.28.32-.76.36-1.08.08-.32-.28-.36-.76-.08-1.08.28-.32.76-.36,1.08-.08s.36.76.08,1.08Z"/><path class="cls-14" d="m49.17,193.02c-.28.32-.76.35-1.08.08-.32-.28-.36-.76-.08-1.08.28-.32.76-.36,1.08-.08.32.28.36.76.08,1.08Z"/><path class="cls-14" d="m55.59,193.68c-.2.23-.55.26-.79.06-.23-.2-.26-.55-.06-.79.2-.23.55-.26.79-.06.23.2.26.55.06.79Z"/><path class="cls-14" d="m43.48,190.02c-.2.23-.55.26-.79.06-.23-.2-.26-.55-.06-.79.2-.23.55-.26.78-.06.23.2.26.55.06.79Z"/><path class="cls-14" d="m42.92,192.53c-.2.23-.55.26-.79.06-.23-.2-.26-.55-.06-.79.2-.23.55-.26.79-.06.23.2.26.55.06.79Z"/><path class="cls-14" d="m59.33,198.8c-.17.05-.37.01-.51-.11-.23-.2-.26-.55-.06-.79.2-.23.55-.26.79-.06.05.04.09.09.12.14-.12.27-.23.54-.33.82Z"/><path class="cls-14" d="m43.8,194.58c-.09.11-.25.12-.36.03-.11-.09-.12-.25-.03-.36.09-.11.25-.12.36-.03.11.09.12.25.03.36Z"/><path class="cls-14" d="m56.24,198.83c-.09.11-.25.12-.36.03-.11-.09-.12-.25-.03-.36.09-.11.25-.12.36-.03.11.09.12.25.03.36Z"/><path class="cls-14" d="m61.26,193.78c-.09.11-.25.12-.36.03-.11-.09-.12-.25-.03-.36.09-.11.25-.12.36-.03.11.09.12.25.03.36Z"/><path class="cls-14" d="m53.16,188.74c-.09.11-.25.12-.36.03-.11-.09-.12-.25-.03-.36.09-.11.25-.12.36-.03.11.09.12.25.03.36Z"/><path class="cls-14" d="m51.41,193.13c-.09.11-.25.12-.36.03-.11-.09-.12-.25-.03-.36.09-.11.25-.12.36-.03.11.09.12.25.03.36Z"/><path class="cls-14" d="m45.18,192.33c-.09.11-.25.12-.36.03-.11-.09-.12-.25-.03-.36s.25-.12.36-.03c.11.09.12.25.03.36Z"/><path class="cls-14" d="m55.14,191.04c-.25.29-.69.32-.99.07-.29-.25-.32-.69-.07-.99.25-.29.69-.32.99-.07.29.25.32.69.07.99Z"/><path class="cls-14" d="m55.13,196.73c-.35.41-.97.45-1.38.1-.41-.35-.45-.97-.1-1.37.35-.41.97-.45,1.38-.1.41.35.45.97.1,1.37Z"/><path class="cls-14" d="m40.49,198.37c-.35.41-.97.45-1.38.1-.1-.08-.17-.18-.23-.29.08-.41.17-.81.26-1.21.36-.29.88-.29,1.24.03.41.35.45.97.1,1.37Z"/><path class="cls-14" d="m58.99,191.5c-.2.23-.55.26-.79.06-.23-.2-.26-.55-.06-.79.2-.23.55-.26.79-.06.23.2.26.55.06.79Z"/><path class="cls-14" d="m58.42,195.18c-.2.23-.55.26-.79.06-.23-.2-.26-.55-.06-.79.2-.23.55-.26.79-.06.23.2.26.55.06.79Z"/><path class="cls-14" d="m51.87,191.27c-.09.11-.25.12-.36.03-.11-.09-.12-.25-.03-.36.09-.11.25-.12.36-.03.11.09.12.25.03.36Z"/><path class="cls-14" d="m48.85,188.91c-.09.11-.25.12-.36.03-.11-.09-.12-.25-.03-.36.09-.11.25-.12.36-.03.11.09.12.25.03.36Z"/><path class="cls-14" d="m45.76,187.95c-.09.11-.25.12-.36.03-.11-.09-.12-.25-.03-.36.09-.11.25-.12.36-.03.11.09.12.25.03.36Z"/><path class="cls-14" d="m77.84,238.98c-.5.58-1.38.65-1.96.14-.58-.5-.65-1.38-.14-1.96s1.38-.65,1.96-.14c.58.5.65,1.38.14,1.96Z"/><path class="cls-14" d="m80.49,230.02c-.32.37-.87.41-1.24.09-.37-.32-.41-.87-.09-1.24.32-.37.87-.41,1.24-.09.37.32.41.88.09,1.24Z"/><path class="cls-14" d="m84.56,244.88c-.28.32-.76.36-1.08.08-.32-.28-.35-.76-.08-1.08.28-.32.76-.35,1.08-.08.32.28.35.76.08,1.08Z"/><path class="cls-14" d="m71.28,241.47c-.28.32-.76.36-1.08.08-.32-.28-.35-.76-.08-1.08.28-.32.76-.36,1.08-.08.32.28.36.76.08,1.08Z"/><path class="cls-14" d="m78.78,231.95c-.28.32-.76.35-1.08.08-.32-.28-.35-.76-.08-1.08.28-.32.76-.36,1.08-.08.32.28.35.76.08,1.08Z"/><path class="cls-14" d="m75.93,230.77c-.28.32-.76.36-1.08.08-.32-.28-.36-.76-.08-1.08.28-.32.76-.35,1.08-.08s.36.76.08,1.08Z"/><path class="cls-14" d="m79.9,242.38c-.28.32-.76.35-1.08.08-.32-.28-.36-.76-.08-1.08.28-.32.76-.36,1.08-.08.32.28.36.76.08,1.08Z"/><path class="cls-14" d="m88.15,244.74c-.2.23-.55.26-.79.06-.23-.2-.26-.55-.06-.79.2-.23.55-.26.79-.06.23.2.26.55.06.79Z"/><path class="cls-14" d="m76.91,234.65c-.38.44-1.05.49-1.49.11-.44-.38-.49-1.05-.11-1.49.38-.44,1.05-.49,1.49-.11.44.38.49,1.05.11,1.49Z"/><path class="cls-14" d="m72.02,234.66c-.2.23-.55.26-.79.06-.23-.2-.26-.55-.06-.79.2-.23.55-.26.79-.06.23.2.26.55.06.79Z"/><path class="cls-14" d="m75.88,241.68c-.2.23-.55.26-.79.06-.23-.2-.26-.55-.06-.79.2-.23.55-.26.79-.06.23.2.26.55.06.79Z"/><path class="cls-14" d="m79.75,245.94c-.2.23-.55.26-.78.06-.23-.2-.26-.55-.06-.79.2-.23.55-.26.79-.06.23.2.26.55.06.79Z"/><path class="cls-14" d="m83.48,246.16c.28-.22.67-.27.99-.12-.33.05-.66.09-.99.12Z"/><path class="cls-14" d="m90.32,244.78s.03-.09.06-.13c.09-.11.25-.12.36-.03,0,0,.02.01.02.02-.15.05-.3.09-.44.13Z"/><path class="cls-14" d="m77.24,227.17c-.09.11-.25.12-.36.03-.11-.09-.12-.25-.03-.36.09-.11.25-.12.36-.03.11.09.12.25.03.36Z"/><path class="cls-14" d="m72.53,228.49c-.09.11-.25.12-.36.03-.11-.09-.12-.25-.03-.36.09-.11.25-.12.36-.03.11.09.12.25.03.36Z"/><path class="cls-14" d="m73.73,237.98c-.09.11-.25.12-.36.03-.11-.09-.12-.25-.03-.36.09-.11.25-.12.36-.03.11.09.12.25.03.36Z"/><path class="cls-14" d="m77.56,240.71c-.09.11-.25.12-.36.03-.11-.09-.12-.25-.03-.36.09-.11.25-.12.36-.03.11.09.12.25.03.36Z"/><path class="cls-14" d="m77.67,244.37c-.09.11-.25.12-.36.03-.11-.09-.12-.25-.03-.36.09-.11.25-.12.36-.03.11.09.12.25.03.36Z"/><path class="cls-14" d="m80.31,227.18c-.35.41-.97.45-1.37.1-.23-.2-.34-.48-.34-.76.65.01,1.3,0,1.95-.06.02.25-.06.51-.23.72Z"/><path class="cls-14" d="m71.62,231.67c-.35.41-.97.45-1.37.1-.41-.35-.45-.97-.1-1.37.35-.41.97-.45,1.37-.1.41.35.45.97.1,1.37Z"/><path class="cls-14" d="m74.02,244.28c-.35.41-.97.45-1.37.1-.41-.35-.45-.97-.1-1.37.35-.41.97-.45,1.37-.1.41.35.45.97.1,1.37Z"/><path class="cls-14" d="m68.67,236.48c-.2.23-.55.26-.79.06-.23-.2-.26-.55-.06-.79.2-.23.55-.26.79-.06.23.2.26.55.06.79Z"/><path class="cls-14" d="m75.08,236.71c-.2.23-.55.26-.78.06-.23-.2-.26-.55-.06-.79.2-.23.55-.26.79-.06.23.2.26.55.06.79Z"/><path class="cls-14" d="m82.16,245.93c-.28.32-.76.36-1.08.08-.32-.28-.35-.76-.08-1.08.28-.32.76-.36,1.08-.08.32.28.35.76.08,1.08Z"/><rect class="cls-13" x="98.73" y="301.6" width="48.72" height="11.89" rx="1.38" ry="1.38" transform="translate(430.63 184.46) rotate(90)"/><path class="cls-6" d="m22.75,301.91h15.4v9.49c0,.98-.8,1.78-1.78,1.78h-11.83c-.98,0-1.78-.8-1.78-1.78v-9.49h0Z" transform="translate(337.99 277.1) rotate(90)"/><rect class="cls-13" x="8.86" y="301.6" width="48.72" height="11.89" rx="1.38" ry="1.38" transform="translate(340.76 274.33) rotate(90)"/><path class="cls-1" d="m298.79,134.76h94.99c1.52,0,2.75,1.23,2.75,2.75v9.13h-100.49v-9.13c0-1.52,1.23-2.75,2.75-2.75Z"/><path class="cls-6" d="m389.06,342.59h11.83c.98,0,1.78.8,1.78,1.78v9.49h-15.4v-9.49c0-.98.8-1.78,1.78-1.78Z" transform="translate(743.2 -46.76) rotate(90)"/><polygon class="cls-12" points="281.73 157.81 281.73 186.42 306 348.22 386.5 348.22 410.77 186.42 410.77 157.81 281.73 157.81"/><path class="cls-12" d="m284.81,144.53h122.94c1.7,0,3.08,1.38,3.08,3.08v10.21h-129.09v-10.21c0-1.7,1.38-3.08,3.08-3.08Z"/><rect class="cls-1" x="281.73" y="157.81" width="129.04" height="28.61"/><path class="cls-2" d="m377.74,274.03c1.02-1.12,1.97-2.3,2.86-3.52,12.94-17.91,8.9-42.99-9.01-55.93-.6-.43-1.22-.85-1.84-1.25l4.65,7.73c.94,1.63,1.08,3.63.36,5.36-.75,1.8-2.33,3.11-4.23,3.53l-8.95,2.07c6.66,5.96,8.6,15.66,4.74,23.7l-1.5-2.38c-.29-.47-.83-.74-1.37-.68-.56.04-1.03.4-1.23.91l-9.61,23.77c-.19.43-.15.93.1,1.33.25.4.67.65,1.15.69l25.58,1.79h.1c.52,0,.99-.27,1.25-.71.29-.46.28-1.05-.01-1.52l-3.05-4.89Z"/><path class="cls-14" d="m364.7,233.28c-.2.23-.55.26-.79.06-.23-.2-.26-.55-.06-.79.2-.23.55-.26.79-.06.23.2.26.55.06.79Z"/><path class="cls-14" d="m376.3,221.78c-.2.23-.55.26-.79.06-.23-.2-.26-.55-.06-.79.2-.23.55-.26.78-.06.23.2.26.55.06.79Z"/><path class="cls-14" d="m373.72,218.28c-.2.23-.55.26-.78.06-.23-.2-.26-.55-.06-.79.2-.23.55-.26.79-.06.23.2.26.55.06.79Z"/><path class="cls-14" d="m371.11,232.4c-.2.23-.55.26-.79.06-.23-.2-.26-.55-.06-.79.2-.23.55-.26.79-.06.23.2.26.55.06.79Z"/><path class="cls-14" d="m366.23,236.5c-.09.11-.25.12-.36.03-.11-.09-.12-.25-.03-.36.09-.11.25-.12.36-.03.11.09.12.25.03.36Z"/><path class="cls-14" d="m373.38,229.41c-.09.11-.25.12-.36.03-.11-.09-.12-.25-.03-.36.09-.11.25-.12.36-.03.11.09.12.25.03.36Z"/><path class="cls-14" d="m376.63,224.04c-.09.11-.25.12-.36.03-.11-.09-.12-.25-.03-.36.09-.11.25-.12.36-.03.11.09.12.25.03.36Z"/><path class="cls-14" d="m372.27,215.27c-.09.11-.25.12-.36.03-.11-.09-.12-.25-.03-.36.03-.03.06-.06.1-.07.12.09.23.17.35.26,0,.05-.02.11-.06.15Z"/><path class="cls-14" d="m378.39,225.35c-.2.23-.55.26-.79.06-.23-.2-.26-.55-.06-.79.2-.23.55-.26.79-.06.23.2.26.55.06.79Z"/><path class="cls-14" d="m379.52,222.15c-.36.25-.85.23-1.19-.06-.41-.35-.45-.97-.1-1.37.02-.02.03-.04.05-.05.43.49.84.99,1.24,1.49Z"/><path class="cls-14" d="m369.57,235.86c-.2.23-.55.26-.79.06-.23-.2-.26-.55-.06-.79.2-.23.55-.26.79-.06.23.2.26.55.06.79Z"/><path class="cls-14" d="m373.18,234.9c-.2.23-.55.26-.79.06-.23-.2-.26-.55-.06-.79.2-.23.55-.26.79-.06s.26.55.06.79Z"/><path class="cls-14" d="m381.43,224.78c-.2.2-.53.22-.75.02-.23-.2-.26-.55-.06-.79.06-.06.12-.11.19-.14.21.3.42.6.62.9Z"/><path class="cls-14" d="m375.97,230.53c-.2.23-.55.26-.79.06-.23-.2-.26-.55-.06-.79.2-.23.55-.26.78-.06.23.2.26.55.06.79Z"/><path class="cls-14" d="m368.65,232.86c-.2.23-.55.26-.79.06-.23-.2-.26-.55-.06-.79.2-.23.55-.26.79-.06.23.2.26.55.06.79Z"/><path class="cls-14" d="m375.87,218.23c-.09.11-.25.12-.36.03-.11-.09-.12-.25-.03-.36.02-.02.04-.04.07-.06.12.11.23.23.35.34,0,.02-.02.04-.04.05Z"/><path class="cls-14" d="m375.04,232.79c-.09.11-.25.12-.36.03-.11-.09-.12-.25-.03-.36.09-.11.25-.12.36-.03.11.09.12.25.03.36Z"/><path class="cls-14" d="m378.02,228.5c-.09.11-.25.12-.36.03-.11-.09-.12-.25-.03-.36.09-.11.25-.12.36-.03.11.09.12.25.03.36Z"/><path class="cls-14" d="m368.27,238.45c-.09.11-.25.12-.36.03-.11-.09-.12-.25-.03-.36.09-.11.25-.12.36-.03.11.09.12.25.03.36Z"/><path class="cls-14" d="m375.75,228.24c-.28.32-.76.36-1.08.08-.32-.28-.35-.76-.08-1.08.28-.32.76-.35,1.08-.08.32.28.36.76.08,1.08Z"/><path class="cls-2" d="m362.29,284.5c-17.69,6.73-38.26.1-48.45-16.63-.78-1.29-1.49-2.63-2.13-4l-5.69.91c-.54.08-1.1-.13-1.4-.58-.31-.42-.38-.96-.18-1.43l.04-.1,11.58-22.88c.23-.42.62-.71,1.08-.79.46-.08.94.08,1.26.42l18.18,18.08c.4.38.54.96.36,1.49-.16.52-.61.91-1.16,1l-2.78.45c4.79,5.41,12.08,7.74,18.96,6.38l-3.55,8.79c-.75,1.79-.58,3.83.46,5.49,1.02,1.6,2.69,2.61,4.59,2.78l8.81.62Z"/><path class="cls-2" d="m370.57,224.68c-.18.43-.57.75-1.03.85l-24.98,5.78c-.53.13-1.1-.06-1.45-.49-.35-.42-.45-1.01-.23-1.52l1.1-2.59c-8.13,1.35-14.58,7.56-16.35,15.49l-6.01-5.97c-1.12-1.14-2.66-1.78-4.25-1.78-.33,0-.66.03-.98.08-1.87.32-3.46,1.47-4.35,3.16l-4.77,9.43c-.01-.37-.01-.73,0-1.1.32-22.09,18.54-39.8,40.63-39.48,1.51.03,3.02.13,4.52.32l2.26-5.31c.21-.5.69-.85,1.24-.88.51-.05,1.01.19,1.3.62l.06.08,13.21,21.97c.24.41.28.9.1,1.34Z"/><path class="cls-14" d="m315.98,231.3c-.32.37-.87.41-1.24.09-.37-.32-.41-.88-.09-1.24.32-.37.88-.41,1.24-.09.37.32.41.88.09,1.24Z"/><path class="cls-14" d="m308.07,243.82c-.19.22-.47.3-.74.25.03-.51.07-1.01.12-1.52.19,0,.38.05.53.19.32.28.35.76.08,1.08Z"/><path class="cls-14" d="m310.67,236.12c-.28.32-.76.36-1.08.08-.32-.28-.36-.76-.08-1.08.28-.32.76-.36,1.08-.08s.36.76.08,1.08Z"/><path class="cls-14" d="m318.29,233.7c-.28.32-.76.35-1.08.08-.32-.28-.36-.76-.08-1.08.28-.32.76-.36,1.08-.08.32.28.36.76.08,1.08Z"/><path class="cls-14" d="m324.71,234.36c-.2.23-.55.26-.79.06-.23-.2-.26-.55-.06-.79.2-.23.55-.26.79-.06.23.2.26.55.06.79Z"/><path class="cls-14" d="m312.6,230.7c-.2.23-.55.26-.79.06-.23-.2-.26-.55-.06-.79.2-.23.55-.26.78-.06.23.2.26.55.06.79Z"/><path class="cls-14" d="m312.04,233.21c-.2.23-.55.26-.79.06-.23-.2-.26-.55-.06-.79.2-.23.55-.26.79-.06.23.2.26.55.06.79Z"/><path class="cls-14" d="m328.45,239.48c-.17.05-.37.01-.51-.11-.23-.2-.26-.55-.06-.79.2-.23.55-.26.79-.06.05.04.09.09.12.14-.12.27-.23.54-.33.82Z"/><path class="cls-14" d="m312.93,235.26c-.09.11-.25.12-.36.03-.11-.09-.12-.25-.03-.36.09-.11.25-.12.36-.03.11.09.12.25.03.36Z"/><path class="cls-14" d="m325.36,239.51c-.09.11-.25.12-.36.03-.11-.09-.12-.25-.03-.36.09-.11.25-.12.36-.03.11.09.12.25.03.36Z"/><path class="cls-14" d="m330.38,234.46c-.09.11-.25.12-.36.03-.11-.09-.12-.25-.03-.36.09-.11.25-.12.36-.03.11.09.12.25.03.36Z"/><path class="cls-14" d="m322.28,229.42c-.09.11-.25.12-.36.03-.11-.09-.12-.25-.03-.36.09-.11.25-.12.36-.03.11.09.12.25.03.36Z"/><path class="cls-14" d="m320.53,233.81c-.09.11-.25.12-.36.03-.11-.09-.12-.25-.03-.36.09-.11.25-.12.36-.03.11.09.12.25.03.36Z"/><path class="cls-14" d="m314.3,233.01c-.09.11-.25.12-.36.03-.11-.09-.12-.25-.03-.36s.25-.12.36-.03c.11.09.12.25.03.36Z"/><path class="cls-14" d="m324.26,231.72c-.25.29-.69.32-.99.07-.29-.25-.32-.69-.07-.99.25-.29.69-.32.99-.07.29.25.32.69.07.99Z"/><path class="cls-14" d="m324.25,237.41c-.35.41-.97.45-1.38.1-.41-.35-.45-.97-.1-1.37.35-.41.97-.45,1.38-.1.41.35.45.97.1,1.37Z"/><path class="cls-14" d="m309.61,239.05c-.35.41-.97.45-1.38.1-.1-.08-.17-.18-.23-.29.08-.41.17-.81.26-1.21.36-.29.88-.29,1.24.03.41.35.45.97.1,1.37Z"/><path class="cls-14" d="m328.11,232.18c-.2.23-.55.26-.79.06-.23-.2-.26-.55-.06-.79.2-.23.55-.26.79-.06.23.2.26.55.06.79Z"/><path class="cls-14" d="m327.54,235.86c-.2.23-.55.26-.79.06-.23-.2-.26-.55-.06-.79.2-.23.55-.26.79-.06.23.2.26.55.06.79Z"/><path class="cls-14" d="m320.99,231.95c-.09.11-.25.12-.36.03-.11-.09-.12-.25-.03-.36.09-.11.25-.12.36-.03.11.09.12.25.03.36Z"/><path class="cls-14" d="m317.97,229.59c-.09.11-.25.12-.36.03-.11-.09-.12-.25-.03-.36.09-.11.25-.12.36-.03.11.09.12.25.03.36Z"/><path class="cls-14" d="m314.88,228.63c-.09.11-.25.12-.36.03-.11-.09-.12-.25-.03-.36.09-.11.25-.12.36-.03.11.09.12.25.03.36Z"/><path class="cls-14" d="m346.96,279.66c-.5.58-1.38.65-1.96.14-.58-.5-.65-1.38-.14-1.96s1.38-.65,1.96-.14c.58.5.65,1.38.14,1.96Z"/><path class="cls-14" d="m349.61,270.7c-.32.37-.87.41-1.24.09-.37-.32-.41-.87-.09-1.24.32-.37.87-.41,1.24-.09.37.32.41.88.09,1.24Z"/><path class="cls-14" d="m353.68,285.55c-.28.32-.76.36-1.08.08-.32-.28-.35-.76-.08-1.08.28-.32.76-.35,1.08-.08.32.28.35.76.08,1.08Z"/><path class="cls-14" d="m340.4,282.15c-.28.32-.76.36-1.08.08-.32-.28-.35-.76-.08-1.08.28-.32.76-.36,1.08-.08.32.28.36.76.08,1.08Z"/><path class="cls-14" d="m347.9,272.63c-.28.32-.76.35-1.08.08-.32-.28-.35-.76-.08-1.08.28-.32.76-.36,1.08-.08.32.28.35.76.08,1.08Z"/><path class="cls-14" d="m345.05,271.45c-.28.32-.76.36-1.08.08-.32-.28-.36-.76-.08-1.08.28-.32.76-.35,1.08-.08s.36.76.08,1.08Z"/><path class="cls-14" d="m349.03,283.06c-.28.32-.76.35-1.08.08-.32-.28-.36-.76-.08-1.08.28-.32.76-.36,1.08-.08.32.28.36.76.08,1.08Z"/><path class="cls-14" d="m357.27,285.42c-.2.23-.55.26-.79.06-.23-.2-.26-.55-.06-.79.2-.23.55-.26.79-.06.23.2.26.55.06.79Z"/><path class="cls-14" d="m346.03,275.33c-.38.44-1.05.49-1.49.11-.44-.38-.49-1.05-.11-1.49.38-.44,1.05-.49,1.49-.11.44.38.49,1.05.11,1.49Z"/><path class="cls-14" d="m341.14,275.34c-.2.23-.55.26-.79.06-.23-.2-.26-.55-.06-.79.2-.23.55-.26.79-.06.23.2.26.55.06.79Z"/><path class="cls-14" d="m345,282.36c-.2.23-.55.26-.79.06-.23-.2-.26-.55-.06-.79.2-.23.55-.26.79-.06.23.2.26.55.06.79Z"/><path class="cls-14" d="m348.87,286.62c-.2.23-.55.26-.78.06-.23-.2-.26-.55-.06-.79.2-.23.55-.26.79-.06.23.2.26.55.06.79Z"/><path class="cls-14" d="m352.6,286.84c.28-.22.67-.27.99-.12-.33.05-.66.09-.99.12Z"/><path class="cls-14" d="m359.44,285.46s.03-.09.06-.13c.09-.11.25-.12.36-.03,0,0,.02.01.02.02-.15.05-.3.09-.44.13Z"/><path class="cls-14" d="m346.36,267.85c-.09.11-.25.12-.36.03-.11-.09-.12-.25-.03-.36.09-.11.25-.12.36-.03.11.09.12.25.03.36Z"/><path class="cls-14" d="m341.65,269.17c-.09.11-.25.12-.36.03-.11-.09-.12-.25-.03-.36.09-.11.25-.12.36-.03.11.09.12.25.03.36Z"/><path class="cls-14" d="m342.85,278.66c-.09.11-.25.12-.36.03-.11-.09-.12-.25-.03-.36.09-.11.25-.12.36-.03.11.09.12.25.03.36Z"/><path class="cls-14" d="m346.68,281.39c-.09.11-.25.12-.36.03-.11-.09-.12-.25-.03-.36.09-.11.25-.12.36-.03.11.09.12.25.03.36Z"/><path class="cls-14" d="m346.79,285.05c-.09.11-.25.12-.36.03-.11-.09-.12-.25-.03-.36.09-.11.25-.12.36-.03.11.09.12.25.03.36Z"/><path class="cls-14" d="m349.43,267.86c-.35.41-.97.45-1.37.1-.23-.2-.34-.48-.34-.76.65.01,1.3,0,1.95-.06.02.25-.06.51-.23.72Z"/><path class="cls-14" d="m340.74,272.34c-.35.41-.97.45-1.37.1-.41-.35-.45-.97-.1-1.37.35-.41.97-.45,1.37-.1.41.35.45.97.1,1.37Z"/><path class="cls-14" d="m343.14,284.96c-.35.41-.97.45-1.37.1-.41-.35-.45-.97-.1-1.37.35-.41.97-.45,1.37-.1.41.35.45.97.1,1.37Z"/><path class="cls-14" d="m337.79,277.16c-.2.23-.55.26-.79.06-.23-.2-.26-.55-.06-.79.2-.23.55-.26.79-.06.23.2.26.55.06.79Z"/><path class="cls-14" d="m344.2,277.39c-.2.23-.55.26-.78.06-.23-.2-.26-.55-.06-.79.2-.23.55-.26.79-.06.23.2.26.55.06.79Z"/><path class="cls-14" d="m351.28,286.61c-.28.32-.76.36-1.08.08-.32-.28-.35-.76-.08-1.08.28-.32.76-.36,1.08-.08.32.28.35.76.08,1.08Z"/><rect class="cls-13" x="367.85" y="342.28" width="48.72" height="11.89" rx="1.38" ry="1.38" transform="translate(740.43 -43.99) rotate(90)"/><path class="cls-6" d="m291.87,342.59h15.4v9.49c0,.98-.8,1.78-1.78,1.78h-11.83c-.98,0-1.78-.8-1.78-1.78v-9.49h0Z" transform="translate(647.79 48.66) rotate(90)"/><rect class="cls-13" x="277.98" y="342.28" width="48.72" height="11.89" rx="1.38" ry="1.38" transform="translate(650.56 45.89) rotate(90)"/><path class="cls-9" d="m118.23,134.76h94.99c1.52,0,2.75,1.23,2.75,2.75v9.13h-100.49v-9.13c0-1.52,1.23-2.75,2.75-2.75Z"/><path class="cls-6" d="m208.51,342.59h11.83c.98,0,1.78.8,1.78,1.78v9.49h-15.4v-9.49c0-.98.8-1.78,1.78-1.78Z" transform="translate(562.65 133.8) rotate(90)"/><polygon class="cls-10" points="101.17 157.81 101.17 186.42 125.45 348.22 205.94 348.22 230.21 186.42 230.21 157.81 101.17 157.81"/><path class="cls-10" d="m104.25,144.53h122.94c1.7,0,3.08,1.38,3.08,3.08v10.21H101.17v-10.21c0-1.7,1.38-3.08,3.08-3.08Z"/><rect class="cls-9" x="101.17" y="157.81" width="129.04" height="28.61"/><path class="cls-2" d="m197.18,274.03c1.02-1.12,1.97-2.3,2.86-3.52,12.94-17.91,8.9-42.99-9.01-55.93-.6-.43-1.22-.85-1.84-1.25l4.65,7.73c.94,1.63,1.08,3.63.36,5.36-.75,1.8-2.33,3.11-4.23,3.53l-8.95,2.07c6.66,5.96,8.6,15.66,4.74,23.7l-1.5-2.38c-.29-.47-.83-.74-1.37-.68-.56.04-1.03.4-1.23.91l-9.61,23.77c-.19.43-.15.93.1,1.33.25.4.67.65,1.15.69l25.58,1.79h.1c.52,0,.99-.27,1.25-.71.29-.46.28-1.05-.01-1.52l-3.05-4.89Z"/><path class="cls-14" d="m184.14,233.28c-.2.23-.55.26-.79.06-.23-.2-.26-.55-.06-.79.2-.23.55-.26.79-.06.23.2.26.55.06.79Z"/><path class="cls-14" d="m195.74,221.78c-.2.23-.55.26-.79.06-.23-.2-.26-.55-.06-.79.2-.23.55-.26.78-.06.23.2.26.55.06.79Z"/><path class="cls-14" d="m193.16,218.28c-.2.23-.55.26-.78.06-.23-.2-.26-.55-.06-.79.2-.23.55-.26.79-.06.23.2.26.55.06.79Z"/><path class="cls-14" d="m190.55,232.4c-.2.23-.55.26-.79.06-.23-.2-.26-.55-.06-.79.2-.23.55-.26.79-.06.23.2.26.55.06.79Z"/><path class="cls-14" d="m185.68,236.5c-.09.11-.25.12-.36.03-.11-.09-.12-.25-.03-.36.09-.11.25-.12.36-.03.11.09.12.25.03.36Z"/><path class="cls-14" d="m192.82,229.41c-.09.11-.25.12-.36.03-.11-.09-.12-.25-.03-.36.09-.11.25-.12.36-.03.11.09.12.25.03.36Z"/><path class="cls-14" d="m196.07,224.04c-.09.11-.25.12-.36.03-.11-.09-.12-.25-.03-.36.09-.11.25-.12.36-.03.11.09.12.25.03.36Z"/><path class="cls-14" d="m191.71,215.27c-.09.11-.25.12-.36.03-.11-.09-.12-.25-.03-.36.03-.03.06-.06.1-.07.12.09.23.17.35.26,0,.05-.02.11-.06.15Z"/><path class="cls-14" d="m197.83,225.35c-.2.23-.55.26-.79.06-.23-.2-.26-.55-.06-.79.2-.23.55-.26.79-.06.23.2.26.55.06.79Z"/><path class="cls-14" d="m198.96,222.15c-.36.25-.85.23-1.19-.06-.41-.35-.45-.97-.1-1.37.02-.02.03-.04.05-.05.43.49.84.99,1.24,1.49Z"/><path class="cls-14" d="m189.01,235.86c-.2.23-.55.26-.79.06-.23-.2-.26-.55-.06-.79.2-.23.55-.26.79-.06.23.2.26.55.06.79Z"/><path class="cls-14" d="m192.62,234.9c-.2.23-.55.26-.79.06-.23-.2-.26-.55-.06-.79.2-.23.55-.26.79-.06s.26.55.06.79Z"/><path class="cls-14" d="m200.88,224.78c-.2.2-.53.22-.75.02-.23-.2-.26-.55-.06-.79.06-.06.12-.11.19-.14.21.3.42.6.62.9Z"/><path class="cls-14" d="m195.42,230.53c-.2.23-.55.26-.79.06-.23-.2-.26-.55-.06-.79.2-.23.55-.26.78-.06.23.2.26.55.06.79Z"/><path class="cls-14" d="m188.09,232.86c-.2.23-.55.26-.79.06-.23-.2-.26-.55-.06-.79.2-.23.55-.26.79-.06.23.2.26.55.06.79Z"/><path class="cls-14" d="m195.31,218.23c-.09.11-.25.12-.36.03-.11-.09-.12-.25-.03-.36.02-.02.04-.04.07-.06.12.11.23.23.35.34,0,.02-.02.04-.04.05Z"/><path class="cls-14" d="m194.48,232.79c-.09.11-.25.12-.36.03-.11-.09-.12-.25-.03-.36.09-.11.25-.12.36-.03.11.09.12.25.03.36Z"/><path class="cls-14" d="m197.46,228.5c-.09.11-.25.12-.36.03-.11-.09-.12-.25-.03-.36.09-.11.25-.12.36-.03.11.09.12.25.03.36Z"/><path class="cls-14" d="m187.71,238.45c-.09.11-.25.12-.36.03-.11-.09-.12-.25-.03-.36.09-.11.25-.12.36-.03.11.09.12.25.03.36Z"/><path class="cls-14" d="m195.19,228.24c-.28.32-.76.36-1.08.08-.32-.28-.35-.76-.08-1.08.28-.32.76-.35,1.08-.08.32.28.36.76.08,1.08Z"/><path class="cls-2" d="m181.73,284.5c-17.69,6.73-38.26.1-48.45-16.63-.78-1.29-1.49-2.63-2.13-4l-5.69.91c-.54.08-1.1-.13-1.4-.58-.31-.42-.38-.96-.18-1.43l.04-.1,11.58-22.88c.23-.42.62-.71,1.08-.79.46-.08.94.08,1.26.42l18.18,18.08c.4.38.54.96.36,1.49-.16.52-.61.91-1.16,1l-2.78.45c4.79,5.41,12.08,7.74,18.96,6.38l-3.55,8.79c-.75,1.79-.58,3.83.46,5.49,1.02,1.6,2.69,2.61,4.59,2.78l8.81.62Z"/><path class="cls-2" d="m190.02,224.68c-.18.43-.57.75-1.03.85l-24.98,5.78c-.53.13-1.1-.06-1.45-.49-.35-.42-.45-1.01-.23-1.52l1.1-2.59c-8.13,1.35-14.58,7.56-16.35,15.49l-6.01-5.97c-1.12-1.14-2.66-1.78-4.25-1.78-.33,0-.66.03-.98.08-1.87.32-3.46,1.47-4.35,3.16l-4.77,9.43c-.01-.37-.01-.73,0-1.1.32-22.09,18.54-39.8,40.63-39.48,1.51.03,3.02.13,4.52.32l2.26-5.31c.21-.5.69-.85,1.24-.88.51-.05,1.01.19,1.3.62l.06.08,13.21,21.97c.24.41.28.9.1,1.34Z"/><path class="cls-14" d="m135.42,231.3c-.32.37-.87.41-1.24.09-.37-.32-.41-.88-.09-1.24.32-.37.88-.41,1.24-.09.37.32.41.88.09,1.24Z"/><path class="cls-14" d="m127.51,243.82c-.19.22-.47.3-.74.25.03-.51.07-1.01.12-1.52.19,0,.38.05.53.19.32.28.35.76.08,1.08Z"/><path class="cls-14" d="m130.11,236.12c-.28.32-.76.36-1.08.08-.32-.28-.36-.76-.08-1.08.28-.32.76-.36,1.08-.08s.36.76.08,1.08Z"/><path class="cls-14" d="m137.73,233.7c-.28.32-.76.35-1.08.08-.32-.28-.36-.76-.08-1.08.28-.32.76-.36,1.08-.08.32.28.36.76.08,1.08Z"/><path class="cls-14" d="m144.15,234.36c-.2.23-.55.26-.79.06-.23-.2-.26-.55-.06-.79.2-.23.55-.26.79-.06.23.2.26.55.06.79Z"/><path class="cls-14" d="m132.04,230.7c-.2.23-.55.26-.79.06-.23-.2-.26-.55-.06-.79.2-.23.55-.26.78-.06.23.2.26.55.06.79Z"/><path class="cls-14" d="m131.48,233.21c-.2.23-.55.26-.79.06-.23-.2-.26-.55-.06-.79.2-.23.55-.26.79-.06.23.2.26.55.06.79Z"/><path class="cls-14" d="m147.89,239.48c-.17.05-.37.01-.51-.11-.23-.2-.26-.55-.06-.79.2-.23.55-.26.79-.06.05.04.09.09.12.14-.12.27-.23.54-.33.82Z"/><path class="cls-14" d="m132.37,235.26c-.09.11-.25.12-.36.03-.11-.09-.12-.25-.03-.36.09-.11.25-.12.36-.03.11.09.12.25.03.36Z"/><path class="cls-14" d="m144.8,239.51c-.09.11-.25.12-.36.03-.11-.09-.12-.25-.03-.36.09-.11.25-.12.36-.03.11.09.12.25.03.36Z"/><path class="cls-14" d="m149.82,234.46c-.09.11-.25.12-.36.03-.11-.09-.12-.25-.03-.36.09-.11.25-.12.36-.03.11.09.12.25.03.36Z"/><path class="cls-14" d="m141.72,229.42c-.09.11-.25.12-.36.03-.11-.09-.12-.25-.03-.36.09-.11.25-.12.36-.03.11.09.12.25.03.36Z"/><path class="cls-14" d="m139.97,233.81c-.09.11-.25.12-.36.03-.11-.09-.12-.25-.03-.36.09-.11.25-.12.36-.03.11.09.12.25.03.36Z"/><path class="cls-14" d="m133.74,233.01c-.09.11-.25.12-.36.03-.11-.09-.12-.25-.03-.36s.25-.12.36-.03c.11.09.12.25.03.36Z"/><path class="cls-14" d="m143.7,231.72c-.25.29-.69.32-.99.07-.29-.25-.32-.69-.07-.99.25-.29.69-.32.99-.07.29.25.32.69.07.99Z"/><path class="cls-14" d="m143.69,237.41c-.35.41-.97.45-1.38.1-.41-.35-.45-.97-.1-1.37.35-.41.97-.45,1.38-.1.41.35.45.97.1,1.37Z"/><path class="cls-14" d="m129.05,239.05c-.35.41-.97.45-1.38.1-.1-.08-.17-.18-.23-.29.08-.41.17-.81.26-1.21.36-.29.88-.29,1.24.03.41.35.45.97.1,1.37Z"/><path class="cls-14" d="m147.55,232.18c-.2.23-.55.26-.79.06-.23-.2-.26-.55-.06-.79.2-.23.55-.26.79-.06.23.2.26.55.06.79Z"/><path class="cls-14" d="m146.98,235.86c-.2.23-.55.26-.79.06-.23-.2-.26-.55-.06-.79.2-.23.55-.26.79-.06.23.2.26.55.06.79Z"/><path class="cls-14" d="m140.44,231.95c-.09.11-.25.12-.36.03-.11-.09-.12-.25-.03-.36.09-.11.25-.12.36-.03.11.09.12.25.03.36Z"/><path class="cls-14" d="m137.42,229.59c-.09.11-.25.12-.36.03-.11-.09-.12-.25-.03-.36.09-.11.25-.12.36-.03.11.09.12.25.03.36Z"/><path class="cls-14" d="m134.32,228.63c-.09.11-.25.12-.36.03-.11-.09-.12-.25-.03-.36.09-.11.25-.12.36-.03.11.09.12.25.03.36Z"/><path class="cls-14" d="m166.4,279.66c-.5.58-1.38.65-1.96.14-.58-.5-.65-1.38-.14-1.96s1.38-.65,1.96-.14c.58.5.65,1.38.14,1.96Z"/><path class="cls-14" d="m169.05,270.7c-.32.37-.87.41-1.24.09-.37-.32-.41-.87-.09-1.24.32-.37.87-.41,1.24-.09.37.32.41.88.09,1.24Z"/><path class="cls-14" d="m173.12,285.55c-.28.32-.76.36-1.08.08-.32-.28-.35-.76-.08-1.08.28-.32.76-.35,1.08-.08.32.28.35.76.08,1.08Z"/><path class="cls-14" d="m159.84,282.15c-.28.32-.76.36-1.08.08-.32-.28-.35-.76-.08-1.08.28-.32.76-.36,1.08-.08.32.28.36.76.08,1.08Z"/><path class="cls-14" d="m167.34,272.63c-.28.32-.76.35-1.08.08-.32-.28-.35-.76-.08-1.08.28-.32.76-.36,1.08-.08.32.28.35.76.08,1.08Z"/><path class="cls-14" d="m164.49,271.45c-.28.32-.76.36-1.08.08-.32-.28-.36-.76-.08-1.08.28-.32.76-.35,1.08-.08s.36.76.08,1.08Z"/><path class="cls-14" d="m168.47,283.06c-.28.32-.76.35-1.08.08-.32-.28-.36-.76-.08-1.08.28-.32.76-.36,1.08-.08.32.28.36.76.08,1.08Z"/><path class="cls-14" d="m176.71,285.42c-.2.23-.55.26-.79.06-.23-.2-.26-.55-.06-.79.2-.23.55-.26.79-.06.23.2.26.55.06.79Z"/><path class="cls-14" d="m165.47,275.33c-.38.44-1.05.49-1.49.11-.44-.38-.49-1.05-.11-1.49.38-.44,1.05-.49,1.49-.11.44.38.49,1.05.11,1.49Z"/><path class="cls-14" d="m160.58,275.34c-.2.23-.55.26-.79.06-.23-.2-.26-.55-.06-.79.2-.23.55-.26.79-.06.23.2.26.55.06.79Z"/><path class="cls-14" d="m164.44,282.36c-.2.23-.55.26-.79.06-.23-.2-.26-.55-.06-.79.2-.23.55-.26.79-.06.23.2.26.55.06.79Z"/><path class="cls-14" d="m168.31,286.62c-.2.23-.55.26-.78.06-.23-.2-.26-.55-.06-.79.2-.23.55-.26.79-.06.23.2.26.55.06.79Z"/><path class="cls-14" d="m172.04,286.84c.28-.22.67-.27.99-.12-.33.05-.66.09-.99.12Z"/><path class="cls-14" d="m178.88,285.46s.03-.09.06-.13c.09-.11.25-.12.36-.03,0,0,.02.01.02.02-.15.05-.3.09-.44.13Z"/><path class="cls-14" d="m165.8,267.85c-.09.11-.25.12-.36.03-.11-.09-.12-.25-.03-.36.09-.11.25-.12.36-.03.11.09.12.25.03.36Z"/><path class="cls-14" d="m161.09,269.17c-.09.11-.25.12-.36.03-.11-.09-.12-.25-.03-.36.09-.11.25-.12.36-.03.11.09.12.25.03.36Z"/><path class="cls-14" d="m162.29,278.66c-.09.11-.25.12-.36.03-.11-.09-.12-.25-.03-.36.09-.11.25-.12.36-.03.11.09.12.25.03.36Z"/><path class="cls-14" d="m166.12,281.39c-.09.11-.25.12-.36.03-.11-.09-.12-.25-.03-.36.09-.11.25-.12.36-.03.11.09.12.25.03.36Z"/><path class="cls-14" d="m166.23,285.05c-.09.11-.25.12-.36.03-.11-.09-.12-.25-.03-.36.09-.11.25-.12.36-.03.11.09.12.25.03.36Z"/><path class="cls-14" d="m168.87,267.86c-.35.41-.97.45-1.37.1-.23-.2-.34-.48-.34-.76.65.01,1.3,0,1.95-.06.02.25-.06.51-.23.72Z"/><path class="cls-14" d="m160.18,272.34c-.35.41-.97.45-1.37.1-.41-.35-.45-.97-.1-1.37.35-.41.97-.45,1.37-.1.41.35.45.97.1,1.37Z"/><path class="cls-14" d="m162.58,284.96c-.35.41-.97.45-1.37.1-.41-.35-.45-.97-.1-1.37.35-.41.97-.45,1.37-.1.41.35.45.97.1,1.37Z"/><path class="cls-14" d="m157.23,277.16c-.2.23-.55.26-.79.06-.23-.2-.26-.55-.06-.79.2-.23.55-.26.79-.06.23.2.26.55.06.79Z"/><path class="cls-14" d="m163.64,277.39c-.2.23-.55.26-.78.06-.23-.2-.26-.55-.06-.79.2-.23.55-.26.79-.06.23.2.26.55.06.79Z"/><path class="cls-14" d="m170.72,286.61c-.28.32-.76.36-1.08.08-.32-.28-.35-.76-.08-1.08.28-.32.76-.36,1.08-.08.32.28.35.76.08,1.08Z"/><rect class="cls-13" x="187.29" y="342.28" width="48.72" height="11.89" rx="1.38" ry="1.38" transform="translate(559.88 136.57) rotate(90)"/><path class="cls-6" d="m111.31,342.59h15.4v9.49c0,.98-.8,1.78-1.78,1.78h-11.83c-.98,0-1.78-.8-1.78-1.78v-9.49h0Z" transform="translate(467.23 229.22) rotate(90)"/><rect class="cls-13" x="97.42" y="342.28" width="48.72" height="11.89" rx="1.38" ry="1.38" transform="translate(470 226.45) rotate(90)"/><path class="cls-8" d="m208.51,180.1h94.99c1.52,0,2.75,1.23,2.75,2.75v9.13h-100.49v-9.13c0-1.52,1.23-2.75,2.75-2.75Z"/><path class="cls-6" d="m298.79,387.93h11.83c.98,0,1.78.8,1.78,1.78v9.49h-15.4v-9.49c0-.98.8-1.78,1.78-1.78Z" transform="translate(698.26 88.86) rotate(90)"/><polygon class="cls-7" points="191.45 203.15 191.45 231.76 215.72 393.56 296.22 393.56 320.49 231.76 320.49 203.15 191.45 203.15"/><path class="cls-7" d="m194.53,189.87h122.94c1.7,0,3.08,1.38,3.08,3.08v10.21h-129.09v-10.21c0-1.7,1.38-3.08,3.08-3.08Z"/><rect class="cls-8" x="191.45" y="203.15" width="129.04" height="28.61"/><path class="cls-2" d="m287.46,319.36c1.02-1.12,1.97-2.3,2.86-3.52,12.94-17.91,8.9-42.99-9.01-55.93-.6-.43-1.22-.85-1.84-1.25l4.65,7.73c.94,1.63,1.08,3.63.36,5.36-.75,1.8-2.33,3.11-4.23,3.53l-8.95,2.07c6.66,5.96,8.6,15.66,4.74,23.7l-1.5-2.38c-.29-.47-.83-.74-1.37-.68-.56.04-1.03.4-1.23.91l-9.61,23.77c-.19.43-.15.93.1,1.33.25.4.67.65,1.15.69l25.58,1.79h.1c.52,0,.99-.27,1.25-.71.29-.46.28-1.05-.01-1.52l-3.05-4.89Z"/><path class="cls-14" d="m274.42,278.62c-.2.23-.55.26-.79.06-.23-.2-.26-.55-.06-.79.2-.23.55-.26.79-.06.23.2.26.55.06.79Z"/><path class="cls-14" d="m286.02,267.12c-.2.23-.55.26-.79.06-.23-.2-.26-.55-.06-.79.2-.23.55-.26.78-.06.23.2.26.55.06.79Z"/><path class="cls-14" d="m283.44,263.62c-.2.23-.55.26-.78.06-.23-.2-.26-.55-.06-.79.2-.23.55-.26.79-.06.23.2.26.55.06.79Z"/><path class="cls-14" d="m280.83,277.74c-.2.23-.55.26-.79.06-.23-.2-.26-.55-.06-.79.2-.23.55-.26.79-.06.23.2.26.55.06.79Z"/><path class="cls-14" d="m275.95,281.84c-.09.11-.25.12-.36.03-.11-.09-.12-.25-.03-.36.09-.11.25-.12.36-.03.11.09.12.25.03.36Z"/><path class="cls-14" d="m283.1,274.75c-.09.11-.25.12-.36.03-.11-.09-.12-.25-.03-.36.09-.11.25-.12.36-.03.11.09.12.25.03.36Z"/><path class="cls-14" d="m286.35,269.38c-.09.11-.25.12-.36.03-.11-.09-.12-.25-.03-.36.09-.11.25-.12.36-.03.11.09.12.25.03.36Z"/><path class="cls-14" d="m281.99,260.61c-.09.11-.25.12-.36.03-.11-.09-.12-.25-.03-.36.03-.03.06-.06.1-.07.12.09.23.17.35.26,0,.05-.02.11-.06.15Z"/><path class="cls-14" d="m288.11,270.69c-.2.23-.55.26-.79.06-.23-.2-.26-.55-.06-.79.2-.23.55-.26.79-.06.23.2.26.55.06.79Z"/><path class="cls-14" d="m289.24,267.49c-.36.25-.85.23-1.19-.06-.41-.35-.45-.97-.1-1.37.02-.02.03-.04.05-.05.43.49.84.99,1.24,1.49Z"/><path class="cls-14" d="m279.29,281.2c-.2.23-.55.26-.79.06-.23-.2-.26-.55-.06-.79.2-.23.55-.26.79-.06.23.2.26.55.06.79Z"/><path class="cls-14" d="m282.9,280.24c-.2.23-.55.26-.79.06-.23-.2-.26-.55-.06-.79.2-.23.55-.26.79-.06s.26.55.06.79Z"/><path class="cls-14" d="m291.16,270.12c-.2.2-.53.22-.75.02-.23-.2-.26-.55-.06-.79.06-.06.12-.11.19-.14.21.3.42.6.62.9Z"/><path class="cls-14" d="m285.69,275.87c-.2.23-.55.26-.79.06-.23-.2-.26-.55-.06-.79.2-.23.55-.26.78-.06.23.2.26.55.06.79Z"/><path class="cls-14" d="m278.37,278.2c-.2.23-.55.26-.79.06-.23-.2-.26-.55-.06-.79.2-.23.55-.26.79-.06.23.2.26.55.06.79Z"/><path class="cls-14" d="m285.59,263.57c-.09.11-.25.12-.36.03-.11-.09-.12-.25-.03-.36.02-.02.04-.04.07-.06.12.11.23.23.35.34,0,.02-.02.04-.04.05Z"/><path class="cls-14" d="m284.76,278.12c-.09.11-.25.12-.36.03-.11-.09-.12-.25-.03-.36.09-.11.25-.12.36-.03.11.09.12.25.03.36Z"/><path class="cls-14" d="m287.74,273.83c-.09.11-.25.12-.36.03-.11-.09-.12-.25-.03-.36.09-.11.25-.12.36-.03.11.09.12.25.03.36Z"/><path class="cls-14" d="m277.99,283.79c-.09.11-.25.12-.36.03-.11-.09-.12-.25-.03-.36.09-.11.25-.12.36-.03.11.09.12.25.03.36Z"/><path class="cls-14" d="m285.47,273.58c-.28.32-.76.36-1.08.08-.32-.28-.35-.76-.08-1.08.28-.32.76-.35,1.08-.08.32.28.36.76.08,1.08Z"/><path class="cls-2" d="m272.01,329.84c-17.69,6.73-38.26.1-48.45-16.63-.78-1.29-1.49-2.63-2.13-4l-5.69.91c-.54.08-1.1-.13-1.4-.58-.31-.42-.38-.96-.18-1.43l.04-.1,11.58-22.88c.23-.42.62-.71,1.08-.79.46-.08.94.08,1.26.42l18.18,18.08c.4.38.54.96.36,1.49-.16.52-.61.91-1.16,1l-2.78.45c4.79,5.41,12.08,7.74,18.96,6.38l-3.55,8.79c-.75,1.79-.58,3.83.46,5.49,1.02,1.6,2.69,2.61,4.59,2.78l8.81.62Z"/><path class="cls-2" d="m280.29,270.02c-.18.43-.57.75-1.03.85l-24.98,5.78c-.53.13-1.1-.06-1.45-.49-.35-.42-.45-1.01-.23-1.52l1.1-2.59c-8.13,1.35-14.58,7.56-16.35,15.49l-6.01-5.97c-1.12-1.14-2.66-1.78-4.25-1.78-.33,0-.66.03-.98.08-1.87.32-3.46,1.47-4.35,3.16l-4.77,9.43c-.01-.37-.01-.73,0-1.1.32-22.09,18.54-39.8,40.63-39.48,1.51.03,3.02.13,4.52.32l2.26-5.31c.21-.5.69-.85,1.24-.88.51-.05,1.01.19,1.3.62l.06.08,13.21,21.97c.24.41.28.9.1,1.34Z"/><path class="cls-14" d="m225.7,276.64c-.32.37-.87.41-1.24.09-.37-.32-.41-.88-.09-1.24.32-.37.88-.41,1.24-.09.37.32.41.88.09,1.24Z"/><path class="cls-14" d="m217.79,289.15c-.19.22-.47.3-.74.25.03-.51.07-1.01.12-1.52.19,0,.38.05.53.19.32.28.35.76.08,1.08Z"/><path class="cls-14" d="m220.39,281.46c-.28.32-.76.36-1.08.08-.32-.28-.36-.76-.08-1.08.28-.32.76-.36,1.08-.08s.36.76.08,1.08Z"/><path class="cls-14" d="m228.01,279.03c-.28.32-.76.35-1.08.08-.32-.28-.36-.76-.08-1.08.28-.32.76-.36,1.08-.08.32.28.36.76.08,1.08Z"/><path class="cls-14" d="m234.43,279.7c-.2.23-.55.26-.79.06-.23-.2-.26-.55-.06-.79.2-.23.55-.26.79-.06.23.2.26.55.06.79Z"/><path class="cls-14" d="m222.32,276.04c-.2.23-.55.26-.79.06-.23-.2-.26-.55-.06-.79.2-.23.55-.26.78-.06.23.2.26.55.06.79Z"/><path class="cls-14" d="m221.76,278.55c-.2.23-.55.26-.79.06-.23-.2-.26-.55-.06-.79.2-.23.55-.26.79-.06.23.2.26.55.06.79Z"/><path class="cls-14" d="m238.17,284.81c-.17.05-.37.01-.51-.11-.23-.2-.26-.55-.06-.79.2-.23.55-.26.79-.06.05.04.09.09.12.14-.12.27-.23.54-.33.82Z"/><path class="cls-14" d="m222.65,280.6c-.09.11-.25.12-.36.03-.11-.09-.12-.25-.03-.36.09-.11.25-.12.36-.03.11.09.12.25.03.36Z"/><path class="cls-14" d="m235.08,284.85c-.09.11-.25.12-.36.03-.11-.09-.12-.25-.03-.36.09-.11.25-.12.36-.03.11.09.12.25.03.36Z"/><path class="cls-14" d="m240.1,279.8c-.09.11-.25.12-.36.03-.11-.09-.12-.25-.03-.36.09-.11.25-.12.36-.03.11.09.12.25.03.36Z"/><path class="cls-14" d="m232,274.76c-.09.11-.25.12-.36.03-.11-.09-.12-.25-.03-.36.09-.11.25-.12.36-.03.11.09.12.25.03.36Z"/><path class="cls-14" d="m230.25,279.15c-.09.11-.25.12-.36.03-.11-.09-.12-.25-.03-.36.09-.11.25-.12.36-.03.11.09.12.25.03.36Z"/><path class="cls-14" d="m224.02,278.35c-.09.11-.25.12-.36.03-.11-.09-.12-.25-.03-.36s.25-.12.36-.03c.11.09.12.25.03.36Z"/><path class="cls-14" d="m233.98,277.06c-.25.29-.69.32-.99.07-.29-.25-.32-.69-.07-.99.25-.29.69-.32.99-.07.29.25.32.69.07.99Z"/><path class="cls-14" d="m233.97,282.75c-.35.41-.97.45-1.38.1-.41-.35-.45-.97-.1-1.37.35-.41.97-.45,1.38-.1.41.35.45.97.1,1.37Z"/><path class="cls-14" d="m219.33,284.39c-.35.41-.97.45-1.38.1-.1-.08-.17-.18-.23-.29.08-.41.17-.81.26-1.21.36-.29.88-.29,1.24.03.41.35.45.97.1,1.37Z"/><path class="cls-14" d="m237.83,277.52c-.2.23-.55.26-.79.06-.23-.2-.26-.55-.06-.79.2-.23.55-.26.79-.06.23.2.26.55.06.79Z"/><path class="cls-14" d="m237.26,281.2c-.2.23-.55.26-.79.06-.23-.2-.26-.55-.06-.79.2-.23.55-.26.79-.06.23.2.26.55.06.79Z"/><path class="cls-14" d="m230.71,277.29c-.09.11-.25.12-.36.03-.11-.09-.12-.25-.03-.36.09-.11.25-.12.36-.03.11.09.12.25.03.36Z"/><path class="cls-14" d="m227.7,274.92c-.09.11-.25.12-.36.03-.11-.09-.12-.25-.03-.36.09-.11.25-.12.36-.03.11.09.12.25.03.36Z"/><path class="cls-14" d="m224.6,273.97c-.09.11-.25.12-.36.03-.11-.09-.12-.25-.03-.36.09-.11.25-.12.36-.03.11.09.12.25.03.36Z"/><path class="cls-14" d="m256.68,325c-.5.58-1.38.65-1.96.14-.58-.5-.65-1.38-.14-1.96s1.38-.65,1.96-.14c.58.5.65,1.38.14,1.96Z"/><path class="cls-14" d="m259.33,316.04c-.32.37-.87.41-1.24.09-.37-.32-.41-.87-.09-1.24.32-.37.87-.41,1.24-.09.37.32.41.88.09,1.24Z"/><path class="cls-14" d="m263.4,330.89c-.28.32-.76.36-1.08.08-.32-.28-.35-.76-.08-1.08.28-.32.76-.35,1.08-.08.32.28.35.76.08,1.08Z"/><path class="cls-14" d="m250.12,327.49c-.28.32-.76.36-1.08.08-.32-.28-.35-.76-.08-1.08.28-.32.76-.36,1.08-.08.32.28.36.76.08,1.08Z"/><path class="cls-14" d="m257.62,317.97c-.28.32-.76.35-1.08.08-.32-.28-.35-.76-.08-1.08.28-.32.76-.36,1.08-.08.32.28.35.76.08,1.08Z"/><path class="cls-14" d="m254.77,316.79c-.28.32-.76.36-1.08.08-.32-.28-.36-.76-.08-1.08.28-.32.76-.35,1.08-.08s.36.76.08,1.08Z"/><path class="cls-14" d="m258.75,328.39c-.28.32-.76.35-1.08.08-.32-.28-.36-.76-.08-1.08.28-.32.76-.36,1.08-.08.32.28.36.76.08,1.08Z"/><path class="cls-14" d="m266.99,330.76c-.2.23-.55.26-.79.06-.23-.2-.26-.55-.06-.79.2-.23.55-.26.79-.06.23.2.26.55.06.79Z"/><path class="cls-14" d="m255.75,320.67c-.38.44-1.05.49-1.49.11-.44-.38-.49-1.05-.11-1.49.38-.44,1.05-.49,1.49-.11.44.38.49,1.05.11,1.49Z"/><path class="cls-14" d="m250.86,320.68c-.2.23-.55.26-.79.06-.23-.2-.26-.55-.06-.79.2-.23.55-.26.79-.06.23.2.26.55.06.79Z"/><path class="cls-14" d="m254.72,327.7c-.2.23-.55.26-.79.06-.23-.2-.26-.55-.06-.79.2-.23.55-.26.79-.06.23.2.26.55.06.79Z"/><path class="cls-14" d="m258.59,331.96c-.2.23-.55.26-.78.06-.23-.2-.26-.55-.06-.79.2-.23.55-.26.79-.06.23.2.26.55.06.79Z"/><path class="cls-14" d="m262.32,332.18c.28-.22.67-.27.99-.12-.33.05-.66.09-.99.12Z"/><path class="cls-14" d="m269.16,330.8s.03-.09.06-.13c.09-.11.25-.12.36-.03,0,0,.02.01.02.02-.15.05-.3.09-.44.13Z"/><path class="cls-14" d="m256.08,313.19c-.09.11-.25.12-.36.03-.11-.09-.12-.25-.03-.36.09-.11.25-.12.36-.03.11.09.12.25.03.36Z"/><path class="cls-14" d="m251.37,314.51c-.09.11-.25.12-.36.03-.11-.09-.12-.25-.03-.36.09-.11.25-.12.36-.03.11.09.12.25.03.36Z"/><path class="cls-14" d="m252.57,324c-.09.11-.25.12-.36.03-.11-.09-.12-.25-.03-.36.09-.11.25-.12.36-.03.11.09.12.25.03.36Z"/><path class="cls-14" d="m256.4,326.73c-.09.11-.25.12-.36.03-.11-.09-.12-.25-.03-.36.09-.11.25-.12.36-.03.11.09.12.25.03.36Z"/><path class="cls-14" d="m256.51,330.39c-.09.11-.25.12-.36.03-.11-.09-.12-.25-.03-.36.09-.11.25-.12.36-.03.11.09.12.25.03.36Z"/><path class="cls-14" d="m259.15,313.2c-.35.41-.97.45-1.37.1-.23-.2-.34-.48-.34-.76.65.01,1.3,0,1.95-.06.02.25-.06.51-.23.72Z"/><path class="cls-14" d="m250.46,317.68c-.35.41-.97.45-1.37.1-.41-.35-.45-.97-.1-1.37.35-.41.97-.45,1.37-.1.41.35.45.97.1,1.37Z"/><path class="cls-14" d="m252.86,330.3c-.35.41-.97.45-1.37.1-.41-.35-.45-.97-.1-1.37.35-.41.97-.45,1.37-.1.41.35.45.97.1,1.37Z"/><path class="cls-14" d="m247.51,322.5c-.2.23-.55.26-.79.06-.23-.2-.26-.55-.06-.79.2-.23.55-.26.79-.06.23.2.26.55.06.79Z"/><path class="cls-14" d="m253.92,322.73c-.2.23-.55.26-.78.06-.23-.2-.26-.55-.06-.79.2-.23.55-.26.79-.06.23.2.26.55.06.79Z"/><path class="cls-14" d="m261,331.95c-.28.32-.76.36-1.08.08-.32-.28-.35-.76-.08-1.08.28-.32.76-.36,1.08-.08.32.28.35.76.08,1.08Z"/><rect class="cls-13" x="277.57" y="387.62" width="48.72" height="11.89" rx="1.38" ry="1.38" transform="translate(695.49 91.63) rotate(90)"/><path class="cls-6" d="m201.59,387.93h15.4v9.49c0,.98-.8,1.78-1.78,1.78h-11.83c-.98,0-1.78-.8-1.78-1.78v-9.49h0Z" transform="translate(602.85 184.28) rotate(90)"/><rect class="cls-13" x="187.7" y="387.62" width="48.72" height="11.89" rx="1.38" ry="1.38" transform="translate(605.62 181.51) rotate(90)"/></svg>