<?xml version="1.0" encoding="UTF-8"?><svg id="Warstwa_1" xmlns="http://www.w3.org/2000/svg" viewBox="0 0 1500 1080"><defs><style>.cls-1{stroke:#7f7e5c;stroke-width:4.48px;}.cls-1,.cls-2,.cls-3,.cls-4{fill:none;}.cls-1,.cls-3,.cls-4{stroke-miterlimit:10;}.cls-1,.cls-4{stroke-linecap:round;}.cls-5{fill:#f7e0d0;}.cls-6{fill:#033;}.cls-7{fill:#efceb4;}.cls-8{fill:#eadcca;}.cls-9{fill:#e8b25e;}.cls-10{fill:#fff;}.cls-11{fill:#ffc9ae;}.cls-12{fill:#fcd4b6;}.cls-13{fill:#ffb644;}.cls-14{fill:#ffc467;}.cls-15{fill:#fcc394;}.cls-16{fill:#7f7e5c;}.cls-17{fill:#9d6136;}.cls-18{fill:#9e6e15;}.cls-19{fill:#b47e18;}.cls-20{fill:#b77744;}.cls-21{fill:#303030;}.cls-22{fill:#b9c7df;}.cls-23{fill:#8cc63f;}.cls-24{fill:#cf911c;}.cls-25{fill:#dc492c;}.cls-26{fill:#c1861a;}.cls-27{fill:#c0301e;}.cls-28{fill:#d28826;}.cls-29,.cls-30{fill:#d3d3d3;}.cls-31{fill:#d54e2d;}.cls-32{fill:#d3b38c;}.cls-33{fill:#e0ccaa;}.cls-34{fill:#713c30;}.cls-35{fill:#6ca2da;}.cls-36{fill:#62894a;}.cls-37{fill:#39b54a;}.cls-38{fill:#5d4a2d;}.cls-39,.cls-40{fill:#7a5201;}.cls-41{fill:#5d8fd1;}.cls-42{fill:#50743d;}.cls-43{fill:#4d4d4d;}.cls-2{stroke:#033;stroke-miterlimit:22.93;stroke-width:3.26px;}.cls-3{stroke:#eadcca;stroke-width:2.71px;}.cls-40,.cls-30,.cls-44{fill-rule:evenodd;}.cls-44{fill:#ccc;}.cls-4{stroke:#d28826;stroke-width:2.54px;}</style></defs><path class="cls-37" d="m749.87,354.84l-13.53,56.47-2.96,12.33h25.43l-31.74,49.81-31.74-49.81h25.43l-2.96-12.33-13.53-56.47h45.6m7.58-10h-60.76c-2.6,0-4.52,2.43-3.91,4.96l15.3,63.84h-23.65c-3.18,0-5.1,3.51-3.39,6.18l42.64,66.91c.79,1.24,2.09,1.86,3.39,1.86s2.6-.62,3.39-1.86l42.64-66.91c1.71-2.68-.22-6.18-3.39-6.18h-23.65l15.3-63.84c.61-2.53-1.31-4.96-3.91-4.96h0Z"/><path class="cls-37" d="m877.06,416.48l16.01,16.01,16.01,16.01-49.22,30.19-10.81,6.63,8.97,8.97,8.91,8.91-57.25,12.69,12.68-57.25,8.91,8.91,8.97,8.97,6.63-10.81,30.19-49.22m-1.13-13.62c-1.33,0-2.65.66-3.42,1.91l-34.16,55.7-16.64-16.64c-.81-.81-1.82-1.18-2.81-1.18-1.77,0-3.49,1.17-3.93,3.14l-17.09,77.11c-.57,2.56,1.42,4.87,3.89,4.87.29,0,.58-.03.88-.1l77.11-17.09c3.09-.68,4.2-4.51,1.96-6.74l-16.64-16.64,55.7-34.16c2.21-1.35,2.57-4.41.74-6.24l-21.38-21.38-21.38-21.38c-.79-.79-1.81-1.17-2.83-1.17h0Z"/><path class="cls-37" d="m577.09,416.48l30.19,49.22,6.63,10.81,8.97-8.97,8.91-8.91,12.68,57.25-57.25-12.69,8.91-8.91,8.97-8.97-10.81-6.63-49.22-30.19,16.01-16.01,16.01-16.01m1.13-13.62c-1.01,0-2.03.38-2.83,1.17l-21.38,21.38-21.38,21.38c-1.83,1.83-1.47,4.89.74,6.24l55.7,34.16-16.64,16.64c-2.23,2.23-1.12,6.06,1.96,6.74l77.11,17.09c.3.07.59.1.88.1,2.47,0,4.46-2.31,3.89-4.87l-17.09-77.11c-.44-1.97-2.16-3.14-3.93-3.14-1,0-2.01.37-2.81,1.18l-16.64,16.64-34.16-55.7c-.77-1.25-2.09-1.91-3.42-1.91h0Z"/><polygon class="cls-18" points="449.64 578.97 449.64 637.68 499.45 969.74 957.35 969.74 1007.16 637.68 1007.16 578.97 449.64 578.97"/><path class="cls-18" d="m466.36,551.71h524.2c9.22,0,16.71,7.49,16.71,16.71v10.55H449.64v-10.55c0-9.22,7.49-16.71,16.71-16.71Z"/><path class="cls-40" d="m909.56,911.8c5.15,0,9.32,4.17,9.32,9.32s-4.17,9.32-9.32,9.32-9.32-4.17-9.32-9.32,4.17-9.32,9.32-9.32Z"/><path class="cls-40" d="m916.34,881.3c5.15,0,9.32,4.17,9.32,9.32s-4.17,9.32-9.32,9.32-9.32-4.17-9.32-9.32,4.17-9.32,9.32-9.32Z"/><path class="cls-40" d="m944.31,916.33c5.15,0,9.32,4.17,9.32,9.32s-4.17,9.32-9.32,9.32-9.32-4.17-9.32-9.32,4.17-9.32,9.32-9.32Z"/><path class="cls-40" d="m961.24,811.82c3.74,0,6.78,3.03,6.78,6.78s-3.04,6.78-6.78,6.78-6.78-3.03-6.78-6.78,3.04-6.78,6.78-6.78Z"/><path class="cls-40" d="m967.08,844.28c3.74,0,6.78,3.03,6.78,6.78s-3.04,6.78-6.78,6.78-6.78-3.03-6.78-6.78,3.04-6.78,6.78-6.78Z"/><path class="cls-40" d="m825.68,933.83c3.74,0,6.78,3.03,6.78,6.78s-3.04,6.78-6.78,6.78-6.78-3.03-6.78-6.78,3.04-6.78,6.78-6.78Z"/><path class="cls-40" d="m917.18,774.54c3.74,0,6.78,3.03,6.78,6.77s-3.04,6.78-6.78,6.78-6.78-3.03-6.78-6.78,3.03-6.77,6.78-6.77Z"/><path class="cls-40" d="m839.23,857.58c3.74,0,6.78,3.03,6.78,6.78s-3.03,6.78-6.78,6.78-6.78-3.04-6.78-6.78,3.03-6.78,6.78-6.78Z"/><path class="cls-40" d="m905.57,826.12c3.74,0,6.78,3.03,6.78,6.78s-3.04,6.78-6.78,6.78-6.78-3.04-6.78-6.78,3.03-6.78,6.78-6.78Z"/><path class="cls-40" d="m960.45,752.73c1.72,0,3.11,1.39,3.11,3.11s-1.39,3.12-3.11,3.12-3.11-1.39-3.11-3.12,1.39-3.11,3.11-3.11Z"/><path class="cls-40" d="m864.54,774.2c1.72,0,3.12,1.39,3.12,3.11s-1.39,3.11-3.12,3.11-3.11-1.39-3.11-3.11,1.39-3.11,3.11-3.11Z"/><path class="cls-40" d="m889.36,863.4c1.72,0,3.11,1.39,3.11,3.11s-1.39,3.11-3.11,3.11-3.11-1.39-3.11-3.11,1.39-3.11,3.11-3.11Z"/><path class="cls-40" d="m867.9,886.87c1.72,0,3.11,1.4,3.11,3.12s-1.39,3.11-3.11,3.11-3.11-1.4-3.11-3.11,1.39-3.12,3.11-3.12Z"/><path class="cls-40" d="m854.18,954.99c1.72,0,3.11,1.4,3.11,3.12s-1.39,3.11-3.11,3.11-3.11-1.4-3.11-3.11,1.39-3.12,3.11-3.12Z"/><path class="cls-40" d="m781.38,880.83c1.72,0,3.11,1.4,3.11,3.12s-1.4,3.11-3.11,3.11-3.12-1.39-3.12-3.11,1.39-3.12,3.12-3.12Z"/><path class="cls-40" d="m932.28,846.63c1.72,0,3.11,1.39,3.11,3.11s-1.4,3.11-3.11,3.11-3.12-1.39-3.12-3.11,1.39-3.11,3.12-3.11Z"/><path class="cls-40" d="m884.17,949.59c4.7,0,8.52,3.82,8.52,8.52s-3.82,8.52-8.52,8.52-8.52-3.81-8.52-8.52,3.81-8.52,8.52-8.52Z"/><path class="cls-40" d="m933.42,726.85c3.74,0,6.78,3.03,6.78,6.78s-3.04,6.78-6.78,6.78-6.78-3.03-6.78-6.78,3.04-6.78,6.78-6.78Z"/><path class="cls-40" d="m849.95,813.33c3.74,0,6.78,3.03,6.78,6.78s-3.04,6.78-6.78,6.78-6.78-3.03-6.78-6.78,3.04-6.78,6.78-6.78Z"/><path class="cls-40" d="m891.99,741.58c6.55,0,11.86,5.31,11.86,11.87s-5.31,11.86-11.86,11.86-11.86-5.31-11.86-11.86,5.31-11.87,11.86-11.87Z"/><path class="cls-40" d="m857.4,913.78c6.55,0,11.86,5.31,11.86,11.86s-5.31,11.86-11.86,11.86-11.86-5.31-11.86-11.86,5.31-11.86,11.86-11.86Z"/><path class="cls-40" d="m955.22,872.09c6.55,0,11.86,5.31,11.86,11.86s-5.31,11.86-11.86,11.86-11.86-5.31-11.86-11.86,5.31-11.86,11.86-11.86Z"/><path class="cls-40" d="m903.39,703.32c3.74,0,6.78,3.03,6.78,6.78s-3.04,6.78-6.78,6.78-6.78-3.04-6.78-6.78,3.03-6.78,6.78-6.78Z"/><path class="cls-40" d="m869.26,839.85c3.74,0,6.78,3.04,6.78,6.78s-3.03,6.78-6.78,6.78-6.78-3.04-6.78-6.78,3.03-6.78,6.78-6.78Z"/><path class="cls-40" d="m778.56,919.89c3.74,0,6.78,3.04,6.78,6.78s-3.03,6.78-6.78,6.78-6.78-3.04-6.78-6.78,3.03-6.78,6.78-6.78Z"/><path class="cls-40" d="m816.91,895.82c3.74,0,6.78,3.04,6.78,6.78s-3.03,6.78-6.78,6.78-6.78-3.04-6.78-6.78,3.03-6.78,6.78-6.78Z"/><path class="cls-40" d="m887.92,806.77c1.72,0,3.11,1.4,3.11,3.12s-1.4,3.11-3.11,3.11-3.12-1.4-3.12-3.11,1.4-3.12,3.12-3.12Z"/><path class="cls-40" d="m832.46,752.73c1.72,0,3.11,1.4,3.11,3.11s-1.4,3.12-3.11,3.12-3.12-1.39-3.12-3.12,1.39-3.11,3.12-3.11Z"/><path class="cls-40" d="m965.37,705.26c1.72,0,3.11,1.4,3.11,3.11s-1.39,3.12-3.11,3.12-3.12-1.4-3.12-3.12,1.39-3.11,3.12-3.11Z"/><path class="cls-40" d="m839.23,778.36c1.72,0,3.12,1.39,3.12,3.11s-1.4,3.12-3.12,3.12-3.12-1.4-3.12-3.12,1.4-3.11,3.12-3.11Z"/><path class="cls-40" d="m851.07,741.35c1.72,0,3.11,1.39,3.11,3.11s-1.4,3.11-3.11,3.11-3.12-1.4-3.12-3.11,1.4-3.11,3.12-3.11Z"/><path class="cls-40" d="m932.36,805.53c5.15,0,9.32,4.17,9.32,9.32s-4.17,9.32-9.32,9.32-9.32-4.17-9.32-9.32,4.17-9.32,9.32-9.32Z"/><rect class="cls-39" x="449.64" y="578.97" width="557.51" height="58.71"/><path class="cls-10" d="m800.83,847.47c2.55-2.81,4.97-5.77,7.19-8.84,32.53-45.03,22.38-108.12-22.65-140.64-1.51-1.09-3.06-2.13-4.63-3.13l11.69,19.45c2.37,4.1,2.71,9.14.9,13.48-1.89,4.52-5.85,7.83-10.64,8.88l-22.51,5.21c16.75,14.99,21.61,39.39,11.92,59.59l-3.77-6c-.72-1.19-2.09-1.85-3.44-1.72-1.4.1-2.59,1-3.09,2.28l-24.16,59.78c-.47,1.09-.37,2.35.26,3.35.63,1,1.69,1.63,2.89,1.73l64.32,4.51h.26c1.3,0,2.49-.67,3.15-1.8.73-1.16.69-2.65-.03-3.82l-7.67-12.3Z"/><path class="cls-30" d="m768.02,745.01c-.5.58-1.39.65-1.98.14-.59-.5-.65-1.39-.14-1.98.51-.58,1.39-.65,1.98-.14.59.51.65,1.39.14,1.98Z"/><path class="cls-30" d="m797.19,716.09c-.5.58-1.39.65-1.97.14-.58-.51-.65-1.39-.14-1.98.5-.59,1.39-.65,1.97-.14.58.51.65,1.39.14,1.98Z"/><path class="cls-30" d="m790.7,707.3c-.5.59-1.39.65-1.97.14-.58-.51-.65-1.39-.14-1.97.51-.59,1.39-.65,1.98-.14.59.51.65,1.39.14,1.97Z"/><path class="cls-30" d="m784.14,742.8c-.5.59-1.39.65-1.98.14-.58-.51-.65-1.39-.14-1.98.51-.59,1.39-.65,1.98-.14.58.5.65,1.39.14,1.97Z"/><path class="cls-30" d="m771.89,753.1c-.23.27-.64.3-.91.07-.27-.23-.3-.64-.07-.91.23-.27.64-.3.91-.07.27.23.3.64.07.91Z"/><path class="cls-30" d="m789.85,735.29c-.23.27-.64.3-.91.07-.27-.23-.3-.64-.07-.91.23-.27.64-.3.91-.07.27.23.3.64.07.91Z"/><path class="cls-30" d="m798.02,721.78c-.23.27-.64.3-.91.07-.27-.23-.3-.64-.07-.91.23-.27.64-.3.91-.07.27.23.3.64.07.91Z"/><path class="cls-30" d="m787.06,699.73c-.23.27-.64.3-.91.07-.27-.23-.3-.64-.07-.91.07-.08.16-.14.26-.18.29.22.58.43.87.65,0,.13-.06.26-.15.37Z"/><path class="cls-30" d="m802.45,725.07c-.5.59-1.39.65-1.98.14-.58-.51-.65-1.39-.14-1.98.51-.59,1.39-.65,1.97-.14.59.51.65,1.39.14,1.98Z"/><path class="cls-30" d="m805.29,717.01c-.9.62-2.13.59-3-.16-1.02-.89-1.14-2.43-.25-3.46.04-.05.08-.09.12-.13,1.08,1.23,2.12,2.48,3.13,3.75Z"/><path class="cls-30" d="m780.28,751.5c-.51.58-1.39.65-1.98.14-.59-.51-.65-1.39-.14-1.98.5-.58,1.39-.65,1.98-.14.58.51.65,1.39.14,1.98Z"/><path class="cls-30" d="m789.35,749.08c-.5.59-1.39.65-1.97.14-.58-.51-.65-1.39-.14-1.97.51-.59,1.39-.65,1.98-.14s.65,1.39.14,1.97Z"/><path class="cls-30" d="m810.11,723.63c-.51.51-1.34.54-1.9.06-.59-.51-.65-1.39-.14-1.98.14-.16.3-.28.48-.36.53.75,1.05,1.51,1.56,2.27Z"/><path class="cls-30" d="m796.38,738.1c-.51.59-1.39.65-1.98.14-.59-.51-.65-1.39-.14-1.97.5-.59,1.39-.65,1.97-.14.59.51.65,1.39.14,1.97Z"/><path class="cls-30" d="m777.97,743.96c-.5.59-1.39.65-1.98.14-.58-.51-.65-1.39-.14-1.98.5-.58,1.39-.65,1.97-.14.58.51.65,1.39.14,1.98Z"/><path class="cls-30" d="m796.11,707.15c-.23.27-.64.3-.91.07-.27-.23-.3-.64-.07-.91.05-.06.11-.11.17-.14.3.28.59.57.89.85-.02.05-.05.09-.09.13Z"/><path class="cls-30" d="m794.03,743.77c-.23.27-.64.3-.91.07-.27-.23-.3-.64-.07-.91.23-.27.64-.3.91-.07.27.23.3.64.07.91Z"/><path class="cls-30" d="m801.51,732.98c-.23.27-.64.3-.91.07-.27-.23-.3-.64-.07-.91.23-.27.64-.3.91-.07.27.23.3.64.07.91Z"/><path class="cls-30" d="m777.01,758c-.23.27-.64.3-.91.07-.27-.23-.3-.64-.07-.91.23-.27.64-.3.91-.07.27.23.3.64.07.91Z"/><path class="cls-30" d="m795.82,732.33c-.69.8-1.91.89-2.72.2-.8-.7-.89-1.91-.2-2.72.7-.8,1.91-.89,2.72-.2.81.7.9,1.91.2,2.72Z"/><path class="cls-10" d="m761.95,873.81c-44.48,16.91-96.21.26-121.83-41.82-1.96-3.25-3.75-6.62-5.35-10.06l-14.32,2.3c-1.35.21-2.76-.33-3.52-1.45-.78-1.04-.95-2.41-.44-3.6l.1-.24,29.11-57.52c.57-1.06,1.55-1.79,2.72-1.99,1.16-.2,2.36.2,3.18,1.06l45.72,45.45c1.01.96,1.37,2.41.91,3.73-.41,1.3-1.53,2.3-2.92,2.51l-6.98,1.14c12.04,13.6,30.37,19.46,47.69,16.03l-8.92,22.1c-1.89,4.5-1.45,9.64,1.16,13.81,2.56,4.03,6.77,6.57,11.55,6.98l22.15,1.57Z"/><path class="cls-10" d="m782.8,723.39c-.46,1.08-1.44,1.89-2.59,2.14l-62.82,14.53c-1.34.33-2.76-.15-3.64-1.22-.88-1.04-1.13-2.53-.57-3.82l2.76-6.52c-20.44,3.39-36.66,19-41.12,38.96l-15.1-15.02c-2.81-2.85-6.69-4.49-10.7-4.49-.83,0-1.66.07-2.46.2-4.71.8-8.71,3.69-10.94,7.94l-12,23.71c-.03-.93-.03-1.84-.02-2.77.8-55.55,46.63-100.08,102.16-99.28,3.8.07,7.6.33,11.37.82l5.68-13.36c.54-1.26,1.75-2.14,3.11-2.2,1.29-.11,2.53.47,3.26,1.55l.16.21,33.22,55.26c.6,1.03.7,2.27.24,3.36Z"/><path class="cls-30" d="m645.52,740.04c-.8.93-2.2,1.03-3.12.23-.93-.8-1.03-2.2-.23-3.13.8-.93,2.2-1.03,3.13-.23.93.8,1.03,2.2.23,3.13Z"/><path class="cls-30" d="m625.63,771.5c-.47.55-1.19.76-1.85.63.08-1.28.19-2.55.31-3.81.47-.02.95.13,1.34.47.8.7.89,1.91.2,2.72Z"/><path class="cls-30" d="m632.17,752.16c-.7.81-1.91.89-2.72.2-.8-.7-.89-1.91-.2-2.72.7-.8,1.91-.89,2.72-.2s.89,1.91.2,2.72Z"/><path class="cls-30" d="m651.33,746.05c-.69.81-1.91.89-2.72.2-.8-.69-.89-1.91-.2-2.72.7-.81,1.91-.89,2.72-.2.8.7.89,1.91.2,2.72Z"/><path class="cls-30" d="m667.46,747.73c-.51.59-1.39.65-1.98.14-.58-.51-.65-1.39-.14-1.97.51-.59,1.39-.65,1.97-.14.59.5.65,1.39.14,1.97Z"/><path class="cls-30" d="m637.01,738.53c-.5.59-1.39.65-1.97.14-.58-.5-.65-1.39-.14-1.97.5-.59,1.39-.65,1.97-.14.59.51.65,1.39.14,1.98Z"/><path class="cls-30" d="m635.61,744.83c-.51.58-1.39.65-1.97.14-.59-.51-.65-1.39-.14-1.98.51-.59,1.39-.65,1.98-.14.58.51.65,1.39.14,1.97Z"/><path class="cls-30" d="m676.87,760.59c-.44.12-.92.03-1.29-.29-.59-.51-.65-1.39-.14-1.98.51-.58,1.39-.65,1.98-.14.12.1.22.22.29.35-.29.68-.57,1.36-.83,2.06Z"/><path class="cls-30" d="m637.83,749.98c-.23.27-.64.3-.91.07-.27-.23-.3-.64-.07-.91.23-.27.64-.3.91-.07.27.23.3.64.07.91Z"/><path class="cls-30" d="m669.1,760.68c-.23.27-.64.3-.91.07-.27-.23-.3-.64-.07-.91.23-.27.64-.3.91-.07.27.23.3.64.07.91Z"/><path class="cls-30" d="m681.73,747.97c-.23.27-.64.3-.91.07-.27-.23-.3-.64-.07-.91.23-.27.64-.3.91-.07.27.23.3.64.07.91Z"/><path class="cls-30" d="m661.36,735.31c-.23.27-.64.3-.91.07-.27-.23-.3-.64-.06-.91.23-.27.64-.3.91-.07.27.23.3.64.07.91Z"/><path class="cls-30" d="m656.95,746.34c-.23.27-.64.3-.91.07-.27-.23-.3-.64-.07-.91.23-.27.64-.3.91-.07.27.23.3.64.07.91Z"/><path class="cls-30" d="m641.29,744.33c-.23.27-.64.3-.91.07-.27-.23-.3-.64-.07-.91s.64-.3.91-.07c.27.23.3.64.07.91Z"/><path class="cls-30" d="m666.33,741.09c-.64.73-1.75.82-2.48.18-.73-.64-.82-1.75-.18-2.48.63-.74,1.75-.82,2.48-.18.74.64.82,1.75.18,2.48Z"/><path class="cls-30" d="m666.31,755.4c-.89,1.02-2.43,1.14-3.46.25-1.02-.89-1.13-2.43-.25-3.46.89-1.02,2.43-1.14,3.46-.25,1.02.89,1.14,2.43.25,3.46Z"/><path class="cls-30" d="m629.49,759.51c-.89,1.02-2.43,1.14-3.46.25-.24-.21-.43-.46-.57-.72.2-1.02.42-2.04.65-3.05.9-.72,2.22-.72,3.13.07,1.02.88,1.13,2.43.25,3.46Z"/><path class="cls-30" d="m676.01,742.26c-.51.59-1.39.65-1.97.14-.59-.51-.65-1.39-.14-1.97.51-.58,1.39-.65,1.97-.14.59.51.65,1.39.14,1.98Z"/><path class="cls-30" d="m674.59,751.5c-.5.58-1.39.65-1.97.14-.58-.51-.65-1.39-.14-1.97.51-.59,1.39-.65,1.98-.14.59.51.65,1.39.14,1.98Z"/><path class="cls-30" d="m658.12,741.67c-.23.27-.64.3-.91.07-.27-.23-.3-.64-.07-.91.23-.27.64-.3.91-.07.27.23.3.64.07.91Z"/><path class="cls-30" d="m650.53,735.72c-.23.27-.64.3-.91.07-.27-.23-.3-.64-.07-.91.23-.27.64-.3.91-.07.27.23.3.64.07.91Z"/><path class="cls-30" d="m642.75,733.31c-.23.27-.64.3-.91.07-.27-.23-.3-.64-.07-.91.23-.27.64-.3.91-.07.27.23.3.64.07.91Z"/><path class="cls-30" d="m723.43,861.63c-1.26,1.46-3.48,1.62-4.94.36-1.46-1.26-1.62-3.48-.36-4.94,1.26-1.46,3.48-1.62,4.94-.36,1.46,1.26,1.62,3.48.36,4.94Z"/><path class="cls-30" d="m730.08,839.1c-.8.93-2.2,1.03-3.13.23-.93-.8-1.03-2.2-.23-3.13.8-.93,2.2-1.03,3.12-.23.93.8,1.03,2.2.23,3.13Z"/><path class="cls-30" d="m740.31,876.46c-.7.8-1.91.89-2.72.2-.8-.7-.89-1.91-.2-2.72.7-.8,1.91-.89,2.72-.2.8.7.89,1.91.2,2.72Z"/><path class="cls-30" d="m706.92,867.91c-.7.81-1.91.89-2.72.2-.8-.69-.89-1.91-.2-2.72.7-.8,1.91-.89,2.72-.2.81.69.9,1.91.2,2.71Z"/><path class="cls-30" d="m725.78,843.95c-.69.8-1.91.89-2.72.2-.8-.7-.89-1.91-.2-2.72.7-.81,1.91-.89,2.72-.2.8.7.89,1.91.2,2.72Z"/><path class="cls-30" d="m718.61,841c-.7.81-1.91.89-2.72.2-.8-.7-.89-1.91-.2-2.72.7-.8,1.91-.89,2.72-.2s.89,1.91.2,2.71Z"/><path class="cls-30" d="m728.61,870.18c-.7.8-1.91.89-2.72.2-.81-.7-.89-1.91-.2-2.72.69-.8,1.91-.89,2.72-.2.8.7.89,1.91.2,2.72Z"/><path class="cls-30" d="m749.34,876.12c-.51.59-1.39.65-1.98.14-.58-.51-.65-1.39-.14-1.98.5-.58,1.39-.65,1.98-.14.58.51.65,1.39.14,1.97Z"/><path class="cls-30" d="m721.08,850.76c-.96,1.11-2.63,1.23-3.73.27-1.11-.96-1.23-2.63-.27-3.73.96-1.11,2.63-1.23,3.74-.27,1.11.96,1.23,2.63.27,3.73Z"/><path class="cls-30" d="m708.77,850.77c-.51.59-1.39.65-1.98.14-.59-.51-.65-1.39-.14-1.98.5-.58,1.39-.65,1.97-.14.58.51.65,1.39.14,1.98Z"/><path class="cls-30" d="m718.5,868.43c-.5.59-1.39.65-1.97.14-.58-.51-.65-1.39-.14-1.98.5-.59,1.39-.65,1.98-.14.58.51.65,1.39.14,1.97Z"/><path class="cls-30" d="m728.21,879.15c-.5.58-1.39.65-1.97.14-.58-.5-.65-1.39-.14-1.98.51-.58,1.39-.65,1.98-.14.58.51.65,1.39.14,1.98Z"/><path class="cls-30" d="m737.61,879.7c.71-.56,1.67-.67,2.49-.31-.83.11-1.66.22-2.49.31Z"/><path class="cls-30" d="m754.79,876.22c.02-.12.07-.23.15-.33.23-.27.64-.3.91-.07.02.02.04.04.06.06-.37.11-.74.23-1.11.34Z"/><path class="cls-30" d="m721.91,831.95c-.23.27-.64.3-.91.07-.27-.23-.3-.64-.07-.91.23-.27.64-.3.91-.07.27.23.3.64.07.91Z"/><path class="cls-30" d="m710.07,835.27c-.23.27-.64.3-.91.07-.27-.23-.3-.64-.07-.91.23-.27.64-.3.91-.07.27.23.3.64.07.91Z"/><path class="cls-30" d="m713.08,859.12c-.23.27-.64.3-.91.07-.27-.23-.3-.64-.07-.91.23-.27.64-.3.91-.07.27.23.3.64.07.91Z"/><path class="cls-30" d="m722.71,865.98c-.23.27-.64.3-.91.07-.27-.23-.3-.64-.07-.91.23-.27.64-.3.91-.07.27.23.3.64.07.91Z"/><path class="cls-30" d="m722.99,875.2c-.23.27-.64.3-.91.07-.27-.23-.3-.64-.07-.91.23-.27.64-.3.91-.07.27.23.3.64.07.91Z"/><path class="cls-30" d="m729.64,831.96c-.88,1.02-2.43,1.14-3.46.25-.57-.5-.86-1.2-.85-1.91,1.63.03,3.26-.02,4.89-.15.05.63-.14,1.29-.59,1.81Z"/><path class="cls-30" d="m707.77,843.24c-.89,1.02-2.43,1.14-3.46.25-1.02-.89-1.14-2.43-.25-3.46.89-1.02,2.43-1.14,3.46-.25,1.03.88,1.14,2.43.25,3.46Z"/><path class="cls-30" d="m713.82,874.97c-.89,1.02-2.43,1.14-3.46.25-1.02-.88-1.14-2.43-.25-3.46.89-1.02,2.43-1.14,3.46-.25,1.02.89,1.14,2.43.25,3.46Z"/><path class="cls-30" d="m700.36,855.35c-.51.58-1.39.65-1.97.14-.59-.51-.65-1.39-.14-1.98.5-.59,1.39-.65,1.98-.14.58.51.65,1.39.14,1.98Z"/><path class="cls-30" d="m716.48,855.94c-.5.59-1.39.65-1.97.14-.59-.5-.65-1.39-.14-1.97.5-.59,1.39-.65,1.98-.14.58.51.65,1.39.14,1.97Z"/><path class="cls-30" d="m734.28,879.11c-.69.81-1.91.89-2.72.2-.8-.7-.89-1.91-.2-2.72.7-.81,1.91-.89,2.72-.2.8.7.89,1.91.2,2.72Z"/><circle class="cls-43" cx="496.87" cy="969.74" r="49.99" transform="translate(-113.56 67.16) rotate(-6.94)"/><path class="cls-44" d="m496.87,985.54c8.7,0,15.8-7.1,15.8-15.8s-7.1-15.8-15.8-15.8-15.8,7.1-15.8,15.8,7.1,15.8,15.8,15.8Z"/><circle class="cls-43" cx="957.28" cy="969.74" r="49.99" transform="translate(-110.18 122.8) rotate(-6.94)"/><path class="cls-44" d="m957.28,985.54c8.7,0,15.8-7.1,15.8-15.8s-7.1-15.8-15.8-15.8-15.8,7.1-15.8,15.8,7.1,15.8,15.8,15.8Z"/><path class="cls-23" d="m409.41,772.87c33.99,18.73,63.78,39.78,87.5,60.89,17.26,15.38,26.05,34.07,23.26,49.3-2.05,11.37-5.9,22.43-11.65,32.85l-129.33-71.29c11.71-21.24,17-44.24,16.48-66.62-.1-4.5-1.1-9.19-2.89-13.9,5.53,2.79,11.07,5.71,16.63,8.77Z"/><path class="cls-23" d="m198.25,765.1c-33.33,19.88-62.39,41.93-85.38,63.83-16.73,15.96-24.87,34.94-21.58,50.06,2.44,11.3,6.66,22.21,12.76,32.44l126.83-75.64c-12.42-20.83-18.49-43.64-18.73-66.03-.06-4.51.78-9.22,2.42-13.99-5.43,2.98-10.87,6.08-16.32,9.33Z"/><path class="cls-23" d="m375.58,872.36v147.68c-11.9,0-23.44-1.97-34.39-5.66-14.68-4.92-26.8-21.63-31.94-44.17-7.04-30.96-11.09-67.22-11.09-106.02,0-6.35.12-12.61.34-18.8,3.26,3.85,6.88,6.99,10.78,9.24,19.35,11.26,42.05,17.73,66.3,17.73Z"/><path class="cls-23" d="m222.18,872.36v147.68c11.9,0,23.44-1.97,34.39-5.66,14.68-4.92,26.8-21.63,31.94-44.17,7.04-30.96,11.09-67.22,11.09-106.02,0-6.35-.12-12.61-.34-18.8-3.26,3.85-6.88,6.99-10.78,9.24-19.35,11.26-42.05,17.73-66.3,17.73Z"/><path class="cls-10" d="m406.3,770.72c0,33.67-5.62,65.13-15.39,91.98-7.12,19.56-23.96,34.05-44.33,38.32-15.2,3.19-31.18,4.9-47.71,4.9s-32.51-1.71-47.71-4.9c-20.37-4.28-37.2-18.77-44.33-38.32-9.76-26.86-15.39-58.32-15.39-91.98,0-5.5.15-10.94.47-16.3,4.54,3.33,9.56,6.05,14.97,8.02,26.86,9.76,58.33,15.39,91.98,15.39s65.13-5.62,91.98-15.39c5.42-1.97,10.44-4.69,14.97-8.02.31,5.36.47,10.8.47,16.3Z"/><path class="cls-37" d="m299.08,535.92v-7.26c0-57.02,57.95-71.26,57.95-71.26,9.6,65.84-30.57,77.79-57.95,78.52Z"/><path class="cls-37" d="m296.67,557.95v-7.26c0-57.02-57.95-71.26-57.95-71.26-9.6,65.84,30.57,77.79,57.95,78.52Z"/><path class="cls-37" d="m319.42,443.24c0,29.5-22.75,53.41-22.75,53.41,0,0-22.75-23.91-22.75-53.41s22.75-53.41,22.75-53.41c0,0,22.75,23.91,22.75,53.41Z"/><line class="cls-2" x1="296.67" y1="567.27" x2="296.67" y2="443.24"/><line class="cls-2" x1="338.28" y1="490.66" x2="296.67" y2="535.92"/><line class="cls-2" x1="261.52" y1="512.44" x2="296.67" y2="550.63"/><path class="cls-23" d="m434.27,672.95c0,16.52-1.71,32.51-4.9,47.71-3.09,14.73-11.52,27.61-23.35,36.31-4.54,3.33-9.56,6.05-14.97,8.02-26.85,9.76-58.33,15.39-91.98,15.39s-65.13-5.62-91.98-15.39c-5.42-1.97-10.44-4.69-14.97-8.02-11.83-8.69-20.27-21.58-23.35-36.31-3.19-15.2-4.9-31.18-4.9-47.71s1.71-32.51,4.9-47.71c4.28-20.37,18.77-37.2,38.32-44.33,26.86-9.76,58.33-15.39,91.98-15.39s65.13,5.62,91.98,15.39c19.56,7.12,34.05,23.96,38.33,44.33,3.19,15.2,4.9,31.18,4.9,47.71Z"/><path class="cls-6" d="m406.48,672.96c0,9.73-1.36,19.14-3.89,28.08-2.45,8.67-9.15,16.25-18.55,21.37-3.6,1.96-7.59,3.56-11.89,4.72-21.34,5.75-46.34,9.06-73.08,9.06s-51.74-3.31-73.08-9.06c-4.3-1.16-8.29-2.76-11.89-4.72-9.4-5.12-16.1-12.7-18.55-21.37-2.54-8.94-3.89-18.35-3.89-28.08s1.36-19.14,3.89-28.08c3.4-11.99,14.91-21.9,30.45-26.09,21.34-5.75,46.34-9.06,73.08-9.06s51.74,3.31,73.08,9.06c15.54,4.19,27.05,14.1,30.45,26.09,2.53,8.94,3.89,18.35,3.89,28.08Z"/><rect class="cls-10" x="313.69" y="641.27" width="42.04" height="13.52" rx="6.76" ry="6.76"/><rect class="cls-10" x="248.82" y="629.69" width="23.68" height="36.67" rx="11.84" ry="11.84"/><path class="cls-10" d="m299.06,717.19c-20.71,0-37.56-13.64-37.56-30.41,0-4.34,3.52-7.85,7.85-7.85s7.85,3.52,7.85,7.85c0,7.97,10.01,14.71,21.86,14.71s21.86-6.74,21.86-14.71c0-4.34,3.52-7.85,7.85-7.85s7.85,3.52,7.85,7.85c0,16.77-16.85,30.41-37.56,30.41Z"/><path class="cls-6" d="m209.15,591.61c-2.41,0-4.82-.92-6.66-2.76l-29.18-29.18c-3.68-3.68-3.68-9.64,0-13.32,3.68-3.68,9.64-3.68,13.32,0l29.18,29.18c3.68,3.68,3.68,9.64,0,13.32-1.84,1.84-4.25,2.76-6.66,2.76Z"/><path class="cls-6" d="m194.48,539.55c-7.72-7.72-20.24-7.72-27.95,0-7.72,7.72-7.72,20.24,0,27.95,7.72,7.72,20.24,7.72,27.95,0,7.72-7.72,7.72-20.24,0-27.95Z"/><path class="cls-6" d="m388.61,591.28c2.41,0,4.82-.92,6.66-2.76l29.18-29.18c3.68-3.68,3.68-9.64,0-13.32-3.68-3.68-9.64-3.68-13.32,0l-29.18,29.18c-3.68,3.68-3.68,9.64,0,13.32,1.84,1.84,4.25,2.76,6.66,2.76Z"/><path class="cls-6" d="m403.29,539.23c7.72-7.72,20.24-7.72,27.95,0,7.72,7.72,7.72,20.24,0,27.95-7.72,7.72-20.24,7.72-27.95,0-7.72-7.72-7.72-20.24,0-27.95Z"/><circle class="cls-29" cx="325.98" cy="887.84" r="9.02"/><circle class="cls-29" cx="341.47" cy="858.42" r="8.13"/><circle class="cls-29" cx="377.42" cy="809.64" r="8.13"/><circle class="cls-29" cx="325.98" cy="845.57" r="4.72"/><circle class="cls-29" cx="362.89" cy="854.78" r="4.72"/><circle class="cls-29" cx="383.27" cy="835.84" r="11.53"/><circle class="cls-29" cx="377.42" cy="866.45" r="9.81"/><circle class="cls-29" cx="357.1" cy="835.84" r="5.96"/><circle class="cls-29" cx="306.68" cy="881.54" r="5.96"/><circle class="cls-29" cx="306.68" cy="858.6" r="3.17"/><circle class="cls-29" cx="321.6" cy="870.02" r="3.17"/><circle class="cls-29" cx="355.73" cy="808.3" r="3.17"/><circle class="cls-29" cx="333.34" cy="822.37" r="3.17"/><circle class="cls-29" cx="394.94" cy="809.64" r="3.17"/><circle class="cls-29" cx="355.73" cy="885.68" r="8.63"/><path class="cls-18" d="m1091.91,667.47s-32.16-37.47-19.96-44.77c12.21-7.31,18.3,9.89,27.79-9.74,9.49-19.63,13.38,22.9,20.86,15.63,7.48-7.27,13.29-7.53,20.7-4.72,7.41,2.81-.73,39.11-10.94,43.83-10.21,4.72-38.45-.23-38.45-.23Z"/><path class="cls-18" d="m1011.72,939.87c-15.16-13.24-17.95-218.6,69.74-273.9,0,0,22.18-20.26,56.74-.51,31.38,17.93,120.25,129.08,103.52,256.72-3.19,24.35-21.71,40.97-45.1,40.8-48.7-.36-119.71,33.83-184.91-23.1Z"/><path class="cls-26" d="m1090.76,701.47s-51.63,33.77-44.23,115.23c7.4,81.46,37.44-5.2,37.92-44.52.47-39.32,30.11-80.09,6.31-70.71Z"/><path class="cls-25" d="m597.07,342.29s3.06-26.04,26.94-31.93c23.88-5.88,54.27,8.71,52.33,29.02-1.93,20.32-8.71,34.35-8.71,34.35l-8.71-1.93-13.54,7.26-2.9-8.22-12.56,6.29-17.91-9.19s-17.63-2.9-14.94-25.64Z"/><path class="cls-36" d="m626.52,317.14s12.09-19.83,19.35-19.83-4.35,26.12-4.35,26.12c0,0,18.87-.48,21.77,1.93s-9.19,10.64-21.28,10.64c0,0,8.71,12.58,8.22,19.83,0,0-7.26,8.71-23.7-11.61,0,0-19.35,17.74-20.8,13.46,0,0,0-17.33,10.64-24.59,0,0-19.32-15.07-19.29-16.38.05-2,1.55-3.65,3.55-3.78,4.96-.34,15.18-.29,25.9,4.2Z"/><path class="cls-42" d="m630.39,318.59s-7.26,9.19-6.29,14.03c0,0,2.42,2.9,4.84,0s7.74-5.32,6.77-10.64-5.32-3.39-5.32-3.39Z"/><path class="cls-36" d="m639.63,278.8s-12.81-11.16-11.6-15.15,18.81,8.34,18.81,8.34c0,0,2.79-10.48,5.09-11.53,2.29-1.05,6.42,7.48,4.4,14.12,0,0,10.86-1.92,16.21,0,0,0,5.3,5.97-12.65,10.39,0,0,10.03,14.68,6.59,14.5,0,0-12.97-3.95-16.61-11.45,0,0-14.5,7.19-15.48,6.88-1.49-.48-2.47-1.68-2.24-2.81.58-2.8,2.32-8.41,7.48-13.28Z"/><path class="cls-42" d="m653.1,269.28s-5.68,7.19-4.92,10.97c0,0,1.89,2.27,3.78,0s6.05-4.16,5.29-8.32-4.16-2.65-4.16-2.65Z"/><path class="cls-36" d="m575.95,309.55s-16.43,4.35-19.05,1.11,17.45-10.9,17.45-10.9c0,0-7.11-8.19-6.69-10.68.42-2.49,9.79-1.13,14.16,4.28,0,0,4.5-10.07,9.08-13.43,0,0,7.92-1.04,1.51,16.3,0,0,17.78-.08,15.7,2.67,0,0-10.54,8.52-18.79,7.34,0,0-2.18,16.04-2.98,16.67-1.23.96-2.78,1.1-3.58.28-2-2.05-5.67-6.64-6.81-13.64Z"/><path class="cls-42" d="m575.62,293.06s2.77,8.73,6.32,10.22c0,0,2.94-.29,2.12-3.13s-.05-7.34-3.92-9.05c-3.87-1.71-4.52,1.96-4.52,1.96Z"/><path class="cls-11" d="m797.04,288.27c4.77,16.9-2,29.45-13.78,32.78-11.78,3.33-24.13-3.83-28.9-20.73l8.74-11.35,10.66,5.88,4.51-7.92,10.06,6.97,7.57-9.18c.43,1.17.82,2.36,1.16,3.56Z"/><path class="cls-11" d="m766.85,271.41c-10.02,12.81-23.29,14.92-32.86,8.14-10-7.08-12.19-21.18-2.04-35.51.69-.98,1.42-1.94,2.19-2.86l6.42,12.68,13.19-2.23-.98,10.87,9.7-.23,4.38,9.13Z"/><path class="cls-11" d="m767.86,249.02l-11.36,3.52-4.58-11.34-8.12,4.14-5.68-10.76-13.54,4.69c5.29-16.75,20.27-31.16,31.95-27.47,10.84,3.43,15.04,21.28,11.33,37.23Z"/><path class="cls-11" d="m749.18,325.44c0,.74-.01,1.46-.05,2.17l-8.85-4.92-7.79,5.8-5.48-9.44-9.48,9.44-12.57-6.64c1.23-16.36,10.62-32.22,22.05-32.22,12.24,0,22.17,18.26,22.17,35.82Z"/><path class="cls-9" d="m659.74,133.72s91.43,21.64,121.73,69.78c2.28,3.62-1.54,7.95-5.34,5.99-23.13-11.92-75.31-37.72-96.15-39.05,0,0-19.31-10.53-20.24-36.72Z"/><path class="cls-14" d="m652.24,137.21s-7.34-43.62,8.56-45.46c0,0,18.54,1.28,14.23,10.09,0,0-16.66,11.91-12.09,30.07,0,0,75.29,53.89,41.73,144.57,0,0-8.68,24.67-12.61,3.24-3.93-21.43-13.21-61.68-27.84-88.43,0,0-84.46,90.56-85.94,78.64s42.27-108.77,73.95-132.73Z"/><ellipse class="cls-28" cx="645.29" cy="158.31" rx="6.69" ry="3.46" transform="translate(199.26 650.77) rotate(-61.62)"/><path class="cls-28" d="m650.06,180.1s-4.88,5.35-4.04,8.57.62,6.37,4.52,4.75,8.04-8.71,9.09-11.69-4.43.32-9.56-1.63Z"/><path class="cls-28" d="m619.07,208.05c-3.21,3.86-2.61,10.78-1.39,11.29s8.9-1.16,10.38-4.32c1.47-3.16,3.78-6.16,1.14-7.62s-6.24-4.03-10.13.65Z"/><path class="cls-28" d="m679.86,201.11s-.84,12.6,1.5,15.19,4.46,4.01,5.37,1.33c.92-2.68-1.36-25.2-6.88-16.52Z"/><path class="cls-28" d="m685.22,174.39c-3.34,6.43,1.05,11.04,4.71,11.3,3.66.26,9.39,18.28,9.99,12.42.6-5.86-3.94-14.94-5.46-17.37s-6.71-11.24-9.24-6.36Z"/><path class="cls-28" d="m712.39,164.1c-1.35,2.48,3.36,6.25,6.41,6.26,3.05,0,8.95.78,9.8.98s7.62-3.64,2.44-6.33c-5.18-2.69-15.77-6.19-18.64-.91Z"/><path class="cls-28" d="m764.6,192.61c-2.89-.84-7.72-.87-7.25,1.49s10.33,8.96,12.98,8.63,1.82-3.56,1.33-4.12-7.06-5.99-7.06-5.99Z"/><path class="cls-28" d="m704.38,247.27c-1.48,1.89-5.54,9.19-4.08,10.88,1.46,1.69,5,2.26,5.88.1s-1.8-10.98-1.8-10.98Z"/><path class="cls-28" d="m657.88,92.78s3.52,14.99,17.79,6.49c7.71-4.59-19.14-9.81-17.79-6.49Z"/><path class="cls-4" d="m664.16,99.11s-11.86,10.93-4.67,40.34"/><path class="cls-4" d="m664.22,191.29s6.83-17.76-.06-29.94"/><path class="cls-4" d="m698,174.59s-7.53-18.63-17.09-25.7"/><path class="cls-1" d="m1024.15,70.18s-155.46,138.4-113.35,198.46c42.12,60.06,93-23.9,93-23.9"/><path class="cls-1" d="m886.28,272.01s-38.14,48.83-59.65,3.78c-21.51-45.06,195.57-220.8,195.57-220.8"/><path class="cls-1" d="m1005,46.1s-125.76,134.41-173.04,141.52c-19.4,2.92-39.48-33.67-5.1-63.54"/><path class="cls-16" d="m912.78,135.22s-23.45,12.27-32.16.43c-6.05-8.22,9.93-30.46,20.24-43.27.93-1.16,2.74.01,2.07,1.34-6.14,12.11-13.78,30.46-5.38,33.35,12.7,4.37,15.23,8.14,15.23,8.14Z"/><path class="cls-16" d="m918.29,193.98s-1.33,26.44,13.06,29.39c10,2.05,23.51-21.76,30.83-36.49.66-1.33-1.16-2.49-2.08-1.32-8.43,10.64-21.9,25.26-28.04,18.85-9.28-9.7-13.77-10.43-13.77-10.43Z"/><path class="cls-16" d="m834.71,246.37s-19.14,5.54-28.83-4.75c-6.73-7.15,4.11-21.37,11.35-29.39.66-.73,2.47.44,2.07,1.33-3.61,8.15-7.57,20.77.43,24.27,12.1,5.3,14.98,8.54,14.98,8.54Z"/><path class="cls-16" d="m863.55,290.57s1.94,12.85,10.68,15.78c6.07,2.04,11.54-8.26,14.31-14.74.25-.59-.93-1.34-1.36-.86-3.84,4.36-10.23,10.15-14.49,6.37-6.44-5.72-9.14-6.54-9.14-6.54Z"/><path class="cls-16" d="m983.78,269.8s-12.48,3.61-18.8-3.1c-4.39-4.66,2.68-13.94,7.4-19.16.43-.47,1.61.29,1.35.87-2.35,5.31-4.94,13.54.28,15.82,7.89,3.46,9.77,5.57,9.77,5.57Z"/><path class="cls-16" d="m833.1,148.88s-1.73,12.88-10.42,15.95c-6.04,2.14-11.67-8.07-14.55-14.51-.26-.58.91-1.35,1.34-.88,3.91,4.3,10.4,9.98,14.59,6.13,6.35-5.83,9.04-6.69,9.04-6.69Z"/><path class="cls-16" d="m863.46,211.82c-.43-.72-1.52-.5-1.66.33-1.04,6.32-2.97,24.88,7.11,37.88,8.57,11.05,24.63.4,33.63-7.11,1.49-1.25.23-3.66-1.64-3.14-9.3,2.59-23.77,4.41-28.16-7.32-4.43-11.85-7.63-17.91-9.27-20.63Z"/><path class="cls-16" d="m913.01,165.45c.55-.72,1.69-.27,1.61.63-.62,6.89-3.35,24.98-15.09,37.48-10.27,10.93-22.28-.23-28.65-8.05-1.27-1.56.32-3.82,2.21-3.13,7.78,2.85,20.39,5.06,27.06-6.66,6.48-11.41,10.69-17.43,12.87-20.27Z"/><path class="cls-13" d="m1015.03,216.63c5.73-8.95,10.21-9.81,13.64-7.61s4.53,6.62-1.21,15.58-17.58,21.32-21.01,19.12,2.84-18.13,8.58-27.09Z"/><path class="cls-13" d="m1026.36,230.14c8.47-4.02,12.83-2.64,15.12.52,2.3,3.16,1.66,6.92-6.81,10.94-8.47,4.02-23.71,7.82-26.01,4.65s9.23-12.09,17.7-16.11Z"/><path class="cls-13" d="m1023.34,199.95c5.48-7.61,4.91-12.14,2.21-14.97-2.7-2.83-6.51-2.87-11.99,4.73-5.48,7.61-11.95,21.92-9.25,24.75s13.55-6.9,19.03-14.51Z"/><path class="cls-13" d="m999.6,216.83c-3.2-8.81-7.27-10.89-11.13-10.25-3.86.64-6.04,3.76-2.84,12.57,3.2,8.81,11.38,22.22,15.24,21.58,3.86-.64,1.93-15.09-1.27-23.9Z"/><path class="cls-13" d="m1031.77,244.07c9.33.91,12.36,4.33,12.7,8.23.34,3.89-2.14,6.78-11.47,5.87s-24.35-5.5-24.69-9.4,14.14-5.61,23.47-4.71Z"/><path class="cls-13" d="m854.93,113.24c8.75-6.03,9.46-10.54,7.14-13.89s-6.77-4.3-15.53,1.74c-8.75,6.03-20.71,18.3-18.4,21.65s18.03-3.46,26.78-9.5Z"/><path class="cls-13" d="m841.04,102.38c3.73-8.6,2.2-12.91-1.04-15.1-3.24-2.19-6.97-1.42-10.7,7.18-3.73,8.6-7,23.97-3.76,26.15,3.24,2.19,11.77-9.64,15.5-18.24Z"/><path class="cls-13" d="m851.88,113.83c9.1-2.25,13.1-.02,14.71,3.53,1.62,3.56.24,7.11-8.86,9.36s-24.8,2.91-26.41-.65c-1.62-3.56,11.46-10,20.56-12.25Z"/><path class="cls-13" d="m855.25,128.66c8.92,2.9,11.14,6.89,10.63,10.77-.51,3.88-3.55,6.16-12.47,3.27-8.92-2.9-22.6-10.62-22.09-14.49s15.01-2.44,23.93.46Z"/><path class="cls-13" d="m826.93,97.44c-1.23-9.29-4.75-12.2-8.66-12.41-3.9-.21-6.71,2.37-5.48,11.66s6.33,24.15,10.24,24.36c3.9.21,5.13-14.32,3.9-23.61Z"/><path class="cls-13" d="m978.73,152.96c2.19-10.4-.4-14.15-4.39-14.99-3.99-.84-12.04,1.51-10.06,11.95,2.21,11.66-2.42,27.53,1.57,28.37,3.99.84,10.69-14.92,12.88-25.33Z"/><path class="cls-13" d="m917,246.94c6.44-6.81,6.47-11.39,4.17-14.55-2.3-3.16-6.07-3.71-12.51,3.11s-14.75,20.15-12.45,23.31c2.3,3.16,14.35-5.05,20.78-11.87Z"/><path class="cls-13" d="m912.59,263.42c9.37-.29,12.81,2.72,13.65,6.54.83,3.82-1.25,7-10.62,7.29-9.37.29-24.86-2.34-25.69-6.16s13.3-7.38,22.67-7.67Z"/><path class="cls-13" d="m916.99,275.24c8.97,2.74,11.26,6.7,10.82,10.58-.44,3.88-3.44,6.23-12.41,3.49-8.97-2.74-22.78-10.22-22.34-14.1.44-3.88,14.97-2.7,23.93.04Z"/><path class="cls-13" d="m888.12,244.53c-1.39-9.27-4.97-12.12-8.88-12.26-3.91-.14-6.66,2.49-5.27,11.76,1.39,9.27,6.76,24.04,10.66,24.17,3.91.14,4.88-14.41,3.49-23.68Z"/><path class="cls-16" d="m999.33,237.57c1.58-2.36,5.09-.1,9.36,2.76,4.28,2.86,7.71,5.24,6.13,7.6s-7.56,3.81-11.84.95c-4.28-2.86-5.23-8.95-3.65-11.31Z"/><path class="cls-16" d="m882.91,261.88c2.15-1.86,4.93,1.25,8.3,5.15,3.37,3.89,6.04,7.1,3.89,8.95s-8.3,1.66-11.67-2.23c-3.37-3.89-2.67-10.01-.52-11.87Z"/><path class="cls-16" d="m822.81,115.22c2.22-1.77,4.88,1.44,8.09,5.46s5.76,7.33,3.54,9.1-8.36,1.34-11.57-2.68c-3.21-4.02-2.28-10.11-.06-11.88Z"/><path class="cls-1" d="m1060.97,139.03c-7.67-.25-15.21-2.36-22.18-5.52"/><path class="cls-13" d="m1017.21,112.54c-9.14-5.43-13.52-4.19-15.61-.69s-1.07,7.95,8.06,13.38c9.14,5.43,25.27,11.17,27.36,7.67s-10.68-14.93-19.81-20.36Z"/><path class="cls-13" d="m1013.15,129.7c-9.37.2-12.65,3.39-13.28,7.25-.63,3.86,1.62,6.93,10.99,6.72,9.37-.2,24.7-3.65,25.33-7.51s-13.67-6.67-23.04-6.46Z"/><path class="cls-13" d="m1019.02,115.06c-5.84-7.33-5.49-11.89-2.93-14.84,2.56-2.96,6.36-3.19,12.2,4.14,5.84,7.33,13.01,21.31,10.45,24.27-2.56,2.96-13.87-6.24-19.72-13.57Z"/><path class="cls-13" d="m1031.09,105.8c-1.09-9.31,1.61-13,5.35-14.16,3.73-1.16,7.08.65,8.18,9.96,1.09,9.31-.21,24.97-3.94,26.13s-8.49-12.62-9.58-21.93Z"/><path class="cls-13" d="m1014.56,144.58c-7.93,5-9.1,9.42-7.66,13.05,1.44,3.63,4.96,5.1,12.89.11,7.93-5,19.3-15.84,17.85-19.48-1.44-3.63-15.15,1.32-23.08,6.32Z"/><path class="cls-16" d="m1032.43,140.89c-2.54-1.28-.73-5.03,1.58-9.63,2.31-4.6,4.25-8.29,6.79-7.02s4.71,7.04,2.4,11.64c-2.31,4.6-8.23,6.29-10.77,5.01Z"/><path class="cls-17" d="m1116.47,294.54s131.66-73.67,161.67-82.17c2.15-.61,3.47-2.75,3.01-4.93-1.05-4.95-3-12.52-5.14-12.2-2.5.37-32.17,20.46-32.17,20.46,0,0,15.24-29.8,23.49-41.49,1.45-2.06.67-4.93-1.61-6.01-3.69-1.74-4.78-2.18-7.38-1.14-2.56,1.03-14.24,23.07-21.63,37.44-4.18,8.11-10.58,14.85-18.47,19.43-26.25,15.25-90.1,51.39-146.52,75.76,6.5-11.19,14.96-23.9,25.88-38.18,62.11-81.46,76.5-78.84,78.58-80.94,3.79-3.83-.03-5.97-.03-5.97,0,0-38.09,19.32-67.42,52.97-5-7.78-10.93-22.03-13.32-47.36-.13-1.34-1.1-2.46-2.42-2.75-.96-.21-1.88-.42-2.05-.39-.68.12-.94,1.32-1.61,1.49-.72.18-1.43.4-2.13.65-.1.04-.13.05-.14.05-.1.04-.2.08-.3.12-.36.16-.73.32-1.08.49-.61.3-1.21.62-1.78.97-.29.18-.57.36-.85.55-.06.04-.06.04-.1.07-.06.04-.11.09-.17.13,1.83,21.12,6,41.87,13.57,60.69-15.57,19.28-31.1,41.42-43.22,64.97-21.4,8.17-40.92,13.44-55.78,13.57-67.93.58-137.15,37.17-137.15,37.17,0,0-.25,15.48,10.87,18.61,11.16,3.1,65.83-35.08,103.33-32.62,17.55,1.14,45.64-11.14,70.41-19.04,5.74-1.83,11.27-3.72,16.54-5.54,20.4-7.13,35.63-13.47,35.63-13.47,0,0,94.2,14.86,117.24,6.76,1.15-.4,2.05-1.32,2.45-2.47.71-2.02,1.41-5.41-.39-8.13-2.8-4.18-13.25,8.09-99.79-7.57Z"/><path class="cls-20" d="m868.62,372.43c-8.05-2.39-9.26-12.67-9.44-15.92,8.46-4.3,72.94-35.96,135.45-36.49,13.95-.12,32.92-4.72,56.37-13.68l.6-.23.3-.57c10.74-20.87,25.22-42.64,43.03-64.69l.62-.77-.37-.92c-6.57-16.33-10.97-35.28-13.1-56.38-.06-.58.06-1.17.35-1.67l.41-.73c.54-.96,1.4-1.7,2.44-2.08.7-.26,1.43-.52,1.73-.6.62-.16,1.25-.29,1.88-.4.32-.05.64-.1.96-.15l.53-.05c.17,0,.35-.02.53-.02,5.74,19.06,8.73,41.25,13.65,48.9l1.22,1.89,1.48-1.69c26.56-30.47,50.89-51.45,54.86-54.82,1.95.27,7.43,1.1,11.34,2.26,1.33.39,2.16.73,2.67.99-.36.21-.79.45-1.22.69-7.88,4.38-31.84,17.7-81.39,82.7-10.29,13.46-19.03,26.36-26,38.35l-2.57,4.43,4.7-2.03c12.51-5.4,25.37-13.85,38.17-20.08,4.72-2.3,8.35-2.27,13.02-4.41,15.7-7.21,32.03-16.01,45.84-23.49,1.17-.63,2.61-4.41,3.76-5.04,2.61-1.42,17.52-8.07,20.01-9.44,18.42-10.13,20.78-10.37,29.6-15.53,5.63-3.29,10.31-7.96,13.61-13.59l6.26-10.67c2.66-4.54,4.93-9.29,6.78-14.21,2.57-6.85,6.36-16.38,7.94-17.43.24-.09,1.35-.32,4.16.51,2.34.69,4.83,1.83,6.51,2.65-7.46,8.92-23.72,40.54-25.69,44.41l-2.87,5.61,5.29-3.43c14.11-9.14,30.14-18.54,33.97-19.37.52,1.35.95,4.36,1.23,7.72.21,2.59-1.36,4.99-3.84,5.78-32.86,10.52-133.18,70.89-138.73,74l-25.83,10.12,4.63.84c60.76,10.99,85.22,8.6,95.66,7.58,2.57-.25,4.44-.43,5.2-.21.15.04.17.07.2.12,1.68,2.54-1.55,6.11-2.33,6.91-19.5,9.02-116.7-6.18-117.68-6.33l-.47-.07-.44.18c-.15.06-15.42,6.4-35.54,13.43-4.79,1.66-10.5,3.61-16.49,5.53-6.2,1.98-12.7,4.25-18.98,6.46-18.67,6.56-37.98,13.33-50.81,12.5-23.21-1.52-52.9,12.25-74.58,22.31-12.66,5.87-24.63,11.42-28.41,10.37l-.16-.05Z"/><path class="cls-12" d="m753.7,108.86c-18.9-7.42-31.18-59-31.18-59l-8.39,1.45,7.38,7.37s6.12,43.17,31.31,59.28c0,0-4.41-6.31.88-9.11Z"/><path class="cls-15" d="m701.73,74.85s22.44,33.63,31.31,59.28c0,0,2.35-17.25,19.78-16.17,0,0-19.45-11.49-31.31-59.28,0,0-13.89-2.72-19.78,16.17Z"/><path class="cls-12" d="m674.42,82.08s12.75-14.96,27.31-7.23c0,0,30.88,43.01,31.31,59.28,0,0-4.87-3.52-13.29-1.12,0,0-16.74-50.08-45.33-50.93Z"/><path class="cls-31" d="m674.42,82.08s13.65-13.14,27.31-7.23c0,0,4.86-15.97,19.78-16.17,0,0-3.55-5.47,1.01-8.83,0,0-7.53-4.58-23.98,6.43,0,0-24.08,8.25-24.12,25.79Z"/><path class="cls-27" d="m689.76,66.07s12.36-4.87,14.14-8.69,6.06-.5,4.45,1.49-8.66,7-10.64,8.13-10.99,3.97-7.94-.93Z"/><path class="cls-34" d="m690,46.19s3.6,14.35,7.36,17.88c.53.5,1.35.53,1.95.13l.7-.46c.65-.43.87-1.28.49-1.96-1.79-3.22-6.28-12.2-3.68-16.76,0,0-2.51-2.7-6.83,1.19Z"/><path class="cls-34" d="m719.81,84.42c-1.04,0-2.02.56-2.62,1.4-.89,1.25-1.85,3.46-.51,6.21,2.13,4.36,4.26,1.41,3.83-.11-.39-1.35,2.9-7.47-.7-7.51Z"/><path class="cls-34" d="m704.14,91.87c.6-.87,1.65-1.34,2.72-1.34,1.54,0,3.85.51,5.31,3.17,2.34,4.25-1.3,4.29-2.29,3.06-.88-1.09-7.78-1.93-5.74-4.89Z"/><path class="cls-12" d="m593.1,138.25c9.19-14.23-2.55-57.91-2.55-57.91l5.88-2.82-1.89,8.85s12.47,34.63,2.57,58.17c0,0,.41-6.7-4.01-6.29Z"/><path class="cls-15" d="m613.22,89.11s-1.51,35.17,2.57,58.17c0,0-8.02-11.61-18.68-2.73,0,0,8-17.48-2.57-58.17,0,0,7.79-8.45,18.68,2.73Z"/><path class="cls-12" d="m633.29,81.77s-13.76-5.11-20.07,7.34c0,0-3.32,45.99,2.57,58.17,0,0,1.76-4.85,8.01-6.99,0,0-8.34-44.64,9.49-58.52Z"/><path class="cls-31" d="m633.29,81.77s-13.64-3.34-20.07,7.34c0,0-9.13-9.5-18.68-2.73,0,0,.18-5.67-3.98-6.03,0,0,3.05-6.86,17.66-6.39,0,0,18.41-5.09,25.08,7.81Z"/><path class="cls-27" d="m617.49,77.1s-9.69,2.14-12.27.15c-2.58-1.99-4.03,2.44-2.26,3.16s8.15,1.14,9.84,1.05,8.48-2.17,4.69-4.37Z"/><path class="cls-34" d="m609.81,62.57s3.15,12.23,2.1,16.58c-.15.61-.66,1.01-1.19,1l-.62-.02c-.58-.01-1.04-.54-1.05-1.22-.09-3.2-.63-11.9-4.01-14.05,0,0,.57-3.15,4.78-2.29Z"/><path class="cls-34" d="m605.37,104.55c.66-.49,1.49-.53,2.2-.18,1.04.51,2.48,1.69,2.67,4.34.3,4.2-2.17,3.01-2.47,1.69-.27-1.18-4.67-4.16-2.4-5.85Z"/><path class="cls-34" d="m618.13,102.76c-.71-.36-1.56-.22-2.23.28-.97.72-2.25,2.16-2.17,4.79.12,4.22,2.45,2.56,2.62,1.19.15-1.22,4.21-5.03,1.79-6.26Z"/><path class="cls-33" d="m995.27,399.91l59.02-19.4s31.53,50.13,36.38,73.57c0,0-66.64,31.06-64.68,21.02,4.21-21.53-25.06-57.4-30.72-75.19Z"/><path class="cls-33" d="m1031.52,468.19c.77,1.89,1.53,3.73,2.23,5.48-1.9-.05-2.88-.65-2.61-2,.22-1.12.35-2.28.38-3.48Z"/><path class="cls-32" d="m995.27,399.91s37.75,51.59,37.75,62.11-6.89,14.17-6.89,14.17l-17.01-31.59c-4.59-8.52-7.96-17.64-10.02-27.09l-3.83-17.6Z"/><path class="cls-3" d="m966.91,489.09s24.66-26.6,17.73-54.3c-6.93-27.71,15.79-67.33,25.21-64,9.42,3.32,18.77,23,18.77,23"/><path class="cls-14" d="m940.54,501.55l18.92-28.37c1.16-1.75,3.34-2.52,5.35-1.89l25.88,8.1c2.97.93,4.25,4.42,2.58,7.05l-18.39,28.93c-1.16,1.82-3.41,2.63-5.46,1.96l-26.41-8.65c-2.97-.97-4.2-4.51-2.46-7.12Z"/><path class="cls-38" d="m1088.48,449.45c-.47-.69-.99-1.35-1.43-2.06-.63-1.02-1.06-2.12-1.41-3.24-.66.1-1.3.16-1.97.07-.12-.02-.24-.05-.36-.08-.53.68-1.14,1.39-1.88,2.12-5.22,5.22-4.01-2.23-4.01-2.23l-1.78-7s-.6-.43-1.69-.85c-.17.25-.33.52-.46.8-.16.37-.58.61-.95.73-.41.13-.86.03-1.23-.16-.35-.18-.63-.58-.73-.95-.07-.21-.08-.42-.03-.64,0-.18.08-.35.16-.51-1.11-.09-2.4-.07-3.87.19-5.68.98-1.31,4.66-1.31,4.66,0,0-.36,1.44-1.94,2.91.01.53-.05,1.06-.25,1.56-.16.41-.36.72-.73.95-.36.23-.82.25-1.23.16-.38-.09-.75-.4-.94-.72-.04.01-.07.03-.1.05-.87.34-1.61.37-2.24.22-.25-.01-.5-.07-.68-.2-.07-.05-.13-.1-.2-.16-.05.08-.09.16-.15.23-.29.31-.72.45-1.13.47-.22,0-.42-.04-.61-.14-.2-.06-.37-.17-.51-.33-.16-.14-.27-.32-.33-.51-.1-.19-.15-.39-.14-.61v-1.8c0-.43.18-.82.47-1.13.02-.02.05-.03.08-.05,0-.13.04-.25.05-.38-.04-.29-.06-.53-.05-.66.05-.44.36-.7.82-1.09.05-.04.09-.09.15-.13.47-.4,1.05-.94,1.67-1.9,1.34-2.08-.55-.93-2.41-4.53-1.84-3.59-3.59-.63-3.59-.63,0,0-3.82.96-4.99.03-1.18-.94-1.42-1.84-3.68-2.2-2.28-.35,0,0-2.34,3.1-2.33,3.1-3.38-2.27-3.81-2.72-.17-.17-1.05,0-2.08.26-.01.26-.08.5-.21.72-.08.11-.17.22-.25.32-.14.16-.32.27-.51.33-.19.1-.39.15-.61.14-.17,0-.32-.05-.47-.1-.05.17-.12.33-.24.46-.07.12-.17.22-.29.29-.15.14-.33.24-.54.29-.02,0-.05,0-.07,0-.1.02-.21.05-.31.09-.23.07-.46.12-.7.12-.06,0-.12-.03-.18-.04.03.03.07.05.09.09.05.13.11.25.16.38.13.41.03.86-.16,1.23-.18.35-.58.63-.95.73-.36.1-.92.07-1.23-.16-.49-.36-.92-.76-1.22-1.3-.23-.41-.4-.86-.47-1.33-.06-.39-.09-.78-.09-1.18-.36-.18-.72-.41-1.07-.73-2.44-2.23,1.53-5.05,1.53-5.05l-4.93-3.41.6,2.34-5.43,3.7c.15.27.3.54.45.81,5.57,4.59,9.21,11.56,11.96,18.04.68,1.61,1.25,3.23,1.75,4.86,1.1,1.64,2.02,3.4,2.66,5.31.85,2.53.99,5.08.77,7.63.15,2.16-.09,4.29-1.03,6.1-.11.49-.23.98-.34,1.47.15.38.31.76.46,1.12,9.21.19,40.07-13.11,54.5-19.58l.47-2.53-.25-2.1Z"/><path class="cls-8" d="m1018.02,390.62l13.59-4.42c.84-.27,1.75.04,2.25.77l6.4,9.38c.73,1.08.25,2.56-.98,2.99l-13.56,4.74c-.86.3-1.8-.02-2.3-.78l-6.44-9.7c-.72-1.09-.21-2.57,1.04-2.98Z"/><path class="cls-38" d="m1015.07,432.91l3.76,3.76s.65,4.41,1.63,4.9,2.29,2.62,2.45,3.6,2.45,4.9,2.78,5.72,6.24,4.9,5.41,9.16.81,7.85-.67,9.81-3.69,3.38-4.21,3.81-3.1-5.48-3.1-5.48c0,0-1.26-2.59,0-3.57s0-4.58,0-4.58l-3.15-2.62-3.32-.16v-2.29l3.16-1.68v-1.92l-1.47-3.41c-.33-1,1.47-2.96,1.47-2.96l-.65-.98-2.08-4.74s-6.42-1.31-2.01-6.38Z"/><path class="cls-8" d="m1175.51,340.31s-9.21-4.37-15.87-5.04-37.5.42-42.97-1.91c-5.47-2.34-20.43,2.59-20.43,2.59l-.55,72.21c6.39,2.27,32.77-.28,45.72-1.18,3.57-.25,7.15-.1,10.69.42l19.76,2.9c.91.74,3.12,2.41,4.02,2.17,1.14-.31,4.93-7.84,4.93-7.84l-5.3-64.3Zm-68.3,60.79l-1.07-61.86,55.97,16.89,9.27,53.42c-1.72-1.45-5.78-4.71-11.69-8.45-8-5.07-52.48,0-52.48,0Z"/><path class="cls-33" d="m1107.21,401.09l-1.07-61.86s45.38-3.93,64.32,3.04c0,0,8.16,74.25.99,67.67-15.38-14.11-49.41-5.33-64.23-8.85Z"/><path class="cls-33" d="m1167.66,408.53c1.3-.17,2.57-.35,3.77-.5-.34,1.18-.87,1.69-1.67,1.3-.66-.32-1.37-.59-2.11-.8Z"/><path class="cls-38" d="m1159.69,359.72c-.07.02-.13.05-.21.05-4.18.05-8.37-.56-12.55-.65-.73.24-1.44.53-2.13.87-.73.35-1.36-.19-1.47-.79-.4.03-.8.08-1.2.12-.42.27-.86.47-1.36.57-.5.1-1.03.13-1.54.06-.43-.06-.85-.16-1.26-.29-.31.32-.67.62-1.11.88-2.26,1.31-3.74-.96-4.39-2.33-.57.02-1.13.06-1.7.11l-3.85,2.99,2.64.14,2.08,6.88c.33-.07.67-.14,1-.2,6.61-4.3,15.08-5.82,22.73-6.57,1.91-.19,3.78-.24,5.65-.23,1.11-.33,2.24-.58,3.38-.76-1.03-.19-2.06-.38-3.08-.57-.54-.1-1.08-.18-1.62-.28Z"/><path class="cls-38" d="m1150.04,397.79c1.53.22,3.02.48,4.47.84.03-.04.05-.08.09-.12.11-.17.26-.29.43-.39-1-.71-2.23-1.39-3.75-1.97-3.18-1.2-4.03-.05-4.15,1.28.98.1,1.95.22,2.91.36Z"/><path class="cls-38" d="m1169.97,404.25c-.18-.54.23-1.02.7-1.21-.22-2.28.73-4.35,1.76-6.38.36-15.02-2.23-39.71-3.78-52.93l-2.49-1.32-2.27-.43c-.88.27-1.73.59-2.62.82-1.27.32-2.55.41-3.84.41-.12.72-.25,1.41-.57,2.08-.06.12-.13.23-.2.35.54.78,1.07,1.65,1.6,2.65,3.74,7.16-3.65,3.45-3.65,3.45l-7.89-.44s-.65.48-1.44,1.48c.21.26.43.52.69.74.33.29.45.81.45,1.23,0,.47-.25.91-.57,1.23-.3.3-.82.47-1.23.45-.24,0-.47-.06-.67-.18-.19-.07-.34-.19-.48-.34-.46,1.13-.86,2.48-1.07,4.1-.84,6.25,4.43,2.89,4.43,2.89,0,0,1.39.85,2.4,2.97.56.16,1.09.4,1.55.77.37.3.63.61.75,1.08.12.45,0,.94-.23,1.34-.21.36-.66.65-1.06.75,0,.04.01.08.02.12.06,1.02-.14,1.81-.5,2.41-.1.26-.24.5-.43.65-.07.06-.15.11-.23.16.06.08.14.15.19.24.23.4.23.89.12,1.33-.06.23-.18.43-.34.6-.13.19-.3.33-.51.43-.2.12-.42.17-.64.18-.23.04-.46.02-.69-.06l-1.88-.59c-.45-.14-.79-.46-1.02-.86-.02-.03-.01-.07-.03-.1-.13-.04-.25-.12-.38-.18-.32-.05-.57-.11-.7-.16-.44-.19-.61-.6-.86-1.21-.03-.07-.06-.13-.08-.2-.26-.62-.63-1.41-1.44-2.37-1.73-2.08-1.15.27-5.52,1.03-4.35.75-1.83,3.54-1.83,3.54,0,0-.11,1.89-.58,3.43-.24-.29-.53-.59-.93-.92-1.96-1.59,0,0-3.93,1.62-3.91,1.63-1.93-4.01-2.08-4.68-.06-.26-.98-.59-2.11-.9-.16.23-.35.43-.6.57-.14.06-.28.11-.41.17-.22.07-.44.07-.67.03-.23-.01-.45-.08-.66-.21-.16-.09-.27-.22-.38-.36-.14.13-.3.24-.48.3-.13.07-.28.11-.43.11-.22.05-.45.04-.67-.03-.02,0-.05-.02-.07-.03-.11-.04-.22-.06-.34-.09-.26-.06-.5-.15-.73-.27-.06-.03-.1-.1-.15-.14,0,.05.03.09.03.13-.02.15-.04.3-.06.45-.1.46-.44.83-.83,1.07-.36.22-.9.27-1.3.16-.39-.11-.9-.44-1.07-.83-.26-.61-.44-1.22-.43-1.9.01-.51.1-1.04.29-1.51.16-.41.35-.79.57-1.16-.24-.37-.45-.79-.61-1.28-1.06-3.46,4.24-3.91,4.24-3.91l-2.75-5.95-.74,2.54-4.96.33c-.11.85-.39,1.65-1,2.24-.1.1-.22.18-.34.24,1.01,6.96,2.42,13.88,2.13,20.94-.14,3.38-.28,6.78-.63,10.15-.07.69-.15,1.43-.23,2.18.33.11.66.24.97.41.23.13.44.28.62.45,1.02-.1,2.05-.24,3.06-.37,2.5-.32,4.98-.39,7.5-.36,2.61.03,5.23.03,7.85.09.09,0,.18,0,.26,0,0,0,.01,0,.02,0,1.44-.46,2.91-.8,4.38-1.01h0c.23-.05.46-.09.69-.11,1.26-.15,2.37-.02,3.59.31,1.26.34,2.54.87,3.57-.2.48-.5,1.25-.28,1.58.25.14.22.3.41.47.59,1.64.12,3.28.31,4.88.53,3.16.45,6.12,1.09,9.01,2.34.69.09,1.38.16,2.09.22,1.19.1,2.21.28,3.13,1.09.47.41.96,1.1,1.49,1.8,1.34.62,2.57,1.41,3.76,2.27.3-.03.63.08.82.3.03.03.06.06.09.09.04.02.07.04.11.06-.17-.58-.39-1.16-.57-1.71Z"/><path class="cls-22" d="m370.37,151.59s72.68,50.43,105.7,125.83l-6.06,3.02s-16.23-54.88-104.6-126.38l4.96-2.48Z"/><path class="cls-22" d="m439.05,179.92s3.31,16.34-8.21,31.74l-4.55-5.42s12.76-14.53,12.76-26.32Z"/><path class="cls-22" d="m397.28,214.96s15.52,6.09,32.68-2.57l-4.55-5.42s-16.53,10.05-28.13,7.99Z"/><path class="cls-22" d="m458.01,194.25s3.85,19.05-9.56,36.99l-5.3-6.32s14.88-16.94,14.87-30.67Z"/><path class="cls-22" d="m409.34,235.08s18.09,7.1,38.09-2.99l-5.3-6.32s-19.26,11.71-32.79,9.31Z"/><path class="cls-22" d="m480.62,217.77s1.14,22.81-17.59,41.3l-5.05-8.27s20.25-17.07,22.65-33.03Z"/><path class="cls-22" d="m416.92,256.68s19.77,11.42,44.78,3.2l-5.05-8.27s-24.43,10.23-39.73,5.08Z"/><path class="cls-22" d="m418.45,165.66s4.55,14.07-4.05,28.79l-4.55-4.32s9.79-14.09,8.6-24.47Z"/><path class="cls-22" d="m385.16,200.73s14.29,3.82,28.55-5.54l-4.55-4.32s-13.56,10.51-23.99,9.86Z"/><path class="cls-22" d="m400.31,153.02s3.9,12.05-3.47,24.65l-3.9-3.7s8.38-12.06,7.37-20.95Z"/><path class="cls-22" d="m371.82,183.04s12.23,3.27,24.43-4.74l-3.9-3.7s-11.61,9-20.54,8.44Z"/><path class="cls-41" d="m380.56,117.22c-6.36-3.36-2.49,13.64-11.83,19.59-9.35,5.94-5.93,9.84-5.93,9.84,0,0-4.17-3.08-9.3,6.74-5.14,9.82-22.41,7.39-18.52,13.44,0,0,6.43,7.08,44.97-.6v-.15c-.13-2.25,1.67-4.13,3.92-4.11h0c4.4-39.06-3.3-44.74-3.3-44.74Z"/><path class="cls-41" d="m498.89,328.99c-19.73,9.86-57.42-25.57-59.85-30.44s11.59-16.82,31.33-26.67c19.73-9.86,37.71-13.9,40.14-9.02,2.43,4.87,8.12,56.28-11.62,66.14Z"/><path class="cls-35" d="m499.96,301.66c-8.04-18.81.43-31.4,4.56-32.25,4.12-.85,5.64,7.3,5.53,14.51-.13,9.05-8.43,21.61-10.09,17.74Z"/><path class="cls-21" d="m486.82,282.16s1.5,13.56-8.78,27.78c0,0-.37-14.95,8.78-27.78Z"/><path class="cls-21" d="m496.17,300.88s-9.94-9.34-27.48-9.67c0,0,11.73,9.28,27.48,9.67Z"/><path class="cls-7" d="m505.85,405.61c-.76-4.1-4.05-12.25,6.18-11.25,10.24,1,25.16-25.6,10.36-34.82-14.81-9.21-43.04,4.97-43.04,4.97l-88.53-52.17s.8-31.19-21.91-41.54c-22.71-10.34-21.09,16.6-20.33,20.7.76,4.1,4.05,12.25-6.18,11.25-10.24-1-25.16,25.6-10.36,34.82,14.81,9.21,43.04-4.97,43.04-4.97l88.53,52.17s-.8,31.19,21.91,41.54c22.71,10.34,21.09-16.6,20.33-20.7Z"/><path class="cls-5" d="m506.96,364.42c-7.82-1.23-19.24,2.31-24.08,4-1.49.52-3.14.36-4.5-.45l-5.28-3.11-2.87-1.69-77.75-45.73c-5.91-3.48-9.99-11.79-12.89-24.59-2.9-12.8-13-15.05-13-15.05-11.04,1.13,6.47,23.3,3.84,29.49-2.63,6.19,17.39,18.07,17.39,18.07l80.61,47.41c12.5,7.35,15.6,6.85,20.52,7.06s27.22-7.66,28.5-9.26c1.28-1.6-.34-4.57-10.49-6.17Z"/><path class="cls-19" d="m1198.6,794.76s-31.08-18.65-22.38-27.35c8.7-8.7,17.41-1.24,22.38-18.65,4.97-17.41,21.14,14.92,26.11,7.46,4.97-7.46,12.43-12.93,18.65-12.68,6.22.25,7.46,30.09,0,36.31-7.46,6.22-44.76,14.92-44.76,14.92Z"/><path class="cls-19" d="m1160.06,992.45c-13.68-6.22-23.62-133.04,38.54-197.7,0,0,14.92-21.14,44.76-14.92,27.1,5.65,111.61,67.68,114.82,169.35.61,19.4-11.88,36.82-30.38,42.68-38.52,12.2-108.91,27.33-167.74.59Z"/><path class="cls-24" d="m1224.71,795.3s-47.84,23.67-53.76,85.81c-5.92,62.15,47.54,16.14,53.76-13.7,6.22-29.84,21.14-78.33,0-72.12Z"/></svg>