<?xml version="1.0" encoding="UTF-8"?><svg id="Warstwa_1" xmlns="http://www.w3.org/2000/svg" viewBox="0 0 1500 1080"><defs><style>.cls-1{fill:#f8f9fb;}.cls-2{fill:#004d00;}.cls-3{fill:#033;}.cls-4{fill:#006212;}.cls-5{fill:#fff;}.cls-6{fill:#e5f0f6;}.cls-7{fill:#662a00;}.cls-8{fill:#7ed742;}.cls-9{fill:#009d00;}.cls-10{fill:#9fed1f;}.cls-11{fill:#c45710;}.cls-12{fill:#8cc63f;}.cls-13{fill:#d2e2eb;}.cls-14{fill:#bbd1e1;}.cls-15,.cls-16{fill:#d3d3d3;}.cls-17{fill:#d9ed9b;}.cls-18{fill:#d86012;}.cls-19{fill:#40c959;}.cls-20{fill:#6dab0a;}.cls-21,.cls-22{fill:#529125;}.cls-23{fill:#652a00;}.cls-24{fill:#39b54a;}.cls-25{fill:#833800;}.cls-26{fill:#4d4d4d;}.cls-27{stroke:#033;stroke-miterlimit:22.93;stroke-width:3.26px;}.cls-27,.cls-28,.cls-29{fill:none;}.cls-28{stroke-width:2.49px;}.cls-28,.cls-29{stroke:#bbd1e1;stroke-miterlimit:10;}.cls-22,.cls-16,.cls-30{fill-rule:evenodd;}.cls-30{fill:#ccc;}.cls-29{stroke-width:2.16px;}</style></defs><path class="cls-24" d="m749.87,354.84l-13.53,56.47-2.96,12.33h25.43l-31.74,49.81-31.74-49.81h25.43l-2.96-12.33-13.53-56.47h45.6m7.58-10h-60.76c-2.6,0-4.52,2.43-3.91,4.96l15.3,63.84h-23.65c-3.18,0-5.1,3.51-3.39,6.18l42.64,66.91c.79,1.24,2.09,1.86,3.39,1.86s2.6-.62,3.39-1.86l42.64-66.91c1.71-2.68-.22-6.18-3.39-6.18h-23.65l15.3-63.84c.61-2.53-1.31-4.96-3.91-4.96h0Z"/><path class="cls-24" d="m877.06,416.48l16.01,16.01,16.01,16.01-49.22,30.19-10.81,6.63,8.97,8.97,8.91,8.91-57.25,12.68,12.68-57.25,8.91,8.91,8.97,8.97,6.63-10.81,30.19-49.22m-1.13-13.62c-1.33,0-2.65.66-3.42,1.91l-34.16,55.7-16.64-16.64c-.81-.81-1.82-1.18-2.81-1.18-1.77,0-3.49,1.17-3.93,3.14l-17.09,77.11c-.57,2.56,1.42,4.87,3.89,4.87.29,0,.58-.03.88-.1l77.11-17.09c3.09-.68,4.2-4.51,1.96-6.74l-16.64-16.64,55.7-34.16c2.21-1.35,2.57-4.41.74-6.24l-21.38-21.38-21.38-21.38c-.79-.79-1.81-1.17-2.83-1.17h0Z"/><path class="cls-24" d="m577.09,416.48l30.19,49.22,6.63,10.81,8.97-8.97,8.91-8.91,12.68,57.25-57.25-12.68,8.91-8.91,8.97-8.97-10.81-6.63-49.22-30.19,16.01-16.01,16.01-16.01m1.13-13.62c-1.01,0-2.03.38-2.83,1.17l-21.38,21.38-21.38,21.38c-1.83,1.83-1.47,4.89.74,6.24l55.7,34.16-16.64,16.64c-2.23,2.23-1.12,6.06,1.96,6.74l77.11,17.09c.3.07.59.1.88.1,2.47,0,4.46-2.31,3.89-4.87l-17.09-77.11c-.44-1.97-2.16-3.14-3.93-3.14-1,0-2.01.37-2.81,1.18l-16.64,16.64-34.16-55.7c-.77-1.25-2.09-1.91-3.42-1.91h0Z"/><polygon class="cls-20" points="449.64 578.97 449.64 637.68 499.45 969.74 957.35 969.74 1007.16 637.68 1007.16 578.97 449.64 578.97"/><path class="cls-20" d="m466.36,551.71h524.2c9.22,0,16.71,7.49,16.71,16.71v10.55H449.64v-10.55c0-9.22,7.49-16.71,16.71-16.71Z"/><path class="cls-22" d="m909.56,911.8c5.15,0,9.32,4.17,9.32,9.32s-4.17,9.32-9.32,9.32-9.32-4.17-9.32-9.32,4.17-9.32,9.32-9.32Z"/><path class="cls-22" d="m916.34,881.3c5.15,0,9.32,4.17,9.32,9.32s-4.17,9.32-9.32,9.32-9.32-4.17-9.32-9.32,4.17-9.32,9.32-9.32Z"/><path class="cls-22" d="m944.31,916.33c5.15,0,9.32,4.17,9.32,9.32s-4.17,9.32-9.32,9.32-9.32-4.17-9.32-9.32,4.17-9.32,9.32-9.32Z"/><path class="cls-22" d="m961.24,811.82c3.74,0,6.78,3.03,6.78,6.78s-3.04,6.78-6.78,6.78-6.78-3.03-6.78-6.78,3.04-6.78,6.78-6.78Z"/><path class="cls-22" d="m967.08,844.28c3.74,0,6.78,3.03,6.78,6.78s-3.04,6.78-6.78,6.78-6.78-3.03-6.78-6.78,3.04-6.78,6.78-6.78Z"/><path class="cls-22" d="m825.68,933.83c3.74,0,6.78,3.03,6.78,6.78s-3.04,6.78-6.78,6.78-6.78-3.03-6.78-6.78,3.04-6.78,6.78-6.78Z"/><path class="cls-22" d="m917.18,774.54c3.74,0,6.78,3.03,6.78,6.77s-3.04,6.78-6.78,6.78-6.78-3.03-6.78-6.78,3.03-6.77,6.78-6.77Z"/><path class="cls-22" d="m839.23,857.58c3.74,0,6.78,3.03,6.78,6.78s-3.03,6.78-6.78,6.78-6.78-3.04-6.78-6.78,3.03-6.78,6.78-6.78Z"/><path class="cls-22" d="m905.57,826.12c3.74,0,6.78,3.03,6.78,6.78s-3.04,6.78-6.78,6.78-6.78-3.04-6.78-6.78,3.03-6.78,6.78-6.78Z"/><path class="cls-22" d="m960.45,752.73c1.72,0,3.11,1.39,3.11,3.11s-1.39,3.12-3.11,3.12-3.11-1.39-3.11-3.12,1.39-3.11,3.11-3.11Z"/><path class="cls-22" d="m864.54,774.2c1.72,0,3.12,1.39,3.12,3.11s-1.39,3.11-3.12,3.11-3.11-1.39-3.11-3.11,1.39-3.11,3.11-3.11Z"/><path class="cls-22" d="m889.36,863.4c1.72,0,3.11,1.39,3.11,3.11s-1.39,3.11-3.11,3.11-3.11-1.39-3.11-3.11,1.39-3.11,3.11-3.11Z"/><path class="cls-22" d="m867.9,886.87c1.72,0,3.11,1.4,3.11,3.12s-1.39,3.11-3.11,3.11-3.11-1.4-3.11-3.11,1.39-3.12,3.11-3.12Z"/><path class="cls-22" d="m854.18,954.99c1.72,0,3.11,1.4,3.11,3.12s-1.39,3.11-3.11,3.11-3.11-1.4-3.11-3.11,1.39-3.12,3.11-3.12Z"/><path class="cls-22" d="m781.38,880.83c1.72,0,3.11,1.4,3.11,3.12s-1.4,3.11-3.11,3.11-3.12-1.39-3.12-3.11,1.39-3.12,3.12-3.12Z"/><path class="cls-22" d="m932.28,846.63c1.72,0,3.11,1.39,3.11,3.11s-1.4,3.11-3.11,3.11-3.12-1.39-3.12-3.11,1.39-3.11,3.12-3.11Z"/><path class="cls-22" d="m884.17,949.59c4.7,0,8.52,3.82,8.52,8.52s-3.82,8.52-8.52,8.52-8.52-3.81-8.52-8.52,3.81-8.52,8.52-8.52Z"/><path class="cls-22" d="m933.42,726.85c3.74,0,6.78,3.03,6.78,6.78s-3.04,6.78-6.78,6.78-6.78-3.03-6.78-6.78,3.04-6.78,6.78-6.78Z"/><path class="cls-22" d="m849.95,813.33c3.74,0,6.78,3.03,6.78,6.78s-3.04,6.78-6.78,6.78-6.78-3.03-6.78-6.78,3.04-6.78,6.78-6.78Z"/><path class="cls-22" d="m891.99,741.58c6.55,0,11.86,5.31,11.86,11.87s-5.31,11.86-11.86,11.86-11.86-5.31-11.86-11.86,5.31-11.87,11.86-11.87Z"/><path class="cls-22" d="m857.4,913.78c6.55,0,11.86,5.31,11.86,11.86s-5.31,11.86-11.86,11.86-11.86-5.31-11.86-11.86,5.31-11.86,11.86-11.86Z"/><path class="cls-22" d="m955.22,872.09c6.55,0,11.86,5.31,11.86,11.86s-5.31,11.86-11.86,11.86-11.86-5.31-11.86-11.86,5.31-11.86,11.86-11.86Z"/><path class="cls-22" d="m903.39,703.32c3.74,0,6.78,3.03,6.78,6.78s-3.04,6.78-6.78,6.78-6.78-3.04-6.78-6.78,3.03-6.78,6.78-6.78Z"/><path class="cls-22" d="m869.26,839.85c3.74,0,6.78,3.04,6.78,6.78s-3.03,6.78-6.78,6.78-6.78-3.04-6.78-6.78,3.03-6.78,6.78-6.78Z"/><path class="cls-22" d="m778.56,919.89c3.74,0,6.78,3.04,6.78,6.78s-3.03,6.78-6.78,6.78-6.78-3.04-6.78-6.78,3.03-6.78,6.78-6.78Z"/><path class="cls-22" d="m816.91,895.82c3.74,0,6.78,3.04,6.78,6.78s-3.03,6.78-6.78,6.78-6.78-3.04-6.78-6.78,3.03-6.78,6.78-6.78Z"/><path class="cls-22" d="m887.92,806.77c1.72,0,3.11,1.4,3.11,3.12s-1.4,3.11-3.11,3.11-3.12-1.4-3.12-3.11,1.4-3.12,3.12-3.12Z"/><path class="cls-22" d="m832.46,752.73c1.72,0,3.11,1.4,3.11,3.11s-1.4,3.12-3.11,3.12-3.12-1.39-3.12-3.12,1.39-3.11,3.12-3.11Z"/><path class="cls-22" d="m965.37,705.26c1.72,0,3.11,1.4,3.11,3.11s-1.39,3.12-3.11,3.12-3.12-1.4-3.12-3.12,1.39-3.11,3.12-3.11Z"/><path class="cls-22" d="m839.23,778.36c1.72,0,3.12,1.39,3.12,3.11s-1.4,3.12-3.12,3.12-3.12-1.4-3.12-3.12,1.4-3.11,3.12-3.11Z"/><path class="cls-22" d="m851.07,741.35c1.72,0,3.11,1.39,3.11,3.11s-1.4,3.11-3.11,3.11-3.12-1.4-3.12-3.11,1.4-3.11,3.12-3.11Z"/><path class="cls-22" d="m932.36,805.53c5.15,0,9.32,4.17,9.32,9.32s-4.17,9.32-9.32,9.32-9.32-4.17-9.32-9.32,4.17-9.32,9.32-9.32Z"/><rect class="cls-21" x="449.64" y="578.97" width="557.51" height="58.71"/><path class="cls-5" d="m800.83,847.47c2.55-2.81,4.97-5.77,7.19-8.84,32.53-45.03,22.38-108.12-22.65-140.64-1.51-1.09-3.06-2.13-4.63-3.13l11.69,19.45c2.37,4.1,2.71,9.14.9,13.48-1.89,4.52-5.85,7.83-10.64,8.88l-22.51,5.21c16.75,14.99,21.61,39.39,11.92,59.59l-3.77-6c-.72-1.19-2.09-1.85-3.44-1.72-1.4.1-2.59,1-3.09,2.28l-24.16,59.78c-.47,1.09-.37,2.35.26,3.35.63,1,1.69,1.63,2.89,1.73l64.32,4.51h.26c1.3,0,2.49-.67,3.15-1.8.73-1.16.69-2.65-.03-3.82l-7.67-12.3Z"/><path class="cls-16" d="m768.02,745.01c-.5.58-1.39.65-1.98.14-.59-.5-.65-1.39-.14-1.98.51-.58,1.39-.65,1.98-.14.59.51.65,1.39.14,1.98Z"/><path class="cls-16" d="m797.19,716.09c-.5.58-1.39.65-1.97.14-.58-.51-.65-1.39-.14-1.98.5-.59,1.39-.65,1.97-.14.58.51.65,1.39.14,1.98Z"/><path class="cls-16" d="m790.7,707.3c-.5.59-1.39.65-1.97.14-.58-.51-.65-1.39-.14-1.97.51-.59,1.39-.65,1.98-.14.59.51.65,1.39.14,1.97Z"/><path class="cls-16" d="m784.14,742.8c-.5.59-1.39.65-1.98.14-.58-.51-.65-1.39-.14-1.98.51-.59,1.39-.65,1.98-.14.58.5.65,1.39.14,1.97Z"/><path class="cls-16" d="m771.89,753.1c-.23.27-.64.3-.91.07-.27-.23-.3-.64-.07-.91.23-.27.64-.3.91-.07.27.23.3.64.07.91Z"/><path class="cls-16" d="m789.85,735.29c-.23.27-.64.3-.91.07-.27-.23-.3-.64-.07-.91.23-.27.64-.3.91-.07.27.23.3.64.07.91Z"/><path class="cls-16" d="m798.02,721.78c-.23.27-.64.3-.91.07-.27-.23-.3-.64-.07-.91.23-.27.64-.3.91-.07.27.23.3.64.07.91Z"/><path class="cls-16" d="m787.06,699.73c-.23.27-.64.3-.91.07-.27-.23-.3-.64-.07-.91.07-.08.16-.14.26-.18.29.22.58.43.87.65,0,.13-.06.26-.15.37Z"/><path class="cls-16" d="m802.45,725.07c-.5.59-1.39.65-1.98.14-.58-.51-.65-1.39-.14-1.98.51-.59,1.39-.65,1.97-.14.59.51.65,1.39.14,1.98Z"/><path class="cls-16" d="m805.29,717.01c-.9.62-2.13.59-3-.16-1.02-.89-1.14-2.43-.25-3.46.04-.05.08-.09.12-.13,1.08,1.23,2.12,2.48,3.13,3.75Z"/><path class="cls-16" d="m780.28,751.5c-.51.58-1.39.65-1.98.14-.59-.51-.65-1.39-.14-1.98.5-.58,1.39-.65,1.98-.14.58.51.65,1.39.14,1.98Z"/><path class="cls-16" d="m789.35,749.08c-.5.59-1.39.65-1.97.14-.58-.51-.65-1.39-.14-1.97.51-.59,1.39-.65,1.98-.14s.65,1.39.14,1.97Z"/><path class="cls-16" d="m810.11,723.63c-.51.51-1.34.54-1.9.06-.59-.51-.65-1.39-.14-1.98.14-.16.3-.28.48-.36.53.75,1.05,1.51,1.56,2.27Z"/><path class="cls-16" d="m796.38,738.1c-.51.59-1.39.65-1.98.14-.59-.51-.65-1.39-.14-1.97.5-.59,1.39-.65,1.97-.14.59.51.65,1.39.14,1.97Z"/><path class="cls-16" d="m777.97,743.96c-.5.59-1.39.65-1.98.14-.58-.51-.65-1.39-.14-1.98.5-.58,1.39-.65,1.97-.14.58.51.65,1.39.14,1.98Z"/><path class="cls-16" d="m796.11,707.15c-.23.27-.64.3-.91.07-.27-.23-.3-.64-.07-.91.05-.06.11-.11.17-.14.3.28.59.57.89.85-.02.05-.05.09-.09.13Z"/><path class="cls-16" d="m794.03,743.77c-.23.27-.64.3-.91.07-.27-.23-.3-.64-.07-.91.23-.27.64-.3.91-.07.27.23.3.64.07.91Z"/><path class="cls-16" d="m801.51,732.98c-.23.27-.64.3-.91.07-.27-.23-.3-.64-.07-.91.23-.27.64-.3.91-.07.27.23.3.64.07.91Z"/><path class="cls-16" d="m777.01,758c-.23.27-.64.3-.91.07-.27-.23-.3-.64-.07-.91.23-.27.64-.3.91-.07.27.23.3.64.07.91Z"/><path class="cls-16" d="m795.82,732.33c-.69.8-1.91.89-2.72.2-.8-.7-.89-1.91-.2-2.72.7-.8,1.91-.89,2.72-.2.81.7.9,1.91.2,2.72Z"/><path class="cls-5" d="m761.95,873.81c-44.48,16.91-96.21.26-121.83-41.82-1.96-3.25-3.75-6.62-5.35-10.06l-14.32,2.3c-1.35.21-2.76-.33-3.52-1.45-.78-1.04-.95-2.41-.44-3.6l.1-.24,29.11-57.52c.57-1.06,1.55-1.79,2.72-1.99,1.16-.2,2.36.2,3.18,1.06l45.72,45.45c1.01.96,1.37,2.41.91,3.73-.41,1.3-1.53,2.3-2.92,2.51l-6.98,1.14c12.04,13.6,30.37,19.46,47.69,16.03l-8.92,22.1c-1.89,4.5-1.45,9.64,1.16,13.81,2.56,4.03,6.77,6.57,11.55,6.98l22.15,1.57Z"/><path class="cls-5" d="m782.8,723.39c-.46,1.08-1.44,1.89-2.59,2.14l-62.82,14.53c-1.34.33-2.76-.15-3.64-1.22-.88-1.04-1.13-2.53-.57-3.82l2.76-6.52c-20.44,3.39-36.66,19-41.12,38.96l-15.1-15.02c-2.81-2.85-6.69-4.49-10.7-4.49-.83,0-1.66.07-2.46.2-4.71.8-8.71,3.69-10.94,7.94l-12,23.71c-.03-.93-.03-1.84-.02-2.77.8-55.55,46.63-100.08,102.16-99.28,3.8.07,7.6.33,11.37.82l5.68-13.36c.54-1.26,1.75-2.14,3.11-2.2,1.29-.11,2.53.47,3.26,1.55l.16.21,33.22,55.26c.6,1.03.7,2.27.24,3.36Z"/><path class="cls-16" d="m645.52,740.04c-.8.93-2.2,1.03-3.12.23-.93-.8-1.03-2.2-.23-3.13.8-.93,2.2-1.03,3.13-.23.93.8,1.03,2.2.23,3.13Z"/><path class="cls-16" d="m625.63,771.5c-.47.55-1.19.76-1.85.63.08-1.28.19-2.55.31-3.81.47-.02.95.13,1.34.47.8.7.89,1.91.2,2.72Z"/><path class="cls-16" d="m632.17,752.16c-.7.81-1.91.89-2.72.2-.8-.7-.89-1.91-.2-2.72.7-.8,1.91-.89,2.72-.2s.89,1.91.2,2.72Z"/><path class="cls-16" d="m651.33,746.05c-.69.81-1.91.89-2.72.2-.8-.69-.89-1.91-.2-2.72.7-.81,1.91-.89,2.72-.2.8.7.89,1.91.2,2.72Z"/><path class="cls-16" d="m667.46,747.73c-.51.59-1.39.65-1.98.14-.58-.51-.65-1.39-.14-1.97.51-.59,1.39-.65,1.97-.14.59.5.65,1.39.14,1.97Z"/><path class="cls-16" d="m637.01,738.53c-.5.59-1.39.65-1.97.14-.58-.5-.65-1.39-.14-1.97.5-.59,1.39-.65,1.97-.14.59.51.65,1.39.14,1.98Z"/><path class="cls-16" d="m635.61,744.83c-.51.58-1.39.65-1.97.14-.59-.51-.65-1.39-.14-1.98.51-.59,1.39-.65,1.98-.14.58.51.65,1.39.14,1.97Z"/><path class="cls-16" d="m676.87,760.59c-.44.12-.92.03-1.29-.29-.59-.51-.65-1.39-.14-1.98.51-.58,1.39-.65,1.98-.14.12.1.22.22.29.35-.29.68-.57,1.36-.83,2.06Z"/><path class="cls-16" d="m637.83,749.98c-.23.27-.64.3-.91.07-.27-.23-.3-.64-.07-.91.23-.27.64-.3.91-.07.27.23.3.64.07.91Z"/><path class="cls-16" d="m669.1,760.68c-.23.27-.64.3-.91.07-.27-.23-.3-.64-.07-.91.23-.27.64-.3.91-.07.27.23.3.64.07.91Z"/><path class="cls-16" d="m681.73,747.97c-.23.27-.64.3-.91.07-.27-.23-.3-.64-.07-.91.23-.27.64-.3.91-.07.27.23.3.64.07.91Z"/><path class="cls-16" d="m661.36,735.31c-.23.27-.64.3-.91.07-.27-.23-.3-.64-.06-.91.23-.27.64-.3.91-.07.27.23.3.64.07.91Z"/><path class="cls-16" d="m656.95,746.34c-.23.27-.64.3-.91.07-.27-.23-.3-.64-.07-.91.23-.27.64-.3.91-.07.27.23.3.64.07.91Z"/><path class="cls-16" d="m641.29,744.33c-.23.27-.64.3-.91.07-.27-.23-.3-.64-.07-.91s.64-.3.91-.07c.27.23.3.64.07.91Z"/><path class="cls-16" d="m666.33,741.09c-.64.73-1.75.82-2.48.18-.73-.64-.82-1.75-.18-2.48.63-.74,1.75-.82,2.48-.18.74.64.82,1.75.18,2.48Z"/><path class="cls-16" d="m666.31,755.4c-.89,1.02-2.43,1.14-3.46.25-1.02-.89-1.13-2.43-.25-3.46.89-1.02,2.43-1.14,3.46-.25,1.02.89,1.14,2.43.25,3.46Z"/><path class="cls-16" d="m629.49,759.51c-.89,1.02-2.43,1.14-3.46.25-.24-.21-.43-.46-.57-.72.2-1.02.42-2.04.65-3.05.9-.72,2.22-.72,3.13.07,1.02.88,1.13,2.43.25,3.46Z"/><path class="cls-16" d="m676.01,742.26c-.51.59-1.39.65-1.97.14-.59-.51-.65-1.39-.14-1.97.51-.58,1.39-.65,1.97-.14.59.51.65,1.39.14,1.98Z"/><path class="cls-16" d="m674.59,751.5c-.5.58-1.39.65-1.97.14-.58-.51-.65-1.39-.14-1.97.51-.59,1.39-.65,1.98-.14.59.51.65,1.39.14,1.98Z"/><path class="cls-16" d="m658.12,741.67c-.23.27-.64.3-.91.07-.27-.23-.3-.64-.07-.91.23-.27.64-.3.91-.07.27.23.3.64.07.91Z"/><path class="cls-16" d="m650.53,735.72c-.23.27-.64.3-.91.07-.27-.23-.3-.64-.07-.91.23-.27.64-.3.91-.07.27.23.3.64.07.91Z"/><path class="cls-16" d="m642.75,733.31c-.23.27-.64.3-.91.07-.27-.23-.3-.64-.07-.91.23-.27.64-.3.91-.07.27.23.3.64.07.91Z"/><path class="cls-16" d="m723.43,861.63c-1.26,1.46-3.48,1.62-4.94.36-1.46-1.26-1.62-3.48-.36-4.94,1.26-1.46,3.48-1.62,4.94-.36,1.46,1.26,1.62,3.48.36,4.94Z"/><path class="cls-16" d="m730.08,839.1c-.8.93-2.2,1.03-3.13.23-.93-.8-1.03-2.2-.23-3.13.8-.93,2.2-1.03,3.12-.23.93.8,1.03,2.2.23,3.13Z"/><path class="cls-16" d="m740.31,876.46c-.7.8-1.91.89-2.72.2-.8-.7-.89-1.91-.2-2.72.7-.8,1.91-.89,2.72-.2.8.7.89,1.91.2,2.72Z"/><path class="cls-16" d="m706.92,867.91c-.7.81-1.91.89-2.72.2-.8-.69-.89-1.91-.2-2.72.7-.8,1.91-.89,2.72-.2.81.69.9,1.91.2,2.71Z"/><path class="cls-16" d="m725.78,843.95c-.69.8-1.91.89-2.72.2-.8-.7-.89-1.91-.2-2.72.7-.81,1.91-.89,2.72-.2.8.7.89,1.91.2,2.72Z"/><path class="cls-16" d="m718.61,841c-.7.81-1.91.89-2.72.2-.8-.7-.89-1.91-.2-2.72.7-.8,1.91-.89,2.72-.2s.89,1.91.2,2.71Z"/><path class="cls-16" d="m728.61,870.18c-.7.8-1.91.89-2.72.2-.81-.7-.89-1.91-.2-2.72.69-.8,1.91-.89,2.72-.2.8.7.89,1.91.2,2.72Z"/><path class="cls-16" d="m749.34,876.12c-.51.59-1.39.65-1.98.14-.58-.51-.65-1.39-.14-1.98.5-.58,1.39-.65,1.98-.14.58.51.65,1.39.14,1.97Z"/><path class="cls-16" d="m721.08,850.76c-.96,1.11-2.63,1.23-3.73.27-1.11-.96-1.23-2.63-.27-3.73.96-1.11,2.63-1.23,3.74-.27,1.11.96,1.23,2.63.27,3.73Z"/><path class="cls-16" d="m708.77,850.77c-.51.59-1.39.65-1.98.14-.59-.51-.65-1.39-.14-1.98.5-.58,1.39-.65,1.97-.14.58.51.65,1.39.14,1.98Z"/><path class="cls-16" d="m718.5,868.43c-.5.59-1.39.65-1.97.14-.58-.51-.65-1.39-.14-1.98.5-.59,1.39-.65,1.98-.14.58.51.65,1.39.14,1.97Z"/><path class="cls-16" d="m728.21,879.15c-.5.58-1.39.65-1.97.14-.58-.5-.65-1.39-.14-1.98.51-.58,1.39-.65,1.98-.14.58.51.65,1.39.14,1.98Z"/><path class="cls-16" d="m737.61,879.7c.71-.56,1.67-.67,2.49-.31-.83.11-1.66.22-2.49.31Z"/><path class="cls-16" d="m754.79,876.22c.02-.12.07-.23.15-.33.23-.27.64-.3.91-.07.02.02.04.04.06.06-.37.11-.74.23-1.11.34Z"/><path class="cls-16" d="m721.91,831.95c-.23.27-.64.3-.91.07-.27-.23-.3-.64-.07-.91.23-.27.64-.3.91-.07.27.23.3.64.07.91Z"/><path class="cls-16" d="m710.07,835.27c-.23.27-.64.3-.91.07-.27-.23-.3-.64-.07-.91.23-.27.64-.3.91-.07.27.23.3.64.07.91Z"/><path class="cls-16" d="m713.08,859.12c-.23.27-.64.3-.91.07-.27-.23-.3-.64-.07-.91.23-.27.64-.3.91-.07.27.23.3.64.07.91Z"/><path class="cls-16" d="m722.71,865.98c-.23.27-.64.3-.91.07-.27-.23-.3-.64-.07-.91.23-.27.64-.3.91-.07.27.23.3.64.07.91Z"/><path class="cls-16" d="m722.99,875.2c-.23.27-.64.3-.91.07-.27-.23-.3-.64-.07-.91.23-.27.64-.3.91-.07.27.23.3.64.07.91Z"/><path class="cls-16" d="m729.64,831.96c-.88,1.02-2.43,1.14-3.46.25-.57-.5-.86-1.2-.85-1.91,1.63.03,3.26-.02,4.89-.15.05.63-.14,1.29-.59,1.81Z"/><path class="cls-16" d="m707.77,843.24c-.89,1.02-2.43,1.14-3.46.25-1.02-.89-1.14-2.43-.25-3.46.89-1.02,2.43-1.14,3.46-.25,1.03.88,1.14,2.43.25,3.46Z"/><path class="cls-16" d="m713.82,874.97c-.89,1.02-2.43,1.14-3.46.25-1.02-.88-1.14-2.43-.25-3.46.89-1.02,2.43-1.14,3.46-.25,1.02.89,1.14,2.43.25,3.46Z"/><path class="cls-16" d="m700.36,855.35c-.51.58-1.39.65-1.97.14-.59-.51-.65-1.39-.14-1.98.5-.59,1.39-.65,1.98-.14.58.51.65,1.39.14,1.98Z"/><path class="cls-16" d="m716.48,855.94c-.5.59-1.39.65-1.97.14-.59-.5-.65-1.39-.14-1.97.5-.59,1.39-.65,1.98-.14.58.51.65,1.39.14,1.97Z"/><path class="cls-16" d="m734.28,879.11c-.69.81-1.91.89-2.72.2-.8-.7-.89-1.91-.2-2.72.7-.81,1.91-.89,2.72-.2.8.7.89,1.91.2,2.72Z"/><circle class="cls-26" cx="496.87" cy="969.74" r="49.99" transform="translate(-113.56 67.16) rotate(-6.94)"/><path class="cls-30" d="m496.87,985.54c8.7,0,15.8-7.1,15.8-15.8s-7.1-15.8-15.8-15.8-15.8,7.1-15.8,15.8,7.1,15.8,15.8,15.8Z"/><circle class="cls-26" cx="957.28" cy="969.74" r="49.99" transform="translate(-110.18 122.8) rotate(-6.94)"/><path class="cls-30" d="m957.28,985.54c8.7,0,15.8-7.1,15.8-15.8s-7.1-15.8-15.8-15.8-15.8,7.1-15.8,15.8,7.1,15.8,15.8,15.8Z"/><path class="cls-12" d="m376.07,857.83c38.12-7.28,72.97-18.07,102.06-30.79,21.18-9.28,35.32-24.33,37.39-39.67,1.57-11.45,1.34-23.15-.9-34.84l-145.05,27.72c4.55,23.82,2.46,47.33-4.97,68.45-1.49,4.25-3.89,8.4-7.06,12.32,6.12-.94,12.3-2,18.53-3.19Z"/><path class="cls-12" d="m168.42,786.61c-15.31,35.66-25.89,70.57-31.64,101.8-4.17,22.74.38,42.88,11.93,53.19,8.61,7.71,18.44,14.07,29.37,18.77l58.26-135.7c-22.28-9.57-40.59-24.47-53.93-42.45-2.69-3.61-4.78-7.93-6.26-12.75-2.65,5.6-5.23,11.31-7.73,17.14Z"/><path class="cls-12" d="m361.12,872.36v147.68c-11.9,0-23.44-1.97-34.39-5.66-14.68-4.92-26.8-21.63-31.94-44.17-7.04-30.96-11.09-67.22-11.09-106.02,0-6.35.12-12.61.34-18.8,3.26,3.85,6.88,6.99,10.78,9.24,19.35,11.26,42.05,17.73,66.3,17.73Z"/><path class="cls-12" d="m207.73,872.36v147.68c11.9,0,23.44-1.97,34.39-5.66,14.68-4.92,26.8-21.63,31.94-44.17,7.04-30.96,11.09-67.22,11.09-106.02,0-6.35-.12-12.61-.34-18.8-3.26,3.85-6.88,6.99-10.78,9.24-19.35,11.26-42.05,17.73-66.3,17.73Z"/><path class="cls-5" d="m391.85,770.72c0,33.67-5.62,65.13-15.39,91.98-7.12,19.56-23.96,34.05-44.33,38.32-15.2,3.19-31.18,4.9-47.71,4.9s-32.51-1.71-47.71-4.9c-20.37-4.28-37.2-18.77-44.33-38.32-9.76-26.86-15.39-58.32-15.39-91.98,0-5.5.15-10.94.47-16.3,4.54,3.33,9.56,6.05,14.97,8.02,26.86,9.76,58.33,15.39,91.98,15.39s65.13-5.62,91.98-15.39c5.42-1.97,10.44-4.69,14.97-8.02.31,5.36.47,10.8.47,16.3Z"/><path class="cls-24" d="m284.62,535.92v-7.26c0-57.02,57.95-71.26,57.95-71.26,9.6,65.84-30.57,77.79-57.95,78.52Z"/><path class="cls-24" d="m282.21,557.95v-7.26c0-57.02-57.95-71.26-57.95-71.26-9.6,65.84,30.57,77.79,57.95,78.52Z"/><path class="cls-24" d="m304.96,443.24c0,29.5-22.75,53.41-22.75,53.41,0,0-22.75-23.91-22.75-53.41s22.75-53.41,22.75-53.41c0,0,22.75,23.91,22.75,53.41Z"/><line class="cls-27" x1="282.21" y1="567.27" x2="282.21" y2="443.24"/><line class="cls-27" x1="323.82" y1="490.66" x2="282.21" y2="535.92"/><line class="cls-27" x1="247.07" y1="512.44" x2="282.21" y2="550.63"/><path class="cls-12" d="m419.81,672.95c0,16.52-1.71,32.51-4.9,47.71-3.09,14.73-11.52,27.61-23.35,36.31-4.54,3.33-9.56,6.05-14.97,8.02-26.85,9.76-58.33,15.39-91.98,15.39s-65.13-5.62-91.98-15.39c-5.42-1.97-10.44-4.69-14.97-8.02-11.83-8.69-20.27-21.58-23.35-36.31-3.19-15.2-4.9-31.18-4.9-47.71s1.71-32.51,4.9-47.71c4.28-20.37,18.77-37.2,38.32-44.33,26.86-9.76,58.33-15.39,91.98-15.39s65.13,5.62,91.98,15.39c19.56,7.12,34.05,23.96,38.33,44.33,3.19,15.2,4.9,31.18,4.9,47.71Z"/><path class="cls-3" d="m392.03,672.96c0,9.73-1.36,19.14-3.89,28.08-2.45,8.67-9.15,16.25-18.55,21.37-3.6,1.96-7.59,3.56-11.89,4.72-21.34,5.75-46.34,9.06-73.08,9.06s-51.74-3.31-73.08-9.06c-4.3-1.16-8.29-2.76-11.89-4.72-9.4-5.12-16.1-12.7-18.55-21.37-2.54-8.94-3.89-18.35-3.89-28.08s1.36-19.14,3.89-28.08c3.4-11.99,14.91-21.9,30.45-26.09,21.34-5.75,46.34-9.06,73.08-9.06s51.74,3.31,73.08,9.06c15.54,4.19,27.05,14.1,30.45,26.09,2.53,8.94,3.89,18.35,3.89,28.08Z"/><rect class="cls-5" x="311.17" y="629.69" width="23.68" height="36.67" rx="11.84" ry="11.84"/><rect class="cls-5" x="234.36" y="629.69" width="23.68" height="36.67" rx="11.84" ry="11.84"/><path class="cls-5" d="m284.6,717.19c-20.71,0-37.56-13.64-37.56-30.41,0-4.34,3.52-7.85,7.85-7.85s7.85,3.52,7.85,7.85c0,7.97,10.01,14.71,21.86,14.71s21.86-6.74,21.86-14.71c0-4.34,3.52-7.85,7.85-7.85s7.85,3.52,7.85,7.85c0,16.77-16.85,30.41-37.56,30.41Z"/><path class="cls-3" d="m194.7,591.61c-2.41,0-4.82-.92-6.66-2.76l-29.18-29.18c-3.68-3.68-3.68-9.64,0-13.32,3.68-3.68,9.64-3.68,13.32,0l29.18,29.18c3.68,3.68,3.68,9.64,0,13.32-1.84,1.84-4.25,2.76-6.66,2.76Z"/><path class="cls-3" d="m180.02,539.55c-7.72-7.72-20.24-7.72-27.95,0-7.72,7.72-7.72,20.24,0,27.95s20.24,7.72,27.95,0c7.72-7.72,7.72-20.24,0-27.95Z"/><path class="cls-3" d="m374.16,591.28c2.41,0,4.82-.92,6.66-2.76l29.18-29.18c3.68-3.68,3.68-9.64,0-13.32-3.68-3.68-9.64-3.68-13.32,0l-29.18,29.18c-3.68,3.68-3.68,9.64,0,13.32,1.84,1.84,4.25,2.76,6.66,2.76Z"/><path class="cls-3" d="m388.83,539.23c7.72-7.72,20.24-7.72,27.95,0,7.72,7.72,7.72,20.24,0,27.95-7.72,7.72-20.24,7.72-27.95,0-7.72-7.72-7.72-20.24,0-27.95Z"/><circle class="cls-15" cx="311.52" cy="887.84" r="9.02"/><circle class="cls-15" cx="327.01" cy="858.42" r="8.13"/><circle class="cls-15" cx="362.96" cy="809.64" r="8.13"/><circle class="cls-15" cx="311.52" cy="845.57" r="4.72"/><circle class="cls-15" cx="348.43" cy="854.78" r="4.72"/><circle class="cls-15" cx="368.81" cy="835.84" r="11.53"/><circle class="cls-15" cx="362.96" cy="866.45" r="9.81"/><circle class="cls-15" cx="342.64" cy="835.84" r="5.96"/><circle class="cls-15" cx="292.22" cy="881.54" r="5.96"/><circle class="cls-15" cx="292.22" cy="858.6" r="3.17"/><circle class="cls-15" cx="307.14" cy="870.02" r="3.17"/><circle class="cls-15" cx="341.27" cy="808.3" r="3.17"/><circle class="cls-15" cx="318.88" cy="822.37" r="3.17"/><circle class="cls-15" cx="380.49" cy="809.64" r="3.17"/><circle class="cls-15" cx="341.27" cy="885.68" r="8.63"/><path class="cls-8" d="m1097.16,723.77s22.48-28.68,11.52-34.27c-10.96-5.6-14.08,7.57-24.18-7.45s-8.53,17.53-15.56,11.96c-7.03-5.56-11.89-5.76-17.73-3.61-5.84,2.15,5.02,29.93,14.04,33.55,9.01,3.61,31.91-.17,31.91-.17Z"/><path class="cls-8" d="m1194.51,932.28c11.09-10.13-9.77-167.33-88.85-209.66,0,0-20.71-15.51-47.18-.39-24.04,13.73-85.3,98.8-56.99,196.51,5.4,18.64,22.66,31.36,42.06,31.23,40.41-.28,103.25,25.9,150.96-17.68Z"/><path class="cls-10" d="m1067.51,739.29s-46.69,25.85-49.74,88.2c-3.05,62.35,31.69-3.98,36.52-34.08s34.05-61.31,13.22-54.12Z"/><path class="cls-8" d="m1273.01,649.8s-32.16-37.47-19.96-44.77c12.21-7.31,18.3,9.89,27.79-9.74,9.49-19.63,13.38,22.9,20.86,15.63,7.48-7.27,13.29-7.53,20.7-4.72,7.41,2.81-.73,39.11-10.94,43.83-10.21,4.72-38.45-.23-38.45-.23Z"/><path class="cls-8" d="m1192.82,922.2c-15.16-13.24-17.95-218.6,69.74-273.9,0,0,22.18-20.26,56.74-.51,31.38,17.93,120.25,129.08,103.52,256.72-3.19,24.35-21.71,40.97-45.1,40.8-48.7-.36-119.71,33.83-184.91-23.1Z"/><path class="cls-10" d="m1271.86,683.8s-51.63,33.77-44.23,115.23c7.4,81.46,37.44-5.2,37.92-44.52.47-39.32,30.11-80.09,6.31-70.71Z"/><path class="cls-10" d="m1164.56,791.64s-31.08-18.65-22.38-27.35c8.7-8.7,17.41-1.24,22.38-18.65,4.97-17.41,21.14,14.92,26.11,7.46s12.43-12.93,18.65-12.68c6.22.25,7.46,30.09,0,36.31-7.46,6.22-44.76,14.92-44.76,14.92Z"/><path class="cls-10" d="m1126.01,989.34c-13.68-6.22-23.62-133.04,38.54-197.7,0,0,14.92-21.14,44.76-14.92,27.1,5.65,111.61,67.68,114.82,169.35.61,19.4-11.88,36.82-30.38,42.68-38.52,12.2-108.91,27.33-167.74.59Z"/><path class="cls-17" d="m1190.67,792.18s-47.84,23.67-53.76,85.81c-5.92,62.15,47.54,16.14,53.76-13.7,6.22-29.84,21.14-78.33,0-72.12Z"/><path class="cls-14" d="m543.74,370.6c-4.85,2.8-47.55,26.96-54.98,14.08l-66.49-115.16c-3.68-6.37-6.5-13.21-8.4-20.32l-14.35-53.95-18.33-31.75c-1.14-1.98-.47-4.52,1.52-5.66l57.23-33.04c1.98-1.14,4.52-.47,5.66,1.52l18.07,31.3,39.57,39.42c5.2,5.18,9.7,11.03,13.38,17.39l66.82,115.59c7.43,12.88-34.84,37.78-39.69,40.58Z"/><path class="cls-13" d="m581.01,329.63c3.22,5.59-14.64,21.9-39.87,36.46-25.23,14.56-48.27,21.87-51.5,16.29l-66.1-114.5c-3.66-6.33-6.47-13.11-8.35-20.17l-15.08-56.67-.05-.22-17.27-29.91,59.75-34.5,17,29.44.81.8,40.92,40.75c5.15,5.15,9.63,10.96,13.27,17.28l66.46,114.94Z"/><ellipse class="cls-6" cx="413.11" cy="143.42" rx="35" ry="7.73" transform="translate(-16.36 225.77) rotate(-30)"/><ellipse class="cls-14" cx="533.27" cy="351.56" rx="50.04" ry="11.04" transform="translate(-104.33 313.74) rotate(-30)"/><path class="cls-14" d="m398.81,168.52c-4.39,1.85-7.83,2.8-9.98,2.85l1.29,2.23c2.57-.32,5.96-1.39,9.87-3.05l-1.17-2.03Z"/><path class="cls-14" d="m420.47,156.35c-5.61,3.8-10.82,6.87-15.41,9.22l1.17,2.02c1.78-.92,3.62-1.91,5.51-3,3.24-1.87,6.63-4,10.04-6.32,11.11-7.54,21.53-16.51,25.84-23.07l-1.28-2.21c-2.93,4.92-11.77,13.77-25.87,23.36Z"/><path class="cls-14" d="m432.25,159.62c-2.18,1.65-4.47,3.32-6.99,5.04-14.64,9.92-26.63,14.9-31.64,15.02l1.28,2.21c4.91-.59,12.76-3.87,21.63-8.99,3.24-1.87,6.63-4,10.04-6.32,2.34-1.59,4.62-3.25,6.85-4.93l-1.17-2.02Z"/><path class="cls-14" d="m438.22,154.89l1.18,2.04c5.73-4.79,10.45-9.53,13.01-13.43l-1.29-2.23c-1.89,3.19-6.26,8.01-12.9,13.61Z"/><path class="cls-14" d="m459.2,154.66c-7.04,9.36-26.31,20.56-27.38,21.18s-21.35,12.23-32.86,13.2l-.05-.22-2.49-4.31c3.15.65,15.54-2.6,33.07-12.72,15.82-9.13,24.67-17.39,26.99-21.25l1.92,3.32.81.8Z"/><ellipse class="cls-29" cx="412.71" cy="143.65" rx="35" ry="7.73" transform="translate(-16.53 225.6) rotate(-30)"/><path class="cls-6" d="m425.79,192.92l83.33,144.33c7.1,12.3,4.65,25.61-5.01,25.25-6.19-.23-14.13-3.9-23.57-15.3l-52.93-91.68s-10.1-12.68-8.86-63.02c.1-4.15,4.56-3.89,7.05.42Z"/><path class="cls-1" d="m505.33,355.85c-.27.16-.68.17-.98.16-5.36-.2-11.74-4.53-18.46-12.54l-52.65-91.2c-.16-.28-.34-.55-.54-.8h0s-7.03-10.6-7.53-46.66l78.33,135.68c4.62,7.99,3.36,14.47,1.83,15.36Z"/><path class="cls-14" d="m820.04,303.98c-7.27-1.55-55.87-12.37-52.77-26.84l16.75-78.43c1.53-7.16,4.32-14.04,8.28-20.42l7.48-16.09,7.62-35.7c.48-2.23,3.27-3.52,6.24-2.89l85.81,18.32c2.97.63,5,2.96,4.52,5.19l-7.52,35.2s1.11,32.62-.41,39.77l-16.76,78.98c-3.09,14.48-51.98,4.48-59.24,2.93Z"/><path class="cls-13" d="m877.14,299.02c-1.34,6.28-18.19,7.97-56.02-.11-37.83-8.08-52.38-16.47-51.04-22.75l16.59-77.69c1.52-7.12,4.27-13.94,8.21-20.28l8.99-18.53.13-.19,7.18-33.64,89.59,19.13-7.07,33.11.16,1.16s1.38,34.43-.14,41.53l-16.59,78.26Z"/><ellipse class="cls-6" cx="856.63" cy="135.54" rx="7.69" ry="46.48" transform="translate(545.2 944.98) rotate(-77.95)"/><path class="cls-14" d="m875.21,293.64c-1.27,5.94-16.47,7.73-52.36.07-35.89-7.66-48.93-15.48-47.66-21.42s16.37-7.75,52.26-.09c35.89,7.66,49.03,15.5,47.77,21.44Z"/><path class="cls-14" d="m821.23,142.83c-6.01-1.88-10.32-3.72-12.56-5.25l-.54,2.51c2.88,1.64,7.23,3.36,12.61,5.02l.49-2.29Z"/><path class="cls-14" d="m853.42,150.01c-8.88-1.4-16.74-3.03-23.38-4.7l-.49,2.27c2.58.65,5.28,1.28,8.11,1.89,4.86,1.04,10.09,2,15.49,2.85,17.6,2.77,35.66,4.02,45.5,2.53l.53-2.49c-7.07,1.33-23.43,1.15-45.78-2.35Z"/><path class="cls-14" d="m862.73,160.87c-3.59-.42-7.32-.91-11.31-1.53-23.17-3.65-39.54-8.86-44.74-12.42l-.53,2.49c5.5,3.16,16.23,6.55,29.52,9.39,4.86,1.04,10.09,2,15.49,2.85,3.71.58,7.42,1.07,11.08,1.51l.49-2.28Z"/><path class="cls-14" d="m872.74,161.88l-.49,2.3c9.82.79,18.57.88,24.42,0l.54-2.51c-4.57.87-13.03,1.1-24.46.21Z"/><path class="cls-14" d="m894.35,176.97c-14.95,1.48-43.91-4.64-45.51-4.98s-31.93-6.91-44.49-14.59l.13-.19,1.04-4.85c2.67,2.75,18.02,9.47,44.29,15.08,23.72,5.06,39.6,5.68,45.17,4.64l-.8,3.73.16,1.16Z"/><ellipse class="cls-28" cx="856.03" cy="135.41" rx="7.69" ry="46.48" transform="translate(544.85 944.3) rotate(-77.95)"/><path class="cls-6" d="m828.52,179.65l-16.16,75.66c-2.95,13.83-16.5,21.42-26.06,14.15-6.12-4.66-7.64-60.65,35.37-95.23,3.54-2.85,7.88.57,6.85,5.42Z"/><path class="cls-1" d="m793.07,265.66c-.4-.09-.84-.37-1.14-.6-5.31-4.04-3.32-51.71,26.08-77.49l-14.08,65.93c-1.92,8.99-8.57,12.64-10.87,12.15Z"/><path class="cls-2" d="m1074.35,221.83l-1.03-13.06c-.39-4.96.76-9.92,3.39-14.14,15.81-25.41,33.77-78.48,33.77-78.48l.24.14c1.21.71,2.77.3,3.48-.92h0c.71-1.21.3-2.77-.92-3.48l-.24-.14,2.71-4.64,1.57.92c.89.52,2.02.22,2.54-.67l1.2-2.06c.52-.89.22-2.02-.67-2.54l-13.42-7.83-13.42-7.83c-.89-.52-2.02-.22-2.54.67l-1.2,2.06c-.52.89-.22,2.02.67,2.54l1.57.92-2.71,4.64-.24-.14c-1.21-.71-2.77-.3-3.48.92h0c-.71,1.21-.3,2.77.92,3.48l.24.14s-37.38,41.73-51.73,68c-2.38,4.36-6.14,7.81-10.65,9.91l-11.88,5.52c-11.82,5.49-21.68,14.47-28.25,25.73l-78.73,134.89c-1.91,3.28-.81,7.49,2.47,9.41l34.84,20.34,34.84,20.34c3.28,1.91,7.49.81,9.41-2.47l78.73-134.89c6.57-11.26,9.54-24.26,8.51-37.26Z"/><path class="cls-4" d="m1062.47,257.13l-78.73,134.89c-.24.41-.56.74-.93.98-.92.61-2.14.68-3.15.09l-69.68-40.67c-1.02-.6-1.55-1.71-1.47-2.81.03-.44.16-.87.4-1.28l78.73-134.89c6.21-10.63,15.37-18.98,26.52-24.17l11.88-5.53c5.35-2.49,9.65-6.49,12.43-11.57,13.96-25.56,50.84-66.85,51.2-67.26.79-.87,5.74-9.68,5.74-9.68.16-.27.28-.55.36-.83.2-.66,1-.93,1.59-.58l15.28,8.92c.6.35.75,1.18.28,1.68-.21.22-.39.46-.55.73,0,0-5.22,8.65-5.6,9.76-.18.52-18,52.94-33.37,77.67-3.06,4.92-4.44,10.62-3.98,16.51l1.03,13.06c.97,12.26-1.78,24.35-7.99,34.99Z"/><path class="cls-9" d="m1041.33,190.68l-32.48,37.09c-5.94,6.78-15.83,6.8-18.9-.22-1.96-4.49,14.58-36.13,49.25-42.02,2.86-.49,4.21,2.76,2.13,5.14Z"/><path class="cls-19" d="m994.9,227.54c-.2-.17-.35-.47-.45-.68-1.7-3.9,14.21-29.81,38.57-35.03l-28.31,32.32c-3.86,4.41-8.69,4.37-9.82,3.39Z"/><path class="cls-9" d="m982.8,393c-.92.61-2.14.68-3.15.09l-69.68-40.67c-1.02-.6-1.55-1.71-1.47-2.81,2.27,1.41,19.24,11.57,27.4,8.64.44-.16.87-.3,1.31-.42,10.54-3.02,21.78,3.55,24.35,14.2.11.44.2.9.28,1.36,1.45,8.53,18.6,18.29,20.97,19.61Z"/><rect class="cls-2" x="1085.92" y="104.42" width="27.72" height="5.09" transform="translate(203.88 -539.81) rotate(30.27)"/><path class="cls-7" d="m637.36,86.4l.24-.07c1.19-.33,1.89-1.56,1.55-2.75h0c-.33-1.19-1.56-1.88-2.75-1.55l-.24.07-1.26-4.55,1.54-.43c.87-.24,1.37-1.14,1.13-2.01l-.56-2.02c-.24-.87-1.14-1.37-2.01-1.13l-13.14,3.66-13.14,3.66c-.87.24-1.37,1.14-1.13,2.01l.56,2.02c.24.87,1.14,1.37,2.01,1.13l1.54-.43,1.26,4.55-.24.07c-1.19.33-1.89,1.56-1.55,2.75h0c.33,1.19,1.56,1.89,2.75,1.55l.24-.07s-11.25,69.27-8.19,80.3l38.48,138.32c.89,3.21,4.22,5.09,7.43,4.2l34.12-9.49,34.12-9.49c3.21-.89,5.09-4.22,4.2-7.43l-38.48-138.32c-3.07-11.02-48.47-64.54-48.47-64.54Z"/><path class="cls-25" d="m682.54,151.86l38.47,138.32c.11.4.13.81.05,1.19-.18.95-.88,1.77-1.87,2.04l-68.23,18.98c-1,.28-2.02-.07-2.67-.79-.25-.29-.45-.63-.56-1.03l-38.47-138.32c-2.9-10.41,8.33-79.13,8.3-79.61-.06-1.03-2.58-9.53-2.58-9.53-.07-.26-.18-.51-.3-.74-.29-.53.02-1.2.61-1.36l14.97-4.16c.59-.16,1.2.24,1.22.85,0,.26.05.53.12.79,0,0,2.25,8.57,2.72,9.5.22.43,45.33,53.48,48.23,63.89Z"/><path class="cls-11" d="m622.98,131.49l16.07,57.76c2.94,10.56-1.22,19.96-8.14,17.77-4.43-1.4-22.84-40.08-12.95-77.25.81-3.06,3.99-1.99,5.02,1.71Z"/><path class="cls-18" d="m632.98,202.32c-.22.06-.52,0-.74-.07-3.84-1.22-17.93-35.14-11.84-62.04l14,50.34c1.91,6.86-.15,11.43-1.42,11.78Z"/><path class="cls-23" d="m721.07,291.37c-.18.95-.88,1.77-1.87,2.04l-68.23,18.98c-1,.28-2.02-.07-2.67-.79,2.28-.57,19.05-5.03,22.19-11.96.17-.37.35-.73.53-1.08,4.54-8.48,15.56-11.54,23.83-6.64.35.2.69.42,1.03.66,6.26,4.31,22.89-.52,25.17-1.2Z"/><rect class="cls-7" x="612.87" y="85.28" width="24.33" height="4.47" transform="translate(-.59 170.7) rotate(-15.54)"/></svg>