<?xml version="1.0" encoding="UTF-8"?><svg xmlns="http://www.w3.org/2000/svg" viewBox="0 0 1920 450"><defs><style>.cls-1{fill:#033;}.cls-2{fill:#677687;}.cls-3{fill:#e7ffc0;}.cls-4{fill:#fff;}.cls-5{fill:#e6cb02;}.cls-6{fill:#fcee21;}.cls-7{fill:#9e6e15;}.cls-8{fill:#8cc63f;}.cls-9{fill:#adcf53;}.cls-10{fill:#ccc;}.cls-11{fill:#6dab0a;}.cls-12{fill:#529125;}.cls-13{fill:#3b8de9;}.cls-14{fill:#3baee9;}.cls-15{fill:#7a5201;}.cls-16{fill:#80bd31;}.cls-17{fill:#75868f;}.cls-18{fill:#4d4d4d;}.cls-19{stroke-width:2.29px;}.cls-19,.cls-20{fill:none;stroke:#033;stroke-miterlimit:10;}.cls-21{fill:#d3d3d3;fill-rule:evenodd;}.cls-20{stroke-width:2.09px;}</style></defs><g id="Warstwa_2"><path class="cls-3" d="m1920,0v450H0V0h1662.81"/><path class="cls-8" d="m1920,0v450H0v-42.15c.26-.19.51-.37.76-.55,98.92-70.49,202.27-95.75,314.03-106.22,100.68-9.43,301.84-12.32,489.02,19.17,8.36,1.39,16.69,2.87,24.98,4.42,8.24,1.53,16.44,3.14,24.59,4.82,8.11,1.66,16.18,3.41,24.19,5.22,1.85.42,3.69.84,5.53,1.27,65.3,15.14,191.77,33.72,244.73,34.15,1.36,0,2.69.02,4.02.02,48.95,0,83.03-7.21,117.46-25.31,3.51-1.84,7.03-3.8,10.56-5.88,22.8-13.41,46.07-31.55,73.72-55.46,18.52-16.01,39.02-34.62,62.66-56.13,1.04-.94,2.09-1.9,3.15-2.86,1.56-1.41,3.12-2.84,4.7-4.28,17.66-16.05,36.69-33.34,57.62-52.04,3.23-2.89,6.52-5.82,9.85-8.78,1.05-.93,2.11-1.87,3.17-2.82,1.8-1.6,3.61-3.2,5.44-4.82,4.53-4.01,9.14-8.08,13.85-12.21,2.65-2.34,5.34-4.7,8.06-7.07,1.11-.98,2.23-1.96,3.35-2.93.77-.68,1.54-1.35,2.32-2.03,14.34-12.51,29.5-25.58,45.59-39.26,2.13-1.81,4.28-3.63,6.44-5.45,20.45-17.33,42.39-35.61,66.05-54.93,11.91-9.72,24.23-19.02,36.97-27.89h257.19Z"/><path class="cls-9" d="m1920,0v450H44.37c.48-.4.98-.79,1.5-1.19,20.52-15.63,42.43-29.41,65.51-41.51,169.35-88.76,401.7-87.14,611.25-64.69,8.86.95,17.68,1.93,26.45,2.96,8.8,1.01,17.56,2.07,26.26,3.15,8.74,1.09,17.43,2.2,26.06,3.34,8.71,1.14,17.35,2.31,25.92,3.49,8.67,1.2,17.26,2.41,25.78,3.63,140.84,20.26,260.41,43.58,326.81,44.12,96.92.78,141.7-25.65,226.24-100.26,1.73-1.52,3.47-3.07,5.24-4.64,6.85-6.08,13.96-12.47,21.38-19.18,12.85-11.61,26.62-24.17,41.56-37.75,4.02-3.64,8.12-7.37,12.31-11.16,11.15-10.11,22.94-20.74,35.45-31.92,10.61-9.48,21.75-19.35,33.45-29.63,2.1-1.85,4.22-3.7,6.36-5.57,5.07-4.44,10.25-8.96,15.53-13.54,6.74-5.85,13.66-11.81,20.76-17.91,26.46-22.68,55.51-47.08,87.59-73.28C1713.07,36.17,1741.76,16.79,1771.4,0h148.6Z"/><path class="cls-8" d="m1920,128.15v321.85h-624.03c2-6.06,4.49-11.96,7.47-17.67,4.65-8.89,10.45-17.24,17.38-25.03,5.38-6.06,11.44-11.77,18.17-17.11h0c3.06-2.46,6.26-4.82,9.6-7.11,2.64-1.81,5.37-3.57,8.18-5.29,21.45-13.07,44.95-20.43,68.79-24.54,6.59-1.14,13.2-2.04,19.81-2.72,19.53-2.07,38.95-2.42,57.32-2.42,6.49,0,12.99.05,19.29.1,6.34.04,12.33.09,18.36.09.94,0,1.87,0,2.79-.01,1.4,0,2.77,0,4.12-.03h0c3.13-.03,6.14-.08,9.04-.15,3.98-.11,7.76-.25,11.35-.43,4.17-.21,8.08-.47,11.76-.78,3.63-.3,7.02-.64,10.2-1.03,30.34-3.67,41.31-11.01,49.5-18.47,11.72-10.68,23.92-28.61,36.74-48.29,1.53-2.35,3.07-4.73,4.62-7.13.24-.37.48-.74.72-1.11,20.17-31.16,43.04-66.47,74.19-94.64,17.75-16.06,36.08-27.99,56.03-36.47,22.6-9.6,47.17-14.47,73.02-14.47h.01c11.46,0,23.35.96,35.55,2.86Z"/><path class="cls-16" d="m1920,136.95v313.05h-570.12c1.23-4.87,2.89-9.81,5.09-14.75,1.38-3.12,2.98-6.25,4.81-9.36,8.32-14.15,21.47-28.04,41.56-40.29,8.79-5.36,18.07-9.62,27.71-13.01,7.55-2.66,15.33-4.77,23.27-6.46,23.48-4.98,48.37-6.19,73.15-6.38,1.54,0,3.09-.02,4.64-.02,17.52-.06,34.92.31,51.69.11h0c2.01-.02,4-.05,5.99-.09,13.74-.27,26.99-1.01,39.45-2.76,5.5-.77,10.83-1.74,15.99-2.95h0c17.1-4.02,32.22-10.72,44.41-21.82,55.12-50.21,95.09-198.59,232.34-195.27Z"/><path class="cls-4" d="m542.9,0c-14.26,13.7-28.73,24.93-43.51,33.75h-.01c-27.51,16.43-56.06,24.5-86.34,24.5-38.07,0-73.56-12.7-104.86-23.9-25.37-9.07-49.33-17.64-70.3-17.86-.54,0-1.07-.01-1.6-.01-21.35,0-35.56,4.38-50.68,15.6-15.35,11.39-31.22,29.62-55.25,57.22-22.17,25.46-49.75,57.15-89.66,98.31C28.26,200.43,14.67,211.78,0,221.62V0h542.9Z"/></g><g id="Warstwa_1"><circle class="cls-8" cx="1891.22" cy="191.91" r="14.16"/><circle class="cls-8" cx="1866.9" cy="238.08" r="12.76"/><circle class="cls-8" cx="1810.49" cy="314.63" r="12.76"/><circle class="cls-8" cx="1891.22" cy="258.25" r="7.41"/><circle class="cls-8" cx="1833.29" cy="243.79" r="7.41"/><circle class="cls-8" cx="1801.31" cy="273.51" r="18.1"/><circle class="cls-8" cx="1810.49" cy="225.48" r="15.39"/><circle class="cls-8" cx="1842.38" cy="273.51" r="9.35"/><circle class="cls-8" cx="1898.09" cy="219.87" r="4.98"/><circle class="cls-8" cx="1844.53" cy="316.73" r="4.98"/><circle class="cls-8" cx="1879.66" cy="294.65" r="4.98"/><circle class="cls-8" cx="1782.98" cy="314.63" r="4.98"/><circle class="cls-8" cx="1844.53" cy="195.3" r="13.54"/><circle class="cls-8" cx="392.37" cy="369.88" r="17.48"/><circle class="cls-8" cx="521.97" cy="404.46" r="15.75"/><circle class="cls-8" cx="484.18" cy="359.01" r="15.75"/><circle class="cls-8" cx="556.73" cy="348.47" r="9.15"/><circle class="cls-8" cx="595.87" cy="352.87" r="9.15"/><circle class="cls-8" cx="222.33" cy="411.58" r="22.34"/><circle class="cls-8" cx="282" cy="387.57" r="19"/><circle class="cls-8" cx="564.76" cy="377.74" r="11.55"/><circle class="cls-8" cx="438.12" cy="383.41" r="11.55"/><circle class="cls-8" cx="480.07" cy="395.59" r="6.15"/><circle class="cls-8" cx="371.25" cy="401.31" r="6.15"/><circle class="cls-8" cx="315.02" cy="408.2" r="6.15"/><circle class="cls-8" cx="526.15" cy="367.32" r="6.15"/><circle class="cls-8" cx="433.19" cy="351.89" r="6.15"/><circle class="cls-8" cx="335.92" cy="371.93" r="16.72"/><circle class="cls-4" cx="1100.18" cy="314.95" r="19.36"/><circle class="cls-4" cx="1152.15" cy="266.07" r="17.45"/><circle class="cls-4" cx="1289.05" cy="211.69" r="17.45"/><circle class="cls-4" cx="1040.34" cy="331.31" r="10.13"/><circle class="cls-4" cx="1198.13" cy="273.62" r="10.13"/><circle class="cls-4" cx="1282.64" cy="268.92" r="24.74"/><circle class="cls-4" cx="1229.97" cy="312.79" r="21.04"/><circle class="cls-4" cx="1208.93" cy="231.84" r="12.79"/><circle class="cls-4" cx="1065.43" cy="288.69" r="12.79"/><circle class="cls-4" cx="1289.96" cy="171.67" r="6.81"/><circle class="cls-4" cx="1103.74" cy="275.74" r="6.81"/><circle class="cls-4" cx="1247.32" cy="243.95" r="6.81"/><circle class="cls-4" cx="1244.2" cy="197.95" r="6.81"/><circle class="cls-4" cx="1324.61" cy="223.92" r="6.81"/><circle class="cls-4" cx="1162.05" cy="331.31" r="18.51"/><path class="cls-1" d="m563.8-.09c-7.73,20.37-27.35,33.97-49.25,33.97-5.06,0-10.06-.72-14.86-2.14l-.16-.04c-15.73-4.66-28.41-16.49-34.24-31.79h-2.24c5.94,16.32,19.36,28.95,36.03,33.84l.15.04c4.95,1.45,10.1,2.18,15.31,2.18,23.04,0,43.64-14.47,51.48-36.06h-2.23Z"/><circle class="cls-19" cx="1643.08" cy="70.64" r="22.69"/><polygon class="cls-1" points="1751.78 -.02 1730.27 21.49 1731.75 22.97 1754.74 -.02 1751.78 -.02"/><polygon class="cls-1" points="1722.38 -.02 1700.86 21.49 1702.34 22.97 1725.33 -.02 1722.38 -.02"/><polygon class="cls-1" points="1692.97 -.02 1671.46 21.49 1672.94 22.97 1695.92 -.02 1692.97 -.02"/><polygon class="cls-1" points="1663.56 -.02 1642.05 21.49 1643.53 22.97 1666.51 -.02 1663.56 -.02"/><polygon class="cls-1" points="1634.16 -.02 1612.65 21.49 1614.12 22.97 1637.11 -.02 1634.16 -.02"/><polygon class="cls-1" points="1604.75 -.02 1583.24 21.49 1584.72 22.97 1607.7 -.02 1604.75 -.02"/><line class="cls-20" x1="894.54" y1="317.73" x2="850.08" y2="362.19"/><line class="cls-20" x1="865.14" y1="317.73" x2="820.68" y2="362.19"/><line class="cls-20" x1="835.73" y1="317.73" x2="791.27" y2="362.19"/><line class="cls-20" x1="806.32" y1="317.73" x2="761.86" y2="362.19"/><line class="cls-20" x1="776.92" y1="317.73" x2="732.46" y2="362.19"/><line class="cls-20" x1="747.51" y1="317.73" x2="703.05" y2="362.19"/><rect class="cls-1" x="64.83" y="44.86" width="62.88" height="2.09" transform="translate(-4.26 81.52) rotate(-45)"/><rect class="cls-1" x="35.43" y="44.86" width="62.88" height="2.09" transform="translate(-12.88 60.73) rotate(-45)"/><rect class="cls-1" x="6.02" y="44.86" width="62.88" height="2.09" transform="translate(-21.49 39.93) rotate(-45)"/><polygon class="cls-1" points="-.02 55.46 31.02 24.41 29.54 22.94 -.02 52.5 -.02 55.46"/><circle class="cls-20" cx="1338.68" cy="322.1" r="53.75"/><rect class="cls-4" x="0" y="407.3" width="1920" height="42.7"/><path class="cls-4" d="m1882.68,88.12c0-7.37-6-13.37-13.37-13.37h-2.53c-1.1-6.08-6.43-10.71-12.82-10.71h-104.57c-6.4,0-11.72,4.63-12.82,10.71h-2.53c-7.37,0-13.37,6-13.37,13.37v20.52h-68.39c-6.4,0-11.72,4.63-12.82,10.71h-2.53c-7.37,0-13.37,6-13.37,13.37v32.82h-36.05v-11.17h.06v-21.65c0-7.37-6-13.37-13.37-13.37h-2.53c-1.1-6.08-6.43-10.71-12.82-10.71h-68.39v-20.52c0-7.37-6-13.37-13.37-13.37h-2.53c-1.1-6.08-6.43-10.71-12.82-10.71h-104.57c-6.4,0-11.72,4.63-12.82,10.71h-2.53c-7.37,0-13.37,6-13.37,13.37v53.02h1.42l19.83,132.23c-3.12,2.09-5.18,5.64-5.18,9.67v11.09c-1.69,2.07-2.7,4.72-2.7,7.59v13.24c0,2.88,1.02,5.52,2.7,7.59v11.09c0,6.42,5.22,11.63,11.63,11.63h10.22c6.42,0,11.63-5.22,11.63-11.63v-15.08h65.07v3.48c-.91,1.66-1.44,3.57-1.44,5.59v11.09c-1.69,2.07-2.7,4.72-2.7,7.59v13.24c0,2.88,1.02,5.52,2.7,7.59v11.09c0,6.42,5.22,11.63,11.63,11.63h10.22c6.42,0,11.63-5.22,11.63-11.63v-15.08h65.07v15.08c0,1.38.25,2.69.69,3.91-.16.77-.25,1.56-.25,2.38v11.09c-1.69,2.07-2.7,4.72-2.7,7.59v13.24c0,2.88,1.02,5.52,2.7,7.59v11.1c0,6.41,5.22,11.63,11.63,11.63h10.22c6.42,0,11.63-5.22,11.63-11.63v-15.08h65.07v15.08c0,6.41,5.22,11.63,11.63,11.63h10.22c6.41,0,11.63-5.22,11.63-11.63v-11.09c1.69-2.07,2.7-4.72,2.7-7.59v-13.24c0-2.88-1.02-5.52-2.7-7.59v-11.09c0-.82-.09-1.61-.25-2.38.44-1.23.69-2.54.69-3.92v-15.08h65.07v15.08c0,6.42,5.22,11.63,11.63,11.63h10.22c6.41,0,11.63-5.22,11.63-11.63v-11.09c1.69-2.07,2.7-4.72,2.7-7.59v-13.24c0-2.88-1.02-5.52-2.7-7.59v-11.09c0-2.03-.52-3.93-1.44-5.59v-3.49h65.07v15.08c0,6.42,5.22,11.63,11.63,11.63h10.22c6.41,0,11.63-5.22,11.63-11.63v-11.09c1.69-2.07,2.7-4.72,2.7-7.59v-13.24c0-2.88-1.02-5.52-2.7-7.59v-11.09c0-4.87-3-9.04-7.25-10.77l19.67-131.13h1.42v-31.37h.06v-21.65Z"/><path class="cls-5" d="m1749.33,74.26h104.69c1.52,0,2.75,1.23,2.75,2.75v10.28h-110.2v-10.28c0-1.52,1.23-2.75,2.75-2.75Z"/><path class="cls-10" d="m1848.42,302.16h13.32c.98,0,1.78.8,1.78,1.78v10.58h-16.88v-10.58c0-.98.8-1.78,1.78-1.78Z" transform="translate(2163.42 -1546.74) rotate(90)"/><polygon class="cls-6" points="1730.9 99.54 1730.9 130.92 1757.51 308.34 1845.78 308.34 1872.39 130.92 1872.39 99.54 1730.9 99.54"/><path class="cls-6" d="m1733.97,84.98h135.4c1.7,0,3.08,1.38,3.08,3.08v11.49h-141.56v-11.49c0-1.7,1.38-3.08,3.08-3.08Z"/><rect class="cls-5" x="1730.9" y="99.54" width="141.5" height="31.37"/><path class="cls-4" d="m1836.18,226.98c1.11-1.22,2.17-2.52,3.14-3.86,14.19-19.63,9.76-47.15-9.88-61.33-.66-.48-1.34-.93-2.02-1.37l5.1,8.48c1.04,1.79,1.18,3.99.39,5.88-.82,1.97-2.55,3.41-4.64,3.87l-9.81,2.27c7.3,6.54,9.43,17.17,5.2,25.98l-1.64-2.61c-.32-.52-.91-.81-1.5-.75-.61.04-1.13.43-1.35,1l-10.54,26.07c-.21.48-.16,1.02.11,1.46.28.43.74.71,1.26.75l28.05,1.97h.11c.57,0,1.09-.29,1.37-.78.32-.5.3-1.16-.01-1.66l-3.35-5.37Z"/><path class="cls-21" d="m1821.87,182.3c-.22.25-.61.28-.86.06-.26-.22-.28-.61-.06-.86.22-.25.61-.28.86-.06.26.22.28.61.06.86Z"/><path class="cls-21" d="m1834.59,169.69c-.22.25-.61.28-.86.06-.25-.22-.28-.61-.06-.86.22-.26.61-.28.86-.06.25.22.28.61.06.86Z"/><path class="cls-21" d="m1831.76,165.86c-.22.26-.61.28-.86.06-.25-.22-.28-.61-.06-.86.22-.26.61-.28.86-.06.26.22.28.61.06.86Z"/><path class="cls-21" d="m1828.9,181.34c-.22.26-.61.28-.86.06-.25-.22-.28-.61-.06-.86.22-.26.61-.28.86-.06.25.22.28.61.06.86Z"/><path class="cls-21" d="m1823.56,185.83c-.1.12-.28.13-.4.03-.12-.1-.13-.28-.03-.4.1-.12.28-.13.4-.03.12.1.13.28.03.4Z"/><path class="cls-21" d="m1831.39,178.06c-.1.12-.28.13-.4.03-.12-.1-.13-.28-.03-.4.1-.12.28-.13.4-.03.12.1.13.28.03.4Z"/><path class="cls-21" d="m1834.95,172.17c-.1.12-.28.13-.4.03-.12-.1-.13-.28-.03-.4.1-.12.28-.13.4-.03.12.1.13.28.03.4Z"/><path class="cls-21" d="m1830.18,162.56c-.1.12-.28.13-.4.03-.12-.1-.13-.28-.03-.4.03-.04.07-.06.11-.08.13.09.25.19.38.28,0,.06-.03.12-.07.16Z"/><path class="cls-21" d="m1836.89,173.6c-.22.26-.61.28-.86.06-.25-.22-.28-.61-.06-.86.22-.26.61-.28.86-.06.26.22.28.61.06.86Z"/><path class="cls-21" d="m1838.12,170.09c-.39.27-.93.26-1.31-.07-.45-.39-.5-1.06-.11-1.51.02-.02.04-.04.05-.06.47.54.92,1.08,1.36,1.64Z"/><path class="cls-21" d="m1827.22,185.13c-.22.25-.61.28-.86.06-.26-.22-.28-.61-.06-.86.22-.25.61-.28.86-.06.25.22.28.61.06.86Z"/><path class="cls-21" d="m1831.17,184.08c-.22.26-.61.28-.86.06-.25-.22-.28-.61-.06-.86.22-.26.61-.28.86-.06s.28.61.06.86Z"/><path class="cls-21" d="m1840.23,172.98c-.22.22-.58.24-.83.03-.26-.22-.28-.61-.06-.86.06-.07.13-.12.21-.16.23.33.46.66.68.99Z"/><path class="cls-21" d="m1834.24,179.29c-.22.26-.61.28-.86.06-.26-.22-.28-.61-.06-.86.22-.26.61-.28.86-.06.26.22.28.61.06.86Z"/><path class="cls-21" d="m1826.21,181.84c-.22.26-.61.28-.86.06-.25-.22-.28-.61-.06-.86.22-.25.61-.28.86-.06.25.22.28.61.06.86Z"/><path class="cls-21" d="m1834.12,165.79c-.1.12-.28.13-.4.03-.12-.1-.13-.28-.03-.4.02-.03.05-.05.08-.06.13.12.26.25.39.37-.01.02-.02.04-.04.06Z"/><path class="cls-21" d="m1833.22,181.76c-.1.12-.28.13-.4.03-.12-.1-.13-.28-.03-.4.1-.12.28-.13.4-.03.12.1.13.28.03.4Z"/><path class="cls-21" d="m1836.48,177.05c-.1.12-.28.13-.4.03-.12-.1-.13-.28-.03-.4.1-.12.28-.13.4-.03.12.1.13.28.03.4Z"/><path class="cls-21" d="m1825.79,187.97c-.1.12-.28.13-.4.03-.12-.1-.13-.28-.03-.4.1-.12.28-.13.4-.03.12.1.13.28.03.4Z"/><path class="cls-21" d="m1833.99,176.77c-.3.35-.83.39-1.18.09-.35-.3-.39-.83-.09-1.18.3-.35.83-.39,1.18-.09.35.3.39.83.09,1.18Z"/><path class="cls-4" d="m1819.23,238.47c-19.39,7.38-41.95.11-53.13-18.24-.85-1.42-1.64-2.89-2.33-4.39l-6.24,1c-.59.09-1.2-.14-1.54-.63-.34-.46-.41-1.05-.19-1.57l.04-.11,12.69-25.08c.25-.46.68-.78,1.19-.87.5-.09,1.03.09,1.39.46l19.94,19.82c.44.42.6,1.05.4,1.63-.18.57-.67,1-1.27,1.1l-3.04.5c5.25,5.93,13.24,8.48,20.8,6.99l-3.89,9.64c-.83,1.96-.63,4.2.5,6.02,1.12,1.76,2.95,2.87,5.04,3.04l9.66.68Z"/><path class="cls-4" d="m1828.32,172.87c-.2.47-.63.83-1.13.93l-27.4,6.34c-.58.14-1.2-.06-1.59-.53-.38-.46-.49-1.1-.25-1.66l1.2-2.84c-8.91,1.48-15.99,8.29-17.93,16.99l-6.59-6.55c-1.22-1.24-2.92-1.96-4.67-1.96-.36,0-.73.03-1.07.09-2.06.35-3.8,1.61-4.77,3.46l-5.23,10.34c-.01-.41-.01-.8,0-1.21.35-24.22,20.33-43.64,44.55-43.29,1.66.03,3.31.14,4.96.36l2.47-5.82c.23-.55.76-.93,1.36-.96.56-.05,1.1.21,1.42.68l.07.09,14.49,24.1c.26.45.31.99.11,1.47Z"/><path class="cls-21" d="m1768.45,180.13c-.35.4-.96.45-1.36.1-.4-.35-.45-.96-.1-1.36.35-.4.96-.45,1.36-.1.4.35.45.96.1,1.36Z"/><path class="cls-21" d="m1759.78,193.85c-.21.24-.52.33-.81.27.03-.56.08-1.11.14-1.66.21,0,.42.06.58.2.35.3.39.83.09,1.18Z"/><path class="cls-21" d="m1762.63,185.42c-.3.35-.83.39-1.18.09-.35-.3-.39-.83-.09-1.18.3-.35.83-.39,1.18-.09s.39.83.09,1.18Z"/><path class="cls-21" d="m1770.99,182.76c-.3.35-.83.39-1.18.09-.35-.3-.39-.83-.09-1.18.3-.35.83-.39,1.18-.09.35.3.39.83.09,1.18Z"/><path class="cls-21" d="m1778.02,183.49c-.22.26-.61.28-.86.06-.25-.22-.28-.61-.06-.86.22-.26.61-.28.86-.06.26.22.28.61.06.86Z"/><path class="cls-21" d="m1764.74,179.48c-.22.26-.61.28-.86.06-.25-.22-.28-.61-.06-.86.22-.26.61-.28.86-.06.26.22.28.61.06.86Z"/><path class="cls-21" d="m1764.13,182.22c-.22.25-.61.28-.86.06-.26-.22-.28-.61-.06-.86.22-.26.61-.28.86-.06.25.22.28.61.06.86Z"/><path class="cls-21" d="m1782.12,189.09c-.19.05-.4.01-.56-.13-.26-.22-.28-.61-.06-.86.22-.25.61-.28.86-.06.05.04.09.1.13.15-.13.3-.25.59-.36.9Z"/><path class="cls-21" d="m1765.1,184.47c-.1.12-.28.13-.4.03-.12-.1-.13-.28-.03-.4.1-.12.28-.13.4-.03.12.1.13.28.03.4Z"/><path class="cls-21" d="m1778.74,189.13c-.1.12-.28.13-.4.03-.12-.1-.13-.28-.03-.4.1-.12.28-.13.4-.03.12.1.13.28.03.4Z"/><path class="cls-21" d="m1784.24,183.59c-.1.12-.28.13-.4.03-.12-.1-.13-.28-.03-.4.1-.12.28-.13.4-.03.12.1.13.28.03.4Z"/><path class="cls-21" d="m1775.36,178.07c-.1.12-.28.13-.4.03-.12-.1-.13-.28-.03-.4.1-.12.28-.13.4-.03.12.1.13.28.03.4Z"/><path class="cls-21" d="m1773.44,182.88c-.1.12-.28.13-.4.03-.12-.1-.13-.28-.03-.4.1-.12.28-.13.4-.03.12.1.13.28.03.4Z"/><path class="cls-21" d="m1766.61,182c-.1.12-.28.13-.4.03-.12-.1-.13-.28-.03-.4s.28-.13.4-.03c.12.1.13.28.03.4Z"/><path class="cls-21" d="m1777.53,180.59c-.28.32-.76.36-1.08.08-.32-.28-.36-.76-.08-1.08.28-.32.76-.36,1.08-.08.32.28.36.76.08,1.08Z"/><path class="cls-21" d="m1777.52,186.83c-.39.45-1.06.5-1.51.11-.45-.39-.49-1.06-.11-1.51.39-.45,1.06-.5,1.51-.11.45.39.5,1.06.11,1.51Z"/><path class="cls-21" d="m1761.46,188.62c-.39.45-1.06.5-1.51.11-.11-.09-.19-.2-.25-.32.09-.45.18-.89.28-1.33.39-.31.97-.31,1.36.03.45.39.49,1.06.11,1.51Z"/><path class="cls-21" d="m1781.75,181.1c-.22.26-.61.28-.86.06-.26-.22-.28-.61-.06-.86.22-.25.61-.28.86-.06.26.22.28.61.06.86Z"/><path class="cls-21" d="m1781.13,185.13c-.22.25-.61.28-.86.06-.25-.22-.28-.61-.06-.86.22-.26.61-.28.86-.06.26.22.28.61.06.86Z"/><path class="cls-21" d="m1773.95,180.84c-.1.12-.28.13-.4.03-.12-.1-.13-.28-.03-.4.1-.12.28-.13.4-.03.12.1.13.28.03.4Z"/><path class="cls-21" d="m1770.64,178.25c-.1.12-.28.13-.4.03-.12-.1-.13-.28-.03-.4.1-.12.28-.13.4-.03.12.1.13.28.03.4Z"/><path class="cls-21" d="m1767.25,177.2c-.1.12-.28.13-.4.03-.12-.1-.13-.28-.03-.4.1-.12.28-.13.4-.03.12.1.13.28.03.4Z"/><path class="cls-21" d="m1802.43,233.16c-.55.64-1.52.71-2.15.16-.64-.55-.71-1.52-.16-2.15s1.52-.71,2.15-.16c.64.55.71,1.52.16,2.15Z"/><path class="cls-21" d="m1805.33,223.33c-.35.4-.96.45-1.36.1-.4-.35-.45-.96-.1-1.36.35-.4.96-.45,1.36-.1.4.35.45.96.1,1.36Z"/><path class="cls-21" d="m1809.79,239.62c-.3.35-.83.39-1.18.09-.35-.3-.39-.83-.09-1.18.3-.35.83-.39,1.18-.09.35.3.39.83.09,1.18Z"/><path class="cls-21" d="m1795.23,235.89c-.3.35-.83.39-1.18.09-.35-.3-.39-.83-.09-1.18.3-.35.83-.39,1.18-.09.35.3.39.83.09,1.18Z"/><path class="cls-21" d="m1803.45,225.45c-.3.35-.83.39-1.18.09-.35-.3-.39-.83-.09-1.18.3-.35.83-.39,1.18-.09.35.3.39.83.09,1.18Z"/><path class="cls-21" d="m1800.33,224.16c-.3.35-.83.39-1.18.09-.35-.3-.39-.83-.09-1.18.3-.35.83-.39,1.18-.09s.39.83.09,1.18Z"/><path class="cls-21" d="m1804.69,236.88c-.3.35-.83.39-1.18.09-.35-.3-.39-.83-.09-1.18.3-.35.83-.39,1.18-.09.35.3.39.83.09,1.18Z"/><path class="cls-21" d="m1813.73,239.47c-.22.26-.61.28-.86.06-.25-.22-.28-.61-.06-.86.22-.25.61-.28.86-.06.25.22.28.61.06.86Z"/><path class="cls-21" d="m1801.4,228.42c-.42.48-1.15.54-1.63.12-.48-.42-.54-1.15-.12-1.63.42-.48,1.15-.54,1.63-.12.48.42.53,1.15.12,1.63Z"/><path class="cls-21" d="m1796.04,228.42c-.22.26-.61.28-.86.06-.26-.22-.28-.61-.06-.86.22-.25.61-.28.86-.06.25.22.28.61.06.86Z"/><path class="cls-21" d="m1800.28,236.12c-.22.26-.61.28-.86.06-.25-.22-.28-.61-.06-.86.22-.26.61-.28.86-.06.25.22.28.61.06.86Z"/><path class="cls-21" d="m1804.51,240.79c-.22.25-.61.28-.86.06-.25-.22-.28-.61-.06-.86.22-.25.61-.28.86-.06.25.22.28.61.06.86Z"/><path class="cls-21" d="m1808.61,241.03c.31-.24.73-.29,1.09-.14-.36.05-.72.09-1.09.14Z"/><path class="cls-21" d="m1816.1,239.52c0-.05.03-.1.07-.14.1-.12.28-.13.4-.03,0,0,.02.02.02.03-.16.05-.32.1-.49.15Z"/><path class="cls-21" d="m1801.76,220.21c-.1.12-.28.13-.4.03-.12-.1-.13-.28-.03-.4.1-.12.28-.13.4-.03.12.1.13.28.03.4Z"/><path class="cls-21" d="m1796.6,221.66c-.1.12-.28.13-.4.03-.12-.1-.13-.28-.03-.4.1-.12.28-.13.4-.03.12.1.13.28.03.4Z"/><path class="cls-21" d="m1797.91,232.06c-.1.12-.28.13-.4.03-.12-.1-.13-.28-.03-.4.1-.12.28-.13.4-.03.12.1.13.28.03.4Z"/><path class="cls-21" d="m1802.12,235.05c-.1.12-.28.13-.4.03-.12-.1-.13-.28-.03-.4.1-.12.28-.13.4-.03.12.1.13.28.03.4Z"/><path class="cls-21" d="m1802.24,239.07c-.1.12-.28.13-.4.03-.12-.1-.13-.28-.03-.4.1-.12.28-.13.4-.03.12.1.13.28.03.4Z"/><path class="cls-21" d="m1805.13,220.22c-.39.45-1.06.5-1.51.11-.25-.22-.38-.53-.37-.83.71.01,1.42,0,2.13-.06.02.28-.06.56-.26.79Z"/><path class="cls-21" d="m1795.6,225.14c-.39.45-1.06.5-1.51.11-.45-.39-.5-1.06-.11-1.51.39-.45,1.06-.5,1.51-.11.45.39.5,1.06.11,1.51Z"/><path class="cls-21" d="m1798.24,238.97c-.39.45-1.06.5-1.51.11-.45-.39-.5-1.06-.11-1.51.39-.45,1.06-.5,1.51-.11.45.39.5,1.06.11,1.51Z"/><path class="cls-21" d="m1792.37,230.42c-.22.25-.61.28-.86.06-.26-.22-.28-.61-.06-.86.22-.26.61-.28.86-.06.25.22.28.61.06.86Z"/><path class="cls-21" d="m1799.4,230.67c-.22.26-.61.28-.86.06-.26-.22-.28-.61-.06-.86.22-.26.61-.28.86-.06.25.22.28.61.06.86Z"/><path class="cls-21" d="m1807.16,240.78c-.3.35-.83.39-1.18.09-.35-.3-.39-.83-.09-1.18.3-.35.83-.39,1.18-.09.35.3.39.83.09,1.18Z"/><rect class="cls-18" x="1825.33" y="301.83" width="53.42" height="13.03" rx="1.38" ry="1.38" transform="translate(2160.39 -1543.7) rotate(90)"/><path class="cls-10" d="m1742.01,302.16h16.88v10.58c0,.98-.8,1.78-1.78,1.78h-13.32c-.98,0-1.78-.8-1.78-1.78v-10.58h0Z" transform="translate(2058.8 -1442.11) rotate(90)"/><rect class="cls-18" x="1726.78" y="301.83" width="53.42" height="13.03" rx="1.38" ry="1.38" transform="translate(2061.83 -1445.15) rotate(90)"/><path class="cls-15" d="m1357.11,74.26h104.69c1.52,0,2.75,1.23,2.75,2.75v10.28h-110.2v-10.28c0-1.52,1.23-2.75,2.75-2.75Z"/><path class="cls-10" d="m1456.2,302.16h13.32c.98,0,1.78.8,1.78,1.78v10.58h-16.88v-10.58c0-.98.8-1.78,1.78-1.78Z" transform="translate(1771.2 -1154.52) rotate(90)"/><polygon class="cls-7" points="1338.68 99.54 1338.68 130.92 1365.29 308.34 1453.56 308.34 1480.17 130.92 1480.17 99.54 1338.68 99.54"/><path class="cls-7" d="m1341.75,84.98h135.4c1.7,0,3.08,1.38,3.08,3.08v11.49h-141.56v-11.49c0-1.7,1.38-3.08,3.08-3.08Z"/><rect class="cls-15" x="1338.68" y="99.54" width="141.5" height="31.37"/><path class="cls-4" d="m1443.96,226.98c1.11-1.22,2.17-2.52,3.14-3.86,14.19-19.63,9.76-47.15-9.88-61.33-.66-.48-1.34-.93-2.02-1.37l5.1,8.48c1.04,1.79,1.18,3.99.39,5.88-.82,1.97-2.55,3.41-4.64,3.87l-9.81,2.27c7.3,6.54,9.43,17.17,5.2,25.98l-1.64-2.61c-.32-.52-.91-.81-1.5-.75-.61.04-1.13.43-1.35,1l-10.54,26.07c-.21.48-.16,1.02.11,1.46.28.43.74.71,1.26.75l28.05,1.97h.11c.57,0,1.09-.29,1.37-.78.32-.5.3-1.16-.01-1.66l-3.35-5.37Z"/><path class="cls-21" d="m1429.65,182.3c-.22.25-.61.28-.86.06-.26-.22-.28-.61-.06-.86.22-.25.61-.28.86-.06.26.22.28.61.06.86Z"/><path class="cls-21" d="m1442.37,169.69c-.22.25-.61.28-.86.06-.25-.22-.28-.61-.06-.86.22-.26.61-.28.86-.06.25.22.28.61.06.86Z"/><path class="cls-21" d="m1439.54,165.86c-.22.26-.61.28-.86.06-.25-.22-.28-.61-.06-.86.22-.26.61-.28.86-.06.26.22.28.61.06.86Z"/><path class="cls-21" d="m1436.68,181.34c-.22.26-.61.28-.86.06-.25-.22-.28-.61-.06-.86.22-.26.61-.28.86-.06.25.22.28.61.06.86Z"/><path class="cls-21" d="m1431.34,185.83c-.1.12-.28.13-.4.03-.12-.1-.13-.28-.03-.4.1-.12.28-.13.4-.03.12.1.13.28.03.4Z"/><path class="cls-21" d="m1439.17,178.06c-.1.12-.28.13-.4.03-.12-.1-.13-.28-.03-.4.1-.12.28-.13.4-.03.12.1.13.28.03.4Z"/><path class="cls-21" d="m1442.73,172.17c-.1.12-.28.13-.4.03-.12-.1-.13-.28-.03-.4.1-.12.28-.13.4-.03.12.1.13.28.03.4Z"/><path class="cls-21" d="m1437.96,162.56c-.1.12-.28.13-.4.03-.12-.1-.13-.28-.03-.4.03-.04.07-.06.11-.08.13.09.25.19.38.28,0,.06-.03.12-.07.16Z"/><path class="cls-21" d="m1444.67,173.6c-.22.26-.61.28-.86.06-.25-.22-.28-.61-.06-.86.22-.26.61-.28.86-.06.26.22.28.61.06.86Z"/><path class="cls-21" d="m1445.9,170.09c-.39.27-.93.26-1.31-.07-.45-.39-.5-1.06-.11-1.51.02-.02.04-.04.05-.06.47.54.92,1.08,1.36,1.64Z"/><path class="cls-21" d="m1435,185.13c-.22.25-.61.28-.86.06-.26-.22-.28-.61-.06-.86.22-.25.61-.28.86-.06.25.22.28.61.06.86Z"/><path class="cls-21" d="m1438.95,184.08c-.22.26-.61.28-.86.06-.25-.22-.28-.61-.06-.86.22-.26.61-.28.86-.06s.28.61.06.86Z"/><path class="cls-21" d="m1448.01,172.98c-.22.22-.58.24-.83.03-.26-.22-.28-.61-.06-.86.06-.07.13-.12.21-.16.23.33.46.66.68.99Z"/><path class="cls-21" d="m1442.02,179.29c-.22.26-.61.28-.86.06-.26-.22-.28-.61-.06-.86.22-.26.61-.28.86-.06.26.22.28.61.06.86Z"/><path class="cls-21" d="m1433.99,181.84c-.22.26-.61.28-.86.06-.25-.22-.28-.61-.06-.86.22-.25.61-.28.86-.06.25.22.28.61.06.86Z"/><path class="cls-21" d="m1441.9,165.79c-.1.12-.28.13-.4.03-.12-.1-.13-.28-.03-.4.02-.03.05-.05.08-.06.13.12.26.25.39.37-.01.02-.02.04-.04.06Z"/><path class="cls-21" d="m1441,181.76c-.1.12-.28.13-.4.03-.12-.1-.13-.28-.03-.4.1-.12.28-.13.4-.03.12.1.13.28.03.4Z"/><path class="cls-21" d="m1444.26,177.05c-.1.12-.28.13-.4.03-.12-.1-.13-.28-.03-.4.1-.12.28-.13.4-.03.12.1.13.28.03.4Z"/><path class="cls-21" d="m1433.57,187.97c-.1.12-.28.13-.4.03-.12-.1-.13-.28-.03-.4.1-.12.28-.13.4-.03.12.1.13.28.03.4Z"/><path class="cls-21" d="m1441.77,176.77c-.3.35-.83.39-1.18.09-.35-.3-.39-.83-.09-1.18.3-.35.83-.39,1.18-.09.35.3.39.83.09,1.18Z"/><path class="cls-4" d="m1427.01,238.47c-19.39,7.38-41.95.11-53.13-18.24-.85-1.42-1.64-2.89-2.33-4.39l-6.24,1c-.59.09-1.2-.14-1.54-.63-.34-.46-.41-1.05-.19-1.57l.04-.11,12.69-25.08c.25-.46.68-.78,1.19-.87.5-.09,1.03.09,1.39.46l19.94,19.82c.44.42.6,1.05.4,1.63-.18.57-.67,1-1.27,1.1l-3.04.5c5.25,5.93,13.24,8.48,20.8,6.99l-3.89,9.64c-.83,1.96-.63,4.2.5,6.02,1.12,1.76,2.95,2.87,5.04,3.04l9.66.68Z"/><path class="cls-4" d="m1436.1,172.87c-.2.47-.63.83-1.13.93l-27.4,6.34c-.58.14-1.2-.06-1.59-.53-.38-.46-.49-1.1-.25-1.66l1.2-2.84c-8.91,1.48-15.99,8.29-17.93,16.99l-6.59-6.55c-1.22-1.24-2.92-1.96-4.67-1.96-.36,0-.73.03-1.07.09-2.06.35-3.8,1.61-4.77,3.46l-5.23,10.34c-.01-.41-.01-.8,0-1.21.35-24.22,20.33-43.64,44.55-43.29,1.66.03,3.31.14,4.96.36l2.47-5.82c.23-.55.76-.93,1.36-.96.56-.05,1.1.21,1.42.68l.07.09,14.49,24.1c.26.45.31.99.11,1.47Z"/><path class="cls-21" d="m1376.23,180.13c-.35.4-.96.45-1.36.1-.4-.35-.45-.96-.1-1.36.35-.4.96-.45,1.36-.1.4.35.45.96.1,1.36Z"/><path class="cls-21" d="m1367.56,193.85c-.21.24-.52.33-.81.27.03-.56.08-1.11.14-1.66.21,0,.42.06.58.2.35.3.39.83.09,1.18Z"/><path class="cls-21" d="m1370.41,185.42c-.3.35-.83.39-1.18.09-.35-.3-.39-.83-.09-1.18.3-.35.83-.39,1.18-.09s.39.83.09,1.18Z"/><path class="cls-21" d="m1378.77,182.76c-.3.35-.83.39-1.18.09-.35-.3-.39-.83-.09-1.18.3-.35.83-.39,1.18-.09.35.3.39.83.09,1.18Z"/><path class="cls-21" d="m1385.8,183.49c-.22.26-.61.28-.86.06-.25-.22-.28-.61-.06-.86.22-.26.61-.28.86-.06.26.22.28.61.06.86Z"/><path class="cls-21" d="m1372.52,179.48c-.22.26-.61.28-.86.06-.25-.22-.28-.61-.06-.86.22-.26.61-.28.86-.06.26.22.28.61.06.86Z"/><path class="cls-21" d="m1371.91,182.22c-.22.25-.61.28-.86.06-.26-.22-.28-.61-.06-.86.22-.26.61-.28.86-.06.25.22.28.61.06.86Z"/><path class="cls-21" d="m1389.9,189.09c-.19.05-.4.01-.56-.13-.26-.22-.28-.61-.06-.86.22-.25.61-.28.86-.06.05.04.09.1.13.15-.13.3-.25.59-.36.9Z"/><path class="cls-21" d="m1372.88,184.47c-.1.12-.28.13-.4.03-.12-.1-.13-.28-.03-.4.1-.12.28-.13.4-.03.12.1.13.28.03.4Z"/><path class="cls-21" d="m1386.52,189.13c-.1.12-.28.13-.4.03-.12-.1-.13-.28-.03-.4.1-.12.28-.13.4-.03.12.1.13.28.03.4Z"/><path class="cls-21" d="m1392.02,183.59c-.1.12-.28.13-.4.03-.12-.1-.13-.28-.03-.4.1-.12.28-.13.4-.03.12.1.13.28.03.4Z"/><path class="cls-21" d="m1383.14,178.07c-.1.12-.28.13-.4.03-.12-.1-.13-.28-.03-.4.1-.12.28-.13.4-.03.12.1.13.28.03.4Z"/><path class="cls-21" d="m1381.22,182.88c-.1.12-.28.13-.4.03-.12-.1-.13-.28-.03-.4.1-.12.28-.13.4-.03.12.1.13.28.03.4Z"/><path class="cls-21" d="m1374.39,182c-.1.12-.28.13-.4.03-.12-.1-.13-.28-.03-.4s.28-.13.4-.03c.12.1.13.28.03.4Z"/><path class="cls-21" d="m1385.31,180.59c-.28.32-.76.36-1.08.08-.32-.28-.36-.76-.08-1.08.28-.32.76-.36,1.08-.08.32.28.36.76.08,1.08Z"/><path class="cls-21" d="m1385.3,186.83c-.39.45-1.06.5-1.51.11-.45-.39-.49-1.06-.11-1.51.39-.45,1.06-.5,1.51-.11.45.39.5,1.06.11,1.51Z"/><path class="cls-21" d="m1369.24,188.62c-.39.45-1.06.5-1.51.11-.11-.09-.19-.2-.25-.32.09-.45.18-.89.28-1.33.39-.31.97-.31,1.36.03.45.39.49,1.06.11,1.51Z"/><path class="cls-21" d="m1389.53,181.1c-.22.26-.61.28-.86.06-.26-.22-.28-.61-.06-.86.22-.25.61-.28.86-.06.26.22.28.61.06.86Z"/><path class="cls-21" d="m1388.91,185.13c-.22.25-.61.28-.86.06-.25-.22-.28-.61-.06-.86.22-.26.61-.28.86-.06.26.22.28.61.06.86Z"/><path class="cls-21" d="m1381.73,180.84c-.1.12-.28.13-.4.03-.12-.1-.13-.28-.03-.4.1-.12.28-.13.4-.03.12.1.13.28.03.4Z"/><path class="cls-21" d="m1378.42,178.25c-.1.12-.28.13-.4.03-.12-.1-.13-.28-.03-.4.1-.12.28-.13.4-.03.12.1.13.28.03.4Z"/><path class="cls-21" d="m1375.03,177.2c-.1.12-.28.13-.4.03-.12-.1-.13-.28-.03-.4.1-.12.28-.13.4-.03.12.1.13.28.03.4Z"/><path class="cls-21" d="m1410.21,233.16c-.55.64-1.52.71-2.15.16-.64-.55-.71-1.52-.16-2.15s1.52-.71,2.15-.16c.64.55.71,1.52.16,2.15Z"/><path class="cls-21" d="m1413.11,223.33c-.35.4-.96.45-1.36.1-.4-.35-.45-.96-.1-1.36.35-.4.96-.45,1.36-.1.4.35.45.96.1,1.36Z"/><path class="cls-21" d="m1417.57,239.62c-.3.35-.83.39-1.18.09-.35-.3-.39-.83-.09-1.18.3-.35.83-.39,1.18-.09.35.3.39.83.09,1.18Z"/><path class="cls-21" d="m1403.01,235.89c-.3.35-.83.39-1.18.09-.35-.3-.39-.83-.09-1.18.3-.35.83-.39,1.18-.09.35.3.39.83.09,1.18Z"/><path class="cls-21" d="m1411.23,225.45c-.3.35-.83.39-1.18.09-.35-.3-.39-.83-.09-1.18.3-.35.83-.39,1.18-.09.35.3.39.83.09,1.18Z"/><path class="cls-21" d="m1408.11,224.16c-.3.35-.83.39-1.18.09-.35-.3-.39-.83-.09-1.18.3-.35.83-.39,1.18-.09s.39.83.09,1.18Z"/><path class="cls-21" d="m1412.47,236.88c-.3.35-.83.39-1.18.09-.35-.3-.39-.83-.09-1.18.3-.35.83-.39,1.18-.09.35.3.39.83.09,1.18Z"/><path class="cls-21" d="m1421.51,239.47c-.22.26-.61.28-.86.06-.25-.22-.28-.61-.06-.86.22-.25.61-.28.86-.06.25.22.28.61.06.86Z"/><path class="cls-21" d="m1409.18,228.42c-.42.48-1.15.54-1.63.12-.48-.42-.54-1.15-.12-1.63.42-.48,1.15-.54,1.63-.12.48.42.53,1.15.12,1.63Z"/><path class="cls-21" d="m1403.82,228.42c-.22.26-.61.28-.86.06-.26-.22-.28-.61-.06-.86.22-.25.61-.28.86-.06.25.22.28.61.06.86Z"/><path class="cls-21" d="m1408.06,236.12c-.22.26-.61.28-.86.06-.25-.22-.28-.61-.06-.86.22-.26.61-.28.86-.06.25.22.28.61.06.86Z"/><path class="cls-21" d="m1412.29,240.79c-.22.25-.61.28-.86.06-.25-.22-.28-.61-.06-.86.22-.25.61-.28.86-.06.25.22.28.61.06.86Z"/><path class="cls-21" d="m1416.39,241.03c.31-.24.73-.29,1.09-.14-.36.05-.72.09-1.09.14Z"/><path class="cls-21" d="m1423.88,239.52c0-.05.03-.1.07-.14.1-.12.28-.13.4-.03,0,0,.02.02.02.03-.16.05-.32.1-.49.15Z"/><path class="cls-21" d="m1409.54,220.21c-.1.12-.28.13-.4.03-.12-.1-.13-.28-.03-.4.1-.12.28-.13.4-.03.12.1.13.28.03.4Z"/><path class="cls-21" d="m1404.38,221.66c-.1.12-.28.13-.4.03-.12-.1-.13-.28-.03-.4.1-.12.28-.13.4-.03.12.1.13.28.03.4Z"/><path class="cls-21" d="m1405.69,232.06c-.1.12-.28.13-.4.03-.12-.1-.13-.28-.03-.4.1-.12.28-.13.4-.03.12.1.13.28.03.4Z"/><path class="cls-21" d="m1409.9,235.05c-.1.12-.28.13-.4.03-.12-.1-.13-.28-.03-.4.1-.12.28-.13.4-.03.12.1.13.28.03.4Z"/><path class="cls-21" d="m1410.02,239.07c-.1.12-.28.13-.4.03-.12-.1-.13-.28-.03-.4.1-.12.28-.13.4-.03.12.1.13.28.03.4Z"/><path class="cls-21" d="m1412.91,220.22c-.39.45-1.06.5-1.51.11-.25-.22-.38-.53-.37-.83.71.01,1.42,0,2.13-.06.02.28-.06.56-.26.79Z"/><path class="cls-21" d="m1403.38,225.14c-.39.45-1.06.5-1.51.11-.45-.39-.5-1.06-.11-1.51.39-.45,1.06-.5,1.51-.11.45.39.5,1.06.11,1.51Z"/><path class="cls-21" d="m1406.02,238.97c-.39.45-1.06.5-1.51.11-.45-.39-.5-1.06-.11-1.51.39-.45,1.06-.5,1.51-.11.45.39.5,1.06.11,1.51Z"/><path class="cls-21" d="m1400.15,230.42c-.22.25-.61.28-.86.06-.26-.22-.28-.61-.06-.86.22-.26.61-.28.86-.06.25.22.28.61.06.86Z"/><path class="cls-21" d="m1407.18,230.67c-.22.26-.61.28-.86.06-.26-.22-.28-.61-.06-.86.22-.26.61-.28.86-.06.25.22.28.61.06.86Z"/><path class="cls-21" d="m1414.94,240.78c-.3.35-.83.39-1.18.09-.35-.3-.39-.83-.09-1.18.3-.35.83-.39,1.18-.09.35.3.39.83.09,1.18Z"/><rect class="cls-18" x="1433.11" y="301.83" width="53.42" height="13.03" rx="1.38" ry="1.38" transform="translate(1768.16 -1151.48) rotate(90)"/><path class="cls-10" d="m1349.79,302.16h16.88v10.58c0,.98-.8,1.78-1.78,1.78h-13.32c-.98,0-1.78-.8-1.78-1.78v-10.58h0Z" transform="translate(1666.58 -1049.89) rotate(90)"/><rect class="cls-18" x="1334.56" y="301.83" width="53.42" height="13.03" rx="1.38" ry="1.38" transform="translate(1669.61 -1052.93) rotate(90)"/><path class="cls-2" d="m1652.22,118.87h104.69c1.52,0,2.75,1.23,2.75,2.75v10.28h-110.2v-10.28c0-1.52,1.23-2.75,2.75-2.75Z"/><path class="cls-10" d="m1751.31,346.77h13.32c.98,0,1.78.8,1.78,1.78v10.58h-16.88v-10.58c0-.98.8-1.78,1.78-1.78Z" transform="translate(2110.92 -1405.01) rotate(90)"/><polygon class="cls-17" points="1633.78 144.15 1633.78 175.52 1660.4 352.95 1748.67 352.95 1775.28 175.52 1775.28 144.15 1633.78 144.15"/><path class="cls-17" d="m1636.86,129.59h135.4c1.7,0,3.08,1.38,3.08,3.08v11.49h-141.56v-11.49c0-1.7,1.38-3.08,3.08-3.08Z"/><rect class="cls-2" x="1633.78" y="144.15" width="141.5" height="31.37"/><path class="cls-4" d="m1739.06,271.59c1.11-1.22,2.17-2.52,3.14-3.86,14.19-19.63,9.76-47.15-9.88-61.33-.66-.48-1.34-.93-2.02-1.37l5.1,8.48c1.04,1.79,1.18,3.99.39,5.88-.82,1.97-2.55,3.41-4.64,3.87l-9.81,2.27c7.3,6.54,9.43,17.17,5.2,25.98l-1.64-2.61c-.32-.52-.91-.81-1.5-.75-.61.04-1.13.43-1.35,1l-10.54,26.07c-.21.48-.16,1.02.11,1.46.28.43.74.71,1.26.75l28.05,1.97h.11c.57,0,1.09-.29,1.37-.78.32-.5.3-1.16-.01-1.66l-3.35-5.37Z"/><path class="cls-21" d="m1724.76,226.91c-.22.25-.61.28-.86.06-.26-.22-.28-.61-.06-.86.22-.25.61-.28.86-.06.26.22.28.61.06.86Z"/><path class="cls-21" d="m1737.48,214.3c-.22.25-.61.28-.86.06-.25-.22-.28-.61-.06-.86.22-.26.61-.28.86-.06.25.22.28.61.06.86Z"/><path class="cls-21" d="m1734.65,210.46c-.22.26-.61.28-.86.06-.25-.22-.28-.61-.06-.86.22-.26.61-.28.86-.06.26.22.28.61.06.86Z"/><path class="cls-21" d="m1731.79,225.95c-.22.26-.61.28-.86.06-.25-.22-.28-.61-.06-.86.22-.26.61-.28.86-.06.25.22.28.61.06.86Z"/><path class="cls-21" d="m1726.44,230.44c-.1.12-.28.13-.4.03-.12-.1-.13-.28-.03-.4.1-.12.28-.13.4-.03.12.1.13.28.03.4Z"/><path class="cls-21" d="m1734.28,222.67c-.1.12-.28.13-.4.03-.12-.1-.13-.28-.03-.4.1-.12.28-.13.4-.03.12.1.13.28.03.4Z"/><path class="cls-21" d="m1737.84,216.78c-.1.12-.28.13-.4.03-.12-.1-.13-.28-.03-.4.1-.12.28-.13.4-.03.12.1.13.28.03.4Z"/><path class="cls-21" d="m1733.06,207.16c-.1.12-.28.13-.4.03-.12-.1-.13-.28-.03-.4.03-.04.07-.06.11-.08.13.09.25.19.38.28,0,.06-.03.12-.07.16Z"/><path class="cls-21" d="m1739.77,218.21c-.22.26-.61.28-.86.06-.25-.22-.28-.61-.06-.86.22-.26.61-.28.86-.06.26.22.28.61.06.86Z"/><path class="cls-21" d="m1741.01,214.7c-.39.27-.93.26-1.31-.07-.45-.39-.5-1.06-.11-1.51.02-.02.04-.04.05-.06.47.54.92,1.08,1.36,1.64Z"/><path class="cls-21" d="m1730.1,229.74c-.22.25-.61.28-.86.06-.26-.22-.28-.61-.06-.86.22-.25.61-.28.86-.06.25.22.28.61.06.86Z"/><path class="cls-21" d="m1734.06,228.68c-.22.26-.61.28-.86.06-.25-.22-.28-.61-.06-.86.22-.26.61-.28.86-.06s.28.61.06.86Z"/><path class="cls-21" d="m1743.11,217.59c-.22.22-.58.24-.83.03-.26-.22-.28-.61-.06-.86.06-.07.13-.12.21-.16.23.33.46.66.68.99Z"/><path class="cls-21" d="m1737.12,223.9c-.22.26-.61.28-.86.06-.26-.22-.28-.61-.06-.86.22-.26.61-.28.86-.06.26.22.28.61.06.86Z"/><path class="cls-21" d="m1729.1,226.45c-.22.26-.61.28-.86.06-.25-.22-.28-.61-.06-.86.22-.25.61-.28.86-.06.25.22.28.61.06.86Z"/><path class="cls-21" d="m1737.01,210.4c-.1.12-.28.13-.4.03-.12-.1-.13-.28-.03-.4.02-.03.05-.05.08-.06.13.12.26.25.39.37-.01.02-.02.04-.04.06Z"/><path class="cls-21" d="m1736.1,226.37c-.1.12-.28.13-.4.03-.12-.1-.13-.28-.03-.4.1-.12.28-.13.4-.03.12.1.13.28.03.4Z"/><path class="cls-21" d="m1739.36,221.66c-.1.12-.28.13-.4.03-.12-.1-.13-.28-.03-.4.1-.12.28-.13.4-.03.12.1.13.28.03.4Z"/><path class="cls-21" d="m1728.68,232.57c-.1.12-.28.13-.4.03-.12-.1-.13-.28-.03-.4.1-.12.28-.13.4-.03.12.1.13.28.03.4Z"/><path class="cls-21" d="m1736.88,221.38c-.3.35-.83.39-1.18.09-.35-.3-.39-.83-.09-1.18.3-.35.83-.39,1.18-.09.35.3.39.83.09,1.18Z"/><path class="cls-4" d="m1722.11,283.07c-19.39,7.38-41.95.11-53.13-18.24-.85-1.42-1.64-2.89-2.33-4.39l-6.24,1c-.59.09-1.2-.14-1.54-.63-.34-.46-.41-1.05-.19-1.57l.04-.11,12.69-25.08c.25-.46.68-.78,1.19-.87.5-.09,1.03.09,1.39.46l19.94,19.82c.44.42.6,1.05.4,1.63-.18.57-.67,1-1.27,1.1l-3.04.5c5.25,5.93,13.24,8.48,20.8,6.99l-3.89,9.64c-.83,1.96-.63,4.2.5,6.02,1.12,1.76,2.95,2.87,5.04,3.04l9.66.68Z"/><path class="cls-4" d="m1731.2,217.48c-.2.47-.63.83-1.13.93l-27.4,6.34c-.58.14-1.2-.06-1.59-.53-.38-.46-.49-1.1-.25-1.66l1.2-2.84c-8.91,1.48-15.99,8.29-17.93,16.99l-6.59-6.55c-1.22-1.24-2.92-1.96-4.67-1.96-.36,0-.73.03-1.07.09-2.06.35-3.8,1.61-4.77,3.46l-5.23,10.34c-.01-.41-.01-.8,0-1.21.35-24.22,20.33-43.64,44.55-43.29,1.66.03,3.31.14,4.96.36l2.47-5.82c.23-.55.76-.93,1.36-.96.56-.05,1.1.21,1.42.68l.07.09,14.49,24.1c.26.45.31.99.11,1.47Z"/><path class="cls-21" d="m1671.34,224.74c-.35.4-.96.45-1.36.1-.4-.35-.45-.96-.1-1.36.35-.4.96-.45,1.36-.1.4.35.45.96.1,1.36Z"/><path class="cls-21" d="m1662.67,238.46c-.21.24-.52.33-.81.27.03-.56.08-1.11.14-1.66.21,0,.42.06.58.2.35.3.39.83.09,1.18Z"/><path class="cls-21" d="m1665.52,230.03c-.3.35-.83.39-1.18.09-.35-.3-.39-.83-.09-1.18.3-.35.83-.39,1.18-.09s.39.83.09,1.18Z"/><path class="cls-21" d="m1673.87,227.36c-.3.35-.83.39-1.18.09-.35-.3-.39-.83-.09-1.18.3-.35.83-.39,1.18-.09.35.3.39.83.09,1.18Z"/><path class="cls-21" d="m1680.91,228.1c-.22.26-.61.28-.86.06-.25-.22-.28-.61-.06-.86.22-.26.61-.28.86-.06.26.22.28.61.06.86Z"/><path class="cls-21" d="m1667.63,224.08c-.22.26-.61.28-.86.06-.25-.22-.28-.61-.06-.86.22-.26.61-.28.86-.06.26.22.28.61.06.86Z"/><path class="cls-21" d="m1667.02,226.83c-.22.25-.61.28-.86.06-.26-.22-.28-.61-.06-.86.22-.26.61-.28.86-.06.25.22.28.61.06.86Z"/><path class="cls-21" d="m1685.01,233.7c-.19.05-.4.01-.56-.13-.26-.22-.28-.61-.06-.86.22-.25.61-.28.86-.06.05.04.09.1.13.15-.13.3-.25.59-.36.9Z"/><path class="cls-21" d="m1667.99,229.08c-.1.12-.28.13-.4.03-.12-.1-.13-.28-.03-.4.1-.12.28-.13.4-.03.12.1.13.28.03.4Z"/><path class="cls-21" d="m1681.62,233.74c-.1.12-.28.13-.4.03-.12-.1-.13-.28-.03-.4.1-.12.28-.13.4-.03.12.1.13.28.03.4Z"/><path class="cls-21" d="m1687.13,228.2c-.1.12-.28.13-.4.03-.12-.1-.13-.28-.03-.4.1-.12.28-.13.4-.03.12.1.13.28.03.4Z"/><path class="cls-21" d="m1678.25,222.68c-.1.12-.28.13-.4.03-.12-.1-.13-.28-.03-.4.1-.12.28-.13.4-.03.12.1.13.28.03.4Z"/><path class="cls-21" d="m1676.33,227.49c-.1.12-.28.13-.4.03-.12-.1-.13-.28-.03-.4.1-.12.28-.13.4-.03.12.1.13.28.03.4Z"/><path class="cls-21" d="m1669.49,226.61c-.1.12-.28.13-.4.03-.12-.1-.13-.28-.03-.4s.28-.13.4-.03c.12.1.13.28.03.4Z"/><path class="cls-21" d="m1680.42,225.2c-.28.32-.76.36-1.08.08-.32-.28-.36-.76-.08-1.08.28-.32.76-.36,1.08-.08.32.28.36.76.08,1.08Z"/><path class="cls-21" d="m1680.41,231.44c-.39.45-1.06.5-1.51.11-.45-.39-.49-1.06-.11-1.51.39-.45,1.06-.5,1.51-.11.45.39.5,1.06.11,1.51Z"/><path class="cls-21" d="m1664.35,233.23c-.39.45-1.06.5-1.51.11-.11-.09-.19-.2-.25-.32.09-.45.18-.89.28-1.33.39-.31.97-.31,1.36.03.45.39.49,1.06.11,1.51Z"/><path class="cls-21" d="m1684.63,225.71c-.22.26-.61.28-.86.06-.26-.22-.28-.61-.06-.86.22-.25.61-.28.86-.06.26.22.28.61.06.86Z"/><path class="cls-21" d="m1684.02,229.74c-.22.25-.61.28-.86.06-.25-.22-.28-.61-.06-.86.22-.26.61-.28.86-.06.26.22.28.61.06.86Z"/><path class="cls-21" d="m1676.84,225.45c-.1.12-.28.13-.4.03-.12-.1-.13-.28-.03-.4.1-.12.28-.13.4-.03.12.1.13.28.03.4Z"/><path class="cls-21" d="m1673.52,222.86c-.1.12-.28.13-.4.03-.12-.1-.13-.28-.03-.4.1-.12.28-.13.4-.03.12.1.13.28.03.4Z"/><path class="cls-21" d="m1670.13,221.81c-.1.12-.28.13-.4.03-.12-.1-.13-.28-.03-.4.1-.12.28-.13.4-.03.12.1.13.28.03.4Z"/><path class="cls-21" d="m1705.31,277.76c-.55.64-1.52.71-2.15.16-.64-.55-.71-1.52-.16-2.15s1.52-.71,2.15-.16c.64.55.71,1.52.16,2.15Z"/><path class="cls-21" d="m1708.21,267.94c-.35.4-.96.45-1.36.1-.4-.35-.45-.96-.1-1.36.35-.4.96-.45,1.36-.1.4.35.45.96.1,1.36Z"/><path class="cls-21" d="m1712.67,284.23c-.3.35-.83.39-1.18.09-.35-.3-.39-.83-.09-1.18.3-.35.83-.39,1.18-.09.35.3.39.83.09,1.18Z"/><path class="cls-21" d="m1698.11,280.5c-.3.35-.83.39-1.18.09-.35-.3-.39-.83-.09-1.18.3-.35.83-.39,1.18-.09.35.3.39.83.09,1.18Z"/><path class="cls-21" d="m1706.34,270.05c-.3.35-.83.39-1.18.09-.35-.3-.39-.83-.09-1.18.3-.35.83-.39,1.18-.09.35.3.39.83.09,1.18Z"/><path class="cls-21" d="m1703.21,268.77c-.3.35-.83.39-1.18.09-.35-.3-.39-.83-.09-1.18.3-.35.83-.39,1.18-.09s.39.83.09,1.18Z"/><path class="cls-21" d="m1707.57,281.49c-.3.35-.83.39-1.18.09-.35-.3-.39-.83-.09-1.18.3-.35.83-.39,1.18-.09.35.3.39.83.09,1.18Z"/><path class="cls-21" d="m1716.61,284.08c-.22.26-.61.28-.86.06-.25-.22-.28-.61-.06-.86.22-.25.61-.28.86-.06.25.22.28.61.06.86Z"/><path class="cls-21" d="m1704.29,273.02c-.42.48-1.15.54-1.63.12-.48-.42-.54-1.15-.12-1.63.42-.48,1.15-.54,1.63-.12.48.42.53,1.15.12,1.63Z"/><path class="cls-21" d="m1698.92,273.03c-.22.26-.61.28-.86.06-.26-.22-.28-.61-.06-.86.22-.25.61-.28.86-.06.25.22.28.61.06.86Z"/><path class="cls-21" d="m1703.16,280.73c-.22.26-.61.28-.86.06-.25-.22-.28-.61-.06-.86.22-.26.61-.28.86-.06.25.22.28.61.06.86Z"/><path class="cls-21" d="m1707.4,285.4c-.22.25-.61.28-.86.06-.25-.22-.28-.61-.06-.86.22-.25.61-.28.86-.06.25.22.28.61.06.86Z"/><path class="cls-21" d="m1711.5,285.64c.31-.24.73-.29,1.09-.14-.36.05-.72.09-1.09.14Z"/><path class="cls-21" d="m1718.99,284.12c0-.05.03-.1.07-.14.1-.12.28-.13.4-.03,0,0,.02.02.02.03-.16.05-.32.1-.49.15Z"/><path class="cls-21" d="m1704.65,264.82c-.1.12-.28.13-.4.03-.12-.1-.13-.28-.03-.4.1-.12.28-.13.4-.03.12.1.13.28.03.4Z"/><path class="cls-21" d="m1699.49,266.27c-.1.12-.28.13-.4.03-.12-.1-.13-.28-.03-.4.1-.12.28-.13.4-.03.12.1.13.28.03.4Z"/><path class="cls-21" d="m1700.8,276.67c-.1.12-.28.13-.4.03-.12-.1-.13-.28-.03-.4.1-.12.28-.13.4-.03.12.1.13.28.03.4Z"/><path class="cls-21" d="m1705,279.66c-.1.12-.28.13-.4.03-.12-.1-.13-.28-.03-.4.1-.12.28-.13.4-.03.12.1.13.28.03.4Z"/><path class="cls-21" d="m1705.12,283.68c-.1.12-.28.13-.4.03-.12-.1-.13-.28-.03-.4.1-.12.28-.13.4-.03.12.1.13.28.03.4Z"/><path class="cls-21" d="m1708.02,264.82c-.39.45-1.06.5-1.51.11-.25-.22-.38-.53-.37-.83.71.01,1.42,0,2.13-.06.02.28-.06.56-.26.79Z"/><path class="cls-21" d="m1698.48,269.75c-.39.45-1.06.5-1.51.11-.45-.39-.5-1.06-.11-1.51.39-.45,1.06-.5,1.51-.11.45.39.5,1.06.11,1.51Z"/><path class="cls-21" d="m1701.12,283.58c-.39.45-1.06.5-1.51.11-.45-.39-.5-1.06-.11-1.51.39-.45,1.06-.5,1.51-.11.45.39.5,1.06.11,1.51Z"/><path class="cls-21" d="m1695.25,275.03c-.22.25-.61.28-.86.06-.26-.22-.28-.61-.06-.86.22-.26.61-.28.86-.06.25.22.28.61.06.86Z"/><path class="cls-21" d="m1702.28,275.28c-.22.26-.61.28-.86.06-.26-.22-.28-.61-.06-.86.22-.26.61-.28.86-.06.25.22.28.61.06.86Z"/><path class="cls-21" d="m1710.05,285.39c-.3.35-.83.39-1.18.09-.35-.3-.39-.83-.09-1.18.3-.35.83-.39,1.18-.09.35.3.39.83.09,1.18Z"/><rect class="cls-18" x="1728.22" y="346.44" width="53.42" height="13.03" rx="1.38" ry="1.38" transform="translate(2107.88 -1401.98) rotate(90)"/><path class="cls-10" d="m1644.9,346.77h16.88v10.58c0,.98-.8,1.78-1.78,1.78h-13.32c-.98,0-1.78-.8-1.78-1.78v-10.58h0Z" transform="translate(2006.29 -1300.39) rotate(90)"/><rect class="cls-18" x="1629.66" y="346.44" width="53.42" height="13.03" rx="1.38" ry="1.38" transform="translate(2009.33 -1303.43) rotate(90)"/><path class="cls-13" d="m1454.22,118.87h104.69c1.52,0,2.75,1.23,2.75,2.75v10.28h-110.2v-10.28c0-1.52,1.23-2.75,2.75-2.75Z"/><path class="cls-10" d="m1553.31,346.77h13.32c.98,0,1.78.8,1.78,1.78v10.58h-16.88v-10.58c0-.98.8-1.78,1.78-1.78Z" transform="translate(1912.92 -1207.02) rotate(90)"/><polygon class="cls-14" points="1435.79 144.15 1435.79 175.52 1462.41 352.95 1550.67 352.95 1577.29 175.52 1577.29 144.15 1435.79 144.15"/><path class="cls-14" d="m1438.87,129.59h135.4c1.7,0,3.08,1.38,3.08,3.08v11.49h-141.56v-11.49c0-1.7,1.38-3.08,3.08-3.08Z"/><rect class="cls-13" x="1435.79" y="144.15" width="141.5" height="31.37"/><path class="cls-4" d="m1541.07,271.59c1.11-1.22,2.17-2.52,3.14-3.86,14.19-19.63,9.76-47.15-9.88-61.33-.66-.48-1.34-.93-2.02-1.37l5.1,8.48c1.04,1.79,1.18,3.99.39,5.88-.82,1.97-2.55,3.41-4.64,3.87l-9.81,2.27c7.3,6.54,9.43,17.17,5.2,25.98l-1.64-2.61c-.32-.52-.91-.81-1.5-.75-.61.04-1.13.43-1.35,1l-10.54,26.07c-.21.48-.16,1.02.11,1.46.28.43.74.71,1.26.75l28.05,1.97h.11c.57,0,1.09-.29,1.37-.78.32-.5.3-1.16-.01-1.66l-3.35-5.37Z"/><path class="cls-21" d="m1526.77,226.91c-.22.25-.61.28-.86.06-.26-.22-.28-.61-.06-.86.22-.25.61-.28.86-.06.26.22.28.61.06.86Z"/><path class="cls-21" d="m1539.49,214.3c-.22.25-.61.28-.86.06-.25-.22-.28-.61-.06-.86.22-.26.61-.28.86-.06.25.22.28.61.06.86Z"/><path class="cls-21" d="m1536.65,210.46c-.22.26-.61.28-.86.06-.25-.22-.28-.61-.06-.86.22-.26.61-.28.86-.06.26.22.28.61.06.86Z"/><path class="cls-21" d="m1533.8,225.95c-.22.26-.61.28-.86.06-.25-.22-.28-.61-.06-.86.22-.26.61-.28.86-.06.25.22.28.61.06.86Z"/><path class="cls-21" d="m1528.45,230.44c-.1.12-.28.13-.4.03-.12-.1-.13-.28-.03-.4.1-.12.28-.13.4-.03.12.1.13.28.03.4Z"/><path class="cls-21" d="m1536.28,222.67c-.1.12-.28.13-.4.03-.12-.1-.13-.28-.03-.4.1-.12.28-.13.4-.03.12.1.13.28.03.4Z"/><path class="cls-21" d="m1539.85,216.78c-.1.12-.28.13-.4.03-.12-.1-.13-.28-.03-.4.1-.12.28-.13.4-.03.12.1.13.28.03.4Z"/><path class="cls-21" d="m1535.07,207.16c-.1.12-.28.13-.4.03-.12-.1-.13-.28-.03-.4.03-.04.07-.06.11-.08.13.09.25.19.38.28,0,.06-.03.12-.07.16Z"/><path class="cls-21" d="m1541.78,218.21c-.22.26-.61.28-.86.06-.25-.22-.28-.61-.06-.86.22-.26.61-.28.86-.06.26.22.28.61.06.86Z"/><path class="cls-21" d="m1543.02,214.7c-.39.27-.93.26-1.31-.07-.45-.39-.5-1.06-.11-1.51.02-.02.04-.04.05-.06.47.54.92,1.08,1.36,1.64Z"/><path class="cls-21" d="m1532.11,229.74c-.22.25-.61.28-.86.06-.26-.22-.28-.61-.06-.86.22-.25.61-.28.86-.06.25.22.28.61.06.86Z"/><path class="cls-21" d="m1536.07,228.68c-.22.26-.61.28-.86.06-.25-.22-.28-.61-.06-.86.22-.26.61-.28.86-.06s.28.61.06.86Z"/><path class="cls-21" d="m1545.12,217.59c-.22.22-.58.24-.83.03-.26-.22-.28-.61-.06-.86.06-.07.13-.12.21-.16.23.33.46.66.68.99Z"/><path class="cls-21" d="m1539.13,223.9c-.22.26-.61.28-.86.06-.26-.22-.28-.61-.06-.86.22-.26.61-.28.86-.06.26.22.28.61.06.86Z"/><path class="cls-21" d="m1531.1,226.45c-.22.26-.61.28-.86.06-.25-.22-.28-.61-.06-.86.22-.25.61-.28.86-.06.25.22.28.61.06.86Z"/><path class="cls-21" d="m1539.01,210.4c-.1.12-.28.13-.4.03-.12-.1-.13-.28-.03-.4.02-.03.05-.05.08-.06.13.12.26.25.39.37-.01.02-.02.04-.04.06Z"/><path class="cls-21" d="m1538.11,226.37c-.1.12-.28.13-.4.03-.12-.1-.13-.28-.03-.4.1-.12.28-.13.4-.03.12.1.13.28.03.4Z"/><path class="cls-21" d="m1541.37,221.66c-.1.12-.28.13-.4.03-.12-.1-.13-.28-.03-.4.1-.12.28-.13.4-.03.12.1.13.28.03.4Z"/><path class="cls-21" d="m1530.68,232.57c-.1.12-.28.13-.4.03-.12-.1-.13-.28-.03-.4.1-.12.28-.13.4-.03.12.1.13.28.03.4Z"/><path class="cls-21" d="m1538.89,221.38c-.3.35-.83.39-1.18.09-.35-.3-.39-.83-.09-1.18.3-.35.83-.39,1.18-.09.35.3.39.83.09,1.18Z"/><path class="cls-4" d="m1524.12,283.07c-19.39,7.38-41.95.11-53.13-18.24-.85-1.42-1.64-2.89-2.33-4.39l-6.24,1c-.59.09-1.2-.14-1.54-.63-.34-.46-.41-1.05-.19-1.57l.04-.11,12.69-25.08c.25-.46.68-.78,1.19-.87.5-.09,1.03.09,1.39.46l19.94,19.82c.44.42.6,1.05.4,1.63-.18.57-.67,1-1.27,1.1l-3.04.5c5.25,5.93,13.24,8.48,20.8,6.99l-3.89,9.64c-.83,1.96-.63,4.2.5,6.02,1.12,1.76,2.95,2.87,5.04,3.04l9.66.68Z"/><path class="cls-4" d="m1533.21,217.48c-.2.47-.63.83-1.13.93l-27.4,6.34c-.58.14-1.2-.06-1.59-.53-.38-.46-.49-1.1-.25-1.66l1.2-2.84c-8.91,1.48-15.99,8.29-17.93,16.99l-6.59-6.55c-1.22-1.24-2.92-1.96-4.67-1.96-.36,0-.73.03-1.07.09-2.06.35-3.8,1.61-4.77,3.46l-5.23,10.34c-.01-.41-.01-.8,0-1.21.35-24.22,20.33-43.64,44.55-43.29,1.66.03,3.31.14,4.96.36l2.47-5.82c.23-.55.76-.93,1.36-.96.56-.05,1.1.21,1.42.68l.07.09,14.49,24.1c.26.45.31.99.11,1.47Z"/><path class="cls-21" d="m1473.35,224.74c-.35.4-.96.45-1.36.1-.4-.35-.45-.96-.1-1.36.35-.4.96-.45,1.36-.1.4.35.45.96.1,1.36Z"/><path class="cls-21" d="m1464.67,238.46c-.21.24-.52.33-.81.27.03-.56.08-1.11.14-1.66.21,0,.42.06.58.2.35.3.39.83.09,1.18Z"/><path class="cls-21" d="m1467.52,230.03c-.3.35-.83.39-1.18.09-.35-.3-.39-.83-.09-1.18.3-.35.83-.39,1.18-.09s.39.83.09,1.18Z"/><path class="cls-21" d="m1475.88,227.36c-.3.35-.83.39-1.18.09-.35-.3-.39-.83-.09-1.18.3-.35.83-.39,1.18-.09.35.3.39.83.09,1.18Z"/><path class="cls-21" d="m1482.92,228.1c-.22.26-.61.28-.86.06-.25-.22-.28-.61-.06-.86.22-.26.61-.28.86-.06.26.22.28.61.06.86Z"/><path class="cls-21" d="m1469.64,224.08c-.22.26-.61.28-.86.06-.25-.22-.28-.61-.06-.86.22-.26.61-.28.86-.06.26.22.28.61.06.86Z"/><path class="cls-21" d="m1469.02,226.83c-.22.25-.61.28-.86.06-.26-.22-.28-.61-.06-.86.22-.26.61-.28.86-.06.25.22.28.61.06.86Z"/><path class="cls-21" d="m1487.02,233.7c-.19.05-.4.01-.56-.13-.26-.22-.28-.61-.06-.86.22-.25.61-.28.86-.06.05.04.09.1.13.15-.13.3-.25.59-.36.9Z"/><path class="cls-21" d="m1470,229.08c-.1.12-.28.13-.4.03-.12-.1-.13-.28-.03-.4.1-.12.28-.13.4-.03.12.1.13.28.03.4Z"/><path class="cls-21" d="m1483.63,233.74c-.1.12-.28.13-.4.03-.12-.1-.13-.28-.03-.4.1-.12.28-.13.4-.03.12.1.13.28.03.4Z"/><path class="cls-21" d="m1489.14,228.2c-.1.12-.28.13-.4.03-.12-.1-.13-.28-.03-.4.1-.12.28-.13.4-.03.12.1.13.28.03.4Z"/><path class="cls-21" d="m1480.25,222.68c-.1.12-.28.13-.4.03-.12-.1-.13-.28-.03-.4.1-.12.28-.13.4-.03.12.1.13.28.03.4Z"/><path class="cls-21" d="m1478.33,227.49c-.1.12-.28.13-.4.03-.12-.1-.13-.28-.03-.4.1-.12.28-.13.4-.03.12.1.13.28.03.4Z"/><path class="cls-21" d="m1471.5,226.61c-.1.12-.28.13-.4.03-.12-.1-.13-.28-.03-.4s.28-.13.4-.03c.12.1.13.28.03.4Z"/><path class="cls-21" d="m1482.42,225.2c-.28.32-.76.36-1.08.08-.32-.28-.36-.76-.08-1.08.28-.32.76-.36,1.08-.08.32.28.36.76.08,1.08Z"/><path class="cls-21" d="m1482.41,231.44c-.39.45-1.06.5-1.51.11-.45-.39-.49-1.06-.11-1.51.39-.45,1.06-.5,1.51-.11.45.39.5,1.06.11,1.51Z"/><path class="cls-21" d="m1466.36,233.23c-.39.45-1.06.5-1.51.11-.11-.09-.19-.2-.25-.32.09-.45.18-.89.28-1.33.39-.31.97-.31,1.36.03.45.39.49,1.06.11,1.51Z"/><path class="cls-21" d="m1486.64,225.71c-.22.26-.61.28-.86.06-.26-.22-.28-.61-.06-.86.22-.25.61-.28.86-.06.26.22.28.61.06.86Z"/><path class="cls-21" d="m1486.02,229.74c-.22.25-.61.28-.86.06-.25-.22-.28-.61-.06-.86.22-.26.61-.28.86-.06.26.22.28.61.06.86Z"/><path class="cls-21" d="m1478.84,225.45c-.1.12-.28.13-.4.03-.12-.1-.13-.28-.03-.4.1-.12.28-.13.4-.03.12.1.13.28.03.4Z"/><path class="cls-21" d="m1475.53,222.86c-.1.12-.28.13-.4.03-.12-.1-.13-.28-.03-.4.1-.12.28-.13.4-.03.12.1.13.28.03.4Z"/><path class="cls-21" d="m1472.14,221.81c-.1.12-.28.13-.4.03-.12-.1-.13-.28-.03-.4.1-.12.28-.13.4-.03.12.1.13.28.03.4Z"/><path class="cls-21" d="m1507.32,277.76c-.55.64-1.52.71-2.15.16-.64-.55-.71-1.52-.16-2.15s1.52-.71,2.15-.16c.64.55.71,1.52.16,2.15Z"/><path class="cls-21" d="m1510.22,267.94c-.35.4-.96.45-1.36.1-.4-.35-.45-.96-.1-1.36.35-.4.96-.45,1.36-.1.4.35.45.96.1,1.36Z"/><path class="cls-21" d="m1514.68,284.23c-.3.35-.83.39-1.18.09-.35-.3-.39-.83-.09-1.18.3-.35.83-.39,1.18-.09.35.3.39.83.09,1.18Z"/><path class="cls-21" d="m1500.12,280.5c-.3.35-.83.39-1.18.09-.35-.3-.39-.83-.09-1.18.3-.35.83-.39,1.18-.09.35.3.39.83.09,1.18Z"/><path class="cls-21" d="m1508.35,270.05c-.3.35-.83.39-1.18.09-.35-.3-.39-.83-.09-1.18.3-.35.83-.39,1.18-.09.35.3.39.83.09,1.18Z"/><path class="cls-21" d="m1505.22,268.77c-.3.35-.83.39-1.18.09-.35-.3-.39-.83-.09-1.18.3-.35.83-.39,1.18-.09s.39.83.09,1.18Z"/><path class="cls-21" d="m1509.58,281.49c-.3.35-.83.39-1.18.09-.35-.3-.39-.83-.09-1.18.3-.35.83-.39,1.18-.09.35.3.39.83.09,1.18Z"/><path class="cls-21" d="m1518.62,284.08c-.22.26-.61.28-.86.06-.25-.22-.28-.61-.06-.86.22-.25.61-.28.86-.06.25.22.28.61.06.86Z"/><path class="cls-21" d="m1506.29,273.02c-.42.48-1.15.54-1.63.12-.48-.42-.54-1.15-.12-1.63.42-.48,1.15-.54,1.63-.12.48.42.53,1.15.12,1.63Z"/><path class="cls-21" d="m1500.93,273.03c-.22.26-.61.28-.86.06-.26-.22-.28-.61-.06-.86.22-.25.61-.28.86-.06.25.22.28.61.06.86Z"/><path class="cls-21" d="m1505.17,280.73c-.22.26-.61.28-.86.06-.25-.22-.28-.61-.06-.86.22-.26.61-.28.86-.06.25.22.28.61.06.86Z"/><path class="cls-21" d="m1509.41,285.4c-.22.25-.61.28-.86.06-.25-.22-.28-.61-.06-.86.22-.25.61-.28.86-.06.25.22.28.61.06.86Z"/><path class="cls-21" d="m1513.5,285.64c.31-.24.73-.29,1.09-.14-.36.05-.72.09-1.09.14Z"/><path class="cls-21" d="m1521,284.12c0-.05.03-.1.07-.14.1-.12.28-.13.4-.03,0,0,.02.02.02.03-.16.05-.32.1-.49.15Z"/><path class="cls-21" d="m1506.66,264.82c-.1.12-.28.13-.4.03-.12-.1-.13-.28-.03-.4.1-.12.28-.13.4-.03.12.1.13.28.03.4Z"/><path class="cls-21" d="m1501.49,266.27c-.1.12-.28.13-.4.03-.12-.1-.13-.28-.03-.4.1-.12.28-.13.4-.03.12.1.13.28.03.4Z"/><path class="cls-21" d="m1502.81,276.67c-.1.12-.28.13-.4.03-.12-.1-.13-.28-.03-.4.1-.12.28-.13.4-.03.12.1.13.28.03.4Z"/><path class="cls-21" d="m1507.01,279.66c-.1.12-.28.13-.4.03-.12-.1-.13-.28-.03-.4.1-.12.28-.13.4-.03.12.1.13.28.03.4Z"/><path class="cls-21" d="m1507.13,283.68c-.1.12-.28.13-.4.03-.12-.1-.13-.28-.03-.4.1-.12.28-.13.4-.03.12.1.13.28.03.4Z"/><path class="cls-21" d="m1510.03,264.82c-.39.45-1.06.5-1.51.11-.25-.22-.38-.53-.37-.83.71.01,1.42,0,2.13-.06.02.28-.06.56-.26.79Z"/><path class="cls-21" d="m1500.49,269.75c-.39.45-1.06.5-1.51.11-.45-.39-.5-1.06-.11-1.51.39-.45,1.06-.5,1.51-.11.45.39.5,1.06.11,1.51Z"/><path class="cls-21" d="m1503.13,283.58c-.39.45-1.06.5-1.51.11-.45-.39-.5-1.06-.11-1.51.39-.45,1.06-.5,1.51-.11.45.39.5,1.06.11,1.51Z"/><path class="cls-21" d="m1497.26,275.03c-.22.25-.61.28-.86.06-.26-.22-.28-.61-.06-.86.22-.26.61-.28.86-.06.25.22.28.61.06.86Z"/><path class="cls-21" d="m1504.29,275.28c-.22.26-.61.28-.86.06-.26-.22-.28-.61-.06-.86.22-.26.61-.28.86-.06.25.22.28.61.06.86Z"/><path class="cls-21" d="m1512.05,285.39c-.3.35-.83.39-1.18.09-.35-.3-.39-.83-.09-1.18.3-.35.83-.39,1.18-.09.35.3.39.83.09,1.18Z"/><rect class="cls-18" x="1530.22" y="346.44" width="53.42" height="13.03" rx="1.38" ry="1.38" transform="translate(1909.89 -1203.98) rotate(90)"/><path class="cls-10" d="m1446.9,346.77h16.88v10.58c0,.98-.8,1.78-1.78,1.78h-13.32c-.98,0-1.78-.8-1.78-1.78v-10.58h0Z" transform="translate(1808.3 -1102.4) rotate(90)"/><rect class="cls-18" x="1431.67" y="346.44" width="53.42" height="13.03" rx="1.38" ry="1.38" transform="translate(1811.34 -1105.43) rotate(90)"/><path class="cls-12" d="m1553.22,175.78h104.69c1.52,0,2.75,1.23,2.75,2.75v10.28h-110.2v-10.28c0-1.52,1.23-2.75,2.75-2.75Z"/><path class="cls-10" d="m1652.31,403.67h13.32c.98,0,1.78.8,1.78,1.78v10.58h-16.88v-10.58c0-.98.8-1.78,1.78-1.78Z" transform="translate(2068.83 -1249.11) rotate(90)"/><polygon class="cls-11" points="1534.79 201.06 1534.79 232.43 1561.4 409.86 1649.67 409.86 1676.28 232.43 1676.28 201.06 1534.79 201.06"/><path class="cls-11" d="m1537.86,186.49h135.4c1.7,0,3.08,1.38,3.08,3.08v11.49h-141.56v-11.49c0-1.7,1.38-3.08,3.08-3.08Z"/><rect class="cls-12" x="1534.79" y="201.06" width="141.5" height="31.37"/><path class="cls-4" d="m1640.07,328.49c1.11-1.22,2.17-2.52,3.14-3.86,14.19-19.63,9.76-47.15-9.88-61.33-.66-.48-1.34-.93-2.02-1.37l5.1,8.48c1.04,1.79,1.18,3.99.39,5.88-.82,1.97-2.55,3.41-4.64,3.87l-9.81,2.27c7.3,6.54,9.43,17.17,5.2,25.98l-1.64-2.61c-.32-.52-.91-.81-1.5-.75-.61.04-1.13.43-1.35,1l-10.54,26.07c-.21.48-.16,1.02.11,1.46.28.43.74.71,1.26.75l28.05,1.97h.11c.57,0,1.09-.29,1.37-.78.32-.5.3-1.16-.01-1.66l-3.35-5.37Z"/><path class="cls-21" d="m1625.76,283.82c-.22.25-.61.28-.86.06-.26-.22-.28-.61-.06-.86.22-.25.61-.28.86-.06.26.22.28.61.06.86Z"/><path class="cls-21" d="m1638.48,271.2c-.22.25-.61.28-.86.06-.25-.22-.28-.61-.06-.86.22-.26.61-.28.86-.06.25.22.28.61.06.86Z"/><path class="cls-21" d="m1635.65,267.37c-.22.26-.61.28-.86.06-.25-.22-.28-.61-.06-.86.22-.26.61-.28.86-.06.26.22.28.61.06.86Z"/><path class="cls-21" d="m1632.79,282.85c-.22.26-.61.28-.86.06-.25-.22-.28-.61-.06-.86.22-.26.61-.28.86-.06.25.22.28.61.06.86Z"/><path class="cls-21" d="m1627.45,287.34c-.1.12-.28.13-.4.03-.12-.1-.13-.28-.03-.4.1-.12.28-.13.4-.03.12.1.13.28.03.4Z"/><path class="cls-21" d="m1635.28,279.57c-.1.12-.28.13-.4.03-.12-.1-.13-.28-.03-.4.1-.12.28-.13.4-.03.12.1.13.28.03.4Z"/><path class="cls-21" d="m1638.84,273.68c-.1.12-.28.13-.4.03-.12-.1-.13-.28-.03-.4.1-.12.28-.13.4-.03.12.1.13.28.03.4Z"/><path class="cls-21" d="m1634.07,264.07c-.1.12-.28.13-.4.03-.12-.1-.13-.28-.03-.4.03-.04.07-.06.11-.08.13.09.25.19.38.28,0,.06-.03.12-.07.16Z"/><path class="cls-21" d="m1640.78,275.12c-.22.26-.61.28-.86.06-.25-.22-.28-.61-.06-.86.22-.26.61-.28.86-.06.26.22.28.61.06.86Z"/><path class="cls-21" d="m1642.01,271.6c-.39.27-.93.26-1.31-.07-.45-.39-.5-1.06-.11-1.51.02-.02.04-.04.05-.06.47.54.92,1.08,1.36,1.64Z"/><path class="cls-21" d="m1631.11,286.64c-.22.25-.61.28-.86.06-.26-.22-.28-.61-.06-.86.22-.25.61-.28.86-.06.25.22.28.61.06.86Z"/><path class="cls-21" d="m1635.06,285.59c-.22.26-.61.28-.86.06-.25-.22-.28-.61-.06-.86.22-.26.61-.28.86-.06s.28.61.06.86Z"/><path class="cls-21" d="m1644.12,274.49c-.22.22-.58.24-.83.03-.26-.22-.28-.61-.06-.86.06-.07.13-.12.21-.16.23.33.46.66.68.99Z"/><path class="cls-21" d="m1638.13,280.8c-.22.26-.61.28-.86.06-.26-.22-.28-.61-.06-.86.22-.26.61-.28.86-.06.26.22.28.61.06.86Z"/><path class="cls-21" d="m1630.1,283.36c-.22.26-.61.28-.86.06-.25-.22-.28-.61-.06-.86.22-.25.61-.28.86-.06.25.22.28.61.06.86Z"/><path class="cls-21" d="m1638.01,267.31c-.1.12-.28.13-.4.03-.12-.1-.13-.28-.03-.4.02-.03.05-.05.08-.06.13.12.26.25.39.37-.01.02-.02.04-.04.06Z"/><path class="cls-21" d="m1637.11,283.27c-.1.12-.28.13-.4.03-.12-.1-.13-.28-.03-.4.1-.12.28-.13.4-.03.12.1.13.28.03.4Z"/><path class="cls-21" d="m1640.37,278.57c-.1.12-.28.13-.4.03-.12-.1-.13-.28-.03-.4.1-.12.28-.13.4-.03.12.1.13.28.03.4Z"/><path class="cls-21" d="m1629.68,289.48c-.1.12-.28.13-.4.03-.12-.1-.13-.28-.03-.4.1-.12.28-.13.4-.03.12.1.13.28.03.4Z"/><path class="cls-21" d="m1637.88,278.28c-.3.35-.83.39-1.18.09-.35-.3-.39-.83-.09-1.18.3-.35.83-.39,1.18-.09.35.3.39.83.09,1.18Z"/><path class="cls-4" d="m1623.12,339.98c-19.39,7.38-41.95.11-53.13-18.24-.85-1.42-1.64-2.89-2.33-4.39l-6.24,1c-.59.09-1.2-.14-1.54-.63-.34-.46-.41-1.05-.19-1.57l.04-.11,12.69-25.08c.25-.46.68-.78,1.19-.87.5-.09,1.03.09,1.39.46l19.94,19.82c.44.42.6,1.05.4,1.63-.18.57-.67,1-1.27,1.1l-3.04.5c5.25,5.93,13.24,8.48,20.8,6.99l-3.89,9.64c-.83,1.96-.63,4.2.5,6.02,1.12,1.76,2.95,2.87,5.04,3.04l9.66.68Z"/><path class="cls-4" d="m1632.21,274.38c-.2.47-.63.83-1.13.93l-27.4,6.34c-.58.14-1.2-.06-1.59-.53-.38-.46-.49-1.1-.25-1.66l1.2-2.84c-8.91,1.48-15.99,8.29-17.93,16.99l-6.59-6.55c-1.22-1.24-2.92-1.96-4.67-1.96-.36,0-.73.03-1.07.09-2.06.35-3.8,1.61-4.77,3.46l-5.23,10.34c-.01-.41-.01-.8,0-1.21.35-24.22,20.33-43.64,44.55-43.29,1.66.03,3.31.14,4.96.36l2.47-5.82c.23-.55.76-.93,1.36-.96.56-.05,1.1.21,1.42.68l.07.09,14.49,24.1c.26.45.31.99.11,1.47Z"/><path class="cls-21" d="m1572.34,281.65c-.35.4-.96.45-1.36.1-.4-.35-.45-.96-.1-1.36.35-.4.96-.45,1.36-.1.4.35.45.96.1,1.36Z"/><path class="cls-21" d="m1563.67,295.37c-.21.24-.52.33-.81.27.03-.56.08-1.11.14-1.66.21,0,.42.06.58.2.35.3.39.83.09,1.18Z"/><path class="cls-21" d="m1566.52,286.93c-.3.35-.83.39-1.18.09-.35-.3-.39-.83-.09-1.18.3-.35.83-.39,1.18-.09s.39.83.09,1.18Z"/><path class="cls-21" d="m1574.88,284.27c-.3.35-.83.39-1.18.09-.35-.3-.39-.83-.09-1.18.3-.35.83-.39,1.18-.09.35.3.39.83.09,1.18Z"/><path class="cls-21" d="m1581.91,285c-.22.26-.61.28-.86.06-.25-.22-.28-.61-.06-.86.22-.26.61-.28.86-.06.26.22.28.61.06.86Z"/><path class="cls-21" d="m1568.63,280.99c-.22.26-.61.28-.86.06-.25-.22-.28-.61-.06-.86.22-.26.61-.28.86-.06.26.22.28.61.06.86Z"/><path class="cls-21" d="m1568.02,283.73c-.22.25-.61.28-.86.06-.26-.22-.28-.61-.06-.86.22-.26.61-.28.86-.06.25.22.28.61.06.86Z"/><path class="cls-21" d="m1586.01,290.61c-.19.05-.4.01-.56-.13-.26-.22-.28-.61-.06-.86.22-.25.61-.28.86-.06.05.04.09.1.13.15-.13.3-.25.59-.36.9Z"/><path class="cls-21" d="m1568.99,285.98c-.1.12-.28.13-.4.03-.12-.1-.13-.28-.03-.4.1-.12.28-.13.4-.03.12.1.13.28.03.4Z"/><path class="cls-21" d="m1582.63,290.65c-.1.12-.28.13-.4.03-.12-.1-.13-.28-.03-.4.1-.12.28-.13.4-.03.12.1.13.28.03.4Z"/><path class="cls-21" d="m1588.13,285.11c-.1.12-.28.13-.4.03-.12-.1-.13-.28-.03-.4.1-.12.28-.13.4-.03.12.1.13.28.03.4Z"/><path class="cls-21" d="m1579.25,279.58c-.1.12-.28.13-.4.03-.12-.1-.13-.28-.03-.4.1-.12.28-.13.4-.03.12.1.13.28.03.4Z"/><path class="cls-21" d="m1577.33,284.39c-.1.12-.28.13-.4.03-.12-.1-.13-.28-.03-.4.1-.12.28-.13.4-.03.12.1.13.28.03.4Z"/><path class="cls-21" d="m1570.5,283.52c-.1.12-.28.13-.4.03-.12-.1-.13-.28-.03-.4s.28-.13.4-.03c.12.1.13.28.03.4Z"/><path class="cls-21" d="m1581.42,282.1c-.28.32-.76.36-1.08.08-.32-.28-.36-.76-.08-1.08.28-.32.76-.36,1.08-.08.32.28.36.76.08,1.08Z"/><path class="cls-21" d="m1581.41,288.35c-.39.45-1.06.5-1.51.11-.45-.39-.49-1.06-.11-1.51.39-.45,1.06-.5,1.51-.11.45.39.5,1.06.11,1.51Z"/><path class="cls-21" d="m1565.35,290.14c-.39.45-1.06.5-1.51.11-.11-.09-.19-.2-.25-.32.09-.45.18-.89.28-1.33.39-.31.97-.31,1.36.03.45.39.49,1.06.11,1.51Z"/><path class="cls-21" d="m1585.64,282.61c-.22.26-.61.28-.86.06-.26-.22-.28-.61-.06-.86.22-.25.61-.28.86-.06.26.22.28.61.06.86Z"/><path class="cls-21" d="m1585.02,286.64c-.22.25-.61.28-.86.06-.25-.22-.28-.61-.06-.86.22-.26.61-.28.86-.06.26.22.28.61.06.86Z"/><path class="cls-21" d="m1577.84,282.36c-.1.12-.28.13-.4.03-.12-.1-.13-.28-.03-.4.1-.12.28-.13.4-.03.12.1.13.28.03.4Z"/><path class="cls-21" d="m1574.53,279.76c-.1.12-.28.13-.4.03-.12-.1-.13-.28-.03-.4.1-.12.28-.13.4-.03.12.1.13.28.03.4Z"/><path class="cls-21" d="m1571.14,278.71c-.1.12-.28.13-.4.03-.12-.1-.13-.28-.03-.4.1-.12.28-.13.4-.03.12.1.13.28.03.4Z"/><path class="cls-21" d="m1606.32,334.67c-.55.64-1.52.71-2.15.16-.64-.55-.71-1.52-.16-2.15s1.52-.71,2.15-.16c.64.55.71,1.52.16,2.15Z"/><path class="cls-21" d="m1609.22,324.84c-.35.4-.96.45-1.36.1-.4-.35-.45-.96-.1-1.36.35-.4.96-.45,1.36-.1.4.35.45.96.1,1.36Z"/><path class="cls-21" d="m1613.68,341.14c-.3.35-.83.39-1.18.09-.35-.3-.39-.83-.09-1.18.3-.35.83-.39,1.18-.09.35.3.39.83.09,1.18Z"/><path class="cls-21" d="m1599.12,337.41c-.3.35-.83.39-1.18.09-.35-.3-.39-.83-.09-1.18.3-.35.83-.39,1.18-.09.35.3.39.83.09,1.18Z"/><path class="cls-21" d="m1607.34,326.96c-.3.35-.83.39-1.18.09-.35-.3-.39-.83-.09-1.18.3-.35.83-.39,1.18-.09.35.3.39.83.09,1.18Z"/><path class="cls-21" d="m1604.22,325.67c-.3.35-.83.39-1.18.09-.35-.3-.39-.83-.09-1.18.3-.35.83-.39,1.18-.09s.39.83.09,1.18Z"/><path class="cls-21" d="m1608.58,338.39c-.3.35-.83.39-1.18.09-.35-.3-.39-.83-.09-1.18.3-.35.83-.39,1.18-.09.35.3.39.83.09,1.18Z"/><path class="cls-21" d="m1617.62,340.99c-.22.26-.61.28-.86.06-.25-.22-.28-.61-.06-.86.22-.25.61-.28.86-.06.25.22.28.61.06.86Z"/><path class="cls-21" d="m1605.29,329.93c-.42.48-1.15.54-1.63.12-.48-.42-.54-1.15-.12-1.63.42-.48,1.15-.54,1.63-.12.48.42.53,1.15.12,1.63Z"/><path class="cls-21" d="m1599.93,329.93c-.22.26-.61.28-.86.06-.26-.22-.28-.61-.06-.86.22-.25.61-.28.86-.06.25.22.28.61.06.86Z"/><path class="cls-21" d="m1604.17,337.63c-.22.26-.61.28-.86.06-.25-.22-.28-.61-.06-.86.22-.26.61-.28.86-.06.25.22.28.61.06.86Z"/><path class="cls-21" d="m1608.4,342.31c-.22.25-.61.28-.86.06-.25-.22-.28-.61-.06-.86.22-.25.61-.28.86-.06.25.22.28.61.06.86Z"/><path class="cls-21" d="m1612.5,342.55c.31-.24.73-.29,1.09-.14-.36.05-.72.09-1.09.14Z"/><path class="cls-21" d="m1619.99,341.03c0-.05.03-.1.07-.14.1-.12.28-.13.4-.03,0,0,.02.02.02.03-.16.05-.32.1-.49.15Z"/><path class="cls-21" d="m1605.65,321.73c-.1.12-.28.13-.4.03-.12-.1-.13-.28-.03-.4.1-.12.28-.13.4-.03.12.1.13.28.03.4Z"/><path class="cls-21" d="m1600.49,323.17c-.1.12-.28.13-.4.03-.12-.1-.13-.28-.03-.4.1-.12.28-.13.4-.03.12.1.13.28.03.4Z"/><path class="cls-21" d="m1601.8,333.57c-.1.12-.28.13-.4.03-.12-.1-.13-.28-.03-.4.1-.12.28-.13.4-.03.12.1.13.28.03.4Z"/><path class="cls-21" d="m1606.01,336.57c-.1.12-.28.13-.4.03-.12-.1-.13-.28-.03-.4.1-.12.28-.13.4-.03.12.1.13.28.03.4Z"/><path class="cls-21" d="m1606.13,340.58c-.1.12-.28.13-.4.03-.12-.1-.13-.28-.03-.4.1-.12.28-.13.4-.03.12.1.13.28.03.4Z"/><path class="cls-21" d="m1609.02,321.73c-.39.45-1.06.5-1.51.11-.25-.22-.38-.53-.37-.83.71.01,1.42,0,2.13-.06.02.28-.06.56-.26.79Z"/><path class="cls-21" d="m1599.49,326.65c-.39.45-1.06.5-1.51.11-.45-.39-.5-1.06-.11-1.51.39-.45,1.06-.5,1.51-.11.45.39.5,1.06.11,1.51Z"/><path class="cls-21" d="m1602.13,340.48c-.39.45-1.06.5-1.51.11-.45-.39-.5-1.06-.11-1.51.39-.45,1.06-.5,1.51-.11.45.39.5,1.06.11,1.51Z"/><path class="cls-21" d="m1596.26,331.93c-.22.25-.61.28-.86.06-.26-.22-.28-.61-.06-.86.22-.26.61-.28.86-.06.25.22.28.61.06.86Z"/><path class="cls-21" d="m1603.29,332.19c-.22.26-.61.28-.86.06-.26-.22-.28-.61-.06-.86.22-.26.61-.28.86-.06.25.22.28.61.06.86Z"/><path class="cls-21" d="m1611.05,342.29c-.3.35-.83.39-1.18.09-.35-.3-.39-.83-.09-1.18.3-.35.83-.39,1.18-.09.35.3.39.83.09,1.18Z"/><rect class="cls-18" x="1629.22" y="403.34" width="53.42" height="13.03" rx="1.38" ry="1.38" transform="translate(2065.79 -1246.07) rotate(90)"/><path class="cls-10" d="m1545.9,403.67h16.88v10.58c0,.98-.8,1.78-1.78,1.78h-13.32c-.98,0-1.78-.8-1.78-1.78v-10.58h0Z" transform="translate(1964.2 -1144.49) rotate(90)"/><rect class="cls-18" x="1530.67" y="403.34" width="53.42" height="13.03" rx="1.38" ry="1.38" transform="translate(1967.24 -1147.52) rotate(90)"/></g></svg>