<?xml version="1.0" encoding="UTF-8"?><svg id="Warstwa_1" xmlns="http://www.w3.org/2000/svg" viewBox="0 0 649.24 630.21"><defs><style>.cls-1{fill:#033;}.cls-2{fill:#f15a24;}.cls-3{fill:#fff;}.cls-4{fill:#649319;}.cls-5{fill:#8cc63f;}.cls-6{fill:#dd491b;}.cls-7{fill:#d3d3d3;}.cls-8{fill:#39b54a;}.cls-9{fill:none;stroke:#033;stroke-miterlimit:22.93;stroke-width:3.26px;}</style></defs><path class="cls-2" d="m227.35,379.48s-109.57-89.69-161.61-99.28S0,271.34,0,271.34c0,0,13.7-34.97,65.74-26.75s54.78-26.02,86.28-24.65,47.94,24.65,75.33,17.8v141.74Z"/><path class="cls-2" d="m421.88,379.48s109.57-89.69,161.61-99.28,65.74-8.86,65.74-8.86c0,0-13.7-34.97-65.74-26.75s-54.78-26.02-86.28-24.65-47.94,24.65-75.33,17.8v141.74Z"/><path class="cls-5" d="m360.77,380.65c5.96-1.69,12.01-3.29,18.18-4.8,27.62-6.74,54.43-11.03,79.27-13.05-1.39.16-2.79.42-4.19.76-19.21,4.69-30.97,24.05-26.29,43.24,4.69,19.21,24.05,30.97,43.25,26.29l-65.75,16.04c-5.75-23.56-17.41-44.08-32.94-60.21-3.12-3.25-7.03-6.03-11.53-8.28Z"/><path class="cls-5" d="m491.99,480.3l-56.57-56.57c13.97,13.97,36.63,13.97,50.61,0,12.2-12.2,13.75-31.01,4.65-44.89,4.65,6.51,8.98,12.97,12.99,19.33,12.3,19.57,15.55,39.97,8.64,53.83-5.13,10.35-11.9,19.9-20.32,28.32Z"/><path class="cls-5" d="m435.42,373.11c13.97-13.97,36.63-13.97,50.61,0,1.02,1.02,1.97,2.08,2.83,3.18.59.81,1.17,1.63,1.75,2.43.03.03.05.06.06.09,9.1,13.88,7.55,32.7-4.65,44.89-13.98,13.98-36.64,13.98-50.61,0-13.98-13.98-13.98-36.64,0-50.61Z"/><path class="cls-5" d="m247.3,347.08c-5.41,3.02-10.82,6.17-16.25,9.46-24.3,14.77-46.29,30.68-65.28,46.82,1.1-.87,2.27-1.67,3.5-2.42,16.89-10.27,38.9-4.9,49.17,11.99s4.9,38.9-12,49.17l57.84-35.15c-12.59-20.72-18.85-43.48-19.28-65.87-.09-4.51.71-9.23,2.3-14.01Z"/><path class="cls-5" d="m402.67,482.53v147.68c-11.9,0-23.44-1.97-34.39-5.66-14.68-4.92-26.8-21.63-31.94-44.17-3-13.19-5.45-27.34-7.29-42.23-.88-7.18-1.62-14.55-2.2-22.06-.17-2.16-.33-4.34-.47-6.53-.35-5.39-.62-10.85-.81-16.38h0c-.21-6.21-.32-12.48-.32-18.83s.11-12.18.32-18.18c0-.21,0-.41.02-.62.1.12.21.24.32.36.15.19.31.38.49.56,3.04,3.43,6.39,6.25,9.97,8.33,17.72,10.31,38.25,16.61,60.21,17.59,2.02.09,4.05.14,6.09.14Z"/><path class="cls-5" d="m249.27,474.34v102.86c11.9,0,23.44-1.37,34.39-3.94,14.68-3.42,26.8-15.06,31.94-30.77,7.04-21.56,11.09-46.82,11.09-73.85,0-4.42-.12-8.78-.34-13.09-3.26,2.68-6.88,4.87-10.78,6.44-19.35,7.84-42.05,12.35-66.3,12.35Z"/><path class="cls-3" d="m433.39,380.89c0,11.99-.71,23.69-2.07,35-.1.83-.2,1.66-.31,2.48-1.13,8.79-2.65,17.34-4.53,25.59-2.31,10.11-5.15,19.78-8.47,28.92-3.27,8.97-8.58,16.88-15.34,23.21-.09.09-.18.17-.27.25-7.93,7.36-17.82,12.57-28.72,14.86-14.92,3.13-30.61,4.84-46.83,4.89-.29.01-.59.01-.88.01-.41,0-.82,0-1.23-.01-.8,0-1.6,0-2.4-.02-15.23-.23-30-1.91-44.07-4.87-11.03-2.32-21.03-7.63-29-15.12-4.31-4.03-8.02-8.71-10.99-13.89-1.7-2.95-3.16-6.06-4.34-9.31-2.69-7.39-5.06-15.14-7.09-23.18-1.16-4.61-2.21-9.32-3.14-14.11-.07-.33-.13-.66-.19-.99-1.06-5.55-1.96-11.23-2.68-17-.07-.53-.14-1.06-.2-1.59-.18-1.46-.34-2.93-.49-4.41-1.05-9.97-1.6-20.23-1.6-30.71,0-4.71.12-9.36.35-13.97.03-.78.08-1.56.12-2.33,4.53,3.33,9.55,6.06,14.97,8.02,3.99,1.45,8.08,2.81,12.27,4.07,23.99,7.25,51.06,11.32,79.71,11.32,14.42,0,28.45-1.04,41.88-2.98,17.91-2.6,34.76-6.83,50.11-12.41,4.73-1.72,9.17-4.02,13.25-6.8h.01c.57-.4,1.15-.81,1.71-1.22.02.32.04.64.05.97.03.54.06,1.08.08,1.62.14,2.72.23,5.45.27,8.21.02.72.03,1.44.04,2.17.01,1.1.02,2.22.02,3.33Z"/><path class="cls-2" d="m331.22,396.02s26.24,18.2,20.25,29.36c0,0-23.85.02-20.25-29.36Z"/><path class="cls-6" d="m328.54,388.43c-1.06,1.81-2.11,3.53-3.13,5.17-1.03,1.65-2.04,3.21-3.03,4.7-1.62,2.43-3.18,4.65-4.69,6.68-18.27,24.49-28.4,20.42-28.4,20.42l3.58-9.68c2.38-6.44,6.8-11.93,12.58-15.64,2.15-1.38,4.15-2.65,6-3.8,6.21-3.89,10.76-6.55,13.84-8.28,1.02.09,2.11.23,3.25.43Z"/><path class="cls-6" d="m322.38,393.61s-1.14,13.93,5.01,12.99,16.06-6.48,13.9-9.95-18.92-3.04-18.92-3.04Z"/><path class="cls-2" d="m333.33,394.04c-.1.94-.38,1.93-.81,2.92-.4.96-.95,1.92-1.62,2.83-1.68,2.28-4.09,4.26-6.89,5.16-1.96.63-4.11.72-6.32.03-.02-.01-.04-.01-.06-.02-5.4-1.73-6.53-5.33-6.18-8.68.4-3.86,2.74-7.4,2.74-7.4,0,0,4.21-1.5,11.1-.88,1.02.09,2.11.23,3.25.43.35.06.71.13,1.07.2,2.95.6,4.01,2.79,3.72,5.41Z"/><path class="cls-2" d="m212.94,368.04s34.51,29.66,110.82,27.3,100.1-13.58,117.04-30.78-34.52-18.21-34.52-18.21c0,0-209.18-8.84-193.34,21.69Z"/><path class="cls-8" d="m326.16,146.09v-7.26c0-57.02,57.95-71.26,57.95-71.26,9.6,65.84-30.57,77.79-57.95,78.52Z"/><path class="cls-8" d="m323.76,168.13v-7.26c0-57.02-57.95-71.26-57.95-71.26-9.6,65.84,30.57,77.79,57.95,78.52Z"/><path class="cls-8" d="m346.51,53.41c0,29.5-22.75,53.41-22.75,53.41,0,0-22.75-23.91-22.75-53.41S323.75,0,323.75,0c0,0,22.75,23.91,22.75,53.41Z"/><line class="cls-9" x1="323.75" y1="177.44" x2="323.75" y2="53.41"/><line class="cls-9" x1="365.37" y1="100.83" x2="323.75" y2="146.09"/><line class="cls-9" x1="288.61" y1="122.61" x2="323.75" y2="160.8"/><path class="cls-5" d="m461.36,283.12c0,16.52-1.71,32.51-4.9,47.71-3.09,14.73-11.52,27.61-23.35,36.31-4.54,3.33-9.56,6.05-14.97,8.02-26.85,9.76-58.33,15.39-91.98,15.39s-65.13-5.62-91.98-15.39c-5.42-1.97-10.44-4.69-14.97-8.02-11.83-8.69-20.27-21.58-23.35-36.31-3.19-15.2-4.9-31.18-4.9-47.71s1.71-32.51,4.9-47.71c4.28-20.37,18.77-37.2,38.32-44.33,26.86-9.76,58.33-15.39,91.98-15.39s65.13,5.62,91.98,15.39c19.56,7.12,34.05,23.96,38.33,44.33,3.19,15.2,4.9,31.18,4.9,47.71Z"/><path class="cls-1" d="m433.57,283.13c0,9.73-1.36,19.14-3.89,28.08-2.45,8.67-9.15,16.25-18.55,21.37-3.6,1.96-7.59,3.56-11.89,4.72-21.34,5.75-46.34,9.06-73.08,9.06s-51.74-3.31-73.08-9.06c-4.3-1.16-8.29-2.76-11.89-4.72-9.4-5.12-16.1-12.7-18.55-21.37-2.54-8.94-3.89-18.35-3.89-28.08s1.36-19.14,3.89-28.08c3.4-11.99,14.91-21.9,30.45-26.09,21.34-5.75,46.34-9.06,73.08-9.06s51.74,3.31,73.08,9.06c15.54,4.19,27.05,14.1,30.45,26.09,2.53,8.94,3.89,18.35,3.89,28.08Z"/><rect class="cls-3" x="275.9" y="239.86" width="23.68" height="36.67" rx="11.84" ry="11.84"/><rect class="cls-3" x="349.61" y="239.86" width="23.68" height="36.67" rx="11.84" ry="11.84" transform="translate(722.9 516.4) rotate(-180)"/><path class="cls-3" d="m326.15,327.36c-20.71,0-37.56-13.64-37.56-30.41,0-4.34,3.52-7.85,7.85-7.85s7.85,3.52,7.85,7.85c0,7.97,10.01,14.71,21.86,14.71s21.86-6.74,21.86-14.71c0-4.34,3.52-7.85,7.85-7.85s7.85,3.52,7.85,7.85c0,16.77-16.85,30.41-37.56,30.41Z"/><path class="cls-1" d="m236.24,201.78c-2.41,0-4.82-.92-6.66-2.76l-29.18-29.18c-3.68-3.68-3.68-9.64,0-13.32,3.68-3.68,9.64-3.68,13.32,0l29.18,29.18c3.68,3.68,3.68,9.64,0,13.32-1.84,1.84-4.25,2.76-6.66,2.76Z"/><path class="cls-1" d="m221.56,149.72c-7.72-7.72-20.24-7.72-27.95,0-7.72,7.72-7.72,20.24,0,27.95,7.72,7.72,20.24,7.72,27.95,0,7.72-7.72,7.72-20.24,0-27.95Z"/><path class="cls-1" d="m415.7,201.45c2.41,0,4.82-.92,6.66-2.76l29.18-29.18c3.68-3.68,3.68-9.64,0-13.32-3.68-3.68-9.64-3.68-13.32,0l-29.18,29.18c-3.68,3.68-3.68,9.64,0,13.32,1.84,1.84,4.25,2.76,6.66,2.76Z"/><path class="cls-1" d="m430.38,149.4c7.72-7.72,20.24-7.72,27.95,0,7.72,7.72,7.72,20.24,0,27.95-7.72,7.72-20.24,7.72-27.95,0-7.72-7.72-7.72-20.24,0-27.95Z"/><path class="cls-5" d="m271.84,457.33l-59.92-53c14.8,13.09,16.19,35.7,3.09,50.51-11.43,12.92-30.11,15.62-44.53,7.38,6.78,4.24,13.49,8.17,20.08,11.78,20.29,11.08,40.85,13.07,54.25,5.33,10.02-5.76,19.14-13.1,27.02-22.01Z"/><path class="cls-5" d="m161.4,407.43c-13.09,14.8-11.71,37.41,3.1,50.51,1.08.95,2.2,1.83,3.35,2.63.85.54,1.7,1.07,2.54,1.6.03.03.07.05.1.06,14.41,8.23,33.1,5.54,44.53-7.38,13.1-14.81,11.71-37.42-3.09-50.51-14.81-13.1-37.42-11.71-50.52,3.1Z"/><path class="cls-4" d="m347.63,593.6s9.57,31.92,48.74,29.85v-29.85h-48.74Z"/><circle class="cls-7" cx="366.56" cy="468.59" r="8.13"/><circle class="cls-7" cx="402.5" cy="418.81" r="8.13"/><circle class="cls-7" cx="351.06" cy="454.74" r="4.72"/><circle class="cls-7" cx="386.97" cy="463.95" r="4.72"/><circle class="cls-7" cx="408.35" cy="445.01" r="11.53"/><circle class="cls-7" cx="402.5" cy="475.62" r="9.81"/><circle class="cls-7" cx="382.19" cy="445.01" r="5.96"/><circle class="cls-7" cx="327.85" cy="486.99" r="5.96"/><circle class="cls-7" cx="331.76" cy="467.77" r="3.17"/><circle class="cls-7" cx="344.22" cy="476.73" r="3.17"/><circle class="cls-7" cx="380.82" cy="417.47" r="3.17"/><circle class="cls-7" cx="358.43" cy="431.54" r="3.17"/><circle class="cls-7" cx="420.03" cy="418.81" r="3.17"/><path class="cls-5" d="m402.67,496.61v48.74c-8.1,8.53-20.37,13.98-34.11,13.98-17.28,0-32.25-8.62-39.51-21.18-.85-6.94-1.57-14.07-2.14-21.32,0,0,0,0,0,0-.49-6.36,1.37-12.74,5.37-17.71.39-.49.8-.97,1.22-1.45,1.84-2.09,3.92-4.01,6.22-5.72,7.73-5.8,17.82-9.31,28.84-9.31,13.59,0,25.75,5.33,33.84,13.71.1.09.18.18.27.27Z"/></svg>