<?xml version="1.0" encoding="UTF-8"?><svg id="Warstwa_1" xmlns="http://www.w3.org/2000/svg" viewBox="0 0 1500 1080"><defs><style>.cls-1{stroke:#2c6069;stroke-linecap:round;stroke-linejoin:round;stroke-width:3px;}.cls-1,.cls-2{fill:none;}.cls-3{fill:#f4ad67;}.cls-4{fill:#033;}.cls-5,.cls-6{fill:#677687;}.cls-7{fill:#f1bc00;}.cls-8{fill:#fff;}.cls-9{fill:#ffdb55;}.cls-10{fill:#ffca00;}.cls-11{fill:#fbf6e9;}.cls-12{fill:#ff5900;}.cls-13{fill:#febc11;}.cls-14{fill:#69cad0;}.cls-15{fill:#a06c3c;}.cls-16{fill:#8cc63f;}.cls-17{fill:#cdc9bf;}.cls-18{fill:#d1a20d;}.cls-19,.cls-20{fill:#d3d3d3;}.cls-21{fill:#1c74c4;}.cls-22{fill:#70738c;}.cls-23{fill:#5c5f73;}.cls-24{fill:#39b54a;}.cls-25{fill:#3c425d;}.cls-26{fill:#833800;}.cls-27{fill:#4c5376;}.cls-28{fill:#75868f;}.cls-29{fill:#4d4d4d;}.cls-2{stroke:#033;stroke-miterlimit:22.93;stroke-width:3.26px;}.cls-20,.cls-30,.cls-6{fill-rule:evenodd;}.cls-30{fill:#ccc;}</style></defs><path class="cls-25" d="m351.31,661.55s-32.16-37.47-19.96-44.77c12.21-7.31,18.3,9.89,27.79-9.74,9.49-19.63,13.38,22.9,20.86,15.63,7.48-7.27,13.29-7.53,20.7-4.72,7.41,2.81-.73,39.11-10.94,43.83-10.21,4.72-38.45-.23-38.45-.23Z"/><path class="cls-25" d="m271.12,933.95c-15.16-13.24-17.95-218.6,69.74-273.9,0,0,22.18-20.26,56.74-.51,31.38,17.93,120.25,129.08,103.52,256.72-3.19,24.35-21.71,40.97-45.1,40.8-48.7-.36-119.71,33.83-184.91-23.1Z"/><path class="cls-23" d="m350.16,695.54s-51.63,33.77-44.23,115.23c7.4,81.46,37.44-5.2,37.92-44.52.47-39.32,30.11-80.09,6.31-70.71Z"/><path class="cls-24" d="m749.87,354.84l-13.53,56.47-2.96,12.33h25.43l-31.74,49.81-31.74-49.81h25.43l-2.96-12.33-13.53-56.47h45.6m7.58-10h-60.76c-2.6,0-4.52,2.43-3.91,4.96l15.3,63.84h-23.65c-3.18,0-5.1,3.51-3.39,6.18l42.64,66.91c.79,1.24,2.09,1.86,3.39,1.86s2.6-.62,3.39-1.86l42.64-66.91c1.71-2.68-.22-6.18-3.39-6.18h-23.65l15.3-63.84c.61-2.53-1.31-4.96-3.91-4.96h0Z"/><path class="cls-24" d="m877.06,416.48l16.01,16.01,16.01,16.01-49.22,30.19-10.81,6.63,8.97,8.97,8.91,8.91-57.25,12.68,12.69-57.25,8.91,8.91,8.97,8.97,6.63-10.81,30.19-49.22m-1.13-13.62c-1.33,0-2.65.66-3.42,1.91l-34.16,55.7-16.64-16.64c-.81-.81-1.82-1.18-2.81-1.18-1.77,0-3.49,1.17-3.93,3.14l-17.09,77.11c-.57,2.56,1.42,4.87,3.89,4.87.29,0,.58-.03.88-.1l77.11-17.09c3.09-.68,4.2-4.51,1.96-6.74l-16.64-16.64,55.7-34.16c2.21-1.35,2.57-4.41.74-6.24l-21.38-21.38-21.38-21.38c-.79-.79-1.81-1.17-2.83-1.17h0Z"/><path class="cls-24" d="m577.08,416.48l30.19,49.22,6.63,10.81,8.97-8.97,8.91-8.91,12.69,57.25-57.25-12.68,8.91-8.91,8.97-8.97-10.81-6.63-49.22-30.19,16.01-16.01,16.01-16.01m1.13-13.62c-1.01,0-2.03.38-2.83,1.17l-21.38,21.38-21.38,21.38c-1.83,1.83-1.47,4.89.74,6.24l55.7,34.16-16.64,16.64c-2.23,2.23-1.12,6.06,1.97,6.74l77.11,17.09c.3.07.59.1.88.1,2.47,0,4.46-2.31,3.89-4.87l-17.09-77.11c-.44-1.97-2.16-3.14-3.93-3.14-1,0-2.01.37-2.81,1.18l-16.64,16.64-34.16-55.7c-.77-1.25-2.09-1.91-3.42-1.91h0Z"/><polygon class="cls-28" points="449.64 578.97 449.64 637.68 499.45 969.74 957.35 969.74 1007.16 637.68 1007.16 578.97 449.64 578.97"/><path class="cls-28" d="m466.36,551.71h524.2c9.22,0,16.71,7.49,16.71,16.71v10.55H449.64v-10.55c0-9.22,7.49-16.71,16.71-16.71Z"/><path class="cls-6" d="m909.56,911.8c5.15,0,9.32,4.17,9.32,9.32s-4.17,9.32-9.32,9.32-9.32-4.17-9.32-9.32,4.17-9.32,9.32-9.32Z"/><path class="cls-6" d="m916.34,881.3c5.15,0,9.32,4.17,9.32,9.32s-4.17,9.32-9.32,9.32-9.32-4.17-9.32-9.32,4.17-9.32,9.32-9.32Z"/><path class="cls-6" d="m944.31,916.33c5.15,0,9.32,4.17,9.32,9.32s-4.17,9.32-9.32,9.32-9.32-4.17-9.32-9.32,4.17-9.32,9.32-9.32Z"/><path class="cls-6" d="m961.24,811.82c3.74,0,6.78,3.03,6.78,6.78s-3.04,6.78-6.78,6.78-6.78-3.03-6.78-6.78,3.04-6.78,6.78-6.78Z"/><path class="cls-6" d="m967.08,844.28c3.74,0,6.78,3.03,6.78,6.78s-3.04,6.78-6.78,6.78-6.78-3.03-6.78-6.78,3.04-6.78,6.78-6.78Z"/><path class="cls-6" d="m825.68,933.83c3.74,0,6.78,3.03,6.78,6.78s-3.04,6.78-6.78,6.78-6.78-3.03-6.78-6.78,3.04-6.78,6.78-6.78Z"/><path class="cls-6" d="m917.18,774.54c3.74,0,6.78,3.03,6.78,6.77s-3.04,6.78-6.78,6.78-6.78-3.03-6.78-6.78,3.03-6.77,6.78-6.77Z"/><path class="cls-6" d="m839.23,857.58c3.74,0,6.78,3.03,6.78,6.78s-3.03,6.78-6.78,6.78-6.78-3.04-6.78-6.78,3.03-6.78,6.78-6.78Z"/><path class="cls-6" d="m905.57,826.12c3.74,0,6.78,3.03,6.78,6.78s-3.04,6.78-6.78,6.78-6.78-3.04-6.78-6.78,3.03-6.78,6.78-6.78Z"/><path class="cls-6" d="m960.45,752.73c1.72,0,3.11,1.39,3.11,3.11s-1.39,3.12-3.11,3.12-3.11-1.39-3.11-3.12,1.39-3.11,3.11-3.11Z"/><path class="cls-6" d="m864.54,774.2c1.72,0,3.12,1.39,3.12,3.11s-1.39,3.11-3.12,3.11-3.11-1.39-3.11-3.11,1.39-3.11,3.11-3.11Z"/><path class="cls-6" d="m889.36,863.4c1.72,0,3.11,1.39,3.11,3.11s-1.39,3.11-3.11,3.11-3.11-1.39-3.11-3.11,1.39-3.11,3.11-3.11Z"/><path class="cls-6" d="m867.9,886.87c1.72,0,3.11,1.4,3.11,3.12s-1.39,3.11-3.11,3.11-3.11-1.4-3.11-3.11,1.39-3.12,3.11-3.12Z"/><path class="cls-6" d="m854.18,954.99c1.72,0,3.11,1.4,3.11,3.12s-1.39,3.11-3.11,3.11-3.11-1.4-3.11-3.11,1.39-3.12,3.11-3.12Z"/><path class="cls-6" d="m781.38,880.83c1.72,0,3.11,1.4,3.11,3.12s-1.4,3.11-3.11,3.11-3.12-1.39-3.12-3.11,1.39-3.12,3.12-3.12Z"/><path class="cls-6" d="m932.28,846.63c1.72,0,3.11,1.39,3.11,3.11s-1.4,3.11-3.11,3.11-3.12-1.39-3.12-3.11,1.39-3.11,3.12-3.11Z"/><path class="cls-6" d="m884.17,949.59c4.7,0,8.52,3.82,8.52,8.52s-3.82,8.52-8.52,8.52-8.52-3.81-8.52-8.52,3.81-8.52,8.52-8.52Z"/><path class="cls-6" d="m933.42,726.85c3.74,0,6.78,3.03,6.78,6.78s-3.04,6.78-6.78,6.78-6.78-3.03-6.78-6.78,3.04-6.78,6.78-6.78Z"/><path class="cls-6" d="m849.95,813.33c3.74,0,6.78,3.03,6.78,6.78s-3.04,6.78-6.78,6.78-6.78-3.03-6.78-6.78,3.04-6.78,6.78-6.78Z"/><path class="cls-6" d="m891.99,741.58c6.55,0,11.86,5.31,11.86,11.87s-5.31,11.86-11.86,11.86-11.86-5.31-11.86-11.86,5.31-11.87,11.86-11.87Z"/><path class="cls-6" d="m857.4,913.78c6.55,0,11.86,5.31,11.86,11.86s-5.31,11.86-11.86,11.86-11.86-5.31-11.86-11.86,5.31-11.86,11.86-11.86Z"/><path class="cls-6" d="m955.22,872.09c6.55,0,11.86,5.31,11.86,11.86s-5.31,11.86-11.86,11.86-11.86-5.31-11.86-11.86,5.31-11.86,11.86-11.86Z"/><path class="cls-6" d="m903.39,703.32c3.74,0,6.78,3.03,6.78,6.78s-3.04,6.78-6.78,6.78-6.78-3.04-6.78-6.78,3.03-6.78,6.78-6.78Z"/><path class="cls-6" d="m869.26,839.85c3.74,0,6.78,3.04,6.78,6.78s-3.03,6.78-6.78,6.78-6.78-3.04-6.78-6.78,3.03-6.78,6.78-6.78Z"/><path class="cls-6" d="m778.56,919.89c3.74,0,6.78,3.04,6.78,6.78s-3.03,6.78-6.78,6.78-6.78-3.04-6.78-6.78,3.03-6.78,6.78-6.78Z"/><path class="cls-6" d="m816.91,895.82c3.74,0,6.78,3.04,6.78,6.78s-3.03,6.78-6.78,6.78-6.78-3.04-6.78-6.78,3.03-6.78,6.78-6.78Z"/><path class="cls-6" d="m887.92,806.77c1.72,0,3.11,1.4,3.11,3.12s-1.4,3.11-3.11,3.11-3.12-1.4-3.12-3.11,1.4-3.12,3.12-3.12Z"/><path class="cls-6" d="m832.46,752.73c1.72,0,3.11,1.4,3.11,3.11s-1.4,3.12-3.11,3.12-3.12-1.39-3.12-3.12,1.39-3.11,3.12-3.11Z"/><path class="cls-6" d="m965.37,705.26c1.72,0,3.11,1.4,3.11,3.11s-1.39,3.12-3.11,3.12-3.12-1.4-3.12-3.12,1.39-3.11,3.12-3.11Z"/><path class="cls-6" d="m839.23,778.36c1.72,0,3.12,1.39,3.12,3.11s-1.4,3.12-3.12,3.12-3.12-1.4-3.12-3.12,1.4-3.11,3.12-3.11Z"/><path class="cls-6" d="m851.07,741.35c1.72,0,3.11,1.39,3.11,3.11s-1.4,3.11-3.11,3.11-3.12-1.4-3.12-3.11,1.4-3.11,3.12-3.11Z"/><path class="cls-6" d="m932.36,805.53c5.15,0,9.32,4.17,9.32,9.32s-4.17,9.32-9.32,9.32-9.32-4.17-9.32-9.32,4.17-9.32,9.32-9.32Z"/><rect class="cls-5" x="449.64" y="578.97" width="557.51" height="58.71"/><path class="cls-8" d="m800.83,847.47c2.55-2.81,4.97-5.77,7.19-8.84,32.53-45.03,22.38-108.12-22.65-140.64-1.51-1.09-3.06-2.13-4.63-3.13l11.69,19.45c2.37,4.1,2.71,9.14.9,13.48-1.89,4.52-5.85,7.83-10.64,8.88l-22.51,5.21c16.75,14.99,21.61,39.39,11.92,59.59l-3.77-6c-.72-1.19-2.09-1.85-3.44-1.72-1.4.1-2.59,1-3.09,2.28l-24.16,59.78c-.47,1.09-.37,2.35.26,3.35.63,1,1.69,1.63,2.89,1.73l64.32,4.51h.26c1.3,0,2.49-.67,3.15-1.8.73-1.16.69-2.65-.03-3.82l-7.67-12.3Z"/><path class="cls-20" d="m768.02,745.01c-.5.58-1.39.65-1.98.14-.59-.5-.65-1.39-.14-1.98.51-.58,1.39-.65,1.98-.14.59.51.65,1.39.14,1.98Z"/><path class="cls-20" d="m797.19,716.09c-.5.58-1.39.65-1.97.14-.58-.51-.65-1.39-.14-1.98.5-.59,1.39-.65,1.97-.14.58.51.65,1.39.14,1.98Z"/><path class="cls-20" d="m790.7,707.3c-.5.59-1.39.65-1.97.14-.58-.51-.65-1.39-.14-1.97.51-.59,1.39-.65,1.98-.14.59.51.65,1.39.14,1.97Z"/><path class="cls-20" d="m784.14,742.8c-.5.59-1.39.65-1.98.14-.58-.51-.65-1.39-.14-1.98.51-.59,1.39-.65,1.98-.14.58.5.65,1.39.14,1.97Z"/><path class="cls-20" d="m771.89,753.1c-.23.27-.64.3-.91.07-.27-.23-.3-.64-.07-.91.23-.27.64-.3.91-.07.27.23.3.64.07.91Z"/><path class="cls-20" d="m789.85,735.29c-.23.27-.64.3-.91.07-.27-.23-.3-.64-.07-.91.23-.27.64-.3.91-.07.27.23.3.64.07.91Z"/><path class="cls-20" d="m798.02,721.78c-.23.27-.64.3-.91.07-.27-.23-.3-.64-.07-.91.23-.27.64-.3.91-.07.27.23.3.64.07.91Z"/><path class="cls-20" d="m787.06,699.73c-.23.27-.64.3-.91.07-.27-.23-.3-.64-.07-.91.07-.08.16-.14.26-.18.29.22.58.43.87.65,0,.13-.06.26-.15.37Z"/><path class="cls-20" d="m802.45,725.07c-.5.59-1.39.65-1.98.14-.58-.51-.65-1.39-.14-1.98.51-.59,1.39-.65,1.97-.14.59.51.65,1.39.14,1.98Z"/><path class="cls-20" d="m805.29,717.01c-.9.62-2.13.59-3-.16-1.02-.89-1.14-2.43-.25-3.46.04-.05.08-.09.12-.13,1.08,1.23,2.12,2.48,3.13,3.75Z"/><path class="cls-20" d="m780.28,751.5c-.51.58-1.39.65-1.98.14-.59-.51-.65-1.39-.14-1.98.5-.58,1.39-.65,1.98-.14.58.51.65,1.39.14,1.98Z"/><path class="cls-20" d="m789.35,749.08c-.5.59-1.39.65-1.97.14-.58-.51-.65-1.39-.14-1.97.51-.59,1.39-.65,1.98-.14s.65,1.39.14,1.97Z"/><path class="cls-20" d="m810.11,723.63c-.51.51-1.34.54-1.9.06-.59-.51-.65-1.39-.14-1.98.14-.16.3-.28.48-.36.53.75,1.05,1.51,1.56,2.27Z"/><path class="cls-20" d="m796.38,738.1c-.51.59-1.39.65-1.98.14-.59-.51-.65-1.39-.14-1.97.5-.59,1.39-.65,1.97-.14.59.51.65,1.39.14,1.97Z"/><path class="cls-20" d="m777.97,743.96c-.5.59-1.39.65-1.98.14-.58-.51-.65-1.39-.14-1.98.5-.58,1.39-.65,1.97-.14.58.51.65,1.39.14,1.98Z"/><path class="cls-20" d="m796.11,707.15c-.23.27-.64.3-.91.07-.27-.23-.3-.64-.07-.91.05-.06.11-.11.17-.14.3.28.59.57.89.85-.02.05-.05.09-.09.13Z"/><path class="cls-20" d="m794.03,743.77c-.23.27-.64.3-.91.07-.27-.23-.3-.64-.07-.91.23-.27.64-.3.91-.07.27.23.3.64.07.91Z"/><path class="cls-20" d="m801.51,732.98c-.23.27-.64.3-.91.07-.27-.23-.3-.64-.07-.91.23-.27.64-.3.91-.07.27.23.3.64.07.91Z"/><path class="cls-20" d="m777.01,758c-.23.27-.64.3-.91.07-.27-.23-.3-.64-.07-.91.23-.27.64-.3.91-.07.27.23.3.64.07.91Z"/><path class="cls-20" d="m795.82,732.33c-.69.8-1.91.89-2.72.2-.8-.7-.89-1.91-.2-2.72.7-.8,1.91-.89,2.72-.2.81.7.9,1.91.2,2.72Z"/><path class="cls-8" d="m761.95,873.81c-44.48,16.91-96.21.26-121.83-41.82-1.96-3.25-3.75-6.62-5.35-10.06l-14.32,2.3c-1.35.21-2.76-.33-3.52-1.45-.78-1.04-.95-2.41-.44-3.6l.1-.24,29.11-57.52c.57-1.06,1.55-1.79,2.72-1.99,1.16-.2,2.36.2,3.18,1.06l45.72,45.45c1.01.96,1.37,2.41.91,3.73-.41,1.3-1.53,2.3-2.92,2.51l-6.98,1.14c12.04,13.6,30.37,19.46,47.69,16.03l-8.92,22.1c-1.89,4.5-1.45,9.64,1.16,13.81,2.56,4.03,6.77,6.57,11.55,6.98l22.15,1.57Z"/><path class="cls-8" d="m782.8,723.39c-.46,1.08-1.44,1.89-2.59,2.14l-62.82,14.53c-1.34.33-2.76-.15-3.64-1.22-.88-1.04-1.13-2.53-.57-3.82l2.76-6.52c-20.44,3.39-36.66,19-41.12,38.96l-15.1-15.02c-2.81-2.85-6.69-4.49-10.7-4.49-.83,0-1.66.07-2.46.2-4.71.8-8.71,3.69-10.94,7.94l-12,23.71c-.03-.93-.03-1.84-.02-2.77.8-55.55,46.63-100.08,102.16-99.28,3.8.07,7.6.33,11.37.82l5.68-13.36c.54-1.26,1.75-2.14,3.11-2.2,1.29-.11,2.53.47,3.26,1.55l.16.21,33.22,55.26c.6,1.03.7,2.27.24,3.36Z"/><path class="cls-20" d="m645.52,740.04c-.8.93-2.2,1.03-3.12.23-.93-.8-1.03-2.2-.23-3.13.8-.93,2.2-1.03,3.13-.23.93.8,1.03,2.2.23,3.13Z"/><path class="cls-20" d="m625.63,771.5c-.47.55-1.19.76-1.85.63.08-1.28.19-2.55.31-3.81.47-.02.95.13,1.34.47.8.7.89,1.91.2,2.72Z"/><path class="cls-20" d="m632.17,752.16c-.7.81-1.91.89-2.72.2-.8-.7-.89-1.91-.2-2.72.7-.8,1.91-.89,2.72-.2s.89,1.91.2,2.72Z"/><path class="cls-20" d="m651.33,746.05c-.69.81-1.91.89-2.72.2-.8-.69-.89-1.91-.2-2.72.7-.81,1.91-.89,2.72-.2.8.7.89,1.91.2,2.72Z"/><path class="cls-20" d="m667.46,747.73c-.51.59-1.39.65-1.98.14-.58-.51-.65-1.39-.14-1.97.51-.59,1.39-.65,1.97-.14.59.5.65,1.39.14,1.97Z"/><path class="cls-20" d="m637.01,738.53c-.5.59-1.39.65-1.97.14-.58-.5-.65-1.39-.14-1.97.5-.59,1.39-.65,1.97-.14.59.51.65,1.39.14,1.98Z"/><path class="cls-20" d="m635.61,744.83c-.51.58-1.39.65-1.97.14-.59-.51-.65-1.39-.14-1.98.51-.59,1.39-.65,1.98-.14.58.51.65,1.39.14,1.97Z"/><path class="cls-20" d="m676.87,760.59c-.44.12-.92.03-1.29-.29-.59-.51-.65-1.39-.14-1.98.51-.58,1.39-.65,1.98-.14.12.1.22.22.29.35-.29.68-.57,1.36-.83,2.06Z"/><path class="cls-20" d="m637.83,749.98c-.23.27-.64.3-.91.07-.27-.23-.3-.64-.07-.91.23-.27.64-.3.91-.07.27.23.3.64.07.91Z"/><path class="cls-20" d="m669.1,760.68c-.23.27-.64.3-.91.07-.27-.23-.3-.64-.07-.91.23-.27.64-.3.91-.07.27.23.3.64.07.91Z"/><path class="cls-20" d="m681.73,747.97c-.23.27-.64.3-.91.07-.27-.23-.3-.64-.07-.91.23-.27.64-.3.91-.07.27.23.3.64.07.91Z"/><path class="cls-20" d="m661.36,735.31c-.23.27-.64.3-.91.07-.27-.23-.3-.64-.06-.91.23-.27.64-.3.91-.07.27.23.3.64.07.91Z"/><path class="cls-20" d="m656.95,746.34c-.23.27-.64.3-.91.07-.27-.23-.3-.64-.07-.91.23-.27.64-.3.91-.07.27.23.3.64.07.91Z"/><path class="cls-20" d="m641.29,744.33c-.23.27-.64.3-.91.07-.27-.23-.3-.64-.07-.91s.64-.3.91-.07c.27.23.3.64.07.91Z"/><path class="cls-20" d="m666.33,741.09c-.64.73-1.75.82-2.48.18-.73-.64-.82-1.75-.18-2.48.63-.74,1.75-.82,2.48-.18.74.64.82,1.75.18,2.48Z"/><path class="cls-20" d="m666.31,755.4c-.89,1.02-2.43,1.14-3.46.25-1.02-.89-1.13-2.43-.25-3.46.89-1.02,2.43-1.14,3.46-.25,1.02.89,1.14,2.43.25,3.46Z"/><path class="cls-20" d="m629.49,759.51c-.89,1.02-2.43,1.14-3.46.25-.24-.21-.43-.46-.57-.72.2-1.02.42-2.04.65-3.05.9-.72,2.22-.72,3.13.07,1.02.88,1.13,2.43.25,3.46Z"/><path class="cls-20" d="m676.01,742.26c-.51.59-1.39.65-1.97.14-.59-.51-.65-1.39-.14-1.97.51-.58,1.39-.65,1.97-.14.59.51.65,1.39.14,1.98Z"/><path class="cls-20" d="m674.59,751.5c-.5.58-1.39.65-1.97.14-.58-.51-.65-1.39-.14-1.97.51-.59,1.39-.65,1.98-.14.59.51.65,1.39.14,1.98Z"/><path class="cls-20" d="m658.12,741.67c-.23.27-.64.3-.91.07-.27-.23-.3-.64-.07-.91.23-.27.64-.3.91-.07.27.23.3.64.07.91Z"/><path class="cls-20" d="m650.53,735.72c-.23.27-.64.3-.91.07-.27-.23-.3-.64-.07-.91.23-.27.64-.3.91-.07.27.23.3.64.07.91Z"/><path class="cls-20" d="m642.75,733.31c-.23.27-.64.3-.91.07-.27-.23-.3-.64-.07-.91.23-.27.64-.3.91-.07.27.23.3.64.07.91Z"/><path class="cls-20" d="m723.43,861.63c-1.26,1.46-3.48,1.62-4.94.36-1.46-1.26-1.62-3.48-.36-4.94,1.26-1.46,3.48-1.62,4.94-.36,1.46,1.26,1.62,3.48.36,4.94Z"/><path class="cls-20" d="m730.08,839.1c-.8.93-2.2,1.03-3.13.23-.93-.8-1.03-2.2-.23-3.13.8-.93,2.2-1.03,3.12-.23.93.8,1.03,2.2.23,3.13Z"/><path class="cls-20" d="m740.31,876.46c-.7.8-1.91.89-2.72.2-.8-.7-.89-1.91-.2-2.72.7-.8,1.91-.89,2.72-.2.8.7.89,1.91.2,2.72Z"/><path class="cls-20" d="m706.92,867.91c-.7.81-1.91.89-2.72.2-.8-.69-.89-1.91-.2-2.72.7-.8,1.91-.89,2.72-.2.81.69.9,1.91.2,2.71Z"/><path class="cls-20" d="m725.78,843.95c-.69.8-1.91.89-2.72.2-.8-.7-.89-1.91-.2-2.72.7-.81,1.91-.89,2.72-.2.8.7.89,1.91.2,2.72Z"/><path class="cls-20" d="m718.61,841c-.7.81-1.91.89-2.72.2-.8-.7-.89-1.91-.2-2.72.7-.8,1.91-.89,2.72-.2s.89,1.91.2,2.71Z"/><path class="cls-20" d="m728.61,870.18c-.7.8-1.91.89-2.72.2-.81-.7-.89-1.91-.2-2.72.69-.8,1.91-.89,2.72-.2.8.7.89,1.91.2,2.72Z"/><path class="cls-20" d="m749.34,876.12c-.51.59-1.39.65-1.98.14-.58-.51-.65-1.39-.14-1.98.5-.58,1.39-.65,1.98-.14.58.51.65,1.39.14,1.97Z"/><path class="cls-20" d="m721.08,850.76c-.96,1.11-2.63,1.23-3.73.27-1.11-.96-1.23-2.63-.27-3.73.96-1.11,2.63-1.23,3.74-.27,1.11.96,1.23,2.63.27,3.73Z"/><path class="cls-20" d="m708.77,850.77c-.51.59-1.39.65-1.98.14-.59-.51-.65-1.39-.14-1.98.5-.58,1.39-.65,1.97-.14.58.51.65,1.39.14,1.98Z"/><path class="cls-20" d="m718.5,868.43c-.5.59-1.39.65-1.97.14-.58-.51-.65-1.39-.14-1.98.5-.59,1.39-.65,1.98-.14.58.51.65,1.39.14,1.97Z"/><path class="cls-20" d="m728.21,879.15c-.5.58-1.39.65-1.97.14-.58-.5-.65-1.39-.14-1.98.51-.58,1.39-.65,1.98-.14.58.51.65,1.39.14,1.98Z"/><path class="cls-20" d="m737.61,879.7c.71-.56,1.67-.67,2.49-.31-.83.11-1.66.22-2.49.31Z"/><path class="cls-20" d="m754.79,876.22c.02-.12.07-.23.15-.33.23-.27.64-.3.91-.07.02.02.04.04.06.06-.37.11-.74.23-1.11.34Z"/><path class="cls-20" d="m721.91,831.95c-.23.27-.64.3-.91.07-.27-.23-.3-.64-.07-.91.23-.27.64-.3.91-.07.27.23.3.64.07.91Z"/><path class="cls-20" d="m710.07,835.27c-.23.27-.64.3-.91.07-.27-.23-.3-.64-.07-.91.23-.27.64-.3.91-.07.27.23.3.64.07.91Z"/><path class="cls-20" d="m713.08,859.12c-.23.27-.64.3-.91.07-.27-.23-.3-.64-.07-.91.23-.27.64-.3.91-.07.27.23.3.64.07.91Z"/><path class="cls-20" d="m722.71,865.98c-.23.27-.64.3-.91.07-.27-.23-.3-.64-.07-.91.23-.27.64-.3.91-.07.27.23.3.64.07.91Z"/><path class="cls-20" d="m722.99,875.2c-.23.27-.64.3-.91.07-.27-.23-.3-.64-.07-.91.23-.27.64-.3.91-.07.27.23.3.64.07.91Z"/><path class="cls-20" d="m729.64,831.96c-.88,1.02-2.43,1.14-3.46.25-.57-.5-.86-1.2-.85-1.91,1.63.03,3.26-.02,4.89-.15.05.63-.14,1.29-.59,1.81Z"/><path class="cls-20" d="m707.77,843.24c-.89,1.02-2.43,1.14-3.46.25-1.02-.89-1.14-2.43-.25-3.46.89-1.02,2.43-1.14,3.46-.25,1.03.88,1.14,2.43.25,3.46Z"/><path class="cls-20" d="m713.82,874.97c-.89,1.02-2.43,1.14-3.46.25-1.02-.88-1.14-2.43-.25-3.46.89-1.02,2.43-1.14,3.46-.25,1.02.89,1.14,2.43.25,3.46Z"/><path class="cls-20" d="m700.36,855.35c-.51.58-1.39.65-1.97.14-.59-.51-.65-1.39-.14-1.98.5-.59,1.39-.65,1.98-.14.58.51.65,1.39.14,1.98Z"/><path class="cls-20" d="m716.48,855.94c-.5.59-1.39.65-1.97.14-.59-.5-.65-1.39-.14-1.97.5-.59,1.39-.65,1.98-.14.58.51.65,1.39.14,1.97Z"/><path class="cls-20" d="m734.28,879.11c-.69.81-1.91.89-2.72.2-.8-.7-.89-1.91-.2-2.72.7-.81,1.91-.89,2.72-.2.8.7.89,1.91.2,2.72Z"/><circle class="cls-29" cx="496.87" cy="969.74" r="49.99" transform="translate(-113.56 67.16) rotate(-6.94)"/><path class="cls-30" d="m496.87,985.54c8.7,0,15.8-7.1,15.8-15.8s-7.1-15.8-15.8-15.8-15.8,7.1-15.8,15.8,7.1,15.8,15.8,15.8Z"/><circle class="cls-29" cx="957.28" cy="969.74" r="49.99" transform="translate(-110.18 122.8) rotate(-6.94)"/><path class="cls-30" d="m957.28,985.54c8.7,0,15.8-7.1,15.8-15.8s-7.1-15.8-15.8-15.8-15.8,7.1-15.8,15.8,7.1,15.8,15.8,15.8Z"/><path class="cls-16" d="m1279.49,841.1c33.99-18.73,63.78-39.78,87.5-60.89,17.26-15.38,26.05-34.07,23.26-49.3-2.05-11.37-5.9-22.43-11.65-32.85l-129.33,71.29c11.71,21.24,17,44.24,16.48,66.62-.1,4.5-1.1,9.19-2.89,13.9,5.53-2.79,11.07-5.71,16.63-8.77Z"/><path class="cls-16" d="m1068.33,759.6c-33.33,19.88-62.39,41.93-85.38,63.83-16.73,15.96-24.87,34.94-21.58,50.06,2.44,11.3,6.66,22.21,12.76,32.44l126.83-75.64c-12.42-20.83-18.49-43.64-18.73-66.03-.06-4.51.78-9.22,2.42-13.99-5.43,2.98-10.87,6.08-16.32,9.33Z"/><path class="cls-16" d="m1245.66,872.36v147.68c-11.9,0-23.44-1.97-34.39-5.66-14.68-4.92-26.8-21.63-31.94-44.17-7.04-30.96-11.09-67.22-11.09-106.02,0-6.35.12-12.61.34-18.8,3.26,3.85,6.88,6.99,10.78,9.24,19.35,11.26,42.05,17.73,66.3,17.73Z"/><path class="cls-16" d="m1092.26,872.36v147.68c11.9,0,23.44-1.97,34.39-5.66,14.68-4.92,26.8-21.63,31.94-44.17,7.04-30.96,11.09-67.22,11.09-106.02,0-6.35-.12-12.61-.34-18.8-3.26,3.85-6.88,6.99-10.78,9.24-19.35,11.26-42.05,17.73-66.3,17.73Z"/><path class="cls-8" d="m1276.38,770.72c0,33.67-5.62,65.13-15.39,91.98-7.12,19.56-23.96,34.05-44.33,38.32-15.2,3.19-31.18,4.9-47.71,4.9s-32.51-1.71-47.71-4.9c-20.37-4.28-37.2-18.77-44.33-38.32-9.76-26.86-15.39-58.32-15.39-91.98,0-5.5.15-10.94.47-16.3,4.54,3.33,9.56,6.05,14.97,8.02,26.86,9.76,58.33,15.39,91.98,15.39s65.13-5.62,91.98-15.39c5.42-1.97,10.44-4.69,14.97-8.02.31,5.36.47,10.8.47,16.3Z"/><path class="cls-24" d="m1169.16,535.92v-7.26c0-57.02,57.95-71.26,57.95-71.26,9.6,65.84-30.57,77.79-57.95,78.52Z"/><path class="cls-24" d="m1166.75,557.95v-7.26c0-57.02-57.95-71.26-57.95-71.26-9.6,65.84,30.57,77.79,57.95,78.52Z"/><path class="cls-24" d="m1189.5,443.24c0,29.5-22.75,53.41-22.75,53.41,0,0-22.75-23.91-22.75-53.41s22.75-53.41,22.75-53.41c0,0,22.75,23.91,22.75,53.41Z"/><line class="cls-2" x1="1166.75" y1="567.27" x2="1166.75" y2="443.24"/><line class="cls-2" x1="1208.36" y1="490.66" x2="1166.75" y2="535.92"/><line class="cls-2" x1="1131.6" y1="512.44" x2="1166.75" y2="550.63"/><path class="cls-16" d="m1304.35,672.95c0,16.52-1.71,32.51-4.9,47.71-3.09,14.73-11.52,27.61-23.35,36.31-4.54,3.33-9.56,6.05-14.97,8.02-26.85,9.76-58.33,15.39-91.98,15.39s-65.13-5.62-91.98-15.39c-5.42-1.97-10.44-4.69-14.97-8.02-11.83-8.69-20.27-21.58-23.35-36.31-3.19-15.2-4.9-31.18-4.9-47.71s1.71-32.51,4.9-47.71c4.28-20.37,18.77-37.2,38.32-44.33,26.86-9.76,58.33-15.39,91.98-15.39s65.13,5.62,91.98,15.39c19.56,7.12,34.05,23.96,38.33,44.33,3.19,15.2,4.9,31.18,4.9,47.71Z"/><path class="cls-4" d="m1276.56,672.96c0,9.73-1.36,19.14-3.89,28.08-2.45,8.67-9.15,16.25-18.55,21.37-3.6,1.96-7.59,3.56-11.89,4.72-21.34,5.75-46.34,9.06-73.08,9.06s-51.74-3.31-73.08-9.06c-4.3-1.16-8.29-2.76-11.89-4.72-9.4-5.12-16.1-12.7-18.55-21.37-2.54-8.94-3.89-18.35-3.89-28.08s1.36-19.14,3.89-28.08c3.4-11.99,14.91-21.9,30.45-26.09,21.34-5.75,46.34-9.06,73.08-9.06s51.74,3.31,73.08,9.06c15.54,4.19,27.05,14.1,30.45,26.09,2.53,8.94,3.89,18.35,3.89,28.08Z"/><rect class="cls-8" x="1195.7" y="629.69" width="23.68" height="36.67" rx="11.84" ry="11.84"/><rect class="cls-8" x="1118.9" y="629.69" width="23.68" height="36.67" rx="11.84" ry="11.84"/><path class="cls-8" d="m1169.14,717.19c-20.71,0-37.56-13.64-37.56-30.41,0-4.34,3.52-7.85,7.85-7.85s7.85,3.52,7.85,7.85c0,7.97,10.01,14.71,21.86,14.71s21.86-6.74,21.86-14.71c0-4.34,3.52-7.85,7.85-7.85s7.85,3.52,7.85,7.85c0,16.77-16.85,30.41-37.56,30.41Z"/><path class="cls-4" d="m1079.23,591.61c-2.41,0-4.82-.92-6.66-2.76l-29.18-29.18c-3.68-3.68-3.68-9.64,0-13.32,3.68-3.68,9.64-3.68,13.32,0l29.18,29.18c3.68,3.68,3.68,9.64,0,13.32-1.84,1.84-4.25,2.76-6.66,2.76Z"/><path class="cls-4" d="m1064.55,539.55c-7.72-7.72-20.24-7.72-27.95,0-7.72,7.72-7.72,20.24,0,27.95,7.72,7.72,20.24,7.72,27.95,0,7.72-7.72,7.72-20.24,0-27.95Z"/><path class="cls-4" d="m1258.69,591.28c2.41,0,4.82-.92,6.66-2.76l29.18-29.18c3.68-3.68,3.68-9.64,0-13.32-3.68-3.68-9.64-3.68-13.32,0l-29.18,29.18c-3.68,3.68-3.68,9.64,0,13.32,1.84,1.84,4.25,2.76,6.66,2.76Z"/><path class="cls-4" d="m1273.37,539.23c7.72-7.72,20.24-7.72,27.95,0,7.72,7.72,7.72,20.24,0,27.95-7.72,7.72-20.24,7.72-27.95,0-7.72-7.72-7.72-20.24,0-27.95Z"/><circle class="cls-19" cx="1196.05" cy="887.84" r="9.02"/><circle class="cls-19" cx="1211.55" cy="858.42" r="8.13"/><circle class="cls-19" cx="1247.49" cy="809.64" r="8.13"/><circle class="cls-19" cx="1196.05" cy="845.57" r="4.72"/><circle class="cls-19" cx="1232.96" cy="854.78" r="4.72"/><circle class="cls-19" cx="1253.34" cy="835.84" r="11.53"/><circle class="cls-19" cx="1247.49" cy="866.45" r="9.81"/><circle class="cls-19" cx="1227.18" cy="835.84" r="5.96"/><circle class="cls-19" cx="1176.75" cy="881.54" r="5.96"/><circle class="cls-19" cx="1176.75" cy="858.6" r="3.17"/><circle class="cls-19" cx="1191.68" cy="870.02" r="3.17"/><circle class="cls-19" cx="1225.81" cy="808.3" r="3.17"/><circle class="cls-19" cx="1203.42" cy="822.37" r="3.17"/><circle class="cls-19" cx="1265.02" cy="809.64" r="3.17"/><circle class="cls-19" cx="1225.81" cy="885.68" r="8.63"/><path class="cls-18" d="m454.87,321.19c.23,1.41,12.23,23.07,12.23,23.07l-1.68,7.37,7.68.79-10.8,13.68,3.51,21.26,28.42-1.87,21.18-12.26-4.25-52.05-11.22-22.23-35.87,5.93-9.2,16.32Z"/><polygon class="cls-10" points="435.83 348.16 451.51 312.16 463.38 322.21 468.46 316.57 474.08 325.14 485.32 324.1 489.17 347.39 486.83 354.98 471.53 360.6 477.23 384.2 451.86 376.07 456.33 363.11 438.19 362.42 434.8 376.05 434.8 376.04 443.24 402.44 535.63 387.17 533.69 279.01 410.27 299.41 426.37 349.73 435.83 348.16"/><path class="cls-12" d="m525.73,260.63l-12.57,2.08-2.79-16.88c-4.04-24.45-27.22-41.06-51.67-37.01-24.45,4.04-41.05,27.22-37.01,51.67l2.79,16.88-12.57,2.08-2.79-16.88c-5.19-31.38,16.12-61.13,47.5-66.32,31.38-5.19,61.13,16.12,66.32,47.51l2.79,16.88Z"/><path class="cls-7" d="m546.67,273.09c.34,2.03-1.04,3.94-3.06,4.28l-143.25,23.68c-2.02.33-3.94-1.04-4.27-3.07h0c-1.64-9.9,5.06-19.25,14.96-20.88l114.75-18.97c9.9-1.64,19.25,5.06,20.88,14.96h0Z"/><path class="cls-9" d="m524.2,363.08l-.96-53.41c-.11-6.11-5.62-10.71-11.66-9.71h0c-4.91.81-8.48,5.1-8.39,10.07l.96,53.42c.11,6.11,5.62,10.71,11.66,9.71h0c4.91-.81,8.48-5.1,8.39-10.07Z"/><polygon class="cls-10" points="405.22 347.98 423.32 363.12 426.5 370.41 418.56 384.65 438.27 398.82 413.73 409.2 408.67 396.46 394.46 407.76 400.78 420.3 400.78 420.3 377.23 405.84 383.38 398.49 371.8 360.97 387.35 360.84 387.53 353.26 397.37 356.09 405.22 347.98"/><path class="cls-12" d="m561.41,175.34l-3.65,6.8,1.52,6.53-33.64-25.91c-17.28,12.45-40.82,12.14-57.79-.93l-44.78-34.5c-2.34-1.8-3.84-4.42-4.22-7.35-.38-2.94.4-5.84,2.2-8.19l21.48-27.88v.06s.99,4.08.99,4.08l-2.87,10.82,14.34-13.21-2.01,9.57,5.06,3.64,10.33,13.08,6.16,6.57-1.14,10.87,11.71,6.95-4.3-6.95-.96-10.87h13.67l2.51,3-2.51,20.55,4.97-8.6,2.39-9.56v-11h-21.99l-18.68-21.52,7.21-11-9.53-16.33-.04-.05,8.73-11.33c1.81-2.34,4.42-3.86,7.35-4.22,2.94-.39,5.84.4,8.19,2.2l44.78,34.5c16.97,13.07,23.28,35.74,15.66,55.64l25.69,19.79-13.64,5.33,6.8,9.41Z"/><path class="cls-12" d="m662.88,353.08l-1.87-9.79c-1.05-5.45-4.14-10.16-8.81-13.34l-27.23-17.03c-.95-.6-2.02-1.02-3.14-1.27l-22.3-116.8-7.26-1.17-8.27,13.66-9.94,1.86,20.54,107.64c-.96.64-1.8,1.44-2.46,2.34l-18.85,25.62c-.07.1-.13.19-.24.35-3.13,4.57-4.26,10.1-3.23,15.54l1.88,9.82c2.14,11.22,13.03,18.62,24.25,16.48l5.56-1.06c-4.45-1.05-8.1-4.63-9.02-9.4l-1.08-5.66c-.35-1.79-.29-3.58.17-5.3l-1.65-8.71c-.01-.06,0-.11.01-.15l14.21-19.3,2.11-2.86,11.26-2.15,2.23,1.39,21.1,13.2s.06.08.07.14l1.87,9.81c.01.08,0,.14-.05.21-.01.01-.02.02-.04.02.64,1.12,1.08,2.34,1.33,3.65l1.08,5.65c.9,4.78-1.18,9.46-4.94,12.07l6.22-1.19c11.22-2.14,18.61-13.02,16.48-24.27Z"/><path class="cls-10" d="m640.17,378.53c-1.33.94-2.88,1.62-4.58,1.94l-29.1,5.56c-1.7.32-3.39.27-4.97-.11-4.45-1.05-8.1-4.63-9.02-9.4l-1.08-5.66c-.35-1.79-.29-3.58.17-5.3l.21,1.09c.04.15.18.25.32.23l14.11-2.69,21.56-4.12,14.76-2.82c.06-.01.11-.05.14-.1.64,1.12,1.08,2.34,1.33,3.65l1.08,5.65c.9,4.78-1.18,9.46-4.94,12.07Z"/><path class="cls-9" d="m523.39,139.35s0,.01-.01.01c-.01.02-.02.05-.05.07-.27.44-.56.87-.86,1.3-.31.45-.64.9-.98,1.34-11.31,14.69-32.39,17.42-47.08,6.12l-51.05-39.33,4.06-5.26,15.11-19.64.98,4.08-2.87,10.82,14.34-13.21-2.01,9.57,5.06,3.64,10.33,13.08,6.16,6.57-1.14,10.87,11.71,6.95-4.3-6.95-.96-10.87h13.67l2.51,3-2.51,20.55,4.97-8.6,2.39-9.56v-11h-21.99l-18.68-21.52,7.21-11-9.53-16.33,6.46-8.39,51.05,39.32c13.8,10.64,17.05,29.88,8,44.35Z"/><path class="cls-10" d="m521.5,142.08c.68-.89,1.31-1.8,1.89-2.73-11.68,12.43-31.12,14.21-44.92,3.58l-51.05-39.33-4.05,5.26,51.05,39.33c14.69,11.31,35.77,8.57,47.08-6.11Z"/><polygon class="cls-12" points="589.47 175.26 583.06 189.88 573.44 193.03 569.46 180.97 571.86 174.71 578.69 171.13 578.34 159.52 592.62 162.75 596.82 175.47 589.47 175.26"/><path class="cls-13" d="m1172.5,168.31c2.53.65,4.66,2.24,6,4.49h0c4.61,7.77,2.7,17.75-4.43,23.28l-115.18,89.24c-2.25,1.33-4.88,1.71-7.42,1.06s-4.66-2.24-6-4.49l-24.68-41.63c-1.33-2.25-1.71-4.88-1.07-7.42.65-2.53,2.24-4.66,4.49-6,.21-.13.43-.24.66-.33l140.59-57.37c2.16-1.16,4.65-1.46,7.04-.85Z"/><path class="cls-13" d="m980.5,285.72l14.69,8.78-5.81,22.73,45.37-19.79c2.25-1.33,3.85-3.46,4.5-6s.27-5.17-1.06-7.41l-24.68-41.63c-1.34-2.25-3.46-3.85-6-4.5s-5.17-.27-7.42,1.07c-.21.13-.42.26-.61.42l-17.77,14.46-1.21,31.86Z"/><path class="cls-13" d="m1005.54,94.26h0s.04.01.07.02c3.26.86,4.76,4.63,3.14,7.59l-31.07,56.6c-.85.65-1.94.9-2.99.7-1.04-.2-1.96-.85-2.51-1.77l-18.37-30.97c-.2-.34-.36-.7-.45-1.08-.37-1.68.39-3.28,1.75-4.08l43.96-26.06c1.96-1.16,4.26-1.49,6.47-.93Z"/><path class="cls-13" d="m949.52,125.85c.93.24,1.77.83,2.3,1.72l18.35,30.95c.29.49.49,1.02.54,1.59.15,1.68-.78,3.17-2.21,3.81l-64.56.1c-3.37,0-5.96-3.13-5.15-6.4.53-2.14,1.88-4.08,3.92-5.29l43.96-26.06c.89-.53,1.91-.65,2.84-.41Z"/><path class="cls-21" d="m1122.08,290.21h0c2.61.67,4.8,2.3,6.16,4.61,2.83,4.78,1.23,10.99-3.56,13.83-.14.08-.29.16-.44.22l-43.82,18.68c-1.75.74-3.77.07-4.72-1.57-.93-1.61-.58-3.74.89-4.89l37.41-29.49c.13-.1.27-.2.41-.28,2.33-1.38,5.05-1.77,7.68-1.1Z"/><path class="cls-21" d="m1066.14,328.51c.94.24,1.79.85,2.31,1.74l.04.07c.95,1.62.56,3.68-.91,4.84l-37.41,29.49c-.13.1-.27.2-.41.28-2.33,1.38-5.05,1.77-7.68,1.1s-4.8-2.3-6.16-4.61c-2.83-4.78-1.24-10.98,3.56-13.83.14-.08.29-.16.44-.23l43.82-18.67c.78-.33,1.62-.38,2.4-.18Z"/><path class="cls-3" d="m1006.25,184.64l53.03,81.96,12.51,25.96.16.27c.69,1.16.29,2.7.09,3.32-.5,1.51-1.57,2.9-2.81,3.63l-20.67,12.26c-1.35.8-3.3,1.05-4.96.62-.66-.17-1.86-.6-2.43-1.57l-.16-.27-16.78-23.43-46.46-85.85-25.67-75.75,54.15,58.86Z"/><path class="cls-10" d="m942.16,119.46l28.81,85.03,46.98,86.81,16.86,23.55c2.95,4.98,14.26,11.89,15.71,13.09l13.55,11.19c.08.06.15.12.23.18.46.34,2.92,2.1,6.19,2.93s6.59.48,9.28-1.12c7.06-4.18,5.98-13.41,5.83-14.45-.01-.1-.03-.19-.05-.29l-3.32-17.26c-.35-1.85-.99-15.09-3.95-20.07l-12.57-26.09-53.63-82.87-60.78-66.07c-1.61-2.72-5.19-4.52-7.91-2.91-2.72,1.61-2.86,5.61-1.24,8.34Z"/><path class="cls-9" d="m967.73,157.74l15.38,45.39,46.98,86.81,16.86,23.55c2.13,3.6,8.63,8.2,12.62,10.94,1.85,1.27,4.32,1.17,6.07-.23h0c2.65-2.12,2.53-6.18-.23-8.15-3.81-2.71-8.42-6.3-10.15-9.22l-16.86-23.55-46.98-86.81s-20.57-39.9-23.69-38.73Z"/><path class="cls-13" d="m857.26,328.52c.97-2.27,2.73-4.06,4.97-5.06l97.59-56.98,13.75-8.03-6.1,31.3,13.17,10.94-9.24,21.56-15.43,4.05-77.62,20.37c-3.99,1.05-8.04.66-11.59-.86-4.24-1.81-7.75-5.25-9.58-9.81-.97-2.43-.94-5.09.09-7.49Z"/><path class="cls-17" d="m784.26,86.75s41.26,99.76,44.27,105.97,25.19,73.27,16.96,81.64-102.22,62.88-119.03,33.95c-16.81-28.93,57.81-221.56,57.81-221.56Z"/><path class="cls-11" d="m784.26,86.75s55.62,178.06,50.21,187.66c-5.41,9.6-23.51,4.25-38.1,11.87-3.83,2-10.41,4.99-18.18,8.13-3.88,1.56-8.05,3.17-12.34,4.7-19.82,7.11-41.82,12.77-46.55,6.59-7.82-10.18-42.25-58.64-48.08-110.97-4.39-39.42-12.93-70.27-16.87-83.1-1.15-3.72.71-7.7,4.31-9.2,6.94-2.89,19.1-7.81,34.42-13.35,5.21-1.89,72.84-9.96,81.51-10.69,8.67-.74,9.68,8.36,9.68,8.36Z"/><path class="cls-26" d="m748.38,296.62s-33.38-10.1-27.27-42.11c6.11-32.01-5.59-46.3-1.43-51.18s21.18,7.28,26.22,13.17,12.65,10.11,17.07-1.9,25.09-11.17,27.33-1.13.04,25.49,9.01,23.34c8.97-2.15,16.07,6.06,14.17,11.56s-.45,10.66-11.9,19.3-31.45,27.68-53.19,28.96Z"/><path class="cls-14" d="m665.89,112.8s-15.04-.63-16.51,2.76c-1.47,3.39,10.25,29.96,10.25,29.96,0,0,41.19-.44,44.47-12.33,0,0-6.45-6.19-5.57-8.59s1.22-7.53-2.69-11.69-18.12-.69-29.95-.11Z"/><path class="cls-14" d="m775.67,91.96s14.54-3.91,16.71-.93,6.13,30.31,6.13,30.31c0,0-49.84,9.77-55.65-1.1,0,0,4.93-7.46,3.54-9.61s-2.85-7.08.06-11.99,17.53-4.65,29.2-6.68Z"/><path class="cls-1" d="m671.41,156.65s17.59-9.08,34.51-7.35c16.92,1.73,44.38-9.83,57.68-8.02,13.3,1.82,21.55-10.14,21.55-10.14"/><path class="cls-15" d="m766.06,220.32s14.61,28.54-7.19,40.6c-21.79,12.06-33.94,6.54-31.11-6.67s4.33-17.64.3-32.51,29.02,18.63,38-1.42Z"/><path class="cls-27" d="m233.23,761.53s33.82-34.35,19.62-39.35c-14.2-5-19.96,9.97-31.88-5.6s-13.61,20.41-22.48,15.01c-8.87-5.4-15.43-5.09-23.59-2.05-8.16,3.04,3.29,32.7,15.08,35.71,11.79,3.02,43.25-3.73,43.25-3.73Z"/><path class="cls-27" d="m329.5,985.99c11.24-10.87-9.9-179.51-90.02-224.93,0,0-20.98-16.63-47.8-.42-24.35,14.73-86.42,106-57.74,210.82,5.47,20,22.95,33.65,42.62,33.5,40.94-.3,104.61,27.78,152.95-18.97Z"/><path class="cls-22" d="m200.83,778.94s-47.31,27.73-50.4,94.63c-3.09,66.9,32.1-4.27,37-36.56,4.9-32.29,34.5-65.77,13.4-58.06Z"/></svg>