<?xml version="1.0" encoding="UTF-8"?><svg xmlns="http://www.w3.org/2000/svg" viewBox="0 0 1920 450"><defs><style>.cls-1{fill:#033;}.cls-2{fill:#e7ffc0;}.cls-3{fill:#fff;}.cls-4{fill:#ff5e5a;}.cls-5{fill:#8cc63f;}.cls-6{fill:#adcf53;}.cls-7{fill:#95e000;}.cls-8{fill:#80bd31;}.cls-9{stroke-width:2.29px;}.cls-9,.cls-10{fill:none;stroke:#033;stroke-miterlimit:10;}.cls-10{stroke-width:2.09px;}</style></defs><g id="Warstwa_2"><polyline class="cls-2" points="1920 0 1920 450 0 450 0 0 1662.81 0"/><path class="cls-5" d="m1920,0v450H0v-42.15c.26-.19.51-.37.76-.55,98.92-70.49,202.27-95.75,314.03-106.22,100.68-9.43,301.84-12.32,489.02,19.17,8.36,1.39,16.69,2.87,24.98,4.42,8.24,1.53,16.44,3.14,24.59,4.82,8.11,1.66,16.18,3.41,24.19,5.22,1.85.42,3.69.84,5.53,1.27,65.3,15.14,191.77,33.72,244.73,34.15,1.36,0,2.69.02,4.02.02,48.95,0,83.03-7.21,117.46-25.31,3.51-1.84,7.03-3.8,10.56-5.88,22.8-13.41,46.07-31.55,73.72-55.46,18.52-16.01,39.02-34.62,62.66-56.13,1.04-.94,2.09-1.9,3.15-2.86,1.56-1.41,3.12-2.84,4.7-4.28,17.66-16.05,36.69-33.34,57.62-52.04,3.23-2.89,6.52-5.82,9.85-8.78,1.05-.93,2.11-1.87,3.17-2.82,1.8-1.6,3.61-3.2,5.44-4.82,4.53-4.01,9.14-8.08,13.85-12.21,2.65-2.34,5.34-4.7,8.06-7.07,1.11-.98,2.23-1.96,3.35-2.93.77-.68,1.54-1.35,2.32-2.03,14.34-12.51,29.5-25.58,45.59-39.26,2.13-1.81,4.28-3.63,6.44-5.45,20.45-17.33,42.39-35.61,66.05-54.93,11.91-9.72,24.23-19.02,36.97-27.89h257.19Z"/><path class="cls-6" d="m1920,0v450H44.37c.48-.4.98-.79,1.5-1.19,20.52-15.63,42.43-29.41,65.51-41.51,169.35-88.76,401.7-87.14,611.25-64.69,8.86.95,17.68,1.93,26.45,2.96,8.8,1.01,17.56,2.07,26.26,3.15,8.74,1.09,17.43,2.2,26.06,3.34,8.71,1.14,17.35,2.31,25.92,3.49,8.67,1.2,17.26,2.41,25.78,3.63,140.84,20.26,260.41,43.58,326.81,44.12,96.92.78,141.7-25.65,226.24-100.26,1.73-1.52,3.47-3.07,5.24-4.64,6.85-6.08,13.96-12.47,21.38-19.18,12.85-11.61,26.62-24.17,41.56-37.75,4.02-3.64,8.12-7.37,12.31-11.16,11.15-10.11,22.94-20.74,35.45-31.92,10.61-9.48,21.75-19.35,33.45-29.63,2.1-1.85,4.22-3.7,6.36-5.57,5.07-4.44,10.25-8.96,15.53-13.54,6.74-5.85,13.66-11.81,20.76-17.91,26.46-22.68,55.51-47.08,87.59-73.28C1713.07,36.17,1741.76,16.79,1771.4,0h148.6Z"/><path class="cls-5" d="m1920,128.15v321.85h-624.03c2-6.06,4.49-11.96,7.47-17.67,4.65-8.89,10.45-17.24,17.38-25.03,5.38-6.06,11.44-11.77,18.17-17.11h0c3.06-2.46,6.26-4.82,9.6-7.11,2.64-1.81,5.37-3.57,8.18-5.29,21.45-13.07,44.95-20.43,68.79-24.54,6.59-1.14,13.2-2.04,19.81-2.72,19.53-2.07,38.95-2.42,57.32-2.42,6.49,0,12.99.05,19.29.1,6.34.04,12.33.09,18.36.09.94,0,1.87,0,2.79-.01,1.4,0,2.77,0,4.12-.03h0c3.13-.03,6.14-.08,9.04-.15,3.98-.11,7.76-.25,11.35-.43,4.17-.21,8.08-.47,11.76-.78,3.63-.3,7.02-.64,10.2-1.03,30.34-3.67,41.31-11.01,49.5-18.47,11.72-10.68,23.92-28.61,36.74-48.29,1.53-2.35,3.07-4.73,4.62-7.13.24-.37.48-.74.72-1.11,20.17-31.16,43.04-66.47,74.19-94.64,17.75-16.06,36.08-27.99,56.03-36.47,22.6-9.6,47.17-14.47,73.02-14.47h.01c11.46,0,23.35.96,35.55,2.86Z"/><path class="cls-8" d="m1920,136.95v313.05h-570.12c1.23-4.87,2.89-9.81,5.09-14.75,1.38-3.12,2.98-6.25,4.81-9.36,8.32-14.15,21.47-28.04,41.56-40.29,8.79-5.36,18.07-9.62,27.71-13.01,7.55-2.66,15.33-4.77,23.27-6.46,23.48-4.98,48.37-6.19,73.15-6.38,1.54,0,3.09-.02,4.64-.02,17.52-.06,34.92.31,51.69.11h0c2.01-.02,4-.05,5.99-.09,13.74-.27,26.99-1.01,39.45-2.76,5.5-.77,10.83-1.74,15.99-2.95h0c17.1-4.02,32.22-10.72,44.41-21.82,55.12-50.21,95.09-198.59,232.34-195.27Z"/><path class="cls-3" d="m542.9,0c-14.26,13.7-28.73,24.93-43.51,33.75h-.01c-27.51,16.43-56.06,24.5-86.34,24.5-38.07,0-73.56-12.7-104.86-23.9-25.37-9.07-49.33-17.64-70.3-17.86-.54,0-1.07-.01-1.6-.01-21.35,0-35.56,4.38-50.68,15.6-15.35,11.39-31.22,29.62-55.25,57.22-22.17,25.46-49.75,57.15-89.66,98.31C28.26,200.43,14.67,211.78,0,221.62V0h542.9Z"/></g><g id="Warstwa_1"><circle class="cls-5" cx="1901.92" cy="289.17" r="14.16"/><circle class="cls-5" cx="1877.6" cy="335.34" r="12.76"/><circle class="cls-5" cx="1821.2" cy="411.89" r="12.76"/><circle class="cls-5" cx="1901.92" cy="355.51" r="7.41"/><circle class="cls-5" cx="1844" cy="341.05" r="7.41"/><circle class="cls-5" cx="1812.01" cy="370.77" r="18.1"/><circle class="cls-5" cx="1821.2" cy="322.74" r="15.39"/><circle class="cls-5" cx="1853.08" cy="370.77" r="9.35"/><circle class="cls-5" cx="1908.79" cy="317.13" r="4.98"/><circle class="cls-5" cx="1855.23" cy="413.99" r="4.98"/><circle class="cls-5" cx="1890.37" cy="391.91" r="4.98"/><circle class="cls-5" cx="1793.69" cy="411.89" r="4.98"/><circle class="cls-5" cx="1855.23" cy="292.56" r="13.54"/><circle class="cls-5" cx="392.37" cy="369.88" r="17.48"/><circle class="cls-5" cx="521.97" cy="404.46" r="15.75"/><circle class="cls-5" cx="484.18" cy="359.01" r="15.75"/><circle class="cls-5" cx="556.73" cy="348.47" r="9.15"/><circle class="cls-5" cx="595.87" cy="352.87" r="9.15"/><circle class="cls-5" cx="222.33" cy="411.58" r="22.34"/><circle class="cls-5" cx="282" cy="387.57" r="19"/><circle class="cls-5" cx="564.76" cy="377.74" r="11.55"/><circle class="cls-5" cx="438.12" cy="383.41" r="11.55"/><circle class="cls-5" cx="480.07" cy="395.59" r="6.15"/><circle class="cls-5" cx="371.25" cy="401.31" r="6.15"/><circle class="cls-5" cx="315.02" cy="408.2" r="6.15"/><circle class="cls-5" cx="526.15" cy="367.32" r="6.15"/><circle class="cls-5" cx="433.19" cy="351.89" r="6.15"/><circle class="cls-5" cx="335.92" cy="371.93" r="16.72"/><circle class="cls-3" cx="1100.18" cy="314.95" r="19.36"/><circle class="cls-3" cx="1152.15" cy="266.07" r="17.45"/><circle class="cls-3" cx="1289.05" cy="211.69" r="17.45"/><circle class="cls-3" cx="1040.34" cy="331.31" r="10.13"/><circle class="cls-3" cx="1198.13" cy="273.62" r="10.13"/><circle class="cls-3" cx="1282.64" cy="268.92" r="24.74"/><circle class="cls-3" cx="1229.97" cy="312.79" r="21.04"/><circle class="cls-3" cx="1208.93" cy="231.84" r="12.79"/><circle class="cls-3" cx="1065.43" cy="288.69" r="12.79"/><circle class="cls-3" cx="1289.96" cy="171.67" r="6.81"/><circle class="cls-3" cx="1103.74" cy="275.74" r="6.81"/><circle class="cls-3" cx="1247.32" cy="243.95" r="6.81"/><circle class="cls-3" cx="1244.2" cy="197.95" r="6.81"/><circle class="cls-3" cx="1324.61" cy="223.92" r="6.81"/><circle class="cls-3" cx="1162.05" cy="331.31" r="18.51"/><path class="cls-1" d="m563.8-.09c-7.73,20.37-27.35,33.97-49.25,33.97-5.06,0-10.06-.72-14.86-2.14l-.16-.04c-15.73-4.66-28.41-16.49-34.24-31.79h-2.24c5.94,16.32,19.36,28.95,36.03,33.84l.15.04c4.95,1.45,10.1,2.18,15.31,2.18,23.04,0,43.64-14.47,51.48-36.06h-2.23Z"/><circle class="cls-9" cx="1831.91" cy="130.67" r="22.69"/><polygon class="cls-1" points="1751.78 -.02 1730.27 21.49 1731.75 22.97 1754.74 -.02 1751.78 -.02"/><polygon class="cls-1" points="1722.38 -.02 1700.86 21.49 1702.34 22.97 1725.33 -.02 1722.38 -.02"/><polygon class="cls-1" points="1692.97 -.02 1671.46 21.49 1672.94 22.97 1695.92 -.02 1692.97 -.02"/><polygon class="cls-1" points="1663.56 -.02 1642.05 21.49 1643.53 22.97 1666.51 -.02 1663.56 -.02"/><polygon class="cls-1" points="1634.16 -.02 1612.65 21.49 1614.12 22.97 1637.11 -.02 1634.16 -.02"/><polygon class="cls-1" points="1604.75 -.02 1583.24 21.49 1584.72 22.97 1607.7 -.02 1604.75 -.02"/><line class="cls-10" x1="894.54" y1="317.73" x2="850.08" y2="362.19"/><line class="cls-10" x1="865.14" y1="317.73" x2="820.68" y2="362.19"/><line class="cls-10" x1="835.73" y1="317.73" x2="791.27" y2="362.19"/><line class="cls-10" x1="806.32" y1="317.73" x2="761.86" y2="362.19"/><line class="cls-10" x1="776.92" y1="317.73" x2="732.46" y2="362.19"/><line class="cls-10" x1="747.51" y1="317.73" x2="703.05" y2="362.19"/><rect class="cls-1" x="64.83" y="44.86" width="62.88" height="2.09" transform="translate(-4.26 81.52) rotate(-45)"/><rect class="cls-1" x="35.43" y="44.86" width="62.88" height="2.09" transform="translate(-12.88 60.73) rotate(-45)"/><rect class="cls-1" x="6.02" y="44.86" width="62.88" height="2.09" transform="translate(-21.49 39.93) rotate(-45)"/><polygon class="cls-1" points="-.02 55.46 31.02 24.41 29.54 22.94 -.02 52.5 -.02 55.46"/><circle class="cls-10" cx="1363.45" cy="74.91" r="53.75"/><rect class="cls-3" x="0" y="407.3" width="1920" height="42.7"/><path class="cls-3" d="m1298.92,402.85c2.99,4.72,6.54,10.55,3.15,16.99-3.54,6.7-11.29,6.98-15.93,7.15-.12,0-.24,0-.36,0-2.41,0-4.74-.87-6.55-2.45-.58,1.92-1.7,3.66-3.3,4.94.14,2.19-.49,3.98-1.07,5.14-.87,1.74-2.19,3.15-3.8,4.13-1.61.97-3.49,1.51-5.49,1.51-.83,0-1.69-.09-2.61-.28-3.73-.77-6.71-3.59-7.67-7.28-.09-.31-.26-.77-.45-1.29-1.61-4.51-4.04-11.33.46-16.95.5-.62,1.06-1.16,1.66-1.63-1.41-1.14-2.84-2.3-4.14-3.43-1.09-.95-1.96-2.13-2.55-3.45l-.13-.27c-1.15-2.57-1.82-3.87-2.16-4.49-.9-.91-1.62-1.98-2.12-3.18-1.31-3.16-3.51-8.43-.14-13.49.69-1.03,2.33-3.04,5.25-4.07.92-4.62,4.23-8.19,9.89-10.67.21-.84.53-1.66.97-2.43,1.64-2.94,4.65-4.86,8-5.1.4-.03.76-.04,1.08-.04.44,0,.86.02,1.27.06.39-.04.76-.06,1.13-.06.42,0,.84.03,1.26.07,4.02.45,7.37,3.26,8.5,7.15.29.98.92,2.71,1.54,4.39.66,1.82,1.24,3.44,1.73,4.9.02.01.03.02.05.03,2.92,1.49,6.22,4.67,6.46,11.48v.18c.08,1.85-.35,3.69-1.25,5.3-.31.55-.64,1.04-1,1.49,3.58.58,6.57,2.58,8.32,5.64Z"/><path class="cls-3" d="m1286.64,173.8c-1.79-4.27-.43-7.79.35-9.25,1.83-3.45,5.46-5.6,9.47-5.6,1.01,0,1.95.13,2.81.33,4.27.21,8.19,2.75,10.82,7.04,2.39,3.89,1.83,8.91-1.35,12.19-2.05,2.11-4.87,3.27-7.93,3.27-1.31,0-2.45-.2-3.31-.39-.21.01-.44.02-.67.02-3.03,0-5.8-1.2-7.81-3.37-1.12-1.22-1.93-2.66-2.38-4.24Z"/><path class="cls-3" d="m1684.26,266.06c1.48,3.86,1.12,7.85-1,10.94-.66.96-1.48,1.78-2.39,2.47-.14.49-.3.96-.47,1.4.95,2.78.84,5.77-.43,8.46-1.46,3.06-4.16,5.2-7.46,6.04-.32.82-.74,1.6-1.27,2.33-2.13,2.88-5.38,4.54-8.93,4.54-4.47,0-7.54-2.6-9.02-3.85l-.19-.16c-2.44-1.77-3.9-4.51-4.09-7.42-.85,1.95-2.34,3.84-4.67,5.11-.44.78-.98,1.48-1.6,2.1-2.29,4.31-6.48,5.91-9.84,5.91h-.01c-.8,0-1.62-.09-2.45-.25-3.04-.59-5.64-2.55-7.03-5.32l-.71-1.4c-2.02-3.96-3.92-7.71-1.1-13.79-.05-2.59.62-5.26,2.02-7.66.29-.51.61-.98.95-1.44-2.88-2.61-4.03-6.73-2.77-10.55,1.94-5.88,5.23-8.28,8.09-9.2.1-2.18.73-4.5,2.22-6.59.46-.65,1.01-1.24,1.59-1.77-3.62-3.15-4.98-8.41-3.37-13.44,1.51-4.71,5.49-7.76,10.14-7.76,3.14,0,6.53,1.49,8.63,4.72.47.52.88,1.1,1.23,1.7,4.61,2.42,6.98,7.18,5.91,12.07-.24,1.08-.65,2.09-1.19,3.02,1.22.44,2.34,1.12,3.32,2.01.52-.14,1.08-.26,1.7-.33,1.31-.61,2.73-.92,4.17-.92,1.12,0,2.25.19,3.34.58,5.52,1.96,9.47,6.45,10.93,12.02.05.05.09.12.13.17,2.15,1.39,3.69,3.13,3.89,3.37.74.86,1.32,1.84,1.73,2.89Z"/><path class="cls-3" d="m1907.62,337.5c-1.66,2.11-4.09,3.46-6.76,3.76-3.89.43-11.03,1.85-15.08,6.54-2.49,2.87-3.21,7.54-1.51,9.78,3.29,4.33,2.51,10.48-1.73,13.86-11.53,9.19-23.74,17.76-36.28,25.48-1.6.98-3.41,1.48-5.24,1.48-1.03,0-2.07-.16-3.07-.48-2.68-.86-4.87-2.82-6.03-5.37-.52,1.77-1.25,3.25-2.03,4.47-2.83,4.41-7.01,6.47-9.78,7.83-.83.41-1.96.96-2.32,1.26-1.01.83-1.64,5-2.06,7.75-.95,6.22-2.25,14.74-9.45,20.39-2.87,2.26-6.13,3.45-9.42,3.45-.5,0-1-.03-1.49-.08-7.86-.89-11.32-7.78-12.62-10.38-3.83-7.62-9.99-14.6-15.95-21.35l-14.53-16.45c-1.59-1.81-2.48-4.12-2.51-6.51-.49-.8-1.98-2.3-3-3.32-2.43-2.45-5.46-5.5-7.39-9.66-1.36-2.92-1.88-5.75-2.29-8.01-.13-.68-.25-1.36-.4-2.03-1.08-4.64-4.28-9.26-7.68-14.15-1.37-1.98-2.79-4.02-4.14-6.17-8.08-12.84-9.63-25.41-4.37-35.39,1.59-3.01,4.59-5,7.97-5.3.3-.03.59-.04.88-.04,3.07,0,5.99,1.41,7.89,3.86.32.4,1.22.84,2.46.84s2.28-.47,2.61-.93c.32-.45.45-1.51.09-2.69-.37-1.17-1.09-1.97-1.61-2.15-4.95-1.75-7.7-7.02-6.31-12.08.01-.05.03-.11.04-.16-.51.08-1.03.12-1.56.12-1.69,0-3.39-.43-4.93-1.3-5.08-2.88-9.07-7.33-11.48-12.55-.35-.15-.69-.33-1.02-.53-2.87-1.74-4.68-4.81-4.81-8.17-.2-5.15-1.74-10.19-4.45-14.57-1.35-2.2-1.79-4.8-1.29-7.27-2.7-1.28-5.34-2.97-7.69-5.34-1.14-1.14-2.12-2.39-2.95-3.7-5.39-1.1-10.63-4.43-14.8-9.51-1.17-1.42-2.18-2.83-3.14-4.2-.95.2-1.91.31-2.89.31-1.51,0-2.99-.26-4.4-.76-5.46-1.93-8.32-6.33-10.03-8.96-.22-.35-.45-.7-.68-1.04-1.96-2.85-4.72-3.88-9.83-5.58-4.31-1.43-9.19-3.06-13.96-6.62-.72-.53-1.38-1.08-1.98-1.65-.49.04-.98.07-1.47.07-3.02,0-5.9-.82-8.34-2.29l-25.91-.12c-3.28,0-6.94.1-8.91,1.3-.42.26-.66,1.51-.55,2.86.19,2.22-.39,4.37-1.54,6.18,1.42,1.34,2.47,3.07,2.92,5.04.85,3.71.07,7.43-2.15,10.22-1,1.26-2.26,2.26-3.67,2.98-.18.25-.35.51-.55.75-2.03,2.5-5.04,3.94-8.26,3.94-1.68,0-3.3-.39-4.77-1.11-2.97-.69-5.52-2.56-7.1-5.29-.94-1.64-1.43-3.46-1.52-5.31-.62.11-1.24.18-1.89.18-.38,0-.76-.02-1.12-.06-.66.35-1.36.62-2.09.81.02.74.07,1.55.11,2.2.06.95.12,1.9.14,2.82,0,.16.02.22.02.22.02.1.05.2.08.29.28.99.46,1.92.55,2.82,2.05.59,3.94,1.85,5.3,3.71.47.65.84,1.33,1.13,2.04,1.63-.54,2.98-.59,3.33-.59,3.66,0,6.19,1.93,7.03,2.56,1.38,1.05,2.46,2.44,3.14,4.03.85,1.99,2.85,6.66-.28,11.39-.94,1.43-2.2,2.57-3.67,3.35-1.46.78-3.11,1.21-4.84,1.21-.3,0-.59-.01-.86-.03-.52.08-1.04.12-1.57.12-2,0-4.01-.6-5.74-1.81-1.9-1.33-3.2-3.24-3.83-5.36l-36.22,26.83c-10.85,8.05-31.04,23.03-49.21,23.03-3.04,0-5.91-.4-8.6-1.2-3.89,3.32-4.98,4.9-5.26,5.39.02.36.09,1.01.14,1.51.25,2.23.58,5.25,0,9.28.52.93.91,1.84,1.2,2.64,1.83.7,3.71,1.59,5.39,2.59,10,2.23,13.46,12.81,15.03,17.6,0,0,.35,1.06.37,1.12,1.76,1.95,6.5,5.6,8.39,7.05,1.45,1.12,2.54,1.96,3.38,2.69,4.43,3.51,12.83,12.35,19.63,21.52,10.72,14.46,14.46,25.15,11.76,33.64-1.04,3.27-4.7,10.74-16.53,11.86-.05.02-8.26,3.12-8.26,3.12-1.13.43-2.33.65-3.54.65-.5,0-1.01-.04-1.51-.11-.2-.02-.65-.04-1.33-.04-1.34,0-2.51.08-3.23.16-1.35.64-2.82.96-4.29.96-1.56,0-3.13-.36-4.57-1.11-.72.23-1.45.45-2.22.67-.52.15-1.26.37-2.02.61.34,1.39.49,2.86.3,4.36-.4,3.17-2.14,5.96-4.8,7.66-1.25.79-2.65,1.3-4.11,1.49-.84,1.26-1.97,2.33-3.31,3.11-.36.86-.85,1.67-1.45,2.41-1.83,2.26-4.55,3.62-7.45,3.71-9.61.3-26.45,2.2-36.9,4.74-.77.19-1.57.28-2.36.28-.28,0-.55-.01-.83-.03h-.2c-.69,0-1.83.05-3.02.1-1.73.07-3.68.16-5.56.16-1.3,0-2.46-.05-3.51-.14-1,.29-2.05.44-3.12.44-2.84,0-5.47-1.03-7.52-2.84-2.96-.3-7.7-1.06-11.17-5.34-2.53-3.12-3.54-7.09-2.99-11.81.33-2.88,1.23-5.24,1.96-7.14.32-.84.71-1.88.78-2.33.17-1.2-1.31-4.07-2.5-6.38-1.26-2.44-2.68-5.21-3.66-8.35-.33-1.07-.58-2.12-.8-3.16-2.62,1.62-5.48,2.61-7.9,2.76-.21.02-.42.02-.64.02-1.15,0-2.3-.2-3.39-.59-.82.58-1.65,1.09-2.47,1.54-1.55,1.77-3.69,3.72-6.81,4.41-.71.15-1.42.23-2.14.23-.4,0-.79-.03-1.18-.07-.42-.05-.84-.11-1.27-.17-.33-.05-.71-.1-1.02-.13-1.03.45-2.14.73-3.27.82-.33.03-.64.04-.93.04-4.81,0-8.88-3.06-10.11-7.61-1.34-4.91,1.12-8.94,3.73-11.63-2.49-.88-4.66-2.07-6.54-3.11-1.34-.74-3.17-1.76-3.92-1.87-5.6-.8-10.74-2.45-15.72-4.04-1.61-.51-3.22-1.03-4.82-1.5-4.07-1.21-6.98-3.3-8.69-6.23-1.21-.62-2.29-1.49-3.17-2.57-4.28-5.25-6.7-11.85-6.89-18.58-1.95-3.26-3.27-6.85-3.93-10.56-.14-.16-.28-.31-.41-.48l-9.06-11.25c-1.31-1.63-4.39-5.45-4.08-10.91.01-.11.01-.21.02-.32-.71.07-1.43.11-2.15.11-7.18,0-13.78-3.31-19.61-6.23-2.83-1.41-5.75-2.87-7.58-3.31-2.3-.55-4.56-.84-6.52-.84-2.12,0-4.98.33-6.54,1.9-1.92,1.94-4.49,2.96-7.1,2.96-1.41,0-2.83-.3-4.17-.91-.73-.34-1.44-.72-2.13-1.12-.59.71-1.28,1.35-2.07,1.89-1.71,1.16-3.67,1.73-5.61,1.73h-.07c-.43,2.59-1.5,4.54-2.53,5.87-3.76,4.92-9.76,5.55-12.32,5.81-.35.04-.69.06-1.04.06-2.48,0-4.9-.93-6.75-2.62-2.11-1.93-3.29-4.68-3.25-7.54.04-2.6,1.06-5.73,2.83-8.54-3.06-.93-6.72-3.05-9.59-7.75-.17,0-.35.01-.52.01-6.7,0-13.07-1.72-18.69-3.24-2.1-.57-4.08-1.1-6.01-1.54-1.66-.38-3.4-.57-5.18-.57-5.54,0-10.68,1.91-12.78,4.74-.47.63-1.88,2.53-.58,7.02.63,1.72,1.72,4.93,1.73,4.97,1.85,5.49,2.87,8.51,1.22,12.38-.53,1.23-1.31,2.34-2.26,3.26-2.9,6.46-7.55,7.83-10.95,7.83-3.72,0-6.61-1.75-8.45-3.07-3.67-2.62-5.12-7.35-3.59-11.56.21-.84.55-3.1.81-5.34-.55-1.3-1.6-3.38-2.16-4.5-.74-1.48-1.32-2.64-1.74-3.65l-.36-.91c-1.64-4.06-2.56-6.05-3.93-6.66-.36-.17-.75-.33-1.15-.5-2.17-.94-4.88-2.11-7.25-3.97-4.94-3.88-6.75-9.73-4.73-15.28,1.68-4.59,5.4-6.88,6.99-7.86l16-9.82c1.76-1.08,3.58-2.2,4.41-3.19,1.05-1.26,1.53-3.72,1.3-6.6-.33-1.46-2.49-5.33-3.94-7.9-4.83-8.61-11.43-20.38-3.52-29.48-.25-4.07,1.99-7.89,5.68-9.65l12.41-5.91c-5.48-3.89-11.37-7.18-17.58-9.81-3.55-1.51-5.92-4.93-6.09-8.78-.29-6.72-.78-13.62-1.25-20.29-.54-7.6-1.1-15.47-1.38-23.29-.02-.58-.06-1.16-.1-1.75-.3-4.82-.85-13.79,7.38-19.66.94-.67,1.94-1.2,2.97-1.63-.51-4.92,1.02-8.66,2.9-11.31,3.05-4.29,7.97-6.75,13.51-6.75s11.21,2.34,15.42,6.27c1.77,1.65,3.25,3.39,4.56,4.93.63.75,1.28,1.51,1.9,2.17.29-.55.63-1.08,1.03-1.58.82-1.03,1.81-1.86,2.91-2.49.93-1.96,2.5-3.61,4.54-4.64,1.43-.72,2.97-1.07,4.49-1.07,2.7,0,5.36,1.09,7.3,3.16,6.99,7.46,15.45,13.76,24.6,18.39,2.48-1.42,5.61-2.65,9.12-2.65.89,0,1.78.08,2.64.24,2.42.43,4.59,1.73,6.11,3.66,1.7,2.16,4.07,5.19,5.47,8.72.1.04.2.07.29.11.48-.07.95-.1,1.44-.1s.97.03,1.45.1c3.51.52,6.12,2.61,8.81,5.18,3.18,1.46,7.78,4.08,10.06,9.02,1.55,3.34,1.1,7.23-1.06,10.15.56.27,1.12.59,1.66.97.47.33.91.69,1.31,1.09,1.19.7,2.39,1.71,3.46,3.14.09.06.17.13.26.2.77-1.74,2.03-3.27,3.7-4.36,1.66-1.08,3.56-1.61,5.45-1.61,2.17,0,4.34.71,6.14,2.11l10.96,8.52c1.34,1.05,2.35,2.37,3,3.83.46.97,1.38,2.7,1.91,3.54.98.83,2.38,1.7,3.84,2.62,2.37,1.49,5.05,3.18,7.56,5.57,1.38,1.32,2.5,2.97,4.52,6.03.76,1.15,2.05,3.11,2.87,4.19,1.04.7,1.96,1.59,2.7,2.65l.11.16c6.35,9.21,9.09,12.43,14.87,12.43h.1c1.67,0,3.13.34,4.81.74.47.11,1.17.27,1.78.4.03,0,.06-.02.09-.02,1.06-.24,2.19-.35,3.34-.35,3.18,0,6.45.88,9.22,2.42.49.01.99.02,1.5.02,5.19,0,10.73-.75,16.61-1.55,4.8-.65,9.73-1.31,14.62-1.56,4.09-2.51,8.97-4.16,13.73-5.76,3.17-1.07,6.44-2.17,8.23-3.18.05-.03.1-.05.15-.08,3.79-2.05,7.63-2.05,9.48-2.05h.33c3.48-4.36,7.6-8.87,11.69-12.75.86-.82,1.86-1.48,2.96-1.95,2.63-1.12,5.55-3.02,8.65-5.04,3.58-2.33,7.28-4.73,11.37-6.52,6.21-2.95,18.59-7.26,24.82-9.08.76-.22,1.55-.36,2.34-.39l.47-.02c11.94-.55,15.72-1.78,16.91-2.5,1.73-1.61,3.97-2.55,6.33-2.66,5.53-.27,12.45-2.56,15.43-7.09.17-.26.36-.5.55-.75,1.42-1.78,3.24-3.22,5-4.61.74-.58,1.86-1.47,2.52-2.09,1.7-4.84,7.49-12.48,15.85-12.48.8,0,1.59.07,2.37.22h.03c2.23-2.64,5.5-4.17,9.11-4.17,1.07,0,1.99.13,2.67.25.34-.04.68-.06,1.02-.06.32,0,.65.02.97.05.72-.74,1.39-1.36,1.92-1.85l.59-.54c3.43-3.16,6.18-5.7,8.83-8.77-.19-1.25-.15-2.55.16-3.83.52-2.14,1.64-4.02,3.21-5.45,3.64-4.1,8.24-7.3,13.36-9.27,2.93-1.12,5.78-1.7,8.49-1.7s5.16.54,7.44,1.6c2.09.97,3.94,2.43,5.41,4.21,1.21-.1,2.45-.15,3.73-.15,6.79,0,13.28,1.4,19.55,2.75,2.26.49,4.39.95,6.48,1.33,5.01.91,10.16,1.38,15.3,1.38,7.87,0,15.67-1.08,23.17-3.19.9-.25,1.81-.37,2.71-.37,2.75,0,5.42,1.13,7.34,3.21,2.55,2.75,3.34,6.71,2.05,10.23-.79,2.14-1.94,3.85-3.28,5.23,3.41.29,6.67.35,9.52.35,3.51,0,7-.1,10.71-.21,3.69-.11,7.51-.23,11.33-.23,9.29,0,16.42.7,23.12,2.26,9.23,2.16,17.52,6.02,25.53,9.75,2.83,1.31,5.5,2.56,8.21,3.73,3.59,1.55,7.28,3.03,11.19,4.59,15.11,6.03,31.73,12.67,43.26,24.91,1.63.06,3.26.51,4.72,1.36,9.39,5.47,14.13,14.49,18.32,22.45,2.9,5.51,5.63,10.71,9.38,13.76,1.46,1.19,3.4,2.31,5.45,3.5,3.92,2.27,8.35,4.84,12,9.18,1.84,2.18,3.12,4.4,4.26,6.36.78,1.35,1.52,2.63,2.22,3.47,1.33,1.61,3.66,2.65,5.94,2.65.67,0,1.3-.09,1.89-.26.95-.28,1.91-.42,2.86-.42,3.37,0,6.6,1.72,8.47,4.69,2.38,3.81,1.94,8.74-1.09,12.06-3.8,4.16-6.93,8.92-9.26,14.05,3.24,2.85,6.46,7.51,8.97,15.09,2.77,8.35,7.95,16.16,13.45,24.44,7.87,11.86,16.01,24.13,17.98,39.5.34,2.66-.4,5.34-2.06,7.45Z"/><path class="cls-7" d="m1899.76,331.32c-8.05.89-16.25,3.81-21.54,9.94-5.3,6.12-6.8,15.92-1.91,22.37-11.25,8.96-23.04,17.24-35.29,24.78-3.25-7.79-7.49-15.16-12.58-21.89-1.02-1.34-2.16-2.73-3.75-3.27-3.62-1.23-7.2,2.8-7.29,6.62s2,7.3,3.56,10.78,2.57,7.76.51,10.98c-2.2,3.43-6.88,4.17-10.03,6.76-7.98,6.56-3.21,21.62-11.34,28-1.04.81-2.32,1.44-3.63,1.29-2.38-.27-3.71-2.78-4.79-4.91-4.38-8.73-10.93-16.17-17.4-23.49-4.84-5.48-9.69-10.97-14.53-16.45.25-6.99-8.38-10.73-11.33-17.08-1.17-2.53-1.39-5.38-2.02-8.09-2.04-8.75-8.31-15.78-13.09-23.38-4.79-7.6-8.18-17.45-3.98-25.4,5,6.43,16.31,6.22,21.07-.39s1.38-17.4-6.3-20.11c3.57.71,7.33-2.69,6.97-6.31,1.19,4.49,8.53,2.08,10.34-2.2s1.74-9.74,5.42-12.57c5.2,5.75,10.41,11.5,15.61,17.26,3.46,3.82,7.6,7.95,12.76,7.81-.89-1.65-1.77-3.3-2.66-4.95,10.48,3.99,19.76,11.07,26.38,20.13-1.23-7.62-8.42-12.76-15.43-16-7.01-3.23-14.78-5.68-19.91-11.46-8.2-9.25-7.01-24.05-14.78-33.66,2.42,5.89,3.83,12.2,4.13,18.56-1.81-3.26-5.21-6.77-8.68-5.38-2.66,1.06-3.47,4.34-4.99,6.76s-5.82,3.75-6.8,1.06c.73-2.64,3.64-4.47,6.34-4-.36-4.05-1.39-8.05-3.05-11.76,1.58,3.55.08,10.02-4.23,7.68,1.13-1.68,1.61-4.23.07-5.84-.33,3.26-2.48,6.28-5.45,7.67-.99-1.72-1.98-3.43-2.98-5.15-1.04,3.52-3.83,6.47-7.28,7.7-1.09-5.41-2.69-10.71-4.76-15.82-1.58,4.64.95,9.55,2.82,14.09s2.78,10.54-.98,13.69c-5.16-2.93-8.65-8.59-8.95-14.51-1.1.52-2.2,1.05-3.3,1.57-.26-6.85-2.33-13.62-5.93-19.44l4.1-.48c-1.28-2.49-2-5.26-2.11-8.06-4.48-1.16-9.13-2.57-12.39-5.86-3.26-3.28-4.52-9.01-1.53-12.53-1.8,1.22-2.57,3.75-1.76,5.77-5,1.84-10.44-1.63-13.83-5.74s-5.86-9.14-10.21-12.21c1.85,2.23-1.87,5.46-4.6,4.49s-4.17-3.85-5.81-6.24c-6.66-9.7-17.5-8.18-26.06-14.55-1.12-.84-2.17-1.86-2.65-3.17-.79-2.19.18-4.58.3-6.91s-1.51-5.23-3.77-4.65c3.2-.81,6.04-2.96,7.69-5.82,3.24,1.26,7.3-.22,8.96-3.27-2.25,1.94-5.42,2.75-8.32,2.13-3.37,2.34-6.73,4.69-10.1,7.03,3.53.99,5.26,5.87,3.13,8.86s-7.3,2.97-9.4-.04c-9.45-.05-18.91-.09-28.36-.14-5.25-.03-10.81.03-15.29,2.77-4.42,2.7-5.68,7.71-5.3,12.23-1.78-1.33-3.23-3.03-4.39-4.95,0,0-.73-2.43-.73-2.43-.95.19-.89-.16-.73.81.03.84,1.12,1.15.73,2.02-2.01-.76.3,2.92.08,3.48-.43,7.89-7.58.86-14,5.42,2.14,4-.45,1.93-2.59,1.05-1.41,1.3-1.73-.37-3.16-.32,1.59,5.3-.21.79-3.64,3.56-4.5,3.62-3.22,9.22-3.08,14.13.11,4.24,1.95,3.31-.75,7.97-1.91,3.31-6.32,5.88-9.81,7.07,6.02,2.31,13.18,1.38,18.41-2.38-4.4,3.26-8.8,6.52-13.2,9.78-2.15,1.59-4.31,3.19-6.46,4.78-.93.69-1.86,1.38-2.79,2.07-5.63,4.17-11.26,8.34-16.89,12.51-12.07,8.94-39.87,30.15-55.37,18.15.88,1.99-1.62,3.13-2.92,3.97-16.53,13.75-5.9,13.45-10.6,27.85,3.78.69,2.55,5.73,5.1,7.69,2.45.36,6.92,2.28,8.82,3.89,6.03.14,7.97,7.43,9.55,12.14-.05,3.71,12.54,12.24,14.9,14.41,8.32,6.38,45.98,48.44,19.1,49.46,0,0-9.63,3.64-9.63,3.64-1.55-.3-9.36-.24-10.36.97-1.71-1.29-5.36-.93-6.64-2.83-1.43.31-5.05,1.4-6.56,1.86-.51,1.86,2.27.4,3.24.4.9-.69,2.65-1.62,3.32-.41-4.27,1.6-14.82,3.15-14,9.55.44.47,3.05,4.47,1.94,5.18-2.72.15-6.91.94-7.04,4.37-2.08.93-4.73,1.9-4.21,4.78-10.5.33-27.94,2.35-38.94,5.02-2.58-.25-12.35.88-14.73-.41-.61,1.08-2.19,1.39-2.84,0-1.76-3.74-11.46,1.07-10.42-7.91.37-3.17,2.24-6.01,2.7-9.17,1-6.77-4.47-12.63-6.5-19.16-1.99-6.39-.95-14.19-5.7-18.91-1.55-1.54-3.59-2.56-4.95-4.27s-1.69-4.61.12-5.82c-.45-5.96-8.14-8.47-7.43-13.85.4-3.03,3.8-5.38,6.69-4.42-3.01-1.38-4.61-4.6-5.07-7.61-3.11,0-2.64,1.93-4.97,3.31-.72.43-1.63.35-2.46.26-3.27-.36-6.54-.71-9.82-1.07,4.2,5.32,2.16,14.32-3.92,17.31.26-1.61-1.68-3.12-3.18-2.47,1.18,1.1,2.03,2.56,2.4,4.13-.72.4-1.44.8-2.16,1.2,1.3,1.46,3.68,1.8,5.34.77-4.07,2.54,4.79,12.91-6.44,12.08-5.32-.4-9.92-5.32-15.26-6.08-6.5-.93-12.85-3.38-19.13-5.23-1.27-.38-2.72-.93-3.11-2.19-.6-1.98,1.83-3.43,3.79-4.08-2.11-1.97-5.94-1.6-7.63.75-3.43-4.21-5.1-9.81-4.54-15.22-3.86-4.85-5.38-11.49-4-17.54-.88,1.06-1.76,2.12-2.64,3.19-3.02-3.75-6.04-7.5-9.06-11.25-.96-1.19-1.98-2.54-1.89-4.07s2-2.91,3.18-1.93c-2.47-4.08-4.93-8.16-7.4-12.24-9.04,9.43-22.93-3.53-32.77-5.87-7.73-1.84-16.88-1.89-22.48,3.75-7.32-3.36-11.55-12.32-9.5-20.1-3.05,2.84-7.9.35-12.07.27-3.61-.07-6.93,1.8-10.41,2.74s-7.95.53-9.66-2.65c-1.94,1.33-2.37,4.41-.87,6.22-9.1,1.65-18.19-2.08-27.21-4.12-15.79-3.58-36.13,4.7-30.25,24.09.11.26,3.65,10.13,3.24,10.28-3.13,2.06-1.62,7.38-6.64,3.8.7-1.73,1.35-7.4,1.54-9.37s-3.87-9.13-4.75-11.31c-2.1-5.16-3.96-10.45-9.45-12.92-3.62-1.63-9.2-3.48-7.84-7.21.46-1.26,1.68-2.05,2.82-2.76,5.33-3.27,10.67-6.55,16-9.82,2.47-1.52,4.99-3.08,6.85-5.31,3.17-3.79,4.01-9.07,3.58-13.99-.69-7.88-15.41-23.71-9.76-29.94,1.02-1.13,2.41-1.93,3.2-3.23s.59-3.42-.87-3.85c5.79-2.76,11.58-5.51,17.37-8.27,2.52-1.2,5.44-3.02,5.33-5.81-.08-1.96-1.67-3.47-3.19-4.71-7.58-6.21-16.06-11.34-25.08-15.16-.62-14.51-2.11-29.01-2.63-43.51-.17-4.69-1.23-9.82,3.1-12.91,2.21-1.58,8.17-1.62,10.81-2.24-2.66-3.92-5.34-9.19-2.6-13.05,3.07-4.32,10.09-2.56,13.96,1.05,3.88,3.61,6.62,8.65,11.42,10.89,4.8,2.24,12.39-1.44,10.7-6.47,1.67.16,3.34.32,5.01.49-.3-1.64-.59-3.27-.89-4.91,8.75,9.34,19.36,16.93,31.01,22.22-3.7,4.7-4.19,11.69-1.18,16.85-1.73,1.09-3.47,2.18-5.2,3.27,6.98,3.69,5.67,13.66,16.37,10.77,3.1-.84,6.27-2.27,9.4-1.51s5.31,5.26,2.75,7.2c-3.19-1.87-8.05-3.38-9.94-.2-.86,1.46-.59,3.29-.28,4.96.76,4.16,1.52,8.32,2.28,12.48.21,1.14.46,2.36,1.28,3.18,1.55,1.56,4.14.89,6.32,1.14,5.79.66,9.1,8.07,14.91,8.5,2.87.21,5.62-1.4,8.49-1.27,2.65.12,5.17,1.72,7.8,1.36,3.08-.42,5.31-3.41,8.38-3.95,3.24-.57,6.21,1.7,9.24,2.98s7.66.77,8.19-2.48c.34-2.09-1.31-3.92-2.83-5.39-6.09-5.89-12.19-11.78-18.28-17.68,2.44-.54,4.89-1.09,7.33-1.63-1.96-1.19-3.43-3.17-3.98-5.4,3.65,2.84,7.31,5.69,10.96,8.53-.03-.02,2.48,5.14,3.73,6.33,3.45,3.29,8.29,5.19,11.82,8.56,1.67,1.59,7.07,11.32,8.76,11.32,6.24,9.05,11.65,16.98,23.37,16.9,1.39,0,7.59,2.17,8.74.89,2.22-.48,5.45.53,7.04,2.11,12.71,1.18,26.94-2.88,39.42-3,5.33-4.52,17.32-6.61,23.56-10.12,3.11-1.68,7.3-.06,10.52-1.54,3.79-5.18,8.67-10.59,13.12-14.81,6.81-2.91,13.44-8.72,20.24-11.66,5.55-2.66,17.53-6.85,23.48-8.58,5.69-.26,19.22-.77,23.72-5.18,8.69-.41,18.38-4.08,23.32-11.58,2.03-2.54,8.74-6.12,9.15-9.63.81-2.34,4.08-6.28,6.96-5.75,1.37,3.13-1.6,12.36,5.34,8.99,1.65-2.67-.03-9.28,4.61-4.78-1.93-5.46,2.74-3.22-.73-7.2,1.13-2.07,3.5-.18,5.42-.81,3.33.46,5.02,4.62,6.56,7.12-3.48-5.67-.19-8.52,3.31-11.75,5.16-4.76,9.27-8.5,13.67-14.58.65-.9,1.33-1.96,1.05-3.03s-2.14-1.45-2.39-.38c2.7-3.45,6.35-6.14,10.44-7.72,2.6-1,5.6-1.53,8.12-.36s4.11,4.58,2.57,6.9c11.03-4.39,23.34-.13,35.02,2,14.23,2.6,29.05,1.9,42.97-2.02-2.21,6.02-14.68,3.63-14.97,10.03-.15,3.19,3.39,5.17,6.46,6.09,21.53,6.46,45.14-.65,67.03,4.46,11.23,2.62,21.46,8.34,32.04,12.92,22.1,9.56,48.89,16.63,58.83,38.56-.24-2.75-.48-5.49-.72-8.24,12.85,7.49,14.89,25.93,26.42,35.33,5.12,4.17,11.87,6.32,16.12,11.37,2.51,2.98,3.93,6.75,6.42,9.76,4.33,5.23,11.89,7.54,18.4,5.6-6.98,7.64-12.06,17.01-14.65,27.03,5.97-2.52,10.21,5.84,12.25,12,7.33,22.11,28.04,38.96,31,62.07Z"/><path class="cls-7" d="m1674.92,269.66c1.62,4.2-5.45.96-2.1-1.7.63.29,1.66,1.17,2.1,1.7Z"/><path class="cls-7" d="m1651.83,259.64c.12.27.2.48.21.57-1.56-.29-3.78-1.49-4.85-2.32.45-.68,1.08-.92,1.9-1.1.94-.2,1.57-.98,2.55-1.13-.14.92-.65,1.3-1.25,1.97.23-.26,1.05,1.15,1.44,2Z"/><path class="cls-7" d="m1645.54,239.95c2.22,1.02,0,2.73-1.21,1.3,0-1.2.63-.7,1.21-1.3Z"/><path class="cls-7" d="m1641.09,236.07c1.61-.36-.17,2.5-.73,2.43-1.68-1.2.17-6.02.73-2.43Z"/><path class="cls-7" d="m1669.99,271.69c3.28,4.19.48,6.45-1.38,10.12-.74,0-2.01.02-2.35-.81-1.38.19-3.39,1.21-3.56-.97-1.44,2.19-4.44,5.35-1.62,7.61-.16,4.31,1.29,2.36,2.11,4.13-1.1,1.49-3.19-.93-4.21-1.62.54-1.92-.38-4.96-1.62-6.48-6.56-2.16-2.84-4.46-2.02-8.91-2.56-3.31-2-2.42-.81-6.07-.2-2.93-2.24-6.63-1.38-9.47,6.22,1.99,8.18-4.61,10.36.89.78-.82-.19-2.37.73-3.08,3.51,1.24,5.17,4.84,4.86,8.42,1.97-.13,3.08,2.02,2.35,3.72-1.04.28-1.41,1.57-1.46,2.51Z"/><path class="cls-7" d="m1670.63,283.51c.82,1.15.32,2.18-1.05,2.27-.34-1.03.04-1.87,1.05-2.27Z"/><path class="cls-7" d="m1641.65,253.31c.32,1.43-.15,2.33-1.62,2.67-.4-1.16-.08-3.5,1.62-2.67Z"/><path class="cls-7" d="m1638.74,285.94c1.99.71,1.06,1.41-.57,1.54-1.02-.8-2.32-.43-3.24.32-.44,1.24,1.09,1.89.73,3.16-2.34.06-.51,3.46-3.32,2.91-3.27-6.5-2.37-3.87-.4-9.55-1.19-2.09.89-6.14,3.48-5.51,2.13,1.65,1.5,5.41,3.32,7.12Z"/><path class="cls-7" d="m1567.34,238.42c1.63,3.81-.36.8-2.02,2.1.12-.35-.34-1.71.49-1.38.2-1.36.36-1.63,1.54-.73Z"/><path class="cls-7" d="m1579.07,209.52c.3,1.3-.19,2.45-1.7,2.1-.27-.72,1.3-1.72,1.7-2.1Z"/><path class="cls-7" d="m1637.85,265.13c-.34.92-.71,2,.49,2.43-.18,5.69-5.12.25-7.04-.89,1.38-4.18,2.49-3.4,4.86-.24,1.12-.26.46-2.55,1.7-1.3Z"/><path class="cls-7" d="m1574.86,213.56c.38,1.85-1.11,2.16-1.86.57-3.4,1.42-2.59-4.58.24-2.43-.79.82,1.05,1.59,1.62,1.86Z"/><path class="cls-7" d="m1630.97,189.92c1.51.67.91.6.81,1.86-.32-.41-1.02-1.29-.81-1.86Z"/><path class="cls-7" d="m1366.41,381.79c7.58-1.34.91,5.5-2.91,5.75-1.95-.9-4.1-2.56-6.4-1.54-1.08,1.78-3.74,3.7-5.75,4.37-.43.51-1.97,2.6-2.67,2.75-2.43-.29-5.21-.98-7.53.49-2.21.18,2.21-3.74,3.16-4.29,1.93-1.23,6.59-.61,8.01-2.67,2.28-4.96,9.37-6.2,14.09-4.86Z"/><path class="cls-7" d="m1296.22,170.58c-1.28-1.89.42-1.93,1.78-1.13,1.42-.73,2.9,1.02,3.56,2.1-.67.69-2.92-.36-3.89-.24-.76.1-1.54.38-1.46-.73Z"/><path class="cls-7" d="m1267.8,421.62l1.86.08c-2.2,1.21-3.25,4.84-4.7,6.72.14.74,2.1,2.21,0,1.78-.56-2.18-3.21-7.79-1.86-9.47.43.21,1.23.31.89.97.87-.63,2.86-.31,3.81-.08Z"/><path class="cls-7" d="m1207.49,293.47l1.13,1.78c-4.53-1.77-7.29-1.5-4.7,3.89-2.08-2.26-5.71-3.29-8.5-3.88-3.74-6.58,9.14-4.12,12.06-1.78Z"/><path class="cls-7" d="m1199.15,131.72l-6.56-5.18c2.14-1.87,5.44-4.35,8.5-3.8,9.19,11.7,1.04,8.47,3.64,13.6-.15.34-.65,1.27-.81,1.62-.79-1.87-3.23-4.92-4.78-6.23Z"/><path class="cls-7" d="m1191.71,290.23c-5.65,4.3-10.42,3.45-13.11-3.4,3.35,1.56,8.65-2.9,11.09-4.7,2.1.1,7.04,2.87,3.08,4.29-5.39-1.91.5,2.45,1.7,3.16l-2.75.65Z"/><path class="cls-7" d="m1230.81,163.61c-1.22-1.14-.54-2.67.41-3.72-.79-.51-1.14-1.87.16-.97.22.51.85,1.19,1.38,1.38,1.76-.03,1.27,2.93,3.72,3.08.01,1.28-1.78,1.25-2.51,2.02-.62,0-2.64-1.46-3.16-1.78Z"/><path class="cls-7" d="m1290.31,407.94c4.51,7.13,4.97,8.72-4.53,9.07-3.35-3.11-9.22-2.82-13.28-3.8-3.54-3.84-9.14-7.88-13.11-11.33-.47-1.05-3.19-7.28-4.29-7.69-3.86-9.26,2.92,1.02,5.67-10.12-.61-5.18,5.76-4.54,8.42-7.69,1.26-1.43,3.06,1.08,2.02-1.29-.06-.68-.33-2.22-.65-2.83.94-.07,1.18.07,1.05,1.05,1.31.35.56-1.2,1.86-1.05,1.03,3.54,4.12,10.78,4.53,14,.8.71,2.45.19,3.24,1.21,1.62.11,1.57,2.23,1.62,3.4-.7,1.26-5.64,1.41-5.34,3.24-2.37,6.82-.32,5.16,2.51,10.04.45,3.07,1,3.3,3.64,2.35,1.49,1.9,5.6-.65,6.64,1.46Z"/><path class="cls-7" d="m1211.22,137.47c-2.41-.63-4.03-2.95-.49-2.92,1.2,1.64,3.78,1.74,5.42.73,1.14.17,3.8,2.98,4.61,3.72,2.26.96,5.54,2.4,6.64,4.78-2.74-1.02-5.85.67-7.61,2.75-.37.26-.87,4.16-1.86,2.99-2-1.21-.57-3.58-.89-5.59-.1-.92-1.03-1.8-1.86-2.1-.45-1.83,1.22-.03,1.86,0-.48-2.89-3.1-4.21-5.83-4.37Z"/><path class="cls-7" d="m1193.97,305.69c.66,4.12-2.42,4.81-5.99,5.18.04-2.41,4.01-8.36,5.99-5.18Z"/><path class="cls-4" d="m1588.15,135.72s-.02.03-.02.05c-3.8-8.93-12.32-15.37-22.43-16.19-.09,0-.18-.01-.27-.02-.63-.04-1.26-.07-1.9-.07-.64,0-1.27.03-1.9.07-.09,0-.18.01-.27.02-10.11.82-18.63,7.26-22.43,16.19,0-.02-.02-.03-.02-.05-1.38,3.23-2.15,6.78-2.15,10.51,0,3.43.65,6.71,1.82,9.72.28.73,9.14,18.07,25.58,35.91,17.28-17.86,23.3-33.05,24.4-36.15,1.12-2.95,1.74-6.14,1.74-9.48,0-3.73-.77-7.29-2.15-10.51Zm-24.62,24.35c-8.74,0-15.83-7.09-15.83-15.83s7.09-15.83,15.83-15.83,15.83,7.09,15.83,15.83-7.09,15.83-15.83,15.83Z"/><path class="cls-4" d="m1509.67,217.94s-.02.03-.02.05c-3.8-8.93-12.32-15.37-22.43-16.19-.09,0-.18-.01-.27-.02-.63-.04-1.26-.07-1.9-.07-.64,0-1.27.03-1.9.07-.09,0-.18.01-.27.02-10.11.82-18.63,7.26-22.43,16.19,0-.02-.02-.03-.02-.05-1.38,3.23-2.15,6.78-2.15,10.51,0,3.43.65,6.71,1.82,9.72.28.73,9.14,18.07,25.58,35.91,17.28-17.86,23.3-33.05,24.4-36.15,1.12-2.95,1.74-6.14,1.74-9.48,0-3.73-.77-7.29-2.15-10.51Zm-24.62,24.35c-8.74,0-15.83-7.09-15.83-15.83s7.09-15.83,15.83-15.83,15.83,7.09,15.83,15.83-7.09,15.83-15.83,15.83Z"/><path class="cls-4" d="m1481.22,283.85s-.02.03-.02.05c-3.8-8.93-12.32-15.37-22.43-16.19-.09,0-.18-.01-.27-.02-.63-.04-1.26-.07-1.9-.07-.64,0-1.27.03-1.9.07-.09,0-.18.01-.27.02-10.11.82-18.63,7.26-22.43,16.19,0-.02-.02-.03-.02-.05-1.38,3.23-2.15,6.78-2.15,10.51,0,3.43.65,6.71,1.82,9.72.28.73,9.14,18.07,25.58,35.91,17.28-17.86,23.3-33.05,24.4-36.15,1.12-2.95,1.74-6.14,1.74-9.48,0-3.73-.77-7.29-2.15-10.51Zm-24.62,24.35c-8.74,0-15.83-7.09-15.83-15.83s7.09-15.83,15.83-15.83,15.83,7.09,15.83,15.83-7.09,15.83-15.83,15.83Z"/><path class="cls-4" d="m1211.15,217.94s-.02.03-.02.05c-3.8-8.93-12.32-15.37-22.43-16.19-.09,0-.18-.01-.27-.02-.63-.04-1.26-.07-1.9-.07-.64,0-1.27.03-1.9.07-.09,0-.18.01-.27.02-10.11.82-18.63,7.26-22.43,16.19,0-.02-.02-.03-.02-.05-1.38,3.23-2.15,6.78-2.15,10.51,0,3.43.65,6.71,1.82,9.72.28.73,9.14,18.07,25.58,35.91,17.28-17.86,23.3-33.05,24.4-36.15,1.12-2.95,1.74-6.14,1.74-9.48,0-3.73-.77-7.29-2.15-10.51Zm-24.62,24.35c-8.74,0-15.83-7.09-15.83-15.83s7.09-15.83,15.83-15.83,15.83,7.09,15.83,15.83-7.09,15.83-15.83,15.83Z"/><path class="cls-4" d="m1412.84,256.58s-.02.03-.02.05c-3.8-8.93-12.32-15.37-22.43-16.19-.09,0-.18-.01-.27-.02-.63-.04-1.26-.07-1.9-.07-.64,0-1.27.03-1.9.07-.09,0-.18.01-.27.02-10.11.82-18.63,7.26-22.43,16.19,0-.02-.02-.03-.02-.05-1.38,3.23-2.15,6.78-2.15,10.51,0,3.43.65,6.71,1.82,9.72.28.73,9.14,18.07,25.58,35.91,17.28-17.86,23.3-33.05,24.4-36.15,1.12-2.95,1.74-6.14,1.74-9.48,0-3.73-.77-7.29-2.15-10.51Zm-24.62,24.35c-8.74,0-15.83-7.09-15.83-15.83s7.09-15.83,15.83-15.83,15.83,7.09,15.83,15.83-7.09,15.83-15.83,15.83Z"/></g></svg>