<?xml version="1.0" encoding="UTF-8"?><svg id="Warstwa_1" xmlns="http://www.w3.org/2000/svg" viewBox="0 0 1500 1080"><defs><style>.cls-1{fill:#033;}.cls-2{fill:#eae7e4;}.cls-3{fill:#fff;}.cls-4{fill:#fffefd;}.cls-5{fill:#e5e0da;}.cls-6{fill:#efeeed;}.cls-7{fill:#8cc63f;}.cls-8,.cls-9{fill:#d3d3d3;}.cls-10{fill:#d8d0c7;}.cls-11,.cls-12{fill:#d6d1cc;}.cls-13{fill:#a1eeff;}.cls-14{fill:#5ad9ff;}.cls-15{fill:#62c2e9;}.cls-16{fill:#5ad0ff;}.cls-17,.cls-18{fill:#3b8de9;}.cls-19{fill:#39b54a;}.cls-20,.cls-21{fill:#3baee9;}.cls-22{fill:#4d4d4d;}.cls-23{fill:none;stroke:#033;stroke-miterlimit:22.93;stroke-width:3.26px;}.cls-18,.cls-21,.cls-24,.cls-12,.cls-9,.cls-25,.cls-26,.cls-27,.cls-28{fill-rule:evenodd;}.cls-24{fill:#a1e9ff;}.cls-25{fill:#c7ae67;}.cls-26{fill:#ccc;}.cls-27{fill:#ffeca6;}.cls-28{fill:#e3d5a8;}</style></defs><path class="cls-19" d="m749.87,354.84l-13.53,56.47-2.96,12.33h25.43l-31.74,49.81-31.74-49.81h25.43l-2.96-12.33-13.53-56.47h45.6m7.58-10h-60.76c-2.6,0-4.52,2.43-3.91,4.96l15.3,63.84h-23.65c-3.18,0-5.1,3.51-3.39,6.18l42.64,66.91c.79,1.24,2.09,1.86,3.39,1.86s2.6-.62,3.39-1.86l42.64-66.91c1.71-2.68-.22-6.18-3.39-6.18h-23.65l15.3-63.84c.61-2.53-1.31-4.96-3.91-4.96h0Z"/><path class="cls-19" d="m877.06,416.48l16.01,16.01,16.01,16.01-49.22,30.19-10.81,6.63,8.97,8.97,8.91,8.91-57.25,12.68,12.68-57.25,8.91,8.91,8.97,8.97,6.63-10.81,30.19-49.22m-1.13-13.62c-1.33,0-2.65.66-3.42,1.91l-34.16,55.7-16.64-16.64c-.81-.81-1.82-1.18-2.81-1.18-1.77,0-3.49,1.17-3.93,3.14l-17.09,77.11c-.57,2.56,1.42,4.87,3.89,4.87.29,0,.58-.03.88-.1l77.11-17.09c3.09-.68,4.2-4.51,1.96-6.74l-16.64-16.64,55.7-34.16c2.21-1.35,2.57-4.41.74-6.24l-21.38-21.38-21.38-21.38c-.79-.79-1.81-1.17-2.83-1.17h0Z"/><path class="cls-19" d="m577.08,416.48l30.19,49.22,6.63,10.81,8.97-8.97,8.91-8.91,12.68,57.25-57.25-12.68,8.91-8.91,8.97-8.97-10.81-6.63-49.22-30.19,16.01-16.01,16.01-16.01m1.13-13.62c-1.01,0-2.03.38-2.83,1.17l-21.38,21.38-21.38,21.38c-1.83,1.83-1.47,4.89.74,6.24l55.7,34.16-16.64,16.64c-2.23,2.23-1.12,6.06,1.96,6.74l77.11,17.09c.3.07.59.1.88.1,2.47,0,4.46-2.31,3.89-4.87l-17.09-77.11c-.44-1.97-2.16-3.14-3.93-3.14-1,0-2.01.37-2.81,1.18l-16.64,16.64-34.16-55.7c-.77-1.25-2.09-1.91-3.42-1.91h0Z"/><polygon class="cls-20" points="449.64 578.97 449.64 637.68 499.45 969.74 957.35 969.74 1007.16 637.68 1007.16 578.97 449.64 578.97"/><path class="cls-20" d="m466.36,551.71h524.2c9.22,0,16.71,7.49,16.71,16.71v10.55H449.64v-10.55c0-9.22,7.49-16.71,16.71-16.71Z"/><path class="cls-18" d="m909.56,911.8c5.15,0,9.32,4.17,9.32,9.32s-4.17,9.32-9.32,9.32-9.32-4.17-9.32-9.32,4.17-9.32,9.32-9.32Z"/><path class="cls-18" d="m916.34,881.3c5.15,0,9.32,4.17,9.32,9.32s-4.17,9.32-9.32,9.32-9.32-4.17-9.32-9.32,4.17-9.32,9.32-9.32Z"/><path class="cls-18" d="m944.31,916.33c5.15,0,9.32,4.17,9.32,9.32s-4.17,9.32-9.32,9.32-9.32-4.17-9.32-9.32,4.17-9.32,9.32-9.32Z"/><path class="cls-18" d="m961.24,811.82c3.74,0,6.78,3.03,6.78,6.78s-3.04,6.78-6.78,6.78-6.78-3.03-6.78-6.78,3.04-6.78,6.78-6.78Z"/><path class="cls-18" d="m967.08,844.28c3.74,0,6.78,3.03,6.78,6.78s-3.04,6.78-6.78,6.78-6.78-3.03-6.78-6.78,3.04-6.78,6.78-6.78Z"/><path class="cls-18" d="m825.68,933.83c3.74,0,6.78,3.03,6.78,6.78s-3.04,6.78-6.78,6.78-6.78-3.03-6.78-6.78,3.04-6.78,6.78-6.78Z"/><path class="cls-18" d="m917.18,774.54c3.74,0,6.78,3.03,6.78,6.77s-3.04,6.78-6.78,6.78-6.78-3.03-6.78-6.78,3.03-6.77,6.78-6.77Z"/><path class="cls-18" d="m839.23,857.58c3.74,0,6.78,3.03,6.78,6.78s-3.03,6.78-6.78,6.78-6.78-3.04-6.78-6.78,3.03-6.78,6.78-6.78Z"/><path class="cls-18" d="m905.57,826.12c3.74,0,6.78,3.03,6.78,6.78s-3.04,6.78-6.78,6.78-6.78-3.04-6.78-6.78,3.03-6.78,6.78-6.78Z"/><path class="cls-18" d="m960.45,752.73c1.72,0,3.11,1.39,3.11,3.11s-1.39,3.12-3.11,3.12-3.11-1.39-3.11-3.12,1.39-3.11,3.11-3.11Z"/><path class="cls-18" d="m864.54,774.2c1.72,0,3.12,1.39,3.12,3.11s-1.39,3.11-3.12,3.11-3.11-1.39-3.11-3.11,1.39-3.11,3.11-3.11Z"/><path class="cls-18" d="m889.36,863.4c1.72,0,3.11,1.39,3.11,3.11s-1.39,3.11-3.11,3.11-3.11-1.39-3.11-3.11,1.39-3.11,3.11-3.11Z"/><path class="cls-18" d="m867.9,886.87c1.72,0,3.11,1.4,3.11,3.12s-1.39,3.11-3.11,3.11-3.11-1.4-3.11-3.11,1.39-3.12,3.11-3.12Z"/><path class="cls-18" d="m854.18,954.99c1.72,0,3.11,1.4,3.11,3.12s-1.39,3.11-3.11,3.11-3.11-1.4-3.11-3.11,1.39-3.12,3.11-3.12Z"/><path class="cls-18" d="m781.38,880.83c1.72,0,3.11,1.4,3.11,3.12s-1.4,3.11-3.11,3.11-3.12-1.39-3.12-3.11,1.39-3.12,3.12-3.12Z"/><path class="cls-18" d="m932.28,846.63c1.72,0,3.11,1.39,3.11,3.11s-1.4,3.11-3.11,3.11-3.12-1.39-3.12-3.11,1.39-3.11,3.12-3.11Z"/><path class="cls-18" d="m884.17,949.59c4.7,0,8.52,3.82,8.52,8.52s-3.82,8.52-8.52,8.52-8.52-3.81-8.52-8.52,3.81-8.52,8.52-8.52Z"/><path class="cls-18" d="m933.42,726.85c3.74,0,6.78,3.03,6.78,6.78s-3.04,6.78-6.78,6.78-6.78-3.03-6.78-6.78,3.04-6.78,6.78-6.78Z"/><path class="cls-18" d="m849.95,813.33c3.74,0,6.78,3.03,6.78,6.78s-3.04,6.78-6.78,6.78-6.78-3.03-6.78-6.78,3.04-6.78,6.78-6.78Z"/><path class="cls-18" d="m891.99,741.58c6.55,0,11.86,5.31,11.86,11.87s-5.31,11.86-11.86,11.86-11.86-5.31-11.86-11.86,5.31-11.87,11.86-11.87Z"/><path class="cls-18" d="m857.4,913.78c6.55,0,11.86,5.31,11.86,11.86s-5.31,11.86-11.86,11.86-11.86-5.31-11.86-11.86,5.31-11.86,11.86-11.86Z"/><path class="cls-18" d="m955.22,872.09c6.55,0,11.86,5.31,11.86,11.86s-5.31,11.86-11.86,11.86-11.86-5.31-11.86-11.86,5.31-11.86,11.86-11.86Z"/><path class="cls-18" d="m903.39,703.32c3.74,0,6.78,3.03,6.78,6.78s-3.04,6.78-6.78,6.78-6.78-3.04-6.78-6.78,3.03-6.78,6.78-6.78Z"/><path class="cls-18" d="m869.26,839.85c3.74,0,6.78,3.04,6.78,6.78s-3.03,6.78-6.78,6.78-6.78-3.04-6.78-6.78,3.03-6.78,6.78-6.78Z"/><path class="cls-18" d="m778.56,919.89c3.74,0,6.78,3.04,6.78,6.78s-3.03,6.78-6.78,6.78-6.78-3.04-6.78-6.78,3.03-6.78,6.78-6.78Z"/><path class="cls-18" d="m816.91,895.82c3.74,0,6.78,3.04,6.78,6.78s-3.03,6.78-6.78,6.78-6.78-3.04-6.78-6.78,3.03-6.78,6.78-6.78Z"/><path class="cls-18" d="m887.92,806.77c1.72,0,3.11,1.4,3.11,3.12s-1.4,3.11-3.11,3.11-3.12-1.4-3.12-3.11,1.4-3.12,3.12-3.12Z"/><path class="cls-18" d="m832.46,752.73c1.72,0,3.11,1.4,3.11,3.11s-1.4,3.12-3.11,3.12-3.12-1.39-3.12-3.12,1.39-3.11,3.12-3.11Z"/><path class="cls-18" d="m965.37,705.26c1.72,0,3.11,1.4,3.11,3.11s-1.39,3.12-3.11,3.12-3.12-1.4-3.12-3.12,1.39-3.11,3.12-3.11Z"/><path class="cls-18" d="m839.23,778.36c1.72,0,3.12,1.39,3.12,3.11s-1.4,3.12-3.12,3.12-3.12-1.4-3.12-3.12,1.4-3.11,3.12-3.11Z"/><path class="cls-18" d="m851.07,741.35c1.72,0,3.11,1.39,3.11,3.11s-1.4,3.11-3.11,3.11-3.12-1.4-3.12-3.11,1.4-3.11,3.12-3.11Z"/><path class="cls-18" d="m932.36,805.53c5.15,0,9.32,4.17,9.32,9.32s-4.17,9.32-9.32,9.32-9.32-4.17-9.32-9.32,4.17-9.32,9.32-9.32Z"/><rect class="cls-17" x="449.64" y="578.97" width="557.51" height="58.71"/><path class="cls-3" d="m800.83,847.47c2.55-2.81,4.97-5.77,7.19-8.84,32.53-45.03,22.38-108.12-22.65-140.64-1.51-1.09-3.06-2.13-4.63-3.13l11.69,19.45c2.37,4.1,2.71,9.14.9,13.48-1.89,4.52-5.85,7.83-10.64,8.88l-22.51,5.21c16.75,14.99,21.61,39.39,11.92,59.59l-3.77-6c-.72-1.19-2.09-1.85-3.44-1.72-1.4.1-2.59,1-3.09,2.28l-24.16,59.78c-.47,1.09-.37,2.35.26,3.35.63,1,1.69,1.63,2.89,1.73l64.32,4.51h.26c1.3,0,2.49-.67,3.15-1.8.73-1.16.69-2.65-.03-3.82l-7.67-12.3Z"/><path class="cls-9" d="m768.02,745.01c-.5.58-1.39.65-1.98.14-.59-.5-.65-1.39-.14-1.98.51-.58,1.39-.65,1.98-.14.59.51.65,1.39.14,1.98Z"/><path class="cls-9" d="m797.19,716.09c-.5.58-1.39.65-1.97.14-.58-.51-.65-1.39-.14-1.98.5-.59,1.39-.65,1.97-.14.58.51.65,1.39.14,1.98Z"/><path class="cls-9" d="m790.7,707.3c-.5.59-1.39.65-1.97.14-.58-.51-.65-1.39-.14-1.97.51-.59,1.39-.65,1.98-.14.59.51.65,1.39.14,1.97Z"/><path class="cls-9" d="m784.14,742.8c-.5.59-1.39.65-1.98.14-.58-.51-.65-1.39-.14-1.98.51-.59,1.39-.65,1.98-.14.58.5.65,1.39.14,1.97Z"/><path class="cls-9" d="m771.89,753.1c-.23.27-.64.3-.91.07-.27-.23-.3-.64-.07-.91.23-.27.64-.3.91-.07.27.23.3.64.07.91Z"/><path class="cls-9" d="m789.85,735.29c-.23.27-.64.3-.91.07-.27-.23-.3-.64-.07-.91.23-.27.64-.3.91-.07.27.23.3.64.07.91Z"/><path class="cls-9" d="m798.02,721.78c-.23.27-.64.3-.91.07-.27-.23-.3-.64-.07-.91.23-.27.64-.3.91-.07.27.23.3.64.07.91Z"/><path class="cls-9" d="m787.06,699.73c-.23.27-.64.3-.91.07-.27-.23-.3-.64-.07-.91.07-.08.16-.14.26-.18.29.22.58.43.87.65,0,.13-.06.26-.15.37Z"/><path class="cls-9" d="m802.45,725.07c-.5.59-1.39.65-1.98.14-.58-.51-.65-1.39-.14-1.98.51-.59,1.39-.65,1.97-.14.59.51.65,1.39.14,1.98Z"/><path class="cls-9" d="m805.29,717.01c-.9.62-2.13.59-3-.16-1.02-.89-1.14-2.43-.25-3.46.04-.05.08-.09.12-.13,1.08,1.23,2.12,2.48,3.13,3.75Z"/><path class="cls-9" d="m780.28,751.5c-.51.58-1.39.65-1.98.14-.59-.51-.65-1.39-.14-1.98.5-.58,1.39-.65,1.98-.14.58.51.65,1.39.14,1.98Z"/><path class="cls-9" d="m789.35,749.08c-.5.59-1.39.65-1.97.14-.58-.51-.65-1.39-.14-1.97.51-.59,1.39-.65,1.98-.14s.65,1.39.14,1.97Z"/><path class="cls-9" d="m810.11,723.63c-.51.51-1.34.54-1.9.06-.59-.51-.65-1.39-.14-1.98.14-.16.3-.28.48-.36.53.75,1.05,1.51,1.56,2.27Z"/><path class="cls-9" d="m796.38,738.1c-.51.59-1.39.65-1.98.14-.59-.51-.65-1.39-.14-1.97.5-.59,1.39-.65,1.97-.14.59.51.65,1.39.14,1.97Z"/><path class="cls-9" d="m777.97,743.96c-.5.59-1.39.65-1.98.14-.58-.51-.65-1.39-.14-1.98.5-.58,1.39-.65,1.97-.14.58.51.65,1.39.14,1.98Z"/><path class="cls-9" d="m796.11,707.15c-.23.27-.64.3-.91.07-.27-.23-.3-.64-.07-.91.05-.06.11-.11.17-.14.3.28.59.57.89.85-.02.05-.05.09-.09.13Z"/><path class="cls-9" d="m794.03,743.77c-.23.27-.64.3-.91.07-.27-.23-.3-.64-.07-.91.23-.27.64-.3.91-.07.27.23.3.64.07.91Z"/><path class="cls-9" d="m801.51,732.98c-.23.27-.64.3-.91.07-.27-.23-.3-.64-.07-.91.23-.27.64-.3.91-.07.27.23.3.64.07.91Z"/><path class="cls-9" d="m777.01,758c-.23.27-.64.3-.91.07-.27-.23-.3-.64-.07-.91.23-.27.64-.3.91-.07.27.23.3.64.07.91Z"/><path class="cls-9" d="m795.82,732.33c-.69.8-1.91.89-2.72.2-.8-.7-.89-1.91-.2-2.72.7-.8,1.91-.89,2.72-.2.81.7.9,1.91.2,2.72Z"/><path class="cls-3" d="m761.95,873.81c-44.48,16.91-96.21.26-121.83-41.82-1.96-3.25-3.75-6.62-5.35-10.06l-14.32,2.3c-1.35.21-2.76-.33-3.52-1.45-.78-1.04-.95-2.41-.44-3.6l.1-.24,29.11-57.52c.57-1.06,1.55-1.79,2.72-1.99,1.16-.2,2.36.2,3.18,1.06l45.72,45.45c1.01.96,1.37,2.41.91,3.73-.41,1.3-1.53,2.3-2.92,2.51l-6.98,1.14c12.04,13.6,30.37,19.46,47.69,16.03l-8.92,22.1c-1.89,4.5-1.45,9.64,1.16,13.81,2.56,4.03,6.77,6.57,11.55,6.98l22.15,1.57Z"/><path class="cls-3" d="m782.8,723.39c-.46,1.08-1.44,1.89-2.59,2.14l-62.82,14.53c-1.34.33-2.76-.15-3.64-1.22-.88-1.04-1.13-2.53-.57-3.82l2.76-6.52c-20.44,3.39-36.66,19-41.12,38.96l-15.1-15.02c-2.81-2.85-6.69-4.49-10.7-4.49-.83,0-1.66.07-2.46.2-4.71.8-8.71,3.69-10.94,7.94l-12,23.71c-.03-.93-.03-1.84-.02-2.77.8-55.55,46.63-100.08,102.16-99.28,3.8.07,7.6.33,11.37.82l5.68-13.36c.54-1.26,1.75-2.14,3.11-2.2,1.29-.11,2.53.47,3.26,1.55l.16.21,33.22,55.26c.6,1.03.7,2.27.24,3.36Z"/><path class="cls-9" d="m645.52,740.04c-.8.93-2.2,1.03-3.12.23-.93-.8-1.03-2.2-.23-3.13.8-.93,2.2-1.03,3.13-.23.93.8,1.03,2.2.23,3.13Z"/><path class="cls-9" d="m625.63,771.5c-.47.55-1.19.76-1.85.63.08-1.28.19-2.55.31-3.81.47-.02.95.13,1.34.47.8.7.89,1.91.2,2.72Z"/><path class="cls-9" d="m632.17,752.16c-.7.81-1.91.89-2.72.2-.8-.7-.89-1.91-.2-2.72.7-.8,1.91-.89,2.72-.2s.89,1.91.2,2.72Z"/><path class="cls-9" d="m651.33,746.05c-.69.81-1.91.89-2.72.2-.8-.69-.89-1.91-.2-2.72.7-.81,1.91-.89,2.72-.2.8.7.89,1.91.2,2.72Z"/><path class="cls-9" d="m667.46,747.73c-.51.59-1.39.65-1.98.14-.58-.51-.65-1.39-.14-1.97.51-.59,1.39-.65,1.97-.14.59.5.65,1.39.14,1.97Z"/><path class="cls-9" d="m637.01,738.53c-.5.59-1.39.65-1.97.14-.58-.5-.65-1.39-.14-1.97.5-.59,1.39-.65,1.97-.14.59.51.65,1.39.14,1.98Z"/><path class="cls-9" d="m635.61,744.83c-.51.58-1.39.65-1.97.14-.59-.51-.65-1.39-.14-1.98.51-.59,1.39-.65,1.98-.14.58.51.65,1.39.14,1.97Z"/><path class="cls-9" d="m676.87,760.59c-.44.12-.92.03-1.29-.29-.59-.51-.65-1.39-.14-1.98.51-.58,1.39-.65,1.98-.14.12.1.22.22.29.35-.29.68-.57,1.36-.83,2.06Z"/><path class="cls-9" d="m637.83,749.98c-.23.27-.64.3-.91.07-.27-.23-.3-.64-.07-.91.23-.27.64-.3.91-.07.27.23.3.64.07.91Z"/><path class="cls-9" d="m669.1,760.68c-.23.27-.64.3-.91.07-.27-.23-.3-.64-.07-.91.23-.27.64-.3.91-.07.27.23.3.64.07.91Z"/><path class="cls-9" d="m681.73,747.97c-.23.27-.64.3-.91.07-.27-.23-.3-.64-.07-.91.23-.27.64-.3.91-.07.27.23.3.64.07.91Z"/><path class="cls-9" d="m661.36,735.31c-.23.27-.64.3-.91.07-.27-.23-.3-.64-.06-.91.23-.27.64-.3.91-.07.27.23.3.64.07.91Z"/><path class="cls-9" d="m656.95,746.34c-.23.27-.64.3-.91.07-.27-.23-.3-.64-.07-.91.23-.27.64-.3.91-.07.27.23.3.64.07.91Z"/><path class="cls-9" d="m641.29,744.33c-.23.27-.64.3-.91.07-.27-.23-.3-.64-.07-.91s.64-.3.91-.07c.27.23.3.64.07.91Z"/><path class="cls-9" d="m666.33,741.09c-.64.73-1.75.82-2.48.18-.73-.64-.82-1.75-.18-2.48.63-.74,1.75-.82,2.48-.18.74.64.82,1.75.18,2.48Z"/><path class="cls-9" d="m666.31,755.4c-.89,1.02-2.43,1.14-3.46.25-1.02-.89-1.13-2.43-.25-3.46.89-1.02,2.43-1.14,3.46-.25,1.02.89,1.14,2.43.25,3.46Z"/><path class="cls-9" d="m629.49,759.51c-.89,1.02-2.43,1.14-3.46.25-.24-.21-.43-.46-.57-.72.2-1.02.42-2.04.65-3.05.9-.72,2.22-.72,3.13.07,1.02.88,1.13,2.43.25,3.46Z"/><path class="cls-9" d="m676.01,742.26c-.51.59-1.39.65-1.97.14-.59-.51-.65-1.39-.14-1.97.51-.58,1.39-.65,1.97-.14.59.51.65,1.39.14,1.98Z"/><path class="cls-9" d="m674.59,751.5c-.5.58-1.39.65-1.97.14-.58-.51-.65-1.39-.14-1.97.51-.59,1.39-.65,1.98-.14.59.51.65,1.39.14,1.98Z"/><path class="cls-9" d="m658.12,741.67c-.23.27-.64.3-.91.07-.27-.23-.3-.64-.07-.91.23-.27.64-.3.91-.07.27.23.3.64.07.91Z"/><path class="cls-9" d="m650.53,735.72c-.23.27-.64.3-.91.07-.27-.23-.3-.64-.07-.91.23-.27.64-.3.91-.07.27.23.3.64.07.91Z"/><path class="cls-9" d="m642.75,733.31c-.23.27-.64.3-.91.07-.27-.23-.3-.64-.07-.91.23-.27.64-.3.91-.07.27.23.3.64.07.91Z"/><path class="cls-9" d="m723.43,861.63c-1.26,1.46-3.48,1.62-4.94.36-1.46-1.26-1.62-3.48-.36-4.94s3.48-1.62,4.94-.36c1.46,1.26,1.62,3.48.36,4.94Z"/><path class="cls-9" d="m730.08,839.1c-.8.93-2.2,1.03-3.13.23-.93-.8-1.03-2.2-.23-3.13.8-.93,2.2-1.03,3.12-.23.93.8,1.03,2.2.23,3.13Z"/><path class="cls-9" d="m740.31,876.46c-.7.8-1.91.89-2.72.2-.8-.7-.89-1.91-.2-2.72.7-.8,1.91-.89,2.72-.2.8.7.89,1.91.2,2.72Z"/><path class="cls-9" d="m706.92,867.91c-.7.81-1.91.89-2.72.2-.8-.69-.89-1.91-.2-2.72.7-.8,1.91-.89,2.72-.2.81.69.9,1.91.2,2.71Z"/><path class="cls-9" d="m725.78,843.95c-.69.8-1.91.89-2.72.2-.8-.7-.89-1.91-.2-2.72.7-.81,1.91-.89,2.72-.2.8.7.89,1.91.2,2.72Z"/><path class="cls-9" d="m718.61,841c-.7.81-1.91.89-2.72.2-.8-.7-.89-1.91-.2-2.72.7-.8,1.91-.89,2.72-.2.8.7.89,1.91.2,2.71Z"/><path class="cls-9" d="m728.61,870.18c-.7.8-1.91.89-2.72.2-.81-.7-.89-1.91-.2-2.72.69-.8,1.91-.89,2.72-.2.8.7.89,1.91.2,2.72Z"/><path class="cls-9" d="m749.34,876.12c-.51.59-1.39.65-1.98.14-.58-.51-.65-1.39-.14-1.98.5-.58,1.39-.65,1.98-.14.58.51.65,1.39.14,1.97Z"/><path class="cls-9" d="m721.08,850.76c-.96,1.11-2.63,1.23-3.73.27-1.11-.96-1.23-2.63-.27-3.73.96-1.11,2.63-1.23,3.74-.27,1.11.96,1.23,2.63.27,3.73Z"/><path class="cls-9" d="m708.77,850.77c-.51.59-1.39.65-1.98.14-.59-.51-.65-1.39-.14-1.98.5-.58,1.39-.65,1.97-.14.58.51.65,1.39.14,1.98Z"/><path class="cls-9" d="m718.5,868.43c-.5.59-1.39.65-1.97.14-.58-.51-.65-1.39-.14-1.98.5-.59,1.39-.65,1.98-.14.58.51.65,1.39.14,1.97Z"/><path class="cls-9" d="m728.21,879.15c-.5.58-1.39.65-1.97.14-.58-.5-.65-1.39-.14-1.98.51-.58,1.39-.65,1.98-.14.58.51.65,1.39.14,1.98Z"/><path class="cls-9" d="m737.61,879.7c.71-.56,1.67-.67,2.49-.31-.83.11-1.66.22-2.49.31Z"/><path class="cls-9" d="m754.79,876.22c.02-.12.07-.23.15-.33.23-.27.64-.3.91-.07.02.02.04.04.06.06-.37.11-.74.23-1.11.34Z"/><path class="cls-9" d="m721.91,831.95c-.23.27-.64.3-.91.07-.27-.23-.3-.64-.07-.91.23-.27.64-.3.91-.07.27.23.3.64.07.91Z"/><path class="cls-9" d="m710.07,835.27c-.23.27-.64.3-.91.07-.27-.23-.3-.64-.07-.91.23-.27.64-.3.91-.07.27.23.3.64.07.91Z"/><path class="cls-9" d="m713.08,859.12c-.23.27-.64.3-.91.07-.27-.23-.3-.64-.07-.91.23-.27.64-.3.91-.07.27.23.3.64.07.91Z"/><path class="cls-9" d="m722.71,865.98c-.23.27-.64.3-.91.07-.27-.23-.3-.64-.07-.91.23-.27.64-.3.91-.07.27.23.3.64.07.91Z"/><path class="cls-9" d="m722.99,875.2c-.23.27-.64.3-.91.07-.27-.23-.3-.64-.07-.91.23-.27.64-.3.91-.07.27.23.3.64.07.91Z"/><path class="cls-9" d="m729.64,831.96c-.88,1.02-2.43,1.14-3.46.25-.57-.5-.86-1.2-.85-1.91,1.63.03,3.26-.02,4.89-.15.05.63-.14,1.29-.59,1.81Z"/><path class="cls-9" d="m707.77,843.24c-.89,1.02-2.43,1.14-3.46.25-1.02-.89-1.14-2.43-.25-3.46.89-1.02,2.43-1.14,3.46-.25,1.03.88,1.14,2.43.25,3.46Z"/><path class="cls-9" d="m713.82,874.97c-.89,1.02-2.43,1.14-3.46.25-1.02-.88-1.14-2.43-.25-3.46.89-1.02,2.43-1.14,3.46-.25,1.02.89,1.14,2.43.25,3.46Z"/><path class="cls-9" d="m700.36,855.35c-.51.58-1.39.65-1.97.14-.59-.51-.65-1.39-.14-1.98.5-.59,1.39-.65,1.98-.14.58.51.65,1.39.14,1.98Z"/><path class="cls-9" d="m716.48,855.94c-.5.59-1.39.65-1.97.14-.59-.5-.65-1.39-.14-1.97.5-.59,1.39-.65,1.98-.14.58.51.65,1.39.14,1.97Z"/><path class="cls-9" d="m734.28,879.11c-.69.81-1.91.89-2.72.2-.8-.7-.89-1.91-.2-2.72.7-.81,1.91-.89,2.72-.2.8.7.89,1.91.2,2.72Z"/><circle class="cls-22" cx="496.87" cy="969.74" r="49.99" transform="translate(-113.56 67.16) rotate(-6.94)"/><path class="cls-26" d="m496.87,985.54c8.7,0,15.8-7.1,15.8-15.8s-7.1-15.8-15.8-15.8-15.8,7.1-15.8,15.8,7.1,15.8,15.8,15.8Z"/><circle class="cls-22" cx="957.28" cy="969.74" r="49.99" transform="translate(-110.18 122.8) rotate(-6.94)"/><path class="cls-26" d="m957.28,985.54c8.7,0,15.8-7.1,15.8-15.8s-7.1-15.8-15.8-15.8-15.8,7.1-15.8,15.8,7.1,15.8,15.8,15.8Z"/><rect class="cls-11" x="313.09" y="233.92" width="174.17" height="228.79" transform="translate(-120.54 246.75) rotate(-30)"/><rect class="cls-6" x="313.09" y="226.55" width="174.17" height="228.79" transform="translate(-116.86 245.76) rotate(-30)"/><rect class="cls-11" x="308.83" y="226.55" width="174.17" height="228.79" transform="translate(-122.74 277.77) rotate(-33.79)"/><rect class="cls-6" x="310.75" y="219.92" width="174.17" height="228.79" transform="translate(-118.73 277.71) rotate(-33.79)"/><path class="cls-12" d="m467.82,371.69c2.68-1.8,6.32-1.08,8.11,1.61,1.8,2.68,1.08,6.31-1.61,8.11-2.68,1.8-6.31,1.08-8.11-1.61s-1.08-6.32,1.61-8.11Z"/><path class="cls-12" d="m460.72,353.43c2.68-1.8,6.31-1.08,8.11,1.61s1.08,6.31-1.61,8.11-6.31,1.08-8.11-1.61-1.08-6.31,1.61-8.11Z"/><path class="cls-12" d="m487.52,361.93c2.68-1.8,6.31-1.08,8.11,1.61s1.08,6.31-1.61,8.11c-2.68,1.8-6.31,1.08-8.11-1.61-1.8-2.68-1.08-6.31,1.61-8.11Z"/><path class="cls-12" d="m459.89,301.54c1.95-1.31,4.59-.78,5.9,1.17s.78,4.59-1.17,5.9c-1.95,1.31-4.59.78-5.9-1.17-1.31-1.95-.78-4.59,1.17-5.9Z"/><path class="cls-12" d="m474.26,316.42c1.95-1.31,4.59-.78,5.9,1.17s.78,4.59-1.17,5.9c-1.95,1.31-4.59.78-5.9-1.17s-.78-4.59,1.17-5.9Z"/><path class="cls-12" d="m431.78,412.44c1.95-1.31,4.59-.78,5.9,1.17,1.31,1.95.78,4.59-1.17,5.9-1.95,1.31-4.59.78-5.9-1.17-1.31-1.95-.78-4.59,1.17-5.9Z"/><path class="cls-12" d="m423.92,297.47c1.95-1.31,4.59-.78,5.9,1.17s.78,4.59-1.17,5.9c-1.95,1.31-4.59.78-5.9-1.17s-.78-4.59,1.17-5.9Z"/><path class="cls-12" d="m412.24,367.96c1.95-1.31,4.59-.78,5.9,1.17,1.31,1.95.78,4.59-1.17,5.9-1.95,1.31-4.59.78-5.9-1.17s-.78-4.59,1.17-5.9Z"/><path class="cls-12" d="m435.85,328.42c1.95-1.31,4.59-.78,5.9,1.17,1.31,1.95.78,4.59-1.17,5.9-1.95,1.31-4.59.78-5.9-1.17-1.31-1.95-.78-4.59,1.17-5.9Z"/><path class="cls-12" d="m438.86,271.01c.9-.6,2.11-.36,2.71.54s.36,2.11-.54,2.71-2.11.36-2.71-.54c-.6-.9-.36-2.11.54-2.71Z"/><path class="cls-12" d="m396.35,315.66c.9-.6,2.11-.36,2.71.54s.36,2.11-.54,2.71c-.9.6-2.11.36-2.71-.54s-.36-2.11.54-2.71Z"/><path class="cls-12" d="m440.41,353.51c.9-.6,2.11-.36,2.71.54s.36,2.11-.54,2.71c-.9.6-2.11.36-2.71-.54s-.36-2.11.54-2.71Z"/><path class="cls-12" d="m437.41,373.23c.9-.6,2.11-.36,2.71.54s.36,2.11-.54,2.71-2.11.36-2.71-.54c-.6-.9-.36-2.11.54-2.71Z"/><path class="cls-12" d="m454.02,413.53c.9-.6,2.11-.36,2.71.54s.36,2.11-.54,2.71c-.9.6-2.11.36-2.71-.54-.6-.9-.36-2.11.54-2.71Z"/><path class="cls-12" d="m390.19,400.27c.9-.6,2.11-.36,2.71.54s.36,2.11-.54,2.71c-.9.6-2.11.36-2.71-.54-.6-.9-.36-2.11.54-2.71Z"/><path class="cls-12" d="m456.94,329.79c.9-.6,2.11-.36,2.71.54s.36,2.11-.54,2.71c-.9.6-2.11.36-2.71-.54s-.36-2.11.54-2.71Z"/><path class="cls-12" d="m467.77,400.25c2.45-1.64,5.77-.98,7.41,1.47s.98,5.77-1.47,7.41c-2.45,1.64-5.77.98-7.41-1.47-1.64-2.45-.98-5.77,1.47-7.41Z"/><path class="cls-12" d="m415.74,266.94c1.95-1.31,4.59-.78,5.9,1.17,1.31,1.95.78,4.59-1.17,5.9-1.95,1.31-4.59.78-5.9-1.17s-.78-4.59,1.17-5.9Z"/><path class="cls-12" d="m402.39,341.15c1.95-1.31,4.59-.78,5.9,1.17s.78,4.59-1.17,5.9c-1.95,1.31-4.59.78-5.9-1.17s-.78-4.59,1.17-5.9Z"/><path class="cls-12" d="m399.28,289.08c3.42-2.29,8.04-1.37,10.32,2.05,2.29,3.42,1.37,8.04-2.05,10.32-3.42,2.29-8.04,1.37-10.32-2.04-2.29-3.42-1.37-8.04,2.05-10.32Z"/><path class="cls-12" d="m441.32,390.92c3.42-2.29,8.04-1.37,10.32,2.05,2.29,3.42,1.37,8.04-2.05,10.32-3.42,2.29-8.04,1.37-10.32-2.05s-1.37-8.04,2.05-10.32Z"/><path class="cls-12" d="m477.77,335.06c3.42-2.29,8.04-1.37,10.32,2.05,2.29,3.42,1.37,8.04-2.05,10.32-3.42,2.29-8.04,1.37-10.32-2.05-2.29-3.42-1.37-8.04,2.05-10.32Z"/><path class="cls-12" d="m391.88,265.15c1.95-1.31,4.59-.78,5.9,1.17,1.31,1.95.78,4.59-1.17,5.9s-4.59.78-5.9-1.17-.78-4.59,1.17-5.9Z"/><path class="cls-12" d="m421.71,348.24c1.95-1.31,4.59-.78,5.9,1.17,1.31,1.95.78,4.59-1.17,5.9-1.95,1.31-4.59.78-5.9-1.17-1.31-1.95-.78-4.59,1.17-5.9Z"/><path class="cls-12" d="m402.35,421.61c1.95-1.31,4.59-.78,5.9,1.17,1.31,1.95.78,4.59-1.17,5.9-1.95,1.31-4.59.78-5.9-1.17-1.31-1.95-.78-4.59,1.17-5.9Z"/><path class="cls-12" d="m413.95,395.68c1.95-1.31,4.59-.78,5.9,1.17,1.31,1.95.78,4.59-1.17,5.9-1.95,1.31-4.59.78-5.9-1.17-1.3-1.95-.78-4.59,1.17-5.9Z"/><path class="cls-12" d="m419.9,324.49c.9-.6,2.11-.36,2.71.54s.36,2.11-.54,2.71-2.11.36-2.71-.54-.36-2.11.54-2.71Z"/><path class="cls-12" d="m372.13,315.66c.9-.6,2.11-.36,2.71.54s.36,2.11-.54,2.71-2.11.36-2.71-.54c-.6-.9-.36-2.11.54-2.71Z"/><path class="cls-12" d="m424.87,244.54c.9-.6,2.11-.36,2.71.54s.36,2.11-.54,2.71-2.11.36-2.71-.54-.36-2.11.54-2.71Z"/><path class="cls-12" d="m384.61,326.66c.9-.6,2.11-.36,2.71.54.6.9.36,2.11-.54,2.71s-2.11.36-2.71-.54-.36-2.11.54-2.71Z"/><path class="cls-12" d="m377.87,303.24c.9-.6,2.11-.36,2.71.54.6.9.36,2.11-.54,2.71s-2.11.36-2.71-.54-.36-2.11.54-2.71Z"/><path class="cls-12" d="m442.64,308.33c2.68-1.8,6.32-1.08,8.11,1.61,1.8,2.68,1.08,6.31-1.61,8.11-2.68,1.79-6.31,1.07-8.11-1.61s-1.08-6.32,1.61-8.11Z"/><path class="cls-28" d="m1128.05,199.62c-12.85-6.51-28.54-1.37-35.05,11.48l-11.78,23.26,11.63,5.89,12.5-24.69c2.44-4.82,8.32-6.74,13.14-4.3l5.82,2.95c4.82,2.44,6.74,8.32,4.3,13.14l-12.5,24.69,11.63,5.89,11.78-23.26c6.51-12.85,1.37-28.54-11.48-35.05Z"/><polygon class="cls-25" points="1157.55 271.38 1090.5 441.27 1044.85 457.83 1142.92 275 1157.55 271.38"/><polygon class="cls-28" points="1157.55 271.38 1046.58 214.54 1025.92 215.41 1142.92 275 1157.55 271.38"/><polygon class="cls-27" points="927.67 393.01 1025.92 215.41 1142.92 275 1044.85 457.83 927.67 393.01"/><polygon class="cls-28" points="1090.5 441.27 1071.89 407.42 1044.85 457.83 1090.5 441.27"/><path class="cls-27" d="m1106.35,200.28c-12.85-6.51-28.54-1.37-35.05,11.48l-11.78,23.26,11.63,5.89,12.5-24.69c2.44-4.82,8.32-6.74,13.14-4.3l5.82,2.95c4.82,2.44,6.74,8.32,4.3,13.14l-12.5,24.69,11.63,5.89,11.78-23.26c6.51-12.85,1.37-28.54-11.48-35.05Z"/><path class="cls-7" d="m1282.43,841.1c33.99-18.73,63.78-39.78,87.5-60.89,17.26-15.38,26.05-34.07,23.26-49.3-2.05-11.37-5.9-22.43-11.65-32.85l-129.33,71.29c11.71,21.24,17,44.24,16.48,66.62-.1,4.5-1.1,9.19-2.89,13.9,5.53-2.79,11.07-5.71,16.63-8.77Z"/><path class="cls-7" d="m1071.27,759.6c-33.33,19.88-62.39,41.93-85.38,63.83-16.73,15.96-24.87,34.94-21.58,50.06,2.44,11.3,6.66,22.21,12.76,32.44l126.83-75.64c-12.42-20.83-18.49-43.64-18.73-66.03-.06-4.51.78-9.22,2.42-13.99-5.43,2.98-10.87,6.08-16.32,9.33Z"/><path class="cls-7" d="m1248.6,872.36v147.68c-11.9,0-23.44-1.97-34.39-5.66-14.68-4.92-26.8-21.63-31.94-44.17-7.04-30.96-11.09-67.22-11.09-106.02,0-6.35.12-12.61.34-18.8,3.26,3.85,6.88,6.99,10.78,9.24,19.35,11.26,42.05,17.73,66.3,17.73Z"/><path class="cls-7" d="m1095.2,872.36v147.68c11.9,0,23.44-1.97,34.39-5.66,14.68-4.92,26.8-21.63,31.94-44.17,7.04-30.96,11.09-67.22,11.09-106.02,0-6.35-.12-12.61-.34-18.8-3.26,3.85-6.88,6.99-10.78,9.24-19.35,11.26-42.05,17.73-66.3,17.73Z"/><path class="cls-3" d="m1279.32,770.72c0,33.67-5.62,65.13-15.39,91.98-7.12,19.56-23.96,34.05-44.33,38.32-15.2,3.19-31.18,4.9-47.71,4.9s-32.51-1.71-47.71-4.9c-20.37-4.28-37.2-18.77-44.33-38.32-9.76-26.86-15.39-58.32-15.39-91.98,0-5.5.15-10.94.47-16.3,4.54,3.33,9.56,6.05,14.97,8.02,26.86,9.76,58.33,15.39,91.98,15.39s65.13-5.62,91.98-15.39c5.42-1.97,10.44-4.69,14.97-8.02.31,5.36.47,10.8.47,16.3Z"/><path class="cls-19" d="m1172.1,535.92v-7.26c0-57.02,57.95-71.26,57.95-71.26,9.6,65.84-30.57,77.79-57.95,78.52Z"/><path class="cls-19" d="m1169.69,557.95v-7.26c0-57.02-57.95-71.26-57.95-71.26-9.6,65.84,30.57,77.79,57.95,78.52Z"/><path class="cls-19" d="m1192.44,443.24c0,29.5-22.75,53.41-22.75,53.41,0,0-22.75-23.91-22.75-53.41s22.75-53.41,22.75-53.41c0,0,22.75,23.91,22.75,53.41Z"/><line class="cls-23" x1="1169.69" y1="567.27" x2="1169.69" y2="443.24"/><line class="cls-23" x1="1211.3" y1="490.66" x2="1169.69" y2="535.92"/><line class="cls-23" x1="1134.54" y1="512.44" x2="1169.69" y2="550.63"/><path class="cls-7" d="m1307.29,672.95c0,16.52-1.71,32.51-4.9,47.71-3.09,14.73-11.52,27.61-23.35,36.31-4.54,3.33-9.56,6.05-14.97,8.02-26.85,9.76-58.33,15.39-91.98,15.39s-65.13-5.62-91.98-15.39c-5.42-1.97-10.44-4.69-14.97-8.02-11.83-8.69-20.27-21.58-23.35-36.31-3.19-15.2-4.9-31.18-4.9-47.71s1.71-32.51,4.9-47.71c4.28-20.37,18.77-37.2,38.32-44.33,26.86-9.76,58.33-15.39,91.98-15.39s65.13,5.62,91.98,15.39c19.56,7.12,34.05,23.96,38.33,44.33,3.19,15.2,4.9,31.18,4.9,47.71Z"/><path class="cls-1" d="m1279.5,672.96c0,9.73-1.36,19.14-3.89,28.08-2.45,8.67-9.15,16.25-18.55,21.37-3.6,1.96-7.59,3.56-11.89,4.72-21.34,5.75-46.34,9.06-73.08,9.06s-51.74-3.31-73.08-9.06c-4.3-1.16-8.29-2.76-11.89-4.72-9.4-5.12-16.1-12.7-18.55-21.37-2.54-8.94-3.89-18.35-3.89-28.08s1.36-19.14,3.89-28.08c3.4-11.99,14.91-21.9,30.45-26.09,21.34-5.75,46.34-9.06,73.08-9.06s51.74,3.31,73.08,9.06c15.54,4.19,27.05,14.1,30.45,26.09,2.53,8.94,3.89,18.35,3.89,28.08Z"/><rect class="cls-3" x="1198.64" y="629.69" width="23.68" height="36.67" rx="11.84" ry="11.84"/><rect class="cls-3" x="1121.84" y="629.69" width="23.68" height="36.67" rx="11.84" ry="11.84"/><path class="cls-3" d="m1172.08,717.19c-20.71,0-37.56-13.64-37.56-30.41,0-4.34,3.52-7.85,7.85-7.85s7.85,3.52,7.85,7.85c0,7.97,10.01,14.71,21.86,14.71s21.86-6.74,21.86-14.71c0-4.34,3.52-7.85,7.85-7.85s7.85,3.52,7.85,7.85c0,16.77-16.85,30.41-37.56,30.41Z"/><path class="cls-1" d="m1082.17,591.61c-2.41,0-4.82-.92-6.66-2.76l-29.18-29.18c-3.68-3.68-3.68-9.64,0-13.32,3.68-3.68,9.64-3.68,13.32,0l29.18,29.18c3.68,3.68,3.68,9.64,0,13.32-1.84,1.84-4.25,2.76-6.66,2.76Z"/><path class="cls-1" d="m1067.49,539.55c-7.72-7.72-20.24-7.72-27.95,0-7.72,7.72-7.72,20.24,0,27.95,7.72,7.72,20.24,7.72,27.95,0,7.72-7.72,7.72-20.24,0-27.95Z"/><path class="cls-1" d="m1261.63,591.28c2.41,0,4.82-.92,6.66-2.76l29.18-29.18c3.68-3.68,3.68-9.64,0-13.32-3.68-3.68-9.64-3.68-13.32,0l-29.18,29.18c-3.68,3.68-3.68,9.64,0,13.32,1.84,1.84,4.25,2.76,6.66,2.76Z"/><path class="cls-1" d="m1276.31,539.23c7.72-7.72,20.24-7.72,27.95,0,7.72,7.72,7.72,20.24,0,27.95s-20.24,7.72-27.95,0c-7.72-7.72-7.72-20.24,0-27.95Z"/><circle class="cls-8" cx="1199" cy="887.84" r="9.02"/><circle class="cls-8" cx="1214.49" cy="858.42" r="8.13"/><circle class="cls-8" cx="1250.43" cy="809.64" r="8.13"/><circle class="cls-8" cx="1199" cy="845.57" r="4.72"/><circle class="cls-8" cx="1235.91" cy="854.78" r="4.72"/><circle class="cls-8" cx="1256.29" cy="835.84" r="11.53"/><circle class="cls-8" cx="1250.43" cy="866.45" r="9.81"/><circle class="cls-8" cx="1230.12" cy="835.84" r="5.96"/><circle class="cls-8" cx="1179.69" cy="881.54" r="5.96"/><circle class="cls-8" cx="1179.69" cy="858.6" r="3.17"/><circle class="cls-8" cx="1194.62" cy="870.02" r="3.17"/><circle class="cls-8" cx="1228.75" cy="808.3" r="3.17"/><circle class="cls-8" cx="1206.36" cy="822.37" r="3.17"/><circle class="cls-8" cx="1267.96" cy="809.64" r="3.17"/><circle class="cls-8" cx="1228.75" cy="885.68" r="8.63"/><path class="cls-10" d="m933.6,167.1l-124.62-30.61c-5.93-1.46-11.9,2.02-13.31,7.76l-19.37,78.86c-1.41,5.73,2.27,11.58,8.2,13.04l124.62,30.61c5.93,1.46,11.9-2.02,13.31-7.76l19.37-78.86c1.41-5.73-2.27-11.58-8.2-13.04Z"/><path class="cls-2" d="m794.67,202.39c-1.18,6.6-2.33,14,1.25,19.99,6.19,10.35,86.19,28.11,93.21,29.53,6.58,1.33,13.87,1.74,19.62-2.37,5.58-3.98,8.19-10.33,9.93-16.74,1.96-7.26,8.15-40.84,8.14-44.74-.02-7.63-3.96-10.96-6.97-12.72-3.19-1.86-89.57-25.77-95.8-25.38-7.32.46-13.54,3.9-17.61,10.29-3.58,5.62-10.38,34.32-11.78,42.14Z"/><path class="cls-6" d="m943.63,184.23c1.58-7.04-.11-14.28-6.78-17.95-3-1.65-114.6-30.77-124.5-32.26-3.35-.5-7.05-.14-10.26,1.06-3.79,1.41-6.06,4.39-7.75,7.96-1.81,3.83-2.95,7.89-3.95,11.99-1.15,4.68-15,66.03-15.11,69.96-.03,1.09.3,2.68.74,4.27.95,3.44,3.6,6.13,7.05,7.07,24.25,6.58,126.12,34.08,131.76,32.79,6.96-1.58,9.58-8.14,11.06-14.45.82-3.49,16.92-66.8,17.74-70.46Zm-25.71,76.93c-2.85,4.34-9.19,3.35-13.54,2.51-8.06-1.56-116.61-29.62-120.23-31.65-2.22-1.25-3.36-2.85-3.58-4.96-.34-3.1.35-6.37.86-9.42.77-4.69,14.98-65.5,16.34-69.26,1.18-3.26,2.78-7.32,6.38-8.46,8.17-2.6,123.64,28.45,127.04,29.61,2.52.86,5.12,2.13,6.55,4.48,1.69,2.77,1.47,6.23.74,9.26-.86,3.57-18.77,75.19-20.56,77.9Z"/><path class="cls-6" d="m822.27,135.56s0-.03,0-.04c0,0,0,0,0,0,0,.01,0,.02,0,.04Z"/><path class="cls-6" d="m822.26,135.52s0,0,0,0c-.02.01-.02.01,0,0Z"/><path class="cls-11" d="m911.52,291.46c1.36-6.74,2.73-13.5,4.22-20.22-17.38-4.29-29.85-7.28-29.85-7.28,0,0-110-31.65-116.67-30.55-6.66,1.1-20.51,18.26-18.78,24.31,1.73,6.05,144.22,43.55,144.22,43.55,0,0,5.46,1.6,14.17,4.11.86-4.65,1.75-9.29,2.69-13.93Z"/><path class="cls-11" d="m916.9,272.31c-2.66-2.15-22.5-7.85-46.19-14.11-.27.89-.54,1.78-.81,2.67-3.24,10.69-6.46,21.37-10.03,31.95,31.2,8.47,61.82,16.14,65.11,14.61,6.92-3.23-1.01-29.4-8.09-35.12Z"/><path class="cls-4" d="m923.71,275.72c-2.63-4.24-6.92-6.13-11.57-7.41-5.23-1.45-10.5-2.76-15.75-4.14-3.48-.92-106.65-27.98-112.14-29.4-4.83-1.26-10.25-3.73-15.32-3.08-2.09.27-3.96,1.09-5.62,2.26.83,1.25,1.79,2.42,2.65,3.65.72-.52,1.52-.92,2.42-1.15,2.35-.6,4.71.06,6.99.66,5.05,1.34,139.72,37.15,139.75,37.05,1.87.87,3.51,2.05,4.59,3.79.24.38.46.77.67,1.17,1.31-.8,2.63-1.58,3.95-2.35-.2-.35-.4-.7-.61-1.04Z"/><path class="cls-6" d="m819.96,266.11c.53-3.42,1.24-7.37-.33-10.63-1.57-3.24-5.61-4.63-9-4.31-4.43.42-6.53,4.01-7.87,7.89-1.68,4.88-2.91,10.1-6.6,13.94-.42.43-.62.92-.66,1.4-.35,1.1.02,2.39,1.46,2.77,6.36,1.72,12.7,3.5,19.02,5.38,1.47.44,2.91-.6,3.01-2.11.34-4.78.23-9.57.97-14.32Z"/><path class="cls-6" d="m872.93,281.85c.31-3.9,2.14-8.78-.11-12.4-1.92-3.09-6.09-4.06-9.44-3.1-4.16,1.19-5.94,5.11-7.09,8.95-.66,2.22-1.13,4.53-2.22,6.6-1.25,2.38-3.01,4.45-4.62,6.59-.95,1.26-.3,2.54.78,3.13,2.19,1.95,5.64,2.05,8.36,2.72,4.56,1.13,9,2.65,13.61,3.64,1.93.42,3.71-1.38,2.74-3.29-1.99-3.94-2.37-8.47-2.02-12.82Z"/><path class="cls-5" d="m911.49,309.22c-.17-.3-.37-.59-.6-.87-2.18-2.64-5.8-3.87-9.02-4.64-1.94-.46-3.91-.79-5.88-1.13-.53-.09-1.11-.14-1.65-.24.08,0-.06-.05-.49-.13-.29-.06-.57-.11-.86-.18-4.39-.98-8.76-2.17-13.11-3.3-4.33-1.12-8.83-2.92-13.38-2.59-2.21.16-4.4,1.23-5.05,3.54-1.98,7.02,2,33.17,7.16,36.19,2.98,1.75,16.66,5.27,20.13,5.74,2.61.35,5.3.07,7.67-1.13,2.68-1.35,14.55-18.77,16.4-26.03.47-1.84-.02-3.93-1.34-5.25Z"/><path class="cls-5" d="m856.12,294.31c-.17-.3-.37-.59-.6-.87-2.18-2.64-5.8-3.87-9.02-4.64-1.94-.46-3.91-.79-5.88-1.13-.53-.09-1.11-.14-1.65-.24.08,0-.06-.05-.49-.13-.29-.06-.57-.11-.86-.18-4.39-.98-8.76-2.17-13.11-3.3-4.33-1.12-8.83-2.92-13.38-2.59-2.21.16-4.4,1.23-5.05,3.54-1.98,7.02,2,33.17,7.16,36.19,2.98,1.75,6.46,2.73,9.79,3.57,3.39.85,6.87,1.7,10.34,2.17,2.61.35,5.3.07,7.67-1.13,2.68-1.35,14.55-18.77,16.4-26.03.47-1.84-.02-3.93-1.34-5.25Z"/><path class="cls-5" d="m801.3,279.54c-.17-.3-.37-.59-.6-.87-2.18-2.64-5.8-3.87-9.02-4.64-1.94-.46-3.91-.79-5.88-1.13-.53-.09-1.11-.14-1.65-.24.08,0-.06-.05-.49-.13-.29-.06-.57-.11-.86-.18-4.38-.98-8.76-2.17-13.11-3.3-4.33-1.12-8.83-2.92-13.38-2.59-2.21.16-4.4,1.23-5.05,3.54-1.98,7.02,2,33.17,7.16,36.19,2.98,1.75,6.46,2.73,9.79,3.57,3.39.85,6.87,1.7,10.34,2.17,2.61.35,5.3.07,7.67-1.13,2.68-1.35,14.55-18.77,16.4-26.03.47-1.84-.02-3.93-1.34-5.25Z"/><path class="cls-6" d="m906.87,303.82c-9.64-2.47-19.35-4.68-28.96-7.27-3.16-.85-52.14-14.38-69.46-18.9-10.76-2.81-21.51-5.64-32.11-8.99-5.36-1.69-25.01-5.07-28.04-14.76-.59,2.09-3.64,8.48-3.27,10.68.43,2.55,2.38,4.49,4.63,5.57,2.33,1.12,160.33,45.05,164.16,46.14,3.46.99,7.49,1.63,10.74-.33,2.09-1.26,4.37-8.47,5.12-10.75-6.74,4.78-19.23-.47-22.81-1.39Z"/><path class="cls-6" d="m898.53,155.92s-.02-.08-.03-.12c0-.06.02-.11.02-.17.5-4.8-.68-9.58-3.72-12.38-1.6-1.47-33.86-9.35-38.14-9.8-1.74-.18-3.65-.09-5.31,1-.9.59-1.64,1.47-2.24,2.47-.26.43-3.11,4.79-3.79,6.1-1.01,1.96,53.41,14.14,53.21,12.89Z"/><path class="cls-4" d="m930.07,303.79c.95-4.98-3.97-24.24-6.36-28.08-1.49-2.41-3.53-4.06-5.86-5.27-.28,1.54-.67,3.07-1.13,4.57,1.19.75,2.22,1.7,2.97,2.91,2.51,4.07,7.69,25.73,4.86,27.07.05-.02.08-.06.11-.08-.02.01-.05.04-.11.08-.5.38-.2.15,0,0-1.42,1.06-4.34.19-5.86-.16-2.62-.61-147.02-39.92-151.95-41.4-3.66-1.1-7.71-2.03-11.06-3.95-1.09-.63-2.32-1.46-2.81-2.68-.76-1.9.61-4.03,1.69-5.5,1.25-1.72,7.17-9.23,8.88-11.27,1.33-1.59,2.87-3.06,4.94-3.59.9-.23,1.8-.27,2.7-.21.31-1.54.6-3.08,1.01-4.59-1.06-.09-2.11-.1-3.15.04-3.87.49-6.96,2.88-9.36,5.82-1.65,2.03-8.34,10.37-9.75,12.69-2.35,3.89-2.44,8.18,1.06,11.35,3.53,3.2,8.52,4.52,12.98,5.8,10.86,3.11,155.29,42.53,157.9,42.65,4.23.21,7.5-1.91,8.31-6.2Z"/><path class="cls-21" d="m591.17,337.44l-37.97-7.96c-2.32-.57-4.44-1.61-6.23-3.05-2.46-1.97-4.32-4.63-5.32-7.71l-57.77-181.51c-.33-1.03-.15-2.09.41-2.92l50.14,12.22,13.11,3.2,38.21,164.47,5.41,23.27Z"/><path class="cls-24" d="m654.45,105.4l-36.21,12.4-83.81,28.7-50.14-12.22c.39-.64,1.03-1.14,1.81-1.4h.02l116.25-36.99c2.38-.75,4.83-1.21,7.31-1.37,3.02-.18,6.07.08,9.04.8l35.73,10.08Z"/><rect class="cls-16" x="555.51" y="119.83" width="133.92" height="202.97" rx="3.44" ry="3.44" transform="translate(-37.8 199.19) rotate(-17.65)"/><path class="cls-21" d="m698.39,281.45c3.39-1,6.94.94,7.94,4.32,1,3.39-.94,6.94-4.32,7.94-3.39,1-6.94-.94-7.94-4.32s.94-6.94,4.32-7.94Z"/><path class="cls-21" d="m678.23,211.04c2.46-.73,5.05.68,5.78,3.14.73,2.47-.68,5.05-3.15,5.78-2.46.73-5.05-.68-5.78-3.15-.73-2.46.68-5.05,3.15-5.77Z"/><path class="cls-21" d="m643.05,280.8c2.46-.73,5.05.68,5.78,3.14.73,2.46-.68,5.05-3.14,5.78-2.46.73-5.05-.68-5.78-3.15-.73-2.46.68-5.05,3.14-5.78Z"/><path class="cls-21" d="m680.6,247.23c2.46-.73,5.05.68,5.78,3.14.73,2.46-.68,5.05-3.14,5.78-2.46.73-5.05-.68-5.78-3.14s.68-5.05,3.14-5.78Z"/><path class="cls-21" d="m643.52,221.03c1.13-.33,2.32.31,2.66,1.44s-.31,2.32-1.45,2.65-2.32-.31-2.65-1.44.31-2.32,1.44-2.65Z"/><path class="cls-21" d="m677.16,274.91c1.13-.33,2.32.31,2.65,1.44.33,1.13-.31,2.32-1.45,2.65-1.13.33-2.32-.31-2.65-1.44s.31-2.32,1.44-2.65Z"/><path class="cls-21" d="m667.6,294.52c1.13-.33,2.32.31,2.65,1.45s-.31,2.32-1.44,2.65c-1.13.33-2.32-.31-2.65-1.44s.31-2.32,1.44-2.65Z"/><path class="cls-21" d="m609.5,307.33c1.13-.33,2.32.31,2.65,1.45.33,1.13-.31,2.32-1.45,2.65-1.13.33-2.32-.31-2.65-1.44-.33-1.13.31-2.32,1.45-2.65Z"/><path class="cls-21" d="m695.63,255.54c1.13-.33,2.32.31,2.65,1.44.33,1.13-.31,2.32-1.45,2.65s-2.32-.31-2.65-1.44.31-2.32,1.45-2.65Z"/><path class="cls-21" d="m641.52,249.61c2.46-.73,5.05.68,5.78,3.14s-.68,5.05-3.15,5.78c-2.46.73-5.05-.68-5.78-3.14-.73-2.46.68-5.05,3.15-5.78Z"/><path class="cls-21" d="m655.25,194.24c4.31-1.27,8.84,1.19,10.11,5.51s-1.19,8.83-5.5,10.11c-4.31,1.27-8.84-1.19-10.11-5.5-1.27-4.31,1.19-8.84,5.5-10.11Z"/><path class="cls-21" d="m655.33,166.85c2.46-.73,5.05.68,5.78,3.14s-.68,5.05-3.14,5.78-5.05-.68-5.78-3.15c-.73-2.46.68-5.05,3.14-5.77Z"/><path class="cls-21" d="m659.37,263.31c2.46-.73,5.05.68,5.77,3.15.73,2.46-.68,5.05-3.14,5.78-2.46.73-5.05-.68-5.78-3.15-.73-2.46.68-5.05,3.14-5.78Z"/><path class="cls-21" d="m635.79,310.3c2.46-.73,5.05.68,5.77,3.14.73,2.46-.68,5.05-3.14,5.78-2.46.73-5.05-.68-5.77-3.15s.68-5.05,3.14-5.77Z"/><path class="cls-21" d="m665.23,237.93c1.13-.33,2.32.31,2.65,1.45s-.31,2.32-1.44,2.65-2.32-.31-2.66-1.44.31-2.32,1.45-2.66Z"/><path class="cls-21" d="m618.25,213.13c1.13-.33,2.32.31,2.65,1.44s-.31,2.32-1.44,2.65c-1.13.33-2.32-.31-2.65-1.45s.31-2.32,1.45-2.65Z"/><path class="cls-21" d="m627.68,228.68c1.13-.33,2.32.31,2.65,1.44.33,1.13-.31,2.32-1.45,2.66s-2.32-.31-2.66-1.45.32-2.32,1.45-2.65Z"/><path class="cls-21" d="m628.28,202.03c1.13-.33,2.32.31,2.65,1.44s-.31,2.32-1.45,2.65-2.32-.31-2.65-1.44.31-2.32,1.45-2.65Z"/><path class="cls-15" d="m257.17,780.77s22.48-28.68,11.52-34.27c-10.96-5.6-14.08,7.57-24.18-7.45s-8.53,17.53-15.56,11.96c-7.03-5.56-11.89-5.76-17.73-3.61-5.84,2.15,5.02,29.93,14.04,33.55,9.01,3.61,31.91-.17,31.91-.17Z"/><path class="cls-15" d="m354.52,989.28c11.09-10.13-9.77-167.33-88.85-209.66,0,0-20.71-15.51-47.18-.39-24.04,13.73-85.3,98.8-56.99,196.51,5.4,18.64,22.66,31.36,42.06,31.23,40.41-.28,103.25,25.9,150.96-17.68Z"/><path class="cls-14" d="m227.53,796.29s-46.69,25.85-49.74,88.2c-3.05,62.35,31.69-3.98,36.52-34.08s34.05-61.31,13.22-54.12Z"/><path class="cls-14" d="m309.48,831.14s-31.08-18.65-22.38-27.35c8.7-8.7,17.41-1.24,22.38-18.65,4.97-17.41,21.14,14.92,26.11,7.46s12.43-12.93,18.65-12.68c6.22.25,7.46,30.09,0,36.31-7.46,6.22-44.76,14.92-44.76,14.92Z"/><path class="cls-14" d="m270.93,1028.84c-13.68-6.22-23.62-133.04,38.54-197.7,0,0,14.92-21.14,44.76-14.92,27.1,5.65,111.61,67.68,114.82,169.35.61,19.4-11.88,36.82-30.38,42.68-38.52,12.2-108.91,27.33-167.74.59Z"/><path class="cls-13" d="m335.59,831.68s-47.84,23.67-53.76,85.81c-5.92,62.15,47.54,16.14,53.76-13.7,6.22-29.84,21.14-78.33,0-72.12Z"/></svg>