<?xml version="1.0" encoding="UTF-8"?><svg id="Warstwa_1" xmlns="http://www.w3.org/2000/svg" viewBox="0 0 512 512"><defs><style>.cls-1{fill:#033;}.cls-2{fill:#008a9f;}.cls-3{fill:#0098b1;}.cls-4{fill:#ff5e5a;}.cls-5{fill:#95e000;}</style></defs><path class="cls-2" d="m480.02,256.01c0,74.99-36.85,141.38-93.43,182.03-36.77,26.41-81.86,41.98-130.59,41.98-98.4,0-182-63.45-212.09-151.67-7.75-22.7-11.94-47.04-11.94-72.35,0-31.06,6.32-60.67,17.74-87.56.5-1.15.99-2.28,1.51-3.42,2.79-6.29,5.87-12.41,9.2-18.38.31-.55.6-1.09.91-1.62,3.87-6.77,8.1-13.33,12.62-19.64,3.27-4.55,6.71-8.99,10.31-13.27C125.37,63.14,187.05,31.98,256.01,31.98c35.49,0,69.04,8.25,98.86,22.94,57.43,28.29,100.98,80.45,117.69,143.53,4.88,18.36,7.47,37.66,7.47,57.56Z"/><path class="cls-3" d="m480.02,256.01c0,74.99-36.85,141.38-93.43,182.03-25.44,8.93-52.79,13.79-81.28,13.79-107.69,0-199.14-69.43-232.07-165.96-8.47-24.84-13.08-51.46-13.08-79.15s4.86-55.87,13.79-81.33c3.27-4.55,6.71-8.99,10.31-13.27C125.37,63.14,187.05,31.98,256.01,31.98c35.49,0,69.04,8.25,98.86,22.94,57.43,28.29,100.98,80.45,117.69,143.53,4.88,18.36,7.47,37.66,7.47,57.56Z"/><path class="cls-5" d="m82.94,133.44s12.68-36.54,23.34-33.12c10.66,3.43,50.05-19.45,52.76-25,2.71-5.55,30.5-5.77,25.55,7.2-4.94,12.96-9.41,38.37-1.31,48.59,8.1,10.22-21.5,22.3-21.16,34.69s10.5,20.29,0,22.12c-10.5,1.83-44.55-8.96-39.09-26.69,5.46-17.73.04-12.77-5.2-14.53-5.24-1.76-27.44,6.67-31.16,6.03-3.71-.65-18.23,1-3.74-19.29Z"/><path class="cls-5" d="m64.22,162.76c-2.59.86-9.01,1.36-13,2.27,2.79-6.29,5.87-12.41,9.2-18.38,0,.02.02.03.02.05,1.56,3.31,8.86,14.36,3.78,16.06Z"/><path class="cls-5" d="m61.34,145.03c6.68-11.67,14.36-22.69,22.93-32.91,2.11.29,2.98,1.44,1.86,3.87-5.44,11.89-10.99,13.21-9.5,19.3,1.25,5.02-11.59,7.28-15.3,9.74Z"/><path class="cls-5" d="m255.39,374c-6.19,5.83-17.03,18.65-15.59,26.7,1.44,8.05-2.17,17.26-5.78,21.68-3.61,4.44-10.84,17.45-7.94,26.12,2.88,8.67,14.44,26.74,4.68,25.29-9.75-1.44-33.57-28.91-32.86-44.09.71-15.18-.08-33.31-5.83-36.17-5.75-2.85-28.84-12.43-29.94-15.23-1.1-2.8-9.97-14.88-9.14-24.01.81-9.16-10.21-12.93-14.45-12.49-4.25.45-12.56-3.39-20.69-1.1-8.13,2.28-35.68,4.99-39.97,1.1-4.29-3.89-17-20.59-20.04-15.85-1.36,2.11-7.41,2.85-13.9,2.4-7.75-22.7-11.94-47.04-11.94-72.35,0-31.06,6.32-60.67,17.74-87.56.63.32,1.46.66,2.48,1.04,5.12,1.85-12.85,13.77,2.82,21.73,15.67,7.94,23.58,6.74,19.56,19.44-4.02,12.7-6.59,39.29,5.96,27.63,12.54-11.67,1.04-28.06,15.46-29.26,14.44-1.18,34.95-15.49,39.15-6.53,4.2,8.96,29.77,17.09,17.19,21.11-12.57,4.02-17.58,8.41-13.81,10.26,3.78,1.85,12.3,5.46,6.92,11.76-5.38,6.29-17.92,13.51-14.53,34.48,3.37,20.97-6.19,25.62-6.19,25.62,0,0-10.35-13.77-20.27-3.79-9.93,9.98-16.38,20.34-8.46,23.11,7.92,2.77,15.81,10,23.07,5.65,7.26-4.33,13.04-10.6,16.66-3.86,3.61,6.76,1.36,8.07,9.72,7.05,8.34-1.02,17.01-2.22,24.97-8.85,7.96-6.63,13.76-7.32,27.48-3.73,13.71,3.6,28.89,12.91,44.79,4.65,15.91-8.28,13.74.23,10.13,15.85-3.61,15.64,8.78,26.35,2.58,32.2Z"/><path class="cls-5" d="m72.42,176.87s11.59-12.4,18.66-8.07c7.06,4.34,26.4,13.31,26.4,13.31,0,0,11.76,9.73,1.32,13.21-10.44,3.48-20.16,12.43-24.62,8.95-4.46-3.48-2.28-13.4-2.13-16.14s-9.74-7.22-12.25-3.74-25.38,8.89-23.39,2.08c1.99-6.8,6.66-9.67,16-9.6Z"/><path class="cls-5" d="m225.32,142.77s-14.7-6.75-16.82-1.31c-2.12,5.44-14.05,8.7-16.42,9.07s10.21,9.43,16.42,6.16c6.22-3.26,22.74-11.7,16.82-13.92Z"/><path class="cls-5" d="m249.52,150.88c-5.22,1.84-6.89,8.01-3.99,10.35,2.9,2.34,7.98,2.97,8.7,6.64s-3.22,13.83,2.92,11.29c6.14-2.54,11.94-5.8,10.49-9.07-1.45-3.26.47-7.43-5.02-7.34-5.49.09-9.48-2.49-9.48-5.37s2.54-8.69-3.63-6.51Z"/><path class="cls-5" d="m247.35,167.88c-3.1-.56-7.62,2.95-5.08,6.57s2.9,10.15,5.08,7.98c2.18-2.18,5.8-13.51,0-14.55Z"/><path class="cls-5" d="m472.55,198.45c-3.05-2.41-6.08-4.88-8.56-6.95-8.2-6.9-20.11-12.7-24.09-16.15-3.99-3.47-18.25-.24-32.63,2.37-14.37,2.61-11.25-5.8-17.78-3.99-6.51,1.81-2.53,9.07,14.52,9.14,17.03.06,14.86,5.35,9.06,18.91-5.78,13.56-17.24,24.27-17.35,17.03-.11-7.24-32.33-25.86-35.23-22.96-2.9,2.9,28.29,25.75,35.34,30.2,7.05,4.46,13.25-10.26,15.6-8.07,2.33,2.19-4.16,28.63-5.61,35.16-1.46,6.53,7.24,14.88,5.31,21.4-1.91,6.53-2.79,21.39-.24,36.33,2.54,14.96-14.88,29.67-19.59,30.93-4.72,1.28-29.36-19.04-30.82-27.69-1.44-8.65-6.53-21.16-6.53-21.16,0,0-7.62-11.16-11.25-11.16s-6.89-7.24-8.7-10.52c-1.81-3.26-6.51-4.34-14.13.37-7.62,4.72-18.13,14.13-20.68,11.6-2.54-2.54-23.2-9.07-28.29-7.99-5.07,1.1-7.62-17.4-8.28-23.2-.68-5.8,1.04-19.95,5.25-23.75,4.21-3.81,14.28-17.58,21.84-23.24,7.55-5.66,13.47-7.03,16.51-.86,3.05,6.17,11.1.71,17.26-2.43,6.17-3.13,17.05-7.37,27.56-11.73,10.52-4.34,6.89-11.96,5.9-14.7-.99-2.74-8.07,3.45-13.51,4.23-5.43.76-6.89-.41-8.35-4.23-1.44-3.82-4.34-1.26-6.16,1.28-1.81,2.54,2.17,6.89,0,9.84-2.17,2.97-7.91-3.44-11.16-6.89-3.27-3.47-12.69-9.09-16.59-5.82-3.9,3.26,6.72,6.85,10.44,7.39,3.69.53,5.64,1.15,5.82,5.32.26,5.72-3.56,4.49-4.94,1.64-1.36-2.85-7-.06-14.26-3.26-7.24-3.19-4.83-3.86-11.72,1.62-6.9,5.49-7.62,8.3-6.9,12.88.73,4.6-3.61,6.3-8.33,11.71-4.72,5.43-6.17,3.65-9.62-2.04-3.47-5.69-1.98-7,.97-9.56,2.95-2.58,7.19-5.78,7.19-5.78,2.59-2.03-1.96-6.51-4.94-9.01-1.25-1.07-1.49-2.87-.68-4.28,3.32-5.75,3.99-10.56,7.79-12.51,4.36-2.22,3.27-8.65,1.81-10.48-1.44-1.83.37-8.34,6.53-6.98,6.17,1.35,3.27,4.1,6.89,1.93,3.63-2.19,4.36,0,12.33-1.93,7.99-1.93,3.63-4.25,2.32-11.41-1.3-7.18-1.93-3.6.08-6.98,2.03-3.39,1.23-4.72,0-3.61-1.23,1.09-7.11.71-8.54-2.27-1.44-3,1.8-7.16-3.69-5.04-5.49,2.14-.68,5.85,1.86,12.74,2.54,6.9,3.56,7.44-1.86,12.87-5.44,5.44-8.3-5.96-12.15,0-3.86,5.98-10.29-.89-13.19-3.79-2.9-2.9-.36-8.7,5.09-12.98,5.43-4.26-1.09-20.74,2.53-26.91,3.63-6.16,18.5-18.49,23.14-16.77,4.65,1.72,17.84-1.72,22.3-3.22,4.46-1.51,8.25,2.59,6.06,5.33-2.17,2.74-10.87,6.69-7.97,6.27,2.9-.41,7.26,4.41,10.52,1.17,3.26-3.22,5.8-8.36,5.07-12.77-.71-4.41,3.27-2.12,6.9-2.2,3.61-.06,4.34-3.9,7.24-9.09,2.9-5.17,6.17.83,11.7-5.4,2.4-2.69-1.36-7.71-2.09-11.41,57.43,28.29,100.98,80.45,117.69,143.53Z"/><path class="cls-5" d="m429.52,263.57s-10.98,15.89-8.83,20.34c2.15,4.45,4.38,14.94,8.83,11.76,4.45-3.18,4.77-5.4,3.81-8.27-.95-2.86,5.09-29.88-3.81-23.84Z"/><path class="cls-5" d="m296.88,190.73c4.82-2.02,5.88-3.85,6.56-1.58s-.23,5.88-3.28,5.21c-3.06-.68-6.67-2.2-3.28-3.62Z"/><rect class="cls-1" x="231.71" y="214.7" width="21.6" height="33.45" rx="10.8" ry="10.8"/><rect class="cls-1" x="161.65" y="214.7" width="21.6" height="33.45" rx="10.8" ry="10.8"/><path class="cls-1" d="m207.48,294.5c-18.89,0-34.26-12.44-34.26-27.74,0-3.95,3.21-7.16,7.16-7.16s7.16,3.21,7.16,7.16c0,7.27,9.13,13.42,19.94,13.42s19.94-6.14,19.94-13.42c0-3.95,3.21-7.16,7.16-7.16s7.16,3.21,7.16,7.16c0,15.3-15.37,27.74-34.26,27.74Z"/><path class="cls-4" d="m472.55,384.94c0-19.67-15.95-35.62-35.62-35.62-14.73,0-27.37,8.94-32.79,21.69-5.42-12.75-18.06-21.69-32.79-21.69-19.67,0-35.62,15.95-35.62,35.62,0,4.57.86,8.93,2.43,12.95.53,1.37,23.81,46.8,66.1,75.99,49.42-34.11,63.95-70.6,65.99-76.31,1.49-3.93,2.31-8.18,2.31-12.63Z"/></svg>