<?xml version="1.0" encoding="UTF-8"?><svg id="Warstwa_1" xmlns="http://www.w3.org/2000/svg" viewBox="0 0 1500 1080"><defs><style>.cls-1{fill:#033;}.cls-2{fill:#ffdf46;}.cls-3{fill:#e9bf4d;}.cls-4{fill:#e9c82e;}.cls-5{fill:#e9ce40;}.cls-6{fill:#ffe3a1;}.cls-7{fill:#fff;}.cls-8{fill:#ffefa8;}.cls-9{fill:#ffdf5a;}.cls-10{fill:#fffefd;}.cls-11{fill:#ffeca1;}.cls-12{fill:#ffd05a;}.cls-13,.cls-14{fill:#e6cb02;}.cls-15{fill:#fcee21;}.cls-16,.cls-17{fill:#efeeed;}.cls-18{fill:#9f9f9f;}.cls-19{fill:#8cc63f;}.cls-20{fill:#bebec1;}.cls-21{fill:#dddddc;}.cls-22{fill:#c4ac54;}.cls-23{fill:#c4c0bb;}.cls-24,.cls-25{fill:#d3d3d3;}.cls-26{fill:#d7d7d7;}.cls-27{fill:#d6b43d;}.cls-28{fill:#a1e9ff;}.cls-29{fill:gray;}.cls-30{fill:#54c2ed;}.cls-31{fill:#5ad0ff;}.cls-32{fill:#39b54a;}.cls-33{fill:#3baee9;}.cls-34{fill:#37a1d7;}.cls-35{fill:#4d4d4d;}.cls-36{fill:none;stroke:#033;stroke-miterlimit:22.93;stroke-width:3.26px;}.cls-37{fill:#d67bc3;}.cls-37,.cls-25,.cls-38,.cls-39,.cls-17,.cls-40,.cls-14,.cls-41{fill-rule:evenodd;}.cls-38{fill:#ccc;}.cls-39{fill:#a09993;}.cls-40{fill:#eaa2da;}.cls-41{fill:#ffc0ef;}</style></defs><path class="cls-3" d="m187.33,714.3s22.48-28.68,11.52-34.27c-10.96-5.6-14.08,7.57-24.18-7.45-10.1-15.03-8.53,17.53-15.56,11.96s-11.89-5.76-17.73-3.61c-5.84,2.15,5.02,29.93,14.04,33.55,9.01,3.61,31.91-.17,31.91-.17Z"/><path class="cls-3" d="m284.69,922.81c11.09-10.13-9.77-167.33-88.85-209.66,0,0-20.71-15.51-47.18-.39-24.04,13.73-85.3,98.8-56.99,196.51,5.4,18.64,22.66,31.36,42.06,31.23,40.41-.28,103.25,25.9,150.96-17.68Z"/><path class="cls-12" d="m157.69,729.82s-46.69,25.85-49.74,88.2,31.69-3.98,36.52-34.08,34.05-61.31,13.22-54.12Z"/><path class="cls-32" d="m815.14,354.84l-13.53,56.47-2.96,12.33h25.43l-31.74,49.81-31.74-49.81h25.43l-2.96-12.33-13.53-56.47h45.6m7.58-10h-60.76c-2.6,0-4.52,2.43-3.91,4.96l15.3,63.84h-23.65c-3.18,0-5.1,3.51-3.39,6.18l42.64,66.91c.79,1.24,2.09,1.86,3.39,1.86s2.6-.62,3.39-1.86l42.64-66.91c1.71-2.68-.22-6.18-3.39-6.18h-23.65l15.3-63.84c.61-2.53-1.31-4.96-3.91-4.96h0Z"/><path class="cls-32" d="m942.33,401.53l16.01,16.01,16.01,16.01-49.22,30.19-10.81,6.63,8.97,8.97,8.91,8.91-57.25,12.68,12.68-57.25,8.91,8.91,8.97,8.97,6.63-10.81,30.19-49.22m-1.13-13.62c-1.33,0-2.65.66-3.42,1.91l-34.16,55.7-16.64-16.64c-.81-.81-1.82-1.18-2.81-1.18-1.77,0-3.49,1.17-3.93,3.14l-17.09,77.11c-.57,2.56,1.42,4.87,3.89,4.87.29,0,.58-.03.88-.1l77.11-17.09c3.09-.68,4.2-4.51,1.96-6.74l-16.64-16.64,55.7-34.16c2.21-1.35,2.57-4.41.74-6.24l-21.38-21.38-21.38-21.38c-.79-.79-1.81-1.17-2.83-1.17h0Z"/><path class="cls-32" d="m642.35,401.53l30.19,49.22,6.63,10.81,8.97-8.97,8.91-8.91,12.68,57.25-57.25-12.68,8.91-8.91,8.97-8.97-10.81-6.63-49.22-30.19,16.01-16.01,16.01-16.01m1.13-13.62c-1.01,0-2.03.38-2.83,1.17l-21.38,21.38-21.38,21.38c-1.83,1.83-1.47,4.89.74,6.24l55.7,34.16-16.64,16.64c-2.23,2.23-1.12,6.06,1.96,6.74l77.11,17.09c.3.07.59.1.88.1,2.47,0,4.46-2.31,3.89-4.87l-17.09-77.11c-.44-1.97-2.16-3.14-3.93-3.14-1,0-2.01.37-2.81,1.18l-16.64,16.64-34.16-55.7c-.77-1.25-2.09-1.91-3.42-1.91h0Z"/><path class="cls-13" d="m560.97,531.66h465.51c9.22,0,16.71,7.49,16.71,16.71v7.68h-498.94v-7.68c0-9.22,7.49-16.71,16.71-16.71Z"/><polygon class="cls-15" points="514.91 578.97 514.91 637.68 564.72 969.74 1022.62 969.74 1072.43 637.68 1072.43 578.97 514.91 578.97"/><path class="cls-15" d="m531.63,551.71h524.2c9.22,0,16.71,7.49,16.71,16.71v10.55h-557.63v-10.55c0-9.22,7.49-16.71,16.71-16.71Z"/><path class="cls-14" d="m974.83,911.8c5.15,0,9.32,4.17,9.32,9.32s-4.17,9.32-9.32,9.32-9.32-4.17-9.32-9.32,4.17-9.32,9.32-9.32Z"/><path class="cls-14" d="m981.61,881.3c5.15,0,9.32,4.17,9.32,9.32s-4.17,9.32-9.32,9.32-9.32-4.17-9.32-9.32,4.17-9.32,9.32-9.32Z"/><path class="cls-14" d="m1009.57,916.33c5.15,0,9.32,4.17,9.32,9.32s-4.17,9.32-9.32,9.32-9.32-4.17-9.32-9.32,4.17-9.32,9.32-9.32Z"/><path class="cls-14" d="m1026.51,811.82c3.74,0,6.78,3.03,6.78,6.78s-3.04,6.78-6.78,6.78-6.78-3.03-6.78-6.78,3.04-6.78,6.78-6.78Z"/><path class="cls-14" d="m1032.35,844.28c3.74,0,6.78,3.03,6.78,6.78s-3.04,6.78-6.78,6.78-6.78-3.03-6.78-6.78,3.04-6.78,6.78-6.78Z"/><path class="cls-14" d="m890.94,933.83c3.74,0,6.78,3.03,6.78,6.78s-3.04,6.78-6.78,6.78-6.78-3.03-6.78-6.78,3.04-6.78,6.78-6.78Z"/><path class="cls-14" d="m982.45,774.54c3.74,0,6.78,3.03,6.78,6.77s-3.04,6.78-6.78,6.78-6.78-3.03-6.78-6.78,3.03-6.77,6.78-6.77Z"/><path class="cls-14" d="m904.5,857.58c3.74,0,6.78,3.03,6.78,6.78s-3.03,6.78-6.78,6.78-6.78-3.04-6.78-6.78,3.03-6.78,6.78-6.78Z"/><path class="cls-14" d="m970.84,826.12c3.74,0,6.78,3.03,6.78,6.78s-3.04,6.78-6.78,6.78-6.78-3.04-6.78-6.78,3.03-6.78,6.78-6.78Z"/><path class="cls-14" d="m1025.72,752.73c1.72,0,3.11,1.39,3.11,3.11s-1.39,3.12-3.11,3.12-3.11-1.39-3.11-3.12,1.39-3.11,3.11-3.11Z"/><path class="cls-14" d="m929.81,774.2c1.72,0,3.12,1.39,3.12,3.11s-1.39,3.11-3.12,3.11-3.11-1.39-3.11-3.11,1.39-3.11,3.11-3.11Z"/><path class="cls-14" d="m954.63,863.4c1.72,0,3.11,1.39,3.11,3.11s-1.39,3.11-3.11,3.11-3.11-1.39-3.11-3.11,1.39-3.11,3.11-3.11Z"/><path class="cls-14" d="m933.17,886.87c1.72,0,3.11,1.4,3.11,3.12s-1.39,3.11-3.11,3.11-3.11-1.4-3.11-3.11,1.39-3.12,3.11-3.12Z"/><path class="cls-14" d="m919.45,954.99c1.72,0,3.11,1.4,3.11,3.12s-1.39,3.11-3.11,3.11-3.11-1.4-3.11-3.11,1.39-3.12,3.11-3.12Z"/><path class="cls-14" d="m846.65,880.83c1.72,0,3.11,1.4,3.11,3.12s-1.4,3.11-3.11,3.11-3.12-1.39-3.12-3.11,1.39-3.12,3.12-3.12Z"/><path class="cls-14" d="m997.55,846.63c1.72,0,3.11,1.39,3.11,3.11s-1.4,3.11-3.11,3.11-3.12-1.39-3.12-3.11,1.39-3.11,3.12-3.11Z"/><path class="cls-14" d="m949.44,949.59c4.7,0,8.52,3.82,8.52,8.52s-3.82,8.52-8.52,8.52-8.52-3.81-8.52-8.52,3.81-8.52,8.52-8.52Z"/><path class="cls-14" d="m998.69,726.85c3.74,0,6.78,3.03,6.78,6.78s-3.04,6.78-6.78,6.78-6.78-3.03-6.78-6.78,3.04-6.78,6.78-6.78Z"/><path class="cls-14" d="m915.22,813.33c3.74,0,6.78,3.03,6.78,6.78s-3.04,6.78-6.78,6.78-6.78-3.03-6.78-6.78,3.04-6.78,6.78-6.78Z"/><path class="cls-14" d="m957.26,741.58c6.55,0,11.86,5.31,11.86,11.87s-5.31,11.86-11.86,11.86-11.86-5.31-11.86-11.86,5.31-11.87,11.86-11.87Z"/><path class="cls-14" d="m922.67,913.78c6.55,0,11.86,5.31,11.86,11.86s-5.31,11.86-11.86,11.86-11.86-5.31-11.86-11.86,5.31-11.86,11.86-11.86Z"/><path class="cls-14" d="m1020.49,872.09c6.55,0,11.86,5.31,11.86,11.86s-5.31,11.86-11.86,11.86-11.86-5.31-11.86-11.86,5.31-11.86,11.86-11.86Z"/><path class="cls-14" d="m968.66,703.32c3.74,0,6.78,3.03,6.78,6.78s-3.04,6.78-6.78,6.78-6.78-3.04-6.78-6.78,3.03-6.78,6.78-6.78Z"/><path class="cls-14" d="m934.53,839.85c3.74,0,6.78,3.04,6.78,6.78s-3.03,6.78-6.78,6.78-6.78-3.04-6.78-6.78,3.03-6.78,6.78-6.78Z"/><path class="cls-14" d="m843.83,919.89c3.74,0,6.78,3.04,6.78,6.78s-3.03,6.78-6.78,6.78-6.78-3.04-6.78-6.78,3.03-6.78,6.78-6.78Z"/><path class="cls-14" d="m882.18,895.82c3.74,0,6.78,3.04,6.78,6.78s-3.03,6.78-6.78,6.78-6.78-3.04-6.78-6.78,3.03-6.78,6.78-6.78Z"/><path class="cls-14" d="m953.19,806.77c1.72,0,3.11,1.4,3.11,3.12s-1.4,3.11-3.11,3.11-3.12-1.4-3.12-3.11,1.4-3.12,3.12-3.12Z"/><path class="cls-14" d="m897.72,752.73c1.72,0,3.11,1.4,3.11,3.11s-1.4,3.12-3.11,3.12-3.12-1.39-3.12-3.12,1.39-3.11,3.12-3.11Z"/><path class="cls-14" d="m1030.64,705.26c1.72,0,3.11,1.4,3.11,3.11s-1.39,3.12-3.11,3.12-3.12-1.4-3.12-3.12,1.39-3.11,3.12-3.11Z"/><path class="cls-14" d="m904.5,778.36c1.72,0,3.12,1.39,3.12,3.11s-1.4,3.12-3.12,3.12-3.12-1.4-3.12-3.12,1.4-3.11,3.12-3.11Z"/><path class="cls-14" d="m916.34,741.35c1.72,0,3.11,1.39,3.11,3.11s-1.4,3.11-3.11,3.11-3.12-1.4-3.12-3.11,1.4-3.11,3.12-3.11Z"/><path class="cls-14" d="m997.63,805.53c5.15,0,9.32,4.17,9.32,9.32s-4.17,9.32-9.32,9.32-9.32-4.17-9.32-9.32,4.17-9.32,9.32-9.32Z"/><rect class="cls-13" x="514.91" y="578.97" width="557.51" height="58.71"/><path class="cls-7" d="m866.1,847.47c2.55-2.81,4.97-5.77,7.19-8.84,32.53-45.03,22.38-108.12-22.65-140.64-1.51-1.09-3.06-2.13-4.63-3.13l11.69,19.45c2.37,4.1,2.71,9.14.9,13.48-1.89,4.52-5.85,7.83-10.64,8.88l-22.51,5.21c16.75,14.99,21.61,39.39,11.92,59.59l-3.77-6c-.72-1.19-2.09-1.85-3.44-1.72-1.4.1-2.59,1-3.09,2.28l-24.16,59.78c-.47,1.09-.37,2.35.26,3.35.63,1,1.69,1.63,2.89,1.73l64.32,4.51h.26c1.3,0,2.49-.67,3.15-1.8.73-1.16.69-2.65-.03-3.82l-7.67-12.3Z"/><path class="cls-25" d="m833.29,745.01c-.5.58-1.39.65-1.98.14-.59-.5-.65-1.39-.14-1.98.51-.58,1.39-.65,1.98-.14.59.51.65,1.39.14,1.98Z"/><path class="cls-25" d="m862.46,716.09c-.5.58-1.39.65-1.97.14-.58-.51-.65-1.39-.14-1.98.5-.59,1.39-.65,1.97-.14.58.51.65,1.39.14,1.98Z"/><path class="cls-25" d="m855.97,707.3c-.5.59-1.39.65-1.97.14-.58-.51-.65-1.39-.14-1.97.51-.59,1.39-.65,1.98-.14.59.51.65,1.39.14,1.97Z"/><path class="cls-25" d="m849.41,742.8c-.5.59-1.39.65-1.98.14-.58-.51-.65-1.39-.14-1.98.51-.59,1.39-.65,1.98-.14.58.5.65,1.39.14,1.97Z"/><path class="cls-25" d="m837.15,753.1c-.23.27-.64.3-.91.07-.27-.23-.3-.64-.07-.91.23-.27.64-.3.91-.07.27.23.3.64.07.91Z"/><path class="cls-25" d="m855.11,735.29c-.23.27-.64.3-.91.07-.27-.23-.3-.64-.07-.91.23-.27.64-.3.91-.07.27.23.3.64.07.91Z"/><path class="cls-25" d="m863.29,721.78c-.23.27-.64.3-.91.07-.27-.23-.3-.64-.07-.91.23-.27.64-.3.91-.07.27.23.3.64.07.91Z"/><path class="cls-25" d="m852.33,699.73c-.23.27-.64.3-.91.07-.27-.23-.3-.64-.07-.91.07-.08.16-.14.26-.18.29.22.58.43.87.65,0,.13-.06.26-.15.37Z"/><path class="cls-25" d="m867.72,725.07c-.5.59-1.39.65-1.98.14-.58-.51-.65-1.39-.14-1.98.51-.59,1.39-.65,1.97-.14.59.51.65,1.39.14,1.98Z"/><path class="cls-25" d="m870.56,717.01c-.9.62-2.13.59-3-.16-1.02-.89-1.14-2.43-.25-3.46.04-.05.08-.09.12-.13,1.08,1.23,2.12,2.48,3.13,3.75Z"/><path class="cls-25" d="m845.55,751.5c-.51.58-1.39.65-1.98.14-.59-.51-.65-1.39-.14-1.98.5-.58,1.39-.65,1.98-.14.58.51.65,1.39.14,1.98Z"/><path class="cls-25" d="m854.62,749.08c-.5.59-1.39.65-1.97.14-.58-.51-.65-1.39-.14-1.97.51-.59,1.39-.65,1.98-.14s.65,1.39.14,1.97Z"/><path class="cls-25" d="m875.38,723.63c-.51.51-1.34.54-1.9.06-.59-.51-.65-1.39-.14-1.98.14-.16.3-.28.48-.36.53.75,1.05,1.51,1.56,2.27Z"/><path class="cls-25" d="m861.65,738.1c-.51.59-1.39.65-1.98.14-.59-.51-.65-1.39-.14-1.97.5-.59,1.39-.65,1.97-.14.59.51.65,1.39.14,1.97Z"/><path class="cls-25" d="m843.24,743.96c-.5.59-1.39.65-1.98.14-.58-.51-.65-1.39-.14-1.98.5-.58,1.39-.65,1.97-.14.58.51.65,1.39.14,1.98Z"/><path class="cls-25" d="m861.37,707.15c-.23.27-.64.3-.91.07-.27-.23-.3-.64-.07-.91.05-.06.11-.11.17-.14.3.28.59.57.89.85-.02.05-.05.09-.09.13Z"/><path class="cls-25" d="m859.3,743.77c-.23.27-.64.3-.91.07-.27-.23-.3-.64-.07-.91.23-.27.64-.3.91-.07.27.23.3.64.07.91Z"/><path class="cls-25" d="m866.78,732.98c-.23.27-.64.3-.91.07-.27-.23-.3-.64-.07-.91.23-.27.64-.3.91-.07.27.23.3.64.07.91Z"/><path class="cls-25" d="m842.27,758c-.23.27-.64.3-.91.07-.27-.23-.3-.64-.07-.91.23-.27.64-.3.91-.07.27.23.3.64.07.91Z"/><path class="cls-25" d="m861.08,732.33c-.69.8-1.91.89-2.72.2-.8-.7-.89-1.91-.2-2.72.7-.8,1.91-.89,2.72-.2.81.7.9,1.91.2,2.72Z"/><path class="cls-7" d="m827.22,873.81c-44.48,16.91-96.21.26-121.83-41.82-1.96-3.25-3.75-6.62-5.35-10.06l-14.32,2.3c-1.35.21-2.76-.33-3.52-1.45-.78-1.04-.95-2.41-.44-3.6l.1-.24,29.11-57.52c.57-1.06,1.55-1.79,2.72-1.99,1.16-.2,2.36.2,3.18,1.06l45.72,45.45c1.01.96,1.37,2.41.91,3.73-.41,1.3-1.53,2.3-2.92,2.51l-6.98,1.14c12.04,13.6,30.37,19.46,47.69,16.03l-8.92,22.1c-1.89,4.5-1.45,9.64,1.16,13.81,2.56,4.03,6.77,6.57,11.55,6.98l22.15,1.57Z"/><path class="cls-7" d="m848.07,723.39c-.46,1.08-1.44,1.89-2.59,2.14l-62.82,14.53c-1.34.33-2.76-.15-3.64-1.22-.88-1.04-1.13-2.53-.57-3.82l2.76-6.52c-20.44,3.39-36.66,19-41.12,38.96l-15.1-15.02c-2.81-2.85-6.69-4.49-10.7-4.49-.83,0-1.66.07-2.46.2-4.71.8-8.71,3.69-10.94,7.94l-12,23.71c-.03-.93-.03-1.84-.02-2.77.8-55.55,46.63-100.08,102.16-99.28,3.8.07,7.6.33,11.37.82l5.68-13.36c.54-1.26,1.75-2.14,3.11-2.2,1.29-.11,2.53.47,3.26,1.55l.16.21,33.22,55.26c.6,1.03.7,2.27.24,3.36Z"/><path class="cls-25" d="m710.78,740.04c-.8.93-2.2,1.03-3.12.23-.93-.8-1.03-2.2-.23-3.13.8-.93,2.2-1.03,3.13-.23.93.8,1.03,2.2.23,3.13Z"/><path class="cls-25" d="m690.9,771.5c-.47.55-1.19.76-1.85.63.08-1.28.19-2.55.31-3.81.47-.02.95.13,1.34.47.8.7.89,1.91.2,2.72Z"/><path class="cls-25" d="m697.44,752.16c-.7.81-1.91.89-2.72.2-.8-.7-.89-1.91-.2-2.72.7-.8,1.91-.89,2.72-.2s.89,1.91.2,2.72Z"/><path class="cls-25" d="m716.6,746.05c-.69.81-1.91.89-2.72.2-.8-.69-.89-1.91-.2-2.72.7-.81,1.91-.89,2.72-.2.8.7.89,1.91.2,2.72Z"/><path class="cls-25" d="m732.73,747.73c-.51.59-1.39.65-1.98.14-.58-.51-.65-1.39-.14-1.97.51-.59,1.39-.65,1.97-.14.59.5.65,1.39.14,1.97Z"/><path class="cls-25" d="m702.28,738.53c-.5.59-1.39.65-1.97.14-.58-.5-.65-1.39-.14-1.97.5-.59,1.39-.65,1.97-.14.59.51.65,1.39.14,1.98Z"/><path class="cls-25" d="m700.88,744.83c-.51.58-1.39.65-1.97.14-.59-.51-.65-1.39-.14-1.98.51-.59,1.39-.65,1.98-.14.58.51.65,1.39.14,1.97Z"/><path class="cls-25" d="m742.14,760.59c-.44.12-.92.03-1.29-.29-.59-.51-.65-1.39-.14-1.98.51-.58,1.39-.65,1.98-.14.12.1.22.22.29.35-.29.68-.57,1.36-.83,2.06Z"/><path class="cls-25" d="m703.1,749.98c-.23.27-.64.3-.91.07-.27-.23-.3-.64-.07-.91.23-.27.64-.3.91-.07.27.23.3.64.07.91Z"/><path class="cls-25" d="m734.37,760.68c-.23.27-.64.3-.91.07-.27-.23-.3-.64-.07-.91.23-.27.64-.3.91-.07.27.23.3.64.07.91Z"/><path class="cls-25" d="m747,747.97c-.23.27-.64.3-.91.07-.27-.23-.3-.64-.07-.91.23-.27.64-.3.91-.07.27.23.3.64.07.91Z"/><path class="cls-25" d="m726.63,735.31c-.23.27-.64.3-.91.07-.27-.23-.3-.64-.06-.91.23-.27.64-.3.91-.07.27.23.3.64.07.91Z"/><path class="cls-25" d="m722.22,746.34c-.23.27-.64.3-.91.07-.27-.23-.3-.64-.07-.91.23-.27.64-.3.91-.07.27.23.3.64.07.91Z"/><path class="cls-25" d="m706.56,744.33c-.23.27-.64.3-.91.07-.27-.23-.3-.64-.07-.91s.64-.3.91-.07c.27.23.3.64.07.91Z"/><path class="cls-25" d="m731.6,741.09c-.64.73-1.75.82-2.48.18-.73-.64-.82-1.75-.18-2.48.63-.74,1.75-.82,2.48-.18.74.64.82,1.75.18,2.48Z"/><path class="cls-25" d="m731.58,755.4c-.89,1.02-2.43,1.14-3.46.25-1.02-.89-1.13-2.43-.25-3.46.89-1.02,2.43-1.14,3.46-.25,1.02.89,1.14,2.43.25,3.46Z"/><path class="cls-25" d="m694.76,759.51c-.89,1.02-2.43,1.14-3.46.25-.24-.21-.43-.46-.57-.72.2-1.02.42-2.04.65-3.05.9-.72,2.22-.72,3.13.07,1.02.88,1.13,2.43.25,3.46Z"/><path class="cls-25" d="m741.28,742.26c-.51.59-1.39.65-1.97.14-.59-.51-.65-1.39-.14-1.97.51-.58,1.39-.65,1.97-.14.59.51.65,1.39.14,1.98Z"/><path class="cls-25" d="m739.86,751.5c-.5.58-1.39.65-1.97.14-.58-.51-.65-1.39-.14-1.97.51-.59,1.39-.65,1.98-.14.59.51.65,1.39.14,1.98Z"/><path class="cls-25" d="m723.39,741.67c-.23.27-.64.3-.91.07-.27-.23-.3-.64-.07-.91.23-.27.64-.3.91-.07.27.23.3.64.07.91Z"/><path class="cls-25" d="m715.8,735.72c-.23.27-.64.3-.91.07-.27-.23-.3-.64-.07-.91.23-.27.64-.3.91-.07.27.23.3.64.07.91Z"/><path class="cls-25" d="m708.02,733.31c-.23.27-.64.3-.91.07-.27-.23-.3-.64-.07-.91.23-.27.64-.3.91-.07.27.23.3.64.07.91Z"/><path class="cls-25" d="m788.69,861.63c-1.26,1.46-3.48,1.62-4.94.36-1.46-1.26-1.62-3.48-.36-4.94s3.48-1.62,4.94-.36c1.46,1.26,1.62,3.48.36,4.94Z"/><path class="cls-25" d="m795.35,839.1c-.8.93-2.2,1.03-3.13.23-.93-.8-1.03-2.2-.23-3.13.8-.93,2.2-1.03,3.12-.23.93.8,1.03,2.2.23,3.13Z"/><path class="cls-25" d="m805.58,876.46c-.7.8-1.91.89-2.72.2-.8-.7-.89-1.91-.2-2.72.7-.8,1.91-.89,2.72-.2.8.7.89,1.91.2,2.72Z"/><path class="cls-25" d="m772.19,867.91c-.7.81-1.91.89-2.72.2-.8-.69-.89-1.91-.2-2.72.7-.8,1.91-.89,2.72-.2.81.69.9,1.91.2,2.71Z"/><path class="cls-25" d="m791.05,843.95c-.69.8-1.91.89-2.72.2-.8-.7-.89-1.91-.2-2.72.7-.81,1.91-.89,2.72-.2.8.7.89,1.91.2,2.72Z"/><path class="cls-25" d="m783.88,841c-.7.81-1.91.89-2.72.2-.8-.7-.89-1.91-.2-2.72.7-.8,1.91-.89,2.72-.2s.89,1.91.2,2.71Z"/><path class="cls-25" d="m793.88,870.18c-.7.8-1.91.89-2.72.2-.81-.7-.89-1.91-.2-2.72.69-.8,1.91-.89,2.72-.2.8.7.89,1.91.2,2.72Z"/><path class="cls-25" d="m814.61,876.12c-.51.59-1.39.65-1.98.14-.58-.51-.65-1.39-.14-1.98.5-.58,1.39-.65,1.98-.14.58.51.65,1.39.14,1.97Z"/><path class="cls-25" d="m786.34,850.76c-.96,1.11-2.63,1.23-3.73.27-1.11-.96-1.23-2.63-.27-3.73.96-1.11,2.63-1.23,3.74-.27,1.11.96,1.23,2.63.27,3.73Z"/><path class="cls-25" d="m774.04,850.77c-.51.59-1.39.65-1.98.14-.59-.51-.65-1.39-.14-1.98.5-.58,1.39-.65,1.97-.14.58.51.65,1.39.14,1.98Z"/><path class="cls-25" d="m783.77,868.43c-.5.59-1.39.65-1.97.14-.58-.51-.65-1.39-.14-1.98.5-.59,1.39-.65,1.98-.14.58.51.65,1.39.14,1.97Z"/><path class="cls-25" d="m793.48,879.15c-.5.58-1.39.65-1.97.14-.58-.5-.65-1.39-.14-1.98.51-.58,1.39-.65,1.98-.14.58.51.65,1.39.14,1.98Z"/><path class="cls-25" d="m802.88,879.7c.71-.56,1.67-.67,2.49-.31-.83.11-1.66.22-2.49.31Z"/><path class="cls-25" d="m820.06,876.22c.02-.12.07-.23.15-.33.23-.27.64-.3.91-.07.02.02.04.04.06.06-.37.11-.74.23-1.11.34Z"/><path class="cls-25" d="m787.18,831.95c-.23.27-.64.3-.91.07-.27-.23-.3-.64-.07-.91.23-.27.64-.3.91-.07.27.23.3.64.07.91Z"/><path class="cls-25" d="m775.33,835.27c-.23.27-.64.3-.91.07-.27-.23-.3-.64-.07-.91.23-.27.64-.3.91-.07.27.23.3.64.07.91Z"/><path class="cls-25" d="m778.35,859.12c-.23.27-.64.3-.91.07-.27-.23-.3-.64-.07-.91.23-.27.64-.3.91-.07.27.23.3.64.07.91Z"/><path class="cls-25" d="m787.98,865.98c-.23.27-.64.3-.91.07-.27-.23-.3-.64-.07-.91.23-.27.64-.3.91-.07.27.23.3.64.07.91Z"/><path class="cls-25" d="m788.26,875.2c-.23.27-.64.3-.91.07-.27-.23-.3-.64-.07-.91.23-.27.64-.3.91-.07.27.23.3.64.07.91Z"/><path class="cls-25" d="m794.91,831.96c-.88,1.02-2.43,1.14-3.46.25-.57-.5-.86-1.2-.85-1.91,1.63.03,3.26-.02,4.89-.15.05.63-.14,1.29-.59,1.81Z"/><path class="cls-25" d="m773.04,843.24c-.89,1.02-2.43,1.14-3.46.25-1.02-.89-1.14-2.43-.25-3.46.89-1.02,2.43-1.14,3.46-.25,1.03.88,1.14,2.43.25,3.46Z"/><path class="cls-25" d="m779.09,874.97c-.89,1.02-2.43,1.14-3.46.25-1.02-.88-1.14-2.43-.25-3.46.89-1.02,2.43-1.14,3.46-.25,1.02.89,1.14,2.43.25,3.46Z"/><path class="cls-25" d="m765.63,855.35c-.51.58-1.39.65-1.97.14-.59-.51-.65-1.39-.14-1.98.5-.59,1.39-.65,1.98-.14.58.51.65,1.39.14,1.98Z"/><path class="cls-25" d="m781.75,855.94c-.5.59-1.39.65-1.97.14-.59-.5-.65-1.39-.14-1.97.5-.59,1.39-.65,1.98-.14.58.51.65,1.39.14,1.97Z"/><path class="cls-25" d="m799.55,879.11c-.69.81-1.91.89-2.72.2-.8-.7-.89-1.91-.2-2.72.7-.81,1.91-.89,2.72-.2.8.7.89,1.91.2,2.72Z"/><circle class="cls-35" cx="562.14" cy="969.74" r="49.99" transform="translate(-113.08 75.05) rotate(-6.94)"/><path class="cls-38" d="m562.14,985.54c8.7,0,15.8-7.1,15.8-15.8s-7.1-15.8-15.8-15.8-15.8,7.1-15.8,15.8,7.1,15.8,15.8,15.8Z"/><circle class="cls-35" cx="1022.55" cy="969.74" r="49.99" transform="translate(-109.71 130.69) rotate(-6.94)"/><path class="cls-38" d="m1022.55,985.54c8.7,0,15.8-7.1,15.8-15.8s-7.1-15.8-15.8-15.8-15.8,7.1-15.8,15.8,7.1,15.8,15.8,15.8Z"/><path class="cls-19" d="m474.68,841.1c33.99-18.73,63.78-39.78,87.5-60.89,17.26-15.38,26.05-34.07,23.26-49.3-2.05-11.37-5.9-22.43-11.65-32.85l-129.33,71.29c11.71,21.24,17,44.24,16.48,66.62-.1,4.5-1.1,9.19-2.89,13.9,5.53-2.79,11.07-5.71,16.63-8.77Z"/><path class="cls-19" d="m263.52,848.87c-33.33-19.88-62.39-41.93-85.38-63.83-16.73-15.96-24.87-34.94-21.58-50.06,2.44-11.3,6.66-22.21,12.76-32.44l126.83,75.64c-12.42,20.83-18.49,43.64-18.73,66.03-.06,4.51.78,9.22,2.42,13.99-5.43-2.98-10.87-6.08-16.32-9.33Z"/><path class="cls-19" d="m440.85,872.36v147.68c-11.9,0-23.44-1.97-34.39-5.66-14.68-4.92-26.8-21.63-31.94-44.17-7.04-30.96-11.09-67.22-11.09-106.02,0-6.35.12-12.61.34-18.8,3.26,3.85,6.88,6.99,10.78,9.24,19.35,11.26,42.05,17.73,66.3,17.73Z"/><path class="cls-19" d="m287.45,872.36v147.68c11.9,0,23.44-1.97,34.39-5.66,14.68-4.92,26.8-21.63,31.94-44.17,7.04-30.96,11.09-67.22,11.09-106.02,0-6.35-.12-12.61-.34-18.8-3.26,3.85-6.88,6.99-10.78,9.24-19.35,11.26-42.05,17.73-66.3,17.73Z"/><path class="cls-7" d="m471.57,770.72c0,33.67-5.62,65.13-15.39,91.98-7.12,19.56-23.96,34.05-44.33,38.32-15.2,3.19-31.18,4.9-47.71,4.9s-32.51-1.71-47.71-4.9c-20.37-4.28-37.2-18.77-44.33-38.32-9.76-26.86-15.39-58.32-15.39-91.98,0-5.5.15-10.94.47-16.3,4.54,3.33,9.56,6.05,14.97,8.02,26.86,9.76,58.33,15.39,91.98,15.39s65.13-5.62,91.98-15.39c5.42-1.97,10.44-4.69,14.97-8.02.31,5.36.47,10.8.47,16.3Z"/><path class="cls-32" d="m364.35,535.92v-7.26c0-57.02,57.95-71.26,57.95-71.26,9.6,65.84-30.57,77.79-57.95,78.52Z"/><path class="cls-32" d="m361.94,557.95v-7.26c0-57.02-57.95-71.26-57.95-71.26-9.6,65.84,30.57,77.79,57.95,78.52Z"/><path class="cls-32" d="m384.69,443.24c0,29.5-22.75,53.41-22.75,53.41,0,0-22.75-23.91-22.75-53.41s22.75-53.41,22.75-53.41c0,0,22.75,23.91,22.75,53.41Z"/><line class="cls-36" x1="361.94" y1="567.27" x2="361.94" y2="443.24"/><line class="cls-36" x1="403.55" y1="490.66" x2="361.94" y2="535.92"/><line class="cls-36" x1="326.79" y1="512.44" x2="361.94" y2="550.63"/><path class="cls-19" d="m499.54,672.95c0,16.52-1.71,32.51-4.9,47.71-3.09,14.73-11.52,27.61-23.35,36.31-4.54,3.33-9.56,6.05-14.97,8.02-26.85,9.76-58.33,15.39-91.98,15.39s-65.13-5.62-91.98-15.39c-5.42-1.97-10.44-4.69-14.97-8.02-11.83-8.69-20.27-21.58-23.35-36.31-3.19-15.2-4.9-31.18-4.9-47.71s1.71-32.51,4.9-47.71c4.28-20.37,18.77-37.2,38.32-44.33,26.86-9.76,58.33-15.39,91.98-15.39s65.13,5.62,91.98,15.39c19.56,7.12,34.05,23.96,38.33,44.33,3.19,15.2,4.9,31.18,4.9,47.71Z"/><path class="cls-1" d="m471.75,672.96c0,9.73-1.36,19.14-3.89,28.08-2.45,8.67-9.15,16.25-18.55,21.37-3.6,1.96-7.59,3.56-11.89,4.72-21.34,5.75-46.34,9.06-73.08,9.06s-51.74-3.31-73.08-9.06c-4.3-1.16-8.29-2.76-11.89-4.72-9.4-5.12-16.1-12.7-18.55-21.37-2.54-8.94-3.89-18.35-3.89-28.08s1.36-19.14,3.89-28.08c3.4-11.99,14.91-21.9,30.45-26.09,21.34-5.75,46.34-9.06,73.08-9.06s51.74,3.31,73.08,9.06c15.54,4.19,27.05,14.1,30.45,26.09,2.53,8.94,3.89,18.35,3.89,28.08Z"/><rect class="cls-7" x="378.96" y="641.27" width="42.04" height="13.52" rx="6.76" ry="6.76"/><rect class="cls-7" x="314.09" y="629.69" width="23.68" height="36.67" rx="11.84" ry="11.84"/><path class="cls-7" d="m364.33,717.19c-20.71,0-37.56-13.64-37.56-30.41,0-4.34,3.52-7.85,7.85-7.85s7.85,3.52,7.85,7.85c0,7.97,10.01,14.71,21.86,14.71s21.86-6.74,21.86-14.71c0-4.34,3.52-7.85,7.85-7.85s7.85,3.52,7.85,7.85c0,16.77-16.85,30.41-37.56,30.41Z"/><path class="cls-1" d="m274.42,591.61c-2.41,0-4.82-.92-6.66-2.76l-29.18-29.18c-3.68-3.68-3.68-9.64,0-13.32,3.68-3.68,9.64-3.68,13.32,0l29.18,29.18c3.68,3.68,3.68,9.64,0,13.32-1.84,1.84-4.25,2.76-6.66,2.76Z"/><path class="cls-1" d="m259.74,539.55c-7.72-7.72-20.24-7.72-27.95,0-7.72,7.72-7.72,20.24,0,27.95,7.72,7.72,20.24,7.72,27.95,0,7.72-7.72,7.72-20.24,0-27.95Z"/><path class="cls-1" d="m453.88,591.28c2.41,0,4.82-.92,6.66-2.76l29.18-29.18c3.68-3.68,3.68-9.64,0-13.32-3.68-3.68-9.64-3.68-13.32,0l-29.18,29.18c-3.68,3.68-3.68,9.64,0,13.32,1.84,1.84,4.25,2.76,6.66,2.76Z"/><path class="cls-1" d="m468.56,539.23c7.72-7.72,20.24-7.72,27.95,0,7.72,7.72,7.72,20.24,0,27.95-7.72,7.72-20.24,7.72-27.95,0-7.72-7.72-7.72-20.24,0-27.95Z"/><circle class="cls-24" cx="391.25" cy="887.84" r="9.02"/><circle class="cls-24" cx="406.74" cy="858.42" r="8.13"/><circle class="cls-24" cx="442.68" cy="809.64" r="8.13"/><circle class="cls-24" cx="391.25" cy="845.57" r="4.72"/><circle class="cls-24" cx="428.16" cy="854.78" r="4.72"/><circle class="cls-24" cx="448.54" cy="835.84" r="11.53"/><circle class="cls-24" cx="442.68" cy="866.45" r="9.81"/><circle class="cls-24" cx="422.37" cy="835.84" r="5.96"/><circle class="cls-24" cx="371.94" cy="881.54" r="5.96"/><circle class="cls-24" cx="371.94" cy="858.6" r="3.17"/><circle class="cls-24" cx="386.87" cy="870.02" r="3.17"/><circle class="cls-24" cx="421" cy="808.3" r="3.17"/><circle class="cls-24" cx="398.61" cy="822.37" r="3.17"/><circle class="cls-24" cx="460.21" cy="809.64" r="3.17"/><circle class="cls-24" cx="421" cy="885.68" r="8.63"/><path class="cls-31" d="m1251.35,284.24c4.17-18.72,3.03-38.24-3.27-56.35l-1.92-5.52c-2.11-6.05-1.47-12.71,1.74-18.25l8.84-15.24-11.38-6.6h0s-11.38-6.6-11.38-6.6l-8.84,15.24c-3.21,5.54-8.68,9.4-14.98,10.58l-5.74,1.07c-18.86,3.52-36.36,12.22-50.54,25.14h0c-5.93,5.4-10.99,11.68-15.02,18.61l-87.94,151.61c-7.37,12.71-13.88,25.91-19.47,39.5l-3.5,8.51c-4.36,7.52-1.81,17.16,5.72,21.53,7.52,4.36,15.76,4.22,20.12-3.31l.77-1.28c.83-1.42,2.65-1.9,4.07-1.07l2.19,1.27c1.43.83,1.91,2.65,1.08,4.08l-1.68,2.89c-3.85,6.64-.19,12.72,6.45,16.56l3.22,1.87c6.64,3.85,13.73,4.01,17.58-2.63l1.68-2.89c.83-1.43,2.65-1.91,4.08-1.08l2.2,1.28c1.43.83,1.91,2.65,1.08,4.08l-.56.96c-4.29,7.39-.78,14.6,6.46,19.14,7.59,4.76,17.55,2.25,22.01-5.43l5.65-7.26c9.02-11.6,17.25-23.8,24.62-36.52l87.94-151.61c4.02-6.93,6.96-14.45,8.7-22.27h0Z"/><path class="cls-33" d="m1057.3,459l1.68-2.89c.83-1.43.34-3.25-1.08-4.08l-2.19-1.27c-1.42-.82-3.24-.34-4.07,1.07l-.77,1.28c-4.36,7.52-12.6,7.67-20.12,3.31-1.95-1.13-3.56-2.62-4.81-4.33-.67,6.02,2.17,12.15,7.75,15.38,7.52,4.36,15.76,4.22,20.12-3.31l.77-1.28c.37-.64,2.22-3.01,2.73-3.88Z"/><path class="cls-33" d="m1093.04,477.15l.56-.96c.83-1.43.34-3.25-1.08-4.08l-2.2-1.28c-1.43-.83-3.25-.34-4.08,1.08l-1.68,2.89c-3.85,6.64-10.95,6.47-17.58,2.63l-3.22-1.87c-1.72-1-3.23-2.15-4.48-3.42-2.06,5.81,1.48,11.03,7.41,14.47l3.22,1.87c6.64,3.85,13.73,4.01,17.58-2.63l1.68-2.89c.49-.84,3.02-4.35,3.87-5.82Z"/><path class="cls-33" d="m1251.35,284.24h0c4.17-18.72,3.03-38.24-3.27-56.35l-1.92-5.52c-2.11-6.05-1.47-12.71,1.74-18.25l8.84-15.24-11.38-6.6h0s-4.35-2.52-4.35-2.52l-8.84,15.24c-3.21,5.54-3.85,12.2-1.74,18.25l1.92,5.52c6.31,18.11,7.44,37.63,3.27,56.35h0c-1.74,7.83-4.68,15.34-8.7,22.27l-87.94,151.61c-7.37,12.71-15.6,24.91-24.62,36.52l-5.65,7.26c-2.8,4.83-7.78,7.62-12.99,7.83,1.43,2.57,3.75,4.87,6.7,6.72,7.59,4.76,17.55,2.25,22.01-5.43l5.65-7.26c9.02-11.6,17.25-23.8,24.62-36.52l87.94-151.61c4.02-6.93,6.96-14.45,8.7-22.27Z"/><rect class="cls-2" x="1230.02" y="170.07" width="32.99" height="22.88" rx="4.65" ry="4.65" transform="translate(259.32 -600.91) rotate(30.11)"/><rect class="cls-2" x="1221.62" y="192.13" width="32.99" height="7.69" rx="3.85" ry="3.85" transform="translate(265.45 -594.75) rotate(30.11)"/><rect class="cls-13" x="1235.01" y="165.49" width="2.66" height="20.23" transform="translate(254.98 -596.61) rotate(30.11)"/><rect class="cls-13" x="1240.1" y="168.44" width="2.66" height="20.23" transform="translate(257.15 -598.76) rotate(30.11)"/><rect class="cls-13" x="1245.19" y="171.39" width="2.66" height="20.23" transform="translate(259.32 -600.91) rotate(30.11)"/><rect class="cls-13" x="1250.27" y="174.34" width="2.66" height="20.23" transform="translate(261.49 -603.07) rotate(30.11)"/><rect class="cls-13" x="1255.36" y="177.3" width="2.66" height="20.23" transform="translate(263.65 -605.22) rotate(30.11)"/><path class="cls-28" d="m1194.96,250.38l-14.75-10.44c-7.11-5.03-7.84-15.31-1.52-21.31h0c7.58-7.18,18.97-8.51,28-3.27h0c9.58,5.56,13.99,17.05,10.59,27.59h0c-3.02,9.38-14.28,13.12-22.32,7.43Z"/><path class="cls-28" d="m1064.06,425.87h0c-3.72-2.16-4.46-7.76-1.64-12.4l98.32-162.28c1.43-2.36,4.07-3.36,5.96-2.27h0c1.88,1.09,2.32,3.89.99,6.3l-92.04,165.92c-2.63,4.75-7.87,6.89-11.58,4.73Z"/><path class="cls-28" d="m1043.57,450.35l-1.68,2.89c-.83,1.43-2.65,1.91-4.08,1.08l-2.19-1.27c-1.42-.82-1.91-2.64-1.09-4.07l.73-1.3c1.22-2.1,1.79-4.18,1.81-6.18.04-3.38,3.78-5.53,6.72-3.85.03.02.05.03.08.05,1.06.61,2.04,1.28,2.94,2,2.35,1.88,2.1,5.44-.3,7.24-1.11.83-2.11,1.96-2.95,3.4Z"/><path class="cls-28" d="m1076.36,469.38l-1.68,2.89c-.83,1.43-2.65,1.91-4.08,1.08l-2.19-1.27c-1.42-.82-1.91-2.64-1.09-4.07l.73-1.3c1.22-2.1,1.79-4.18,1.81-6.18.04-3.38,3.78-5.53,6.72-3.85.03.02.05.03.08.05,1.06.61,2.04,1.28,2.94,2,2.35,1.88,2.1,5.44-.3,7.24-1.11.83-2.11,1.96-2.95,3.4Z"/><polygon class="cls-16" points="962.45 369.89 897.24 330.67 931.18 154.02 997.52 187.82 962.45 369.89"/><polygon class="cls-21" points="1034.02 351.42 962.45 369.89 997.52 187.82 1071.03 182.26 1034.02 351.42"/><polygon class="cls-10" points="1033.64 143.89 1027.04 151.92 997.52 187.82 1071.03 182.26 1033.64 143.89"/><polygon class="cls-23" points="1071.03 182.26 1027.04 151.92 997.52 187.82 1071.03 182.26"/><polygon class="cls-21" points="984.14 122.95 1033.64 143.89 997.52 187.82 931.18 154.02 984.14 122.95"/><path class="cls-10" d="m1033.64,143.89l-49.49-20.94,2.37-12.95c.89-4.62,5.12-6.93,9.44-5.17l34.01,14.27c4.32,1.76,7.11,6.93,6.22,11.55l-2.55,13.23Z"/><path class="cls-34" d="m998.87,143.03l-5.48-10.86-24.93,12.58,5.48,10.86c2.04,4.04,9.28,4.51,16.16,1.03,6.88-3.47,10.81-9.57,8.77-13.61Z"/><ellipse class="cls-30" cx="980.93" cy="138.46" rx="13.96" ry="8.2" transform="translate(42.8 456.75) rotate(-26.78)"/><polygon class="cls-30" points="920.89 207.31 988.43 234.93 1060.1 232.6 1047.83 288.57 976.19 298.55 909.97 264.17 920.89 207.31"/><polygon class="cls-34" points="976.19 298.55 976.19 298.55 1047.83 288.57 1060.1 232.6 988.48 234.92 976.19 298.55"/><path class="cls-16" d="m918.01,222.62s2.48,1.52,4.42,1.35c2.71-.25,3.62-2.44,6.03-1.99.15.03,2.74.55,3.93,3.26,1.19,2.7.34,6.09-.66,9.92-2.21,8.46-4.88,10.05-4.72,15.54.01.45.18,5.13,1.88,6.07,1.47.81,3.56-1.43,4.63-3.81,1.47-3.27.42-5.54.95-12.65.37-4.99.68-9.1,2.78-10.97,1.53-1.36,3.66-1.21,5.19-.13,1.5,1.06,1.67,2.49,4.13,7.44,2.14,4.3,3.23,6.45,4.53,7.05,2.12.98,4.87-.44,6.41-2.7,1.18-1.72,1.24-3.33,2.87-4.68.57-.47,1.61-1.34,2.73-.85,1.28.57,2.09,2.7,2.29,4.48.33,2.94-1.12,4.13-1.34,7.92-.09,1.6-.15,3.4.5,5.12.25.67.53,1.38,1,1.56,1.08.39,2.67-2.22,3.37-4.95.99-3.85-.32-5.92.91-8.43.66-1.34,1.84-2.39,3.03-2.32,2.06.11,3.54,3.51,4.35,5.38,1.57,3.6,1.14,5.32,2.4,6.27,1.73,1.31,4.21-.65,4.71-1.04.76-.6,1.31-1.29,1.67-1.8l2.51-13.12-66.89-30.76-3.62,18.85Z"/><path class="cls-21" d="m988.45,234.62s-2.44,13.05-2.44,13.03c1.28-2.96,4.3-3.11,6.54-2.51,1.29.35,2.12,1.78,2.28,3.3.29,2.85-1.93,4.4-2.44,8.45-.36,2.86.27,5.9,1.56,5.9.57,0,1.15-.6,1.68-1.15,1.38-1.42,2.04-3.17,2.59-4.74,1.3-3.72.25-5.37,1.79-8.1.93-1.65,2.66-3.43,4.24-3.54,1.38-.1,2.13,1.11,2.53,1.76,1.16,1.87.58,3.44,1.11,5.51.7,2.71,3,5,5.62,4.79,1.6-.13,3.62-1.82,7.62-5.22,4.61-3.91,5.37-5.23,7.38-5.74,2.04-.51,4.32.08,5.35,1.91,1.42,2.52.03,6.56-1.65,11.45-2.38,6.94-4.4,8.74-4.22,12.32.13,2.6,1.37,5.41,3.2,5.12,2.13-.33,4.22-4.68,4.42-5.1,2.42-5.14.33-7.54,1.55-16.34.56-4.01,1.09-7.56,3.44-9.74,2.37-2.2,5.27-1.81,5.43-1.79,2.68.41,2.7,2.82,5.4,3.99,1.92.83,5.12.22,5.12.22l4.25-19.45-72.36,5.64Z"/><path class="cls-40" d="m674,221.36l-20.39-4.41c-1.37-.44-4.26-1.13-6.04-1.55-.94-.22-1.67-.93-1.92-1.86-.53-1.97-1.45-5.41-1.98-7.45l-24.93-93.53c-.26-1.03-.06-2.08.47-2.89l31.56,8.51,11.98,3.58,7.41,76.97,3.83,22.63Z"/><path class="cls-37" d="m684.88,102.56l-34.11,15.62-31.56-8.51c.38-.62.97-1.11,1.69-1.35h.01s29.78-11.57,29.78-11.57c1.6-.5,4.79-1.7,6.47-2.33.72-.27,1.5-.28,2.23-.03,1.62.56,4.61,1.59,6.54,2.15l18.95,6.02Z"/><path class="cls-41" d="m711.34,201.44l-24.6-96.61c-.45-1.86-2.22-2.92-3.96-2.38l-34.9,13.01c-1.69.53-2.69,2.43-2.24,4.26l25.94,99.21c.44,1.76,2.15,2.82,3.83,2.37l33.59-15.77c1.72-.46,2.77-2.29,2.34-4.08Z"/><path class="cls-41" d="m619.21,109.67l26.86,7.24-9.97,27.6c-.18.5-.82.55-1.05.08l-16.31-32.03s-.62-1.62.47-2.89Z"/><path class="cls-37" d="m636.1,144.52l9.97-27.6-.91,4.1c-1.8,8.16-4.77,15.92-8.78,23.01l-.28.49Z"/><path class="cls-40" d="m631.35,112.94l14.72,3.97-9.97,27.6s-.16.71-.61.4l-4.14-31.97Z"/><path class="cls-39" d="m656.95,105.96c0,.16-.11.3-.28.43-.47.37-1.55.59-2.78.51-.76-.05-1.44-.19-1.96-.41-.6-.24-.97-.56-.95-.9.01-.23.22-.44.56-.61.56-.26,1.47-.39,2.48-.33s1.83.28,2.35.58c.37.21.58.47.57.72Z"/><path class="cls-17" d="m680.09,58.33c0-.6-.49-1.58-1.31-2.5-.5-.57-1.04-1.02-1.53-1.29l-1.43.62-26.27,11.59c-4.01,1.77-6.15,6.17-5.07,10.41l7.06,27.83.39,1.51c.52.22,1.2.36,1.96.41,1.23.07,2.3-.14,2.78-.51l-.29-1.15-6.98-27.48c-.78-3.06.77-6.23,3.66-7.51l25.94-11.44,1.08-.48Z"/><ellipse class="cls-23" cx="678.76" cy="56.4" rx="1.2" ry="2.41" transform="translate(133.2 464.15) rotate(-41.52)"/><path class="cls-29" d="m756.3,63.81s70.6-4.61,100.85,7.69c30.25,12.3,58.07,27.79,61,33.69,0,0-151.65-16.63-161.85-41.39Z"/><path class="cls-2" d="m857.29,301.99c-.03,1.24-.09,2.39-.16,3.47-15.83-6.92-56.4-24.17-78.79-29.26-7.83-1.78-33.43-6.76-50.42-10.1-10.83-2.13-24.75-6.26-33.41-8.97.39-.77.78-1.55,1.19-2.35,2.85-5.56,6.28-11.83,9.72-17.69,1.46-2.5,2.92-4.92,4.34-7.18,3.84-6.1,7.36-11.06,9.7-13.17,1.93-1.74,3.94-4.97,5.9-8.87.92-1.83,1.83-3.81,2.7-5.84.97-2.27,1.9-4.61,2.76-6.9,3.47-9.15,5.95-17.54,5.95-17.54,0,0,18.31-68.73,20.71-85.27.11-.77.19-1.42.23-1.95.67-8.92-1.96-19.62-3.35-24.5-.34-1.2.73-2.33,1.95-2.04,6.65,1.54,23.89,5.71,35.84,10.16,15.07,5.62,37.76,14.12,44.83,16.5,22.49,7.58,70.27,13.46,81.19,14.73,1.13.13,1.79,1.34,1.28,2.36-3.34,6.71-8.53,12.73-14.66,22.54-2.72,4.35-5.64,9.44-8.64,15.65-5.87,12.12-12.13,28.54-18.2,52.12-1.52,5.91-3.48,12.28-5.61,18.84-2.29,7.06-4.76,14.34-7.08,21.49-5.9,18.15-10.82,35.53-9.14,46.57,1.03,6.75,1.28,12.54,1.17,17.22h0Z"/><path class="cls-5" d="m914.68,115.43c-8.92,13.14-23.33,30.21-36.75,82.43-7.29,28.37-24.78,67.45-21.83,86.9,2.11,13.9.96,23.7.11,28.23-.23,1.23-1.7,1.76-2.66.95-8.91-7.53-20.12-7.61-20.12-7.61-33.28-8.81-43.97-10.82-83.04-25.16-31.62-11.6-52.4-11.52-59.17-11.07-1.19.08-2.06-1.11-1.63-2.23,2.35-6.22,9.07-19.29,15.81-30.8,4.79.45,9.26,2.21,11.93,6.49,8.06,12.9,44.79,10.61,44.79,10.61,0,0,52.22-4.98,57.28,8.26,5.06,13.25,19.02,11.89,19.02,11.89,0,0,9.54-15.3,8.21-23.12-.46-2.69-2.33-4.01-4.59-4.59-4.92-1.26-6.07-7.77-2.05-10.87,5.75-4.44,13.52-9.6,19.63-21.65,10.72-21.1,22.45-56.82,21.26-61.97-1.19-5.16-13.77-5.61-12.2-14.36.04-.22.09-.43.15-.64,1.79-6.44-2.38-12.92-9.05-13.41-11.63-.86-24.63-3.21-34.81-8.79-5.07-2.78-31.35-17.41-47.82-18.07-6.5-.26-13.55-2.24-19.7-4.55.11-.77.19-1.42.23-1.95.33-4.47-.15-9.38-.91-13.78-.25-1.51-.54-2.96-.83-4.31,7.61,1.8,23,5.64,33.94,9.71,15.07,5.62,37.76,14.12,44.83,16.51,22.65,7.63,70.96,13.54,81.42,14.76-.47.73-.96,1.46-1.45,2.2Z"/><path class="cls-22" d="m916.14,113.23c-.47.73-.96,1.46-1.45,2.2-12.01-1.11-59.36-4.06-81.48-11.51-7.07-2.38-29.31-12.47-44.39-18.09-10.09-3.76-23.96-7.32-32.03-9.26-.25-1.51-.54-2.96-.83-4.31,7.61,1.8,23,5.64,33.94,9.71,15.07,5.62,37.76,14.12,44.83,16.51,22.65,7.63,70.96,13.54,81.42,14.76Z"/><path class="cls-22" d="m857.13,305.46c-15.83-6.92-56.4-24.17-78.79-29.26-7.83-1.78-33.43-6.76-50.42-10.1-10.83-2.13-24.75-6.26-33.41-8.97.39-.77.78-1.55,1.19-2.35,8.85,2.12,22.89,4.58,33.52,6.67,16.99,3.34,42.6,8.33,50.42,10.11,22.06,5.02,61.43,22.98,77.64,30.44h0c-.03,1.24-.09,2.4-.16,3.47Z"/><path class="cls-27" d="m904.77,130.09c-2.72,4.35-5.64,9.44-8.64,15.65-7.45-.46-17.4-7.8-9.94-10.98,4.12-1.75,12.2-3.48,18.58-4.67Z"/><path class="cls-27" d="m872.33,216.7c-2.29,7.06-4.76,14.34-7.08,21.49-1.94,1.47-3.9,2.71-5.74,3.46-8.27,3.39-14.04-3.48-7.33-5.55,4.56-1.4,14.34-12.46,20.15-19.4Z"/><path class="cls-5" d="m748.2,213.07c-13.85-3.75-28.24,13.26-28.24,13.26l-10.21,3.57c3.84-6.1,7.36-11.06,9.7-13.17,1.93-1.74,3.94-4.97,5.9-8.87.92-1.83,1.83-3.81,2.7-5.84.97-2.27,1.9-4.61,2.76-6.9,6.89-2.21,14.96-5.42,19.76-9.31,9.63-7.82,28.9-10.94,29.38-4.8.47,6.13-17.9,35.8-31.75,32.06Z"/><path class="cls-2" d="m751.87,201.51s-14.23,2.51-26.52,6.35c.92-1.83,1.83-3.81,2.7-5.84,7.13-1.23,14.26-2.99,18.64-5.45,11.43-6.45,5.18,4.95,5.18,4.95Z"/><path class="cls-8" d="m775.46,114.34s2.61,39.28-11.71,49.74c0,0-14.73-.61-7.98-26.33,6.75-25.72,14.07-42.51,19.69-23.42Z"/><path class="cls-18" d="m551.66,475.34c-4.82,7.23-10.14,13.54-14.98,17.78-5.86,5.12-10.41,6.66-13.54,4.58s-3.46-6.88-.98-14.26c2.05-6.1,5.83-13.43,10.65-20.67,4.82-7.23,10.14-13.54,14.98-17.78,5.86-5.12,10.41-6.66,13.54-4.58,3.13,2.09,3.46,6.88.98,14.26-2.05,6.1-5.83,13.43-10.65,20.67Z"/><path class="cls-4" d="m460.9,364.34l90.7,60.48c2,1.33,3.65,3.13,4.82,5.23l5.94,10.73c2.03,4.25-2.5,18.12-12.61,33.28-5.05,7.57-10.35,13.81-14.94,18.06-4.59,4.25-8.49,6.49-10.74,6.08l-12.21-1.19c-2.44-.23-4.76-1.06-6.8-2.4h0s-90.7-60.48-90.7-60.48c-2-1.33-3.66-3.13-4.83-5.24l-5.94-10.73,38.29-57.42,12.22,1.2c2.43.23,4.76,1.06,6.8,2.4h0Z"/><path class="cls-11" d="m460.03,372.86c-.77-.29-1.61.32-1.69,1.14-.55,5.27-6.17,16.88-14.5,29.37-8.33,12.5-16.89,22.14-21.54,24.68-.72.39-.97,1.41-.4,2,.06.07.13.12.21.17,2.9,1.93,13.8-9.31,24.34-25.12,10.54-15.81,16.74-30.19,13.84-32.13-.07-.05-.16-.09-.24-.12Z"/><path class="cls-11" d="m551,433.52c-.77-.29-1.61.32-1.69,1.14-.55,5.27-6.17,16.88-14.5,29.37-8.33,12.5-16.89,22.14-21.54,24.68-.72.39-.97,1.41-.4,2,.06.07.13.12.21.17,2.9,1.93,13.8-9.31,24.34-25.12,10.54-15.81,16.74-30.19,13.84-32.13-.07-.05-.16-.09-.24-.12Z"/><path class="cls-18" d="m432.26,395.71c-4.82,7.23-10.14,13.54-14.98,17.78-5.86,5.12-10.41,6.66-13.54,4.58-3.13-2.09-3.46-6.88-.98-14.26,2.05-6.1,5.83-13.43,10.65-20.67,4.82-7.23,10.14-13.54,14.98-17.78,5.86-5.12,10.41-6.66,13.54-4.58s3.46,6.88.98,14.26c-2.05,6.1-5.83,13.43-10.65,20.67Z"/><path class="cls-20" d="m432.26,395.71c-4.78,7.17-10.04,13.41-14.82,17.6-5.5,4.81-9.68,6.33-12.42,4.5-2.74-1.83-2.94-6.26-.62-13.19,2.02-6.02,5.77-13.28,10.55-20.45s10.04-13.41,14.82-17.6c5.5-4.81,9.68-6.33,12.42-4.5,2.74,1.83,2.95,6.27.62,13.19-2.02,6.02-5.77,13.28-10.55,20.45Z"/><ellipse class="cls-26" cx="423.6" cy="389.94" rx="31.65" ry="8.56" transform="translate(-135.84 526.02) rotate(-56.3)"/><path class="cls-20" d="m440.22,370.39l-14.46,21.69c-1.05,1.58-3.09,1.61-4.46.14h0c-1.29-1.39-1.51-3.63-.57-5.05l13.02-19.53c.95-1.42,3.1-2.08,4.88-1.42h0c1.88.7,2.64,2.59,1.59,4.17Z"/><path class="cls-18" d="m431.59,372.86l-6.87,10.3c-2.3,3.45-3.31,6.86-2.23,7.58,1.08.72,3.84-1.52,6.14-4.97l6.87-10.3c2.3-3.45,3.31-6.86,2.23-7.58s-3.84,1.52-6.14,4.97Zm-3.12,12.03l-.06.1c-1.69,2.54-3.73,4.18-4.52,3.66s-.05-3.04,1.64-5.58l.06-.1c1.69-2.54,3.73-4.18,4.52-3.66s.05,3.04-1.64,5.58Zm7.87-14.23c.62.41.04,2.37-1.28,4.34-1.32,1.98-2.9,3.26-3.52,2.85l-.64-.42c-.62-.41-.04-2.37,1.28-4.34,1.32-1.98,2.9-3.26,3.52-2.85l.64.42Z"/><path class="cls-24" d="m431.07,372.52l-6.87,10.3c-2.3,3.45-3.31,6.86-2.23,7.58s3.84-1.52,6.14-4.97l6.87-10.3c2.3-3.45,3.31-6.86,2.23-7.58-1.08-.72-3.84,1.52-6.14,4.97Zm-3.12,12.03l-.06.1c-1.69,2.54-3.73,4.18-4.52,3.66s-.05-3.04,1.64-5.58l.06-.1c1.69-2.54,3.73-4.18,4.52-3.66.79.53.05,3.04-1.64,5.58Zm7.87-14.23c.62.41.04,2.37-1.28,4.34s-2.9,3.26-3.52,2.85l-.64-.42c-.62-.41-.04-2.37,1.28-4.34,1.32-1.98,2.9-3.26,3.52-2.85l.64.42Z"/><path class="cls-9" d="m530.84,446.49c-3.66,19.63-16.27,36.03-32.92,43.37l-78.92-52.63c7.37-2.87,17.25-10.17,29-27.08,0,0,15.03-22.57,15.96-31.33,0,0,71.24,44.23,66.88,67.67Z"/><path class="cls-31" d="m584.71,164.92c-24.24-21.38-53.94-36.79-87.01-44.69l-29.26-7c-7.55-1.8-15.85.01-22.45,4.91l-24.85,18.45c-5.51,4.09-9.38,9.98-10.71,16.42-5.1,24.85-.64,91.35,123.64,216.16,8.8,8.85,18.21,17.99,28.26,27.43,4.6,4.32,12.06,4.48,17.61.35l94.33-70.04c5.76-4.28,7.69-11.81,4.46-17.5l-53.84-95.05c-10.64-18.77-24.22-35.41-40.17-49.46Zm-99.98-13.26c.94-20.19,41.82-4.21,63.98,14.44,18.51,15.58,44.49,42.9,31.17,55.3-13.31,12.38-55.84-20.49-55.84-20.49,0,0-40.25-29.06-39.31-49.24Z"/><path class="cls-33" d="m558.21,156.12c-9.15-7.7-22.14-13.26-33.62-17.66-15.57-5.96-30.22-4.29-38.07,1.54-4.72,3.51-7.48,8.83-7.76,14.97-.49,10.57,5.7,27.05,19.82,40.95,8.94,8.8,17.89,15.4,19.09,16.28,1.19.92,10.41,7.9,21.26,13.87,11.89,6.53,29.56,9.55,42,.32.6-.45,1.18-.93,1.73-1.45,4.42-4.1,6.82-9.38,6.97-15.28.22-9.28-2.2-28.93-31.42-53.53Zm21.67,65.27c-13.31,12.38-55.84-20.49-55.84-20.49,0,0-40.25-29.06-39.31-49.24.94-20.19,41.82-4.21,63.98,14.44,18.51,15.58,44.49,42.9,31.17,55.3Z"/><path class="cls-33" d="m624.88,214.38l53.84,95.05c3.22,5.69,1.3,13.22-4.46,17.5l-94.33,70.04c-5.55,4.12-13,3.96-17.61-.35-10.05-9.44-19.46-18.58-28.26-27.43,1.43-.84,2.97-1.67,4.59-2.47,40.05-19.96,82.36-58.71,97.51-91.13,10.47-22.41-27.17-78.26-51.45-110.66,15.95,14.05,29.54,30.69,40.17,49.46Z"/><path class="cls-28" d="m422.03,168.26l20.69-15.36c2.97-2.21,7.03-1.06,7.9,2.24,8.12,30.77,45.78,157.81,128.64,221.58,2.53,1.95,2.29,5.87-.52,7.95h0c-1.95,1.45-4.55,1.52-6.31.16-17.88-13.79-110.36-89.48-152.44-210.68-.71-2.06.12-4.46,2.03-5.87Z"/><path class="cls-2" d="m414.86,77l-25.71,19.09,29.02,49.86.15-.11c.99,1.33,9.82-3.55,19.73-10.91,9.91-7.36,17.14-14.4,16.15-15.73l-39.34-42.21Z"/><ellipse class="cls-13" cx="402.08" cy="86.48" rx="16.11" ry="3.01" transform="translate(27.7 256.74) rotate(-36.59)"/><path class="cls-12" d="m1096.71,819.28s-31.08-18.65-22.38-27.35c8.7-8.7,17.41-1.24,22.38-18.65,4.97-17.41,21.14,14.92,26.11,7.46,4.97-7.46,12.43-12.93,18.65-12.68,6.22.25,7.46,30.09,0,36.31-7.46,6.22-44.76,14.92-44.76,14.92Z"/><path class="cls-12" d="m1058.17,1016.98c-13.68-6.22-23.62-133.04,38.54-197.7,0,0,14.92-21.14,44.76-14.92,27.1,5.65,111.61,67.68,114.82,169.35.61,19.4-11.88,36.82-30.38,42.68-38.52,12.2-108.91,27.33-167.74.59Z"/><path class="cls-6" d="m1122.82,819.82s-47.84,23.67-53.76,85.81c-5.92,62.15,47.54,16.14,53.76-13.7,6.22-29.84,21.14-78.33,0-72.12Z"/></svg>