<?xml version="1.0" encoding="UTF-8"?><svg xmlns="http://www.w3.org/2000/svg" viewBox="0 0 1920 450"><defs><style>.cls-1{fill:#033;}.cls-2{fill:#00b3d0;}.cls-3{fill:#00a5be;}.cls-4{fill:#e7ffc0;}.cls-5{fill:#fff;}.cls-6{fill:#ff5e5a;}.cls-7{fill:#8cc63f;}.cls-8{fill:#adcf53;}.cls-9{fill:#95e000;}.cls-10{fill:#80bd31;}.cls-11{stroke-width:2.29px;}.cls-11,.cls-12{fill:none;stroke:#033;stroke-miterlimit:10;}.cls-12{stroke-width:2.09px;}</style></defs><g id="Warstwa_2"><path class="cls-4" d="m1920,0v450H0V0h1662.81"/><path class="cls-7" d="m1920,0v450H0v-42.15c.26-.19.51-.37.76-.55,98.92-70.49,202.27-95.75,314.03-106.22,100.68-9.43,301.84-12.32,489.02,19.17,8.36,1.39,16.69,2.87,24.98,4.42,8.24,1.53,16.44,3.14,24.59,4.82,8.11,1.66,16.18,3.41,24.19,5.22,1.85.42,3.69.84,5.53,1.27,65.3,15.14,191.77,33.72,244.73,34.15,1.36,0,2.69.02,4.02.02,48.95,0,83.03-7.21,117.46-25.31,3.51-1.84,7.03-3.8,10.56-5.88,22.8-13.41,46.07-31.55,73.72-55.46,18.52-16.01,39.02-34.62,62.66-56.13,1.04-.94,2.09-1.9,3.15-2.86,1.56-1.41,3.12-2.84,4.7-4.28,17.66-16.05,36.69-33.34,57.62-52.04,3.23-2.89,6.52-5.82,9.85-8.78,1.05-.93,2.11-1.87,3.17-2.82,1.8-1.6,3.61-3.2,5.44-4.82,4.53-4.01,9.14-8.08,13.85-12.21,2.65-2.34,5.34-4.7,8.06-7.07,1.11-.98,2.23-1.96,3.35-2.93.77-.68,1.54-1.35,2.32-2.03,14.34-12.51,29.5-25.58,45.59-39.26,2.13-1.81,4.28-3.63,6.44-5.45,20.45-17.33,42.39-35.61,66.05-54.93,11.91-9.72,24.23-19.02,36.97-27.89h257.19Z"/><path class="cls-8" d="m1920,0v450H44.37c.48-.4.98-.79,1.5-1.19,20.52-15.63,42.43-29.41,65.51-41.51,169.35-88.76,401.7-87.14,611.25-64.69,8.86.95,17.68,1.93,26.45,2.96,8.8,1.01,17.56,2.07,26.26,3.15,8.74,1.09,17.43,2.2,26.06,3.34,8.71,1.14,17.35,2.31,25.92,3.49,8.67,1.2,17.26,2.41,25.78,3.63,140.84,20.26,260.41,43.58,326.81,44.12,96.92.78,141.7-25.65,226.24-100.26,1.73-1.52,3.47-3.07,5.24-4.64,6.85-6.08,13.96-12.47,21.38-19.18,12.85-11.61,26.62-24.17,41.56-37.75,4.02-3.64,8.12-7.37,12.31-11.16,11.15-10.11,22.94-20.74,35.45-31.92,10.61-9.48,21.75-19.35,33.45-29.63,2.1-1.85,4.22-3.7,6.36-5.57,5.07-4.44,10.25-8.96,15.53-13.54,6.74-5.85,13.66-11.81,20.76-17.91,26.46-22.68,55.51-47.08,87.59-73.28C1713.07,36.17,1741.76,16.79,1771.4,0h148.6Z"/><path class="cls-7" d="m1920,128.15v321.85h-624.03c2-6.06,4.49-11.96,7.47-17.67,4.65-8.89,10.45-17.24,17.38-25.03,5.38-6.06,11.44-11.77,18.17-17.11h0c3.06-2.46,6.26-4.82,9.6-7.11,2.64-1.81,5.37-3.57,8.18-5.29,21.45-13.07,44.95-20.43,68.79-24.54,6.59-1.14,13.2-2.04,19.81-2.72,19.53-2.07,38.95-2.42,57.32-2.42,6.49,0,12.99.05,19.29.1,6.34.04,12.33.09,18.36.09.94,0,1.87,0,2.79-.01,1.4,0,2.77,0,4.12-.03h0c3.13-.03,6.14-.08,9.04-.15,3.98-.11,7.76-.25,11.35-.43,4.17-.21,8.08-.47,11.76-.78,3.63-.3,7.02-.64,10.2-1.03,30.34-3.67,41.31-11.01,49.5-18.47,11.72-10.68,23.92-28.61,36.74-48.29,1.53-2.35,3.07-4.73,4.62-7.13.24-.37.48-.74.72-1.11,20.17-31.16,43.04-66.47,74.19-94.64,17.75-16.06,36.08-27.99,56.03-36.47,22.6-9.6,47.17-14.47,73.02-14.47h.01c11.46,0,23.35.96,35.55,2.86Z"/><path class="cls-10" d="m1920,136.95v313.05h-570.12c1.23-4.87,2.89-9.81,5.09-14.75,1.38-3.12,2.98-6.25,4.81-9.36,8.32-14.15,21.47-28.04,41.56-40.29,8.79-5.36,18.07-9.62,27.71-13.01,7.55-2.66,15.33-4.77,23.27-6.46,23.48-4.98,48.37-6.19,73.15-6.38,1.54,0,3.09-.02,4.64-.02,17.52-.06,34.92.31,51.69.11h0c2.01-.02,4-.05,5.99-.09,13.74-.27,26.99-1.01,39.45-2.76,5.5-.77,10.83-1.74,15.99-2.95h0c17.1-4.02,32.22-10.72,44.41-21.82,55.12-50.21,95.09-198.59,232.34-195.27Z"/><path class="cls-5" d="m542.9,0c-14.26,13.7-28.73,24.93-43.51,33.75h-.01c-27.51,16.43-56.06,24.5-86.34,24.5-38.07,0-73.56-12.7-104.86-23.9-25.37-9.07-49.33-17.64-70.3-17.86-.54,0-1.07-.01-1.6-.01-21.35,0-35.56,4.38-50.68,15.6-15.35,11.39-31.22,29.62-55.25,57.22-22.17,25.46-49.75,57.15-89.66,98.31C28.26,200.43,14.67,211.78,0,221.62V0h542.9Z"/><path class="cls-5" d="m1072.18,144.58h560.21s4.68-38.08-35.26-42.4c-39.94-4.32-50.73,21.2-50.73,21.2,0,0,9.71-61.14-68-87.05-47.11-15.7-175.95-3.24-184.58,73.4,0,0-14.03-10.79-56.13-10.79s-61.53,34.54-61.53,34.54c0,0-8.64-19.43-55.05-19.43s-48.93,30.53-48.93,30.53Z"/><path class="cls-5" d="m1920.53,138.17c-2.64-1.05-5.37-2.06-8.24-3.01-47.11-15.7-175.95-3.24-184.58,73.4,0,0-14.03-10.79-56.13-10.79s-61.53,34.54-61.53,34.54c0,0-8.64-19.43-55.05-19.43s-48.93,30.53-48.93,30.53h414.46v-105.23Z"/></g><g id="Warstwa_1"><circle class="cls-7" cx="1901.92" cy="289.17" r="14.16"/><circle class="cls-7" cx="1877.6" cy="335.34" r="12.76"/><circle class="cls-7" cx="1821.2" cy="411.89" r="12.76"/><circle class="cls-7" cx="1901.92" cy="355.51" r="7.41"/><circle class="cls-7" cx="1844" cy="341.05" r="7.41"/><circle class="cls-7" cx="1812.01" cy="370.77" r="18.1"/><circle class="cls-7" cx="1821.2" cy="322.74" r="15.39"/><circle class="cls-7" cx="1853.08" cy="370.77" r="9.35"/><circle class="cls-7" cx="1908.79" cy="317.13" r="4.98"/><circle class="cls-7" cx="1855.23" cy="413.99" r="4.98"/><circle class="cls-7" cx="1890.37" cy="391.91" r="4.98"/><circle class="cls-7" cx="1793.69" cy="411.89" r="4.98"/><circle class="cls-7" cx="1855.23" cy="292.56" r="13.54"/><circle class="cls-7" cx="392.37" cy="369.88" r="17.48"/><circle class="cls-7" cx="521.97" cy="404.46" r="15.75"/><circle class="cls-7" cx="484.18" cy="359.01" r="15.75"/><circle class="cls-7" cx="556.73" cy="348.47" r="9.15"/><circle class="cls-7" cx="595.87" cy="352.87" r="9.15"/><circle class="cls-7" cx="222.33" cy="411.58" r="22.34"/><circle class="cls-7" cx="282" cy="387.57" r="19"/><circle class="cls-7" cx="564.76" cy="377.74" r="11.55"/><circle class="cls-7" cx="438.12" cy="383.41" r="11.55"/><circle class="cls-7" cx="480.07" cy="395.59" r="6.15"/><circle class="cls-7" cx="371.25" cy="401.31" r="6.15"/><circle class="cls-7" cx="315.02" cy="408.2" r="6.15"/><circle class="cls-7" cx="526.15" cy="367.32" r="6.15"/><circle class="cls-7" cx="433.19" cy="351.89" r="6.15"/><circle class="cls-7" cx="335.92" cy="371.93" r="16.72"/><circle class="cls-5" cx="1100.18" cy="314.95" r="19.36"/><circle class="cls-5" cx="1152.15" cy="266.07" r="17.45"/><circle class="cls-5" cx="1289.05" cy="211.69" r="17.45"/><circle class="cls-5" cx="1040.34" cy="331.31" r="10.13"/><circle class="cls-5" cx="1198.13" cy="273.62" r="10.13"/><circle class="cls-5" cx="1282.64" cy="268.92" r="24.74"/><circle class="cls-5" cx="1229.97" cy="312.79" r="21.04"/><circle class="cls-5" cx="1208.93" cy="231.84" r="12.79"/><circle class="cls-5" cx="1065.43" cy="288.69" r="12.79"/><circle class="cls-5" cx="1289.96" cy="171.67" r="6.81"/><circle class="cls-5" cx="1103.74" cy="275.74" r="6.81"/><circle class="cls-5" cx="1247.32" cy="243.95" r="6.81"/><circle class="cls-5" cx="1244.2" cy="197.95" r="6.81"/><circle class="cls-5" cx="1324.61" cy="223.92" r="6.81"/><circle class="cls-5" cx="1162.05" cy="331.31" r="18.51"/><path class="cls-1" d="m563.8-.09c-7.73,20.37-27.35,33.97-49.25,33.97-5.06,0-10.06-.72-14.86-2.14l-.16-.04c-15.73-4.66-28.41-16.49-34.24-31.79h-2.24c5.94,16.32,19.36,28.95,36.03,33.84l.15.04c4.95,1.45,10.1,2.18,15.31,2.18,23.04,0,43.64-14.47,51.48-36.06h-2.23Z"/><circle class="cls-11" cx="1831.91" cy="130.67" r="22.69"/><polygon class="cls-1" points="1751.78 -.02 1730.27 21.49 1731.75 22.97 1754.74 -.02 1751.78 -.02"/><polygon class="cls-1" points="1722.38 -.02 1700.86 21.49 1702.34 22.97 1725.33 -.02 1722.38 -.02"/><polygon class="cls-1" points="1692.97 -.02 1671.46 21.49 1672.94 22.97 1695.92 -.02 1692.97 -.02"/><polygon class="cls-1" points="1663.56 -.02 1642.05 21.49 1643.53 22.97 1666.51 -.02 1663.56 -.02"/><polygon class="cls-1" points="1634.16 -.02 1612.65 21.49 1614.12 22.97 1637.11 -.02 1634.16 -.02"/><polygon class="cls-1" points="1604.75 -.02 1583.24 21.49 1584.72 22.97 1607.7 -.02 1604.75 -.02"/><line class="cls-12" x1="894.54" y1="317.73" x2="850.08" y2="362.19"/><line class="cls-12" x1="865.14" y1="317.73" x2="820.68" y2="362.19"/><line class="cls-12" x1="835.73" y1="317.73" x2="791.27" y2="362.19"/><line class="cls-12" x1="806.32" y1="317.73" x2="761.86" y2="362.19"/><line class="cls-12" x1="776.92" y1="317.73" x2="732.46" y2="362.19"/><line class="cls-12" x1="747.51" y1="317.73" x2="703.05" y2="362.19"/><rect class="cls-1" x="64.83" y="44.86" width="62.88" height="2.09" transform="translate(-4.26 81.52) rotate(-45)"/><rect class="cls-1" x="35.43" y="44.86" width="62.88" height="2.09" transform="translate(-12.88 60.73) rotate(-45)"/><rect class="cls-1" x="6.02" y="44.86" width="62.88" height="2.09" transform="translate(-21.49 39.93) rotate(-45)"/><polygon class="cls-1" points="-.02 55.46 31.02 24.41 29.54 22.94 -.02 52.5 -.02 55.46"/><circle class="cls-12" cx="1298.63" cy="74.91" r="53.75"/><path class="cls-5" d="m1426,450.43h287.34c26.34-20.52,48.28-46.7,63.76-76.2,17.43-33.23,26.64-70.76,26.64-108.54,0-20.4-2.63-40.63-7.8-60.12-17.3-65.32-62.11-119.97-122.93-149.94-32.27-15.91-67.02-23.97-103.28-23.97-69.36,0-134.75,30.51-179.4,83.71-3.66,4.35-7.29,9.02-10.78,13.88-4.76,6.63-9.19,13.53-13.17,20.48-.23.41-.46.81-.69,1.22l-.28.5c-3.52,6.28-6.75,12.73-9.6,19.15-.41.9-.8,1.79-1.19,2.7l-.4.92c-12.3,28.96-18.54,59.74-18.54,91.47,0,25.88,4.2,51.31,12.48,75.58,15.11,44.29,42.6,81.78,77.83,109.16Z"/><path class="cls-3" d="m1442.99,450.43h253.45c1.3-.89,2.58-1.79,3.86-2.71,56.58-40.65,93.43-107.04,93.43-182.03,0-19.9-2.59-39.2-7.47-57.56-16.71-63.08-60.26-115.24-117.69-143.53-29.81-14.7-63.37-22.94-98.86-22.94-68.96,0-130.63,31.16-171.74,80.14-3.6,4.28-7.03,8.72-10.31,13.27-4.52,6.3-8.75,12.87-12.62,19.64-.31.54-.6,1.07-.91,1.62-3.34,5.96-6.42,12.09-9.2,18.38-.52,1.13-1,2.27-1.51,3.42-11.42,26.9-17.74,56.5-17.74,87.56,0,25.31,4.2,49.65,11.94,72.35,15.71,46.05,46,85.34,85.36,112.39Z"/><path class="cls-2" d="m1545.95,450.43h146.14c2.76-.86,5.5-1.76,8.21-2.71,56.58-40.65,93.43-107.04,93.43-182.03,0-19.9-2.59-39.2-7.47-57.56-16.71-63.08-60.26-115.24-117.69-143.53-29.81-14.7-63.37-22.94-98.86-22.94-68.96,0-130.63,31.16-171.74,80.14-3.6,4.28-7.03,8.72-10.31,13.27-8.93,25.46-13.79,52.82-13.79,81.33s4.6,54.31,13.08,79.15c25.14,73.71,84.42,131.62,158.99,154.88Z"/><path class="cls-9" d="m1396.65,143.13s12.68-36.54,23.34-33.12c10.66,3.43,50.05-19.45,52.76-25,2.71-5.55,30.5-5.77,25.55,7.2-4.94,12.96-9.41,38.37-1.31,48.59,8.1,10.22-21.5,22.3-21.16,34.69.34,12.39,10.5,20.29,0,22.12-10.5,1.83-44.55-8.96-39.09-26.69,5.46-17.73.04-12.77-5.2-14.53s-27.44,6.67-31.16,6.03-18.23,1-3.74-19.29Z"/><path class="cls-9" d="m1377.93,172.44c-2.59.86-9.01,1.36-13,2.27,2.79-6.29,5.87-12.41,9.2-18.38,0,.02.02.03.02.05,1.56,3.31,8.86,14.36,3.78,16.06Z"/><path class="cls-9" d="m1375.05,154.71c6.68-11.67,14.36-22.69,22.93-32.91,2.11.29,2.98,1.44,1.86,3.87-5.44,11.89-10.99,13.21-9.5,19.3,1.25,5.02-11.59,7.28-15.3,9.74Z"/><path class="cls-9" d="m1371.53,335.64c3.05-4.75,15.75,11.96,20.04,15.85,4.29,3.89,31.84,1.18,39.97-1.1s16.45,1.56,20.69,1.1c4.25-.44,15.26,3.34,14.45,12.49-.83,9.14,8.04,21.21,9.14,24.01s24.19,12.38,29.94,15.23c5.75,2.85,6.55,20.98,5.83,36.17-.15,3.24.82,7.05,2.53,11.04h25.25c1.15-7.34,5.7-15.13,8.33-18.36,3.61-4.42,7.23-13.63,5.78-21.68-1.44-8.05,9.4-20.87,15.59-26.7,6.21-5.85-6.19-16.56-2.58-32.2,3.61-15.62,5.78-24.13-10.13-15.85-15.9,8.26-31.08-1.05-44.79-4.65-13.72-3.6-19.53-2.9-27.48,3.73s-16.62,7.83-24.97,8.85c-8.36,1.02-6.11-.29-9.72-7.05-3.61-6.74-9.4-.47-16.66,3.86-7.26,4.34-15.15-2.88-23.07-5.65-7.92-2.77-1.47-13.12,8.46-23.11,9.92-9.98,20.27,3.79,20.27,3.79,0,0,9.56-4.65,6.19-25.62-3.39-20.97,9.15-28.19,14.53-34.48,5.38-6.3-3.14-9.92-6.92-11.76-3.78-1.85,1.23-6.24,13.81-10.26,12.57-4.02-13-12.15-17.19-21.11-4.2-8.96-24.71,5.35-39.15,6.53-14.42,1.2-2.92,17.6-15.46,29.26-12.56,11.67-9.98-14.92-5.96-27.63,4.02-12.7-3.89-11.5-19.56-19.44-15.67-7.96,2.3-19.88-2.82-21.73-1.02-.37-1.85-.71-2.48-1.04-11.42,26.9-17.74,56.5-17.74,87.56,0,25.31,4.2,49.65,11.94,72.35,6.5.45,12.54-.29,13.9-2.4Z"/><path class="cls-9" d="m1386.14,186.55s11.59-12.4,18.66-8.07c7.06,4.34,26.4,13.31,26.4,13.31,0,0,11.76,9.73,1.32,13.21s-20.16,12.43-24.62,8.95c-4.46-3.48-2.28-13.4-2.13-16.14s-9.74-7.22-12.25-3.74-25.38,8.89-23.39,2.08c1.99-6.8,6.66-9.67,16-9.6Z"/><path class="cls-9" d="m1539.03,152.45s-14.7-6.75-16.82-1.31-14.05,8.7-16.42,9.07,10.21,9.43,16.42,6.16,22.74-11.7,16.82-13.92Z"/><path class="cls-9" d="m1563.24,160.57c-5.22,1.84-6.89,8.01-3.99,10.35,2.9,2.34,7.98,2.97,8.7,6.64s-3.22,13.83,2.92,11.29,11.94-5.8,10.49-9.07.47-7.43-5.02-7.34-9.48-2.49-9.48-5.37,2.54-8.69-3.63-6.51Z"/><path class="cls-9" d="m1561.06,177.56c-3.1-.56-7.62,2.95-5.08,6.57s2.9,10.15,5.08,7.98,5.8-13.51,0-14.55Z"/><path class="cls-9" d="m1786.26,208.14c-3.05-2.41-6.08-4.88-8.56-6.95-8.2-6.9-20.11-12.7-24.09-16.15-3.99-3.47-18.25-.24-32.63,2.37-14.37,2.61-11.25-5.8-17.78-3.99-6.51,1.81-2.53,9.07,14.52,9.14,17.03.06,14.86,5.35,9.06,18.91-5.78,13.56-17.24,24.27-17.35,17.03-.11-7.24-32.33-25.86-35.23-22.96-2.9,2.9,28.29,25.75,35.34,30.2,7.05,4.46,13.25-10.26,15.6-8.07,2.33,2.19-4.16,28.63-5.61,35.16-1.46,6.53,7.24,14.88,5.31,21.4-1.91,6.53-2.79,21.39-.24,36.33,2.54,14.96-14.88,29.67-19.59,30.93-4.72,1.28-29.36-19.04-30.82-27.69-1.44-8.65-6.53-21.16-6.53-21.16,0,0-7.62-11.16-11.25-11.16s-6.89-7.24-8.7-10.52c-1.81-3.26-6.51-4.34-14.13.37-7.62,4.72-18.13,14.13-20.68,11.6-2.54-2.54-23.2-9.07-28.29-7.99-5.07,1.1-7.62-17.4-8.28-23.2-.68-5.8,1.04-19.95,5.25-23.75,4.21-3.81,14.28-17.58,21.84-23.24,7.55-5.66,13.47-7.03,16.51-.86,3.05,6.17,11.1.71,17.26-2.43,6.17-3.13,17.05-7.37,27.56-11.73,10.52-4.34,6.89-11.96,5.9-14.7-.99-2.74-8.07,3.45-13.51,4.23-5.43.76-6.89-.41-8.35-4.23-1.44-3.82-4.34-1.26-6.16,1.28-1.81,2.54,2.17,6.89,0,9.84-2.17,2.97-7.91-3.44-11.16-6.89-3.27-3.47-12.69-9.09-16.59-5.82-3.9,3.26,6.72,6.85,10.44,7.39,3.69.53,5.64,1.15,5.82,5.32.26,5.72-3.56,4.49-4.94,1.64-1.36-2.85-7-.06-14.26-3.26-7.24-3.19-4.83-3.86-11.72,1.62-6.9,5.49-7.62,8.3-6.9,12.88.73,4.6-3.61,6.3-8.33,11.71-4.72,5.43-6.17,3.65-9.62-2.04-3.47-5.69-1.98-7,.97-9.56,2.95-2.58,7.19-5.78,7.19-5.78,2.59-2.03-1.96-6.51-4.94-9.01-1.25-1.07-1.49-2.87-.68-4.28,3.32-5.75,3.99-10.56,7.79-12.51,4.36-2.22,3.27-8.65,1.81-10.48-1.44-1.83.37-8.34,6.53-6.98,6.17,1.35,3.27,4.1,6.89,1.93,3.63-2.19,4.36,0,12.33-1.93,7.99-1.93,3.63-4.25,2.32-11.41-1.3-7.18-1.93-3.6.08-6.98,2.03-3.39,1.23-4.72,0-3.61-1.23,1.09-7.11.71-8.54-2.27-1.44-3,1.8-7.16-3.69-5.04-5.49,2.14-.68,5.85,1.86,12.74,2.54,6.9,3.56,7.44-1.86,12.87s-8.3-5.96-12.15,0c-3.86,5.98-10.29-.89-13.19-3.79s-.36-8.7,5.09-12.98c5.43-4.26-1.09-20.74,2.53-26.91,3.63-6.16,18.5-18.49,23.14-16.77,4.65,1.72,17.84-1.72,22.3-3.22,4.46-1.51,8.25,2.59,6.06,5.33-2.17,2.74-10.87,6.69-7.97,6.27,2.9-.41,7.26,4.41,10.52,1.17,3.26-3.22,5.8-8.36,5.07-12.77-.71-4.41,3.27-2.12,6.9-2.2,3.61-.06,4.34-3.9,7.24-9.09,2.9-5.17,6.17.83,11.7-5.4,2.4-2.69-1.36-7.71-2.09-11.41,57.43,28.29,100.98,80.45,117.69,143.53Z"/><path class="cls-9" d="m1743.23,273.26s-10.98,15.89-8.83,20.34c2.15,4.45,4.38,14.94,8.83,11.76s4.77-5.4,3.81-8.27,5.09-29.88-3.81-23.84Z"/><path class="cls-9" d="m1610.59,200.42c4.82-2.02,5.88-3.85,6.56-1.58s-.23,5.88-3.28,5.21-6.67-2.2-3.28-3.62Z"/><rect class="cls-5" x="0" y="407.3" width="1920" height="42.7"/><rect class="cls-1" x="1546.29" y="233.71" width="21.6" height="33.45" rx="10.8" ry="10.8"/><rect class="cls-1" x="1476.23" y="233.71" width="21.6" height="33.45" rx="10.8" ry="10.8"/><path class="cls-1" d="m1522.06,313.52c-18.89,0-34.26-12.44-34.26-27.74,0-3.95,3.21-7.16,7.16-7.16s7.16,3.21,7.16,7.16c0,7.27,9.13,13.42,19.94,13.42s19.94-6.14,19.94-13.42c0-3.95,3.21-7.16,7.16-7.16s7.16,3.21,7.16,7.16c0,15.3-15.37,27.74-34.26,27.74Z"/><path class="cls-5" d="m1678.12,433.43c-46.01-31.76-69.56-80.14-69.74-80.58-2.06-5.29-3.11-10.87-3.11-16.58,0-25.16,20.47-45.62,45.62-45.62,12.62,0,24.36,5.16,32.79,13.88,8.43-8.72,20.17-13.88,32.79-13.88,25.16,0,45.62,20.47,45.62,45.62,0,5.52-.98,10.93-2.93,16.08-2.71,7.55-18.43,45.7-69.69,81.09l-5.68,3.92-5.68-3.92Z"/><path class="cls-6" d="m1752.11,336.26c0-19.67-15.95-35.62-35.62-35.62-14.73,0-27.37,8.94-32.79,21.69-5.42-12.75-18.06-21.69-32.79-21.69-19.67,0-35.62,15.95-35.62,35.62,0,4.57.86,8.93,2.43,12.95.53,1.37,23.81,46.8,66.1,75.99,49.42-34.11,63.95-70.6,65.99-76.31,1.49-3.93,2.31-8.18,2.31-12.63Z"/></g></svg>