<?xml version="1.0" encoding="UTF-8"?><svg id="Warstwa_1" xmlns="http://www.w3.org/2000/svg" viewBox="0 0 512 512"><defs><style>.cls-1{fill:#f4ad67;}.cls-2{fill:#f7e0d0;}.cls-3{fill:#efceb4;}.cls-4{fill:#f1bc00;}.cls-5{fill:#ebb494;}.cls-6{fill:#eb8d53;}.cls-7{fill:#e8b25e;}.cls-8{fill:#e9433a;}.cls-9{fill:#fff;}.cls-10{fill:#ffdb55;}.cls-11{fill:#ffca00;}.cls-12{fill:#ffa2a1;}.cls-13{fill:#fcd4b6;}.cls-14{fill:#ffc467;}.cls-15{fill:#fcc394;}.cls-16{fill:#fbf6e9;}.cls-17{fill:#ff5e5a;}.cls-18{fill:#ff5900;}.cls-19{fill:#febc11;}.cls-20{fill:#983d42;}.cls-21{fill:#988541;}.cls-22{fill:#991217;}.cls-23{fill:#69cad0;}.cls-24{fill:#8b8b8b;}.cls-25{fill:#9f9f9f;}.cls-26{fill:#a06c3c;}.cls-27{fill:#9e6e15;}.cls-28{fill:#bab6b1;}.cls-29{fill:#308ebe;}.cls-30{fill:#308dbd;}.cls-31{fill:#303030;}.cls-32{fill:#b9c7df;}.cls-33{fill:#baa402;}.cls-34,.cls-35,.cls-36{fill:#b7c9c9;}.cls-37{fill:#cdc9bf;}.cls-38{fill:#dc492c;}.cls-39{fill:#aa8f30;}.cls-40{fill:#bd372f;}.cls-41{fill:#aaadac;}.cls-42{fill:#c0301e;}.cls-43{fill:#bfbfbf;}.cls-44{fill:#bda734;}.cls-45,.cls-46{fill:#aba7a3;}.cls-47{fill:#bec1be;}.cls-48{fill:#ccc;}.cls-49{fill:#d0c51b;}.cls-50{fill:#d38886;}.cls-51{fill:#d28826;}.cls-52{fill:#d33c35;}.cls-53{fill:#c3c3c3;}.cls-54{fill:#d1a20d;}.cls-55,.cls-56{fill:#c4c3c3;}.cls-57,.cls-58{fill:#d4d3d3;}.cls-59{fill:#d57736;}.cls-60,.cls-61{fill:#d3d3d3;}.cls-62{fill:#d3c68b;}.cls-63{fill:#d54e2d;}.cls-64{fill:#d3b93a;}.cls-65{fill:#ada7a0;}.cls-66{fill:#d7d7d7;}.cls-67{fill:#aa2c34;}.cls-68{fill:#1c74c4;}.cls-69{fill:#37454f;}.cls-70{fill:#713c30;}.cls-71{fill:#455662;}.cls-72{fill:#85c1d3;}.cls-73{fill:#6d797a;}.cls-74{fill:#6ca2da;}.cls-75{fill:#62894a;}.cls-76{fill:#2c373f;}.cls-77{fill:#576a78;}.cls-78{fill:#3c4c55;}.cls-79{fill:#833800;}.cls-80{fill:#4badd4;}.cls-81{fill:#4bacd3;}.cls-82{fill:#4b5c68;}.cls-83{fill:#606b6c;}.cls-84{fill:#788587;}.cls-85{fill:#7a5201;}.cls-86{fill:#5d8fd1;}.cls-87{fill:#50743d;}.cls-88{fill:#4d4d4d;}.cls-89{stroke:#d28826;stroke-miterlimit:10;stroke-width:.96px;}.cls-89,.cls-90{fill:none;stroke-linecap:round;}.cls-91{opacity:.2;}.cls-92{opacity:.54;}.cls-93{fill:#87817c;}.cls-93,.cls-58,.cls-61,.cls-56,.cls-46{fill-rule:evenodd;}.cls-90{stroke:#2c6069;stroke-linejoin:round;stroke-width:.69px;}.cls-35{opacity:.44;}.cls-36{opacity:.64;}</style></defs><path class="cls-84" d="m394.31,263.39c-1.61,1.85-10.44,5.78-21.94,8.31-.99.23-1.99.44-3.02.62-6.83,1.31-14.41,2.04-21.88,1.55-1.28-.08-2.55-.2-3.83-.35-22.71-2.84-68.51-12.16-79.04-11.76-10.55.4-29.59,2.43-36.08,3.24-6.48.81-33.64,1.63-43.37,1.63s-19.06-2.43-30.82-4.87c-11.76-2.43-15.8-4.05-23.5-.81-7.71,3.24-10.95,6.48-10.95,8.51s16.21,1.42,15.4,4.56c-.81,3.14-3.65,6.78-14.19,6.38-10.53-.4-17.42-1.61-24.72-2.43-7.29-.81,12.16-3.24-17.43-1.61-29.58,1.61-33.64,3.65-39.32,1.61-.89-.31-1.68-.7-2.38-1.17-3.76-2.45-4.67-6.63-1.26-9.36,4.06-3.24-17.43,8.11-16.21.4,0,0,16.21-34.45,27.56-45.8,11.35-11.35,15-6.08,20.67-18.64,5.68-12.56,15.4-14.19,25.93-20.27,10.55-6.08,18.66-10.95,25.14-20.27,6.48-9.32,6.89-4.86,20.26-6.08,13.38-1.21,12.58,0,18.66-6.08,6.08-6.08,13.37-4.15,22.69-3.29,9.32.86,8.92,4.52,16.63-3.19,7.69-7.69,13.37-17.43,20.66-5.68,7.3,11.76,36.08,22.3,39.32,24.72,3.25,2.43,4.47-4.05,13.38,13.38,8.92,17.43,16.61,21.48,27.16,21.48s7.69-9.52,12.56,2.33c4.87,11.86,12.97,18.75,22.71,23.2,9.73,4.47,15.4,8.11,19.05,13.38,3.42,4.95-1.38,8.11,10.78,9.82.79.1,1.65.21,2.59.31,11.38,1.2,13.92,1.3,16.59,2.89.95.57,1.91,1.33,3.28,2.38,5.27,4.05,11.76,7.69,8.92,10.95Z"/><g class="cls-91"><path class="cls-34" d="m172.23,240.38c.06,0,.11,0,.17,0,4.55.18,9.09.36,13.64.54-.01.01-.03.03-.05.04-4.64,1.6-9.3,3.15-13.97,4.66-.25-.92-.48-1.83-.72-2.75.28-.82.55-1.65.81-2.47.04,0,.08-.02.13-.02Z"/><path class="cls-34" d="m151.25,178.98c-1.87.34-3.73.69-5.59,1.04.76-2.53,1.45-5.07,2.1-7.62,3.97.82,7.96,1.63,11.95,2.4,2.18.42,4.36.83,6.55,1.23.46,1.17.92,2.33,1.4,3.5-1.28.46-2.55.92-3.83,1.37h-.1c.52-.55,1.02-1.11,1.5-1.69.83-.99-1.17-1.92-2-.94-.73.87-1.51,1.7-2.33,2.51-2.81-.11-5.61-.22-8.42-.33.55-.58-.06-1.68-1.22-1.47Z"/><path class="cls-34" d="m247.56,175.26c-.26-1.04-.5-2.08-.75-3.12.84-.87,1.68-1.74,2.52-2.61-.51,1.92-1.04,3.83-1.62,5.73-.05,0-.1,0-.14,0Z"/><path class="cls-34" d="m256.3,229.64c.38-.32.4-.69.22-1,2.6.84,5.21,1.67,7.82,2.5.27,1.21.53,2.42.81,3.62-5.42,0-10.85.02-16.27.05,2.8-1.44,5.29-3.41,7.42-5.18Z"/><path class="cls-34" d="m228.36,231.1c-.1.34-.2.68-.3,1.02-10.41,1.14-20.83,2.23-31.26,3.27-.2.02-.4.04-.61.06-.37-1.08-.75-2.15-1.12-3.23,11.11-.02,22.22-.31,33.28-1.12Z"/><path class="cls-34" d="m208.75,186.46c.66-.07,1.33-.14,1.99-.22,2.15,3.19,4.36,6.36,6.68,9.48-3.8.13-7.6.24-11.39.36.89-3.21,1.81-6.42,2.72-9.63Z"/><path class="cls-34" d="m167.09,212.97c-.83,2.93-1.64,5.87-2.45,8.8-2.57.08-5.15.17-7.72.24-.32-.12-.69-.09-1,.03-5.63.16-11.26.32-16.89.46-.83-2.32-1.64-4.64-2.45-6.96,3.14-.31,6.29-.62,9.43-.94,7.09-.73,14.18-1.49,21.27-2.26-.06.21-.12.42-.18.63Z"/><path class="cls-34" d="m291.5,225.64c4.44-.14,8.88-.27,13.32-.42.24.31.47.63.71.94,2.62,3.41,5.38,6.75,8.21,10.04-7.32,0-14.65-.05-21.97-.16-.79-.94-1.56-1.89-2.34-2.83.68-2.52,1.37-5.05,2.07-7.57Z"/><path class="cls-34" d="m287.5,261.08c-6.03-.11-12.06-.25-18.09-.44-1.23-3.02-2.41-6.06-3.52-9.11,2.39-.06,4.78-.11,7.17-.17,3.01-.08,6.01-.17,9.02-.25,1.47,1.93,2.96,3.84,4.49,5.74.51.64,1.04,1.26,1.56,1.89-.21.78-.42,1.56-.63,2.34Z"/><path class="cls-34" d="m161.93,194.33c1.76-.15,3.53-.3,5.29-.46,2.54,1.98,5.19,3.86,7.93,5.64-5.25-1.23-10.5-2.49-15.74-3.75.84-.48,1.68-.95,2.52-1.43Z"/><path class="cls-34" d="m154.72,163.03c6.05,1.58,12.24,2.8,18.52,3.64,1.04.84,2.07,1.69,3.13,2.52-7.46,3.32-15.04,6.43-22.85,9.16-.26-1.33-.52-2.66-.77-3.99-.79-4.17-1.54-8.34-2.28-12.51,1.41.41,2.83.81,4.25,1.18Z"/><path class="cls-34" d="m207.33,273.95c-6.61-1.08-13.08-2.6-19.39-4.48-.4-2.29-.81-4.58-1.21-6.87,2.99.2,5.99.4,8.98.6.22.19.46.37.68.56,4.06,3.44,8.02,6.94,12.09,10.35-.38-.06-.77-.11-1.15-.17Z"/><path class="cls-34" d="m255.31,202.5c-1.47.67-2.92,1.36-4.39,2.03-1.23-.93-2.42-1.89-3.64-2.83,2.67.3,5.35.57,8.03.8Z"/><path class="cls-34" d="m259.03,196.32c-1.79-1.43-3.56-2.88-5.28-4.38-2.61-2.27-5.18-4.57-7.82-6.83,2.25.15,4.5.31,6.76.45,7.81.51,15.62,1.02,23.43,1.54.2.36.42.71.62,1.07-.2.18-.4.35-.59.53-.99.89.64,2.2,1.64,1.31,0,0,0,0,.01,0,.4.7.81,1.39,1.22,2.08-3.57,1.74-7.18,3.45-10.8,5.13-3.07-.21-6.14-.51-9.18-.9Z"/><path class="cls-34" d="m238.56,219.38c2.65-1.25,5.29-2.51,7.91-3.79.04.07.09.15.13.22-.44,1.24-.87,2.49-1.31,3.73-2.25,0-4.5-.07-6.74-.17Z"/><path class="cls-34" d="m289.94,203.74c2.02.09,4.09.16,6.16.18-.41,1.18-.83,2.37-1.24,3.55-1.75.97-3.58,1.84-5.45,2.66-2.25-1.57-4.46-3.15-6.64-4.77,1.3-.59,2.59-1.2,3.89-1.8,1.09.07,2.19.14,3.29.18Z"/><path class="cls-34" d="m237.48,171.7c.76.57,1.51,1.14,2.29,1.7,1.41,1.02,2.86,2.02,4.3,3.02-5.48,2.18-11.32,3.82-17.17,5.1-4.31.94-8.68,1.7-13.07,2.33-.16-.83-.32-1.65-.48-2.48,1.82-.63,3.64-1.28,5.44-1.95,6.36-2.38,12.58-4.98,18.7-7.71Z"/><path class="cls-34" d="m204.37,148.95c1.49,8.53,3.01,17.05,4.67,25.56,0,.02,0,.04.01.05-4.17.55-8.36.99-12.57,1.34-.05-.07-.09-.15-.14-.22.04-.15.09-.31.13-.46,2.53-8.78,5.18-17.54,7.89-26.28Z"/><path class="cls-34" d="m186.13,221.5c-.47-2.26-.93-4.53-1.38-6.8,6.11-.69,12.21-1.4,18.31-2.14.78-.09,1.56-.2,2.34-.29-.99,2.85-1.97,5.69-2.96,8.54-5.44.25-10.88.47-16.32.68Z"/></g><g class="cls-92"><path class="cls-34" d="m252.1,251.51c.13.75.26,1.5.39,2.25-2.39,1.94-4.77,3.89-7.18,5.82-.5.4-1.01.8-1.51,1.2-3.63-.25-7.25-.51-10.88-.76-1.43-3.07-2.8-6.15-4.11-9.25,7.76.3,15.52.55,23.29.75Z"/><path class="cls-34" d="m152.31,231.28c1.03-.35,2.06-.7,3.08-1.06,1.3.05,2.6.1,3.9.15,1.29,3.08,2.63,6.14,4.04,9.19-.67-.05-1.34-.09-2.01-.14-6.48-.46-12.96-.91-19.44-1.37,1.2-.56,2.36-1.18,3.45-1.81,2.51-1.46,4.87-3.12,6.99-4.96Z"/><path class="cls-34" d="m192.95,189.7c.29,1.69.59,3.38.88,5.08-1.15.18-2.3.35-3.46.52-1.34-.09-2.69-.18-4.03-.27,1.43-1.15,2.86-2.29,4.29-3.44.78-.63,1.55-1.26,2.32-1.89Z"/><path class="cls-34" d="m129.39,242.64c1.4-.19,2.81-.37,4.21-.56-1.07.84-2.14,1.68-3.21,2.52-.33-.66-.68-1.3-1-1.96Z"/><path class="cls-34" d="m243.45,205.14c.47.95.95,1.89,1.43,2.83-6.14,4.83-12.32,9.64-18.54,14.41-1.73-4.87-3.35-9.76-4.86-14.67,4.97-.52,9.93-1.08,14.88-1.68,2.37-.29,4.73-.59,7.09-.9Z"/><path class="cls-34" d="m133.93,207.02c1.28-.98,2.56-1.96,3.84-2.95,4.99-3.83,9.93-7.7,14.86-11.57,1.52,2.94,3.07,5.87,4.72,8.76,1.91,3.35,3.94,6.67,6.05,9.95-.01.05-.03.09-.04.14-1.6.12-3.2.23-4.8.32-7.59.44-15.2.6-22.81.61-.58-1.67-1.17-3.33-1.77-4.99-.03-.08-.06-.17-.09-.25,0,0,.02,0,.02-.01Z"/><path class="cls-34" d="m121.13,248.46c.24-2.07.46-4.15.68-6.22.19,0,.38.01.58.02,3.66,4.59,7.47,9.1,11.49,13.49-4.57.13-9.14.25-13.7.35.34-2.54.67-5.09.97-7.63Z"/><path class="cls-34" d="m203.93,247.12c1.24-.74,2.48-1.47,3.72-2.21v7.55c-1.29-1.72-2.57-3.44-3.81-5.18.03-.05.06-.1.1-.15Z"/><path class="cls-34" d="m110.2,273.99c.77-1.47,1.53-2.94,2.28-4.42,1.43.76,3.01,1.3,4.74,1.4,3.78.21,6.82-2.01,8.95-4.26,2.27-2.4,3.98-5.13,5.45-7.94,3.28-.3,6.55-.63,9.82-.96,2.21,7.08,4.61,14.12,7.15,21.14.02.07.05.13.07.2-2.26,0-4.51-.02-6.77-.05-9.38-.12-18.75-.43-28.12-.72-1.19-1.46-2.37-2.93-3.57-4.39Z"/><path class="cls-34" d="m199.64,205.77c0,.83-.01,1.65-.02,2.48-1.52.13-3.05.26-4.57.39-1.64-2.09-3.3-4.18-4.97-6.25.37.01.75.02,1.12.04,10.11.32,20.21.63,30.33.69.91,0,1.81,0,2.72,0,.33.92.65,1.84.97,2.76-7.91.78-15.82,1.52-23.74,2.21,0-.77.02-1.55.02-2.32,0-.96-1.85-.96-1.86,0Z"/><path class="cls-34" d="m30,262.84c8.09-.71,16.18-1.47,24.26-2.27.63,1.82,1.26,3.63,1.9,5.45-8.74.22-17.48.39-26.23.55.03-1.24.05-2.49.07-3.73Z"/><path class="cls-34" d="m92.51,209.19c8.93-.16,17.86-.34,26.79-.55.86,2.4,1.75,4.8,2.71,7.18-7.85-.27-15.69-.61-23.52-1.07-1.19-.07-1.18,1.42,0,1.48,8.04.47,16.09.82,24.14,1.09.22.52.43,1.04.66,1.56-10.37-.45-20.74-.81-31.12-1.06.15-2.88.27-5.76.35-8.64Z"/><path class="cls-34" d="m272.48,232.81c-3.1-4.9-6-9.89-8.67-14.95-.46-.87-.89-1.75-1.34-2.63,1.88-1.48,3.76-2.96,5.64-4.44,2.58-.36,5.16-.73,7.74-1.11,1.18.08,2.36.16,3.53.24-2.39,7.61-4.69,15.24-6.9,22.89Z"/><path class="cls-34" d="m317.86,244.33c-.63-4.17-1.33-8.34-2.08-12.5,2.13-.27,4.26-.54,6.39-.81,4.12,3.23,8.26,6.45,12.43,9.64-1.74.92-3.48,1.84-5.21,2.77-3.84.34-7.68.64-11.53.91Z"/><path class="cls-34" d="m97.25,257.29c-1.55.06-3.11.12-4.66.18-1.21-1.59-2.39-3.19-3.53-4.81-.68-.97-1.33-1.95-2-2.93,2.82-.31,5.64-.64,8.46-.96.56,2.84,1.14,5.68,1.72,8.52Z"/><path class="cls-34" d="m174.49,255.3c-.97.34-1.94.69-2.9,1.04-.85-.74-1.66-1.49-2.43-2.28.24,0,.49.01.73.02,1.53.41,3.07.82,4.6,1.22Z"/><path class="cls-34" d="m71.76,221.97c.91-.23,1.81-.5,2.69-.81.26.02.53.04.79.06.64,2.24,1.3,4.47,1.98,6.7-2.86.29-5.72.57-8.59.84.78-1.59,1.51-3.18,2.23-4.75.31-.68.6-1.36.89-2.04Z"/><path class="cls-34" d="m244.97,235.52c-4.73.61-9.47,1.2-14.21,1.74-2.51.28-5.01.55-7.52.81-.64-2.12-1.26-4.24-1.86-6.37,7.51.53,15.02,1.06,22.53,1.59.35.75.71,1.49,1.07,2.23Z"/><path class="cls-34" d="m166.5,226.52c-.3-.61-.58-1.23-.88-1.84,2.81.2,5.62.4,8.44.59-.12.1-.25.2-.38.3-2.39.33-4.79.64-7.18.95Z"/></g><path class="cls-84" d="m487.85,302.59c-.46.17-.9.34-1.33.49-14.96,5.64-14.62,5.59-32.27,1.19-18.14-4.54-78.2,13.34-87.35,14.37-9.17,1.05-12.46-10.02-33.78-7.98-5.23.51-9.6,1.27-13.51,2.1-12,2.5-19.48,5.4-33.35,2.19-3-.69-5.99-1.28-8.86-1.84-12.63-2.44-23.1-4.31-21.49-11.86.28-1.33.93-2.83,1.99-4.52,0,0,3.8-5.59,8.88-14.17,2.32-3.91,4.88-8.43,7.47-13.34,7.97-15.02,16.12-33.6,17.59-48.62,3-30.69,5.99-32.28,16.97-44.97,10.99-12.68,3.47-21.49,12.72-29.06,9.25-7.58,8.97,4.28,21.09-8.65,12.12-12.91,11.59-21.26,16.35-21.07,4.76.19,7.23.59,12.98,7.38,5.74,6.78,4.63,9.96,14.17,10.36,9.54.42,8.01-7.41,15.76,11.98,7.75,19.38-7.23,12.4,7.75,19.38,14.98,6.99,25.95,59.02,49.91,87.91,23.96,28.9,44.62,42.58,28.3,48.73Z"/><g class="cls-91"><path class="cls-34" d="m374.48,260.87s-.06,0-.1,0c-2.56.27-5.12.55-7.68.83,0,.02.02.04.03.06,2.61,2.45,5.23,4.83,7.87,7.16.14-1.41.27-2.82.41-4.23-.16-1.26-.31-2.53-.46-3.8-.02-.01-.05-.03-.07-.04Z"/><path class="cls-34" d="m386.3,166.57c1.05.52,2.1,1.06,3.15,1.6-.43-3.88-.82-7.79-1.18-11.71-2.24,1.27-4.48,2.5-6.72,3.69-1.23.65-2.45,1.28-3.68,1.89-.26,1.79-.52,3.59-.79,5.37.72.7,1.44,1.41,2.16,2.1h.06c-.29-.85-.58-1.71-.85-2.59-.47-1.53.66-2.95,1.13-1.44.41,1.33.85,2.61,1.31,3.85,1.58-.17,3.16-.34,4.74-.51-.31-.89.03-2.59.69-2.26Z"/><path class="cls-34" d="m332.08,160.85c.15-1.59.28-3.19.42-4.79-.47-1.34-.95-2.67-1.42-4.01.29,2.94.59,5.88.91,8.8.03,0,.05,0,.08,0Z"/><path class="cls-34" d="m327.16,244.37c-.21-.49-.22-1.06-.12-1.54-1.47,1.29-2.93,2.57-4.4,3.84-.15,1.86-.3,3.71-.46,5.57,3.05,0,6.11.03,9.16.08-1.58-2.21-2.98-5.24-4.18-7.95Z"/><path class="cls-34" d="m342.89,246.62c.06.53.11,1.05.17,1.57,5.86,1.74,11.72,3.43,17.59,5.02.11.03.23.06.34.09.21-1.65.42-3.31.63-4.96-6.25-.03-12.51-.47-18.73-1.72Z"/><path class="cls-34" d="m353.93,178.06c-.37-.11-.75-.22-1.12-.33-1.21,4.91-2.45,9.78-3.76,14.56,2.14.2,4.28.37,6.41.55-.5-4.93-1.02-9.86-1.53-14.78Z"/><path class="cls-34" d="m377.38,218.77c.47,4.5.92,9.01,1.38,13.52,1.45.12,2.9.26,4.35.38.18-.18.39-.14.56.04,3.17.25,6.34.49,9.51.71.47-3.56.93-7.13,1.38-10.7-1.77-.48-3.54-.95-5.31-1.44-3.99-1.12-7.98-2.29-11.97-3.47.03.32.07.65.1.97Z"/><path class="cls-34" d="m307.35,238.23c-2.5-.21-5-.41-7.5-.65-.13.48-.26.96-.4,1.44-1.48,5.24-3.03,10.36-4.62,15.43,4.12,0,8.24-.07,12.37-.24.44-1.44.88-2.9,1.31-4.35-.39-3.88-.77-7.75-1.17-11.63Z"/><path class="cls-34" d="m309.6,292.66c3.4-.17,6.79-.39,10.18-.68.7-4.64,1.35-9.3,1.98-13.99-1.35-.09-2.69-.16-4.04-.26-1.69-.12-3.38-.26-5.08-.39-.83,2.96-1.67,5.9-2.53,8.82-.29.98-.59,1.94-.88,2.9.12,1.2.24,2.4.35,3.6Z"/><path class="cls-34" d="m380.28,190.15c-.99-.23-1.99-.45-2.98-.7-1.43,3.04-2.92,5.93-4.46,8.66,2.96-1.89,5.91-3.82,8.86-5.76-.47-.73-.95-1.46-1.42-2.2Z"/><path class="cls-34" d="m442.03,252.55c-3.4,2.43-6.89,4.3-10.42,5.59-.58,1.3-1.16,2.6-1.76,3.87,4.2,5.1,8.47,9.88,12.86,14.07.14-2.04.29-4.09.43-6.13.44-6.4.87-12.81,1.29-19.21-.79.63-1.59,1.24-2.39,1.81Z"/><path class="cls-34" d="m354.73,312.44c3.72-1.66,7.36-3.99,10.92-6.87.23-3.52.46-7.03.68-10.55-1.69.31-3.37.62-5.06.93-.13.29-.26.57-.38.86-2.29,5.28-4.51,10.66-6.81,15.9.22-.09.43-.17.65-.26Z"/><path class="cls-34" d="m327.72,202.7c.83,1.03,1.64,2.1,2.47,3.12.69-1.43,1.36-2.91,2.05-4.35-1.5.45-3.01.87-4.52,1.24Z"/><path class="cls-34" d="m325.63,193.2c1.01-2.2,2-4.43,2.97-6.72,1.47-3.48,2.92-7.02,4.4-10.49-1.27.23-2.54.47-3.8.7-4.4.78-8.79,1.56-13.19,2.36-.11.55-.23,1.1-.35,1.65.11.27.22.54.33.81.56,1.36-.36,3.38-.92,2.01,0,0,0,0,0-.01-.23,1.07-.46,2.13-.69,3.2,2.01,2.67,4.04,5.29,6.08,7.88,1.73-.32,3.45-.78,5.17-1.39Z"/><path class="cls-34" d="m337.15,228.61c-1.49-1.92-2.98-3.85-4.45-5.82-.02.11-.05.23-.07.34.25,1.91.49,3.82.74,5.74,1.27,0,2.54-.11,3.79-.26Z"/><path class="cls-34" d="m308.23,204.59c-1.14.13-2.3.24-3.47.28.23,1.82.47,3.63.7,5.45.99,1.48,2.01,2.83,3.07,4.08,1.26-2.41,2.51-4.84,3.74-7.33-.73-.91-1.46-1.84-2.19-2.76-.62.11-1.23.21-1.85.28Z"/><path class="cls-34" d="m337.76,155.39c-.43.88-.85,1.75-1.29,2.61-.8,1.57-1.61,3.1-2.42,4.63,3.08,3.36,6.37,5.87,9.66,7.83,2.43,1.45,4.88,2.62,7.36,3.58.09-1.27.18-2.54.27-3.81-1.03-.97-2.05-1.97-3.06-3-3.58-3.65-7.08-7.64-10.52-11.84Z"/><path class="cls-34" d="m356.39,120.44c-.84,13.1-1.7,26.19-2.63,39.26,0,.03,0,.06,0,.08,2.35.85,4.71,1.52,7.07,2.06.03-.11.05-.22.08-.34-.02-.23-.05-.47-.07-.7-1.43-13.48-2.92-26.93-4.44-40.36Z"/><path class="cls-34" d="m366.66,231.87c.26-3.48.52-6.96.77-10.44-3.44-1.07-6.87-2.15-10.31-3.28-.44-.14-.88-.3-1.32-.45.56,4.37,1.11,8.74,1.66,13.12,3.06.38,6.12.73,9.19,1.05Z"/></g><g class="cls-92"><path class="cls-34" d="m329.53,277.96c-.07,1.15-.15,2.3-.22,3.45,1.34,2.99,2.69,5.97,4.04,8.93.28.62.57,1.23.85,1.85,2.04-.39,4.08-.78,6.12-1.17.81-4.71,1.58-9.45,2.31-14.21-4.37.45-8.74.85-13.11,1.15Z"/><path class="cls-34" d="m385.7,246.9c-.58-.54-1.16-1.07-1.73-1.62-.73.08-1.46.15-2.19.23-.73,4.73-1.48,9.44-2.27,14.11.38-.07.75-.14,1.13-.22,3.65-.7,7.29-1.4,10.94-2.1-.68-.86-1.33-1.81-1.94-2.79-1.41-2.25-2.74-4.8-3.93-7.61Z"/><path class="cls-34" d="m362.82,183.03c-.16,2.6-.33,5.2-.49,7.8.65.27,1.3.54,1.95.8.76-.14,1.51-.28,2.27-.42-.81-1.76-1.61-3.51-2.41-5.28-.44-.96-.87-1.93-1.31-2.9Z"/><path class="cls-34" d="m398.6,264.34c-.79-.28-1.58-.57-2.37-.86.6,1.3,1.21,2.58,1.81,3.87.19-1.01.38-2,.56-3.01Z"/><path class="cls-34" d="m334.4,206.75c-.26,1.46-.53,2.9-.8,4.35,3.46,7.42,6.93,14.81,10.43,22.14.97-7.47,1.89-14.99,2.73-22.53-2.8-.8-5.59-1.66-8.37-2.58-1.33-.44-2.66-.9-3.99-1.38Z"/><path class="cls-34" d="m396.04,209.63c-.72-1.51-1.44-3.02-2.16-4.53-2.81-5.89-5.59-11.82-8.37-17.78-.85,4.52-1.73,9.01-2.66,13.46-1.08,5.15-2.22,10.25-3.41,15.28,0,.07.01.14.02.21.9.18,1.8.35,2.7.5,4.27.68,8.56.93,12.84.94.33-2.56.66-5.12.99-7.66.02-.13.03-.26.05-.39,0,0,0,0-.01-.02Z"/><path class="cls-34" d="m412.71,261.86c-.14-3.18-.26-6.37-.38-9.56-.11,0-.22.02-.32.03-2.06,7.05-4.2,13.97-6.47,20.72,2.57.2,5.14.38,7.71.54-.19-3.91-.38-7.81-.54-11.72Z"/><path class="cls-34" d="m356.64,271.22c-.7-1.13-1.4-2.26-2.09-3.4v11.59c.73-2.64,1.44-5.29,2.15-7.96-.02-.08-.04-.16-.05-.24Z"/><path class="cls-34" d="m402.9,301.73c-.43-2.26-.86-4.52-1.28-6.78-.8,1.17-1.69,2-2.67,2.14-2.13.33-3.84-3.09-5.04-6.55-1.28-3.69-2.24-7.88-3.07-12.19-1.84-.46-3.69-.96-5.53-1.48-1.24,10.88-2.6,21.69-4.03,32.47-.01.1-.03.2-.04.3,1.27,0,2.54-.03,3.81-.08,5.28-.18,10.55-.66,15.83-1.11.67-2.25,1.33-4.5,2.01-6.74Z"/><path class="cls-34" d="m359.05,207.72c0,1.27,0,2.54.01,3.81.86.2,1.72.4,2.57.6.93-3.21,1.86-6.42,2.8-9.61-.21.02-.42.04-.63.05-5.69.49-11.38.97-17.07,1.06-.51,0-1.02,0-1.53.01-.18,1.41-.36,2.83-.54,4.24,4.45,1.2,8.91,2.33,13.36,3.4,0-1.19-.01-2.38-.01-3.56,0-1.47,1.04-1.47,1.04,0Z"/><path class="cls-34" d="m454.54,295.37c-4.55-1.1-9.11-2.26-13.65-3.48-.36,2.79-.71,5.58-1.07,8.37,4.92.33,9.84.61,14.76.85-.02-1.91-.03-3.82-.04-5.74Z"/><path class="cls-34" d="m419.36,212.97c-5.03-.25-10.05-.52-15.08-.85-.48,3.69-.98,7.37-1.52,11.03,4.42-.41,8.83-.94,13.24-1.64.67-.11.67,2.17,0,2.28-4.53.72-9.06,1.26-13.59,1.67-.12.8-.24,1.6-.37,2.4,5.84-.69,11.67-1.24,17.52-1.63-.09-4.42-.15-8.84-.2-13.27Z"/><path class="cls-34" d="m318.06,249.24c1.75-7.53,3.38-15.19,4.88-22.96.26-1.34.5-2.69.75-4.04-1.06-2.27-2.12-4.54-3.17-6.82-1.45-.55-2.91-1.12-4.36-1.7-.66.12-1.33.24-1.99.37,1.34,11.69,2.64,23.41,3.89,35.16Z"/><path class="cls-34" d="m292.51,266.94c.36-6.41.75-12.81,1.17-19.21-1.2-.42-2.4-.83-3.59-1.25-2.32,4.97-4.65,9.9-7,14.8.98,1.41,1.96,2.82,2.93,4.25,2.16.53,4.32.98,6.49,1.4Z"/><path class="cls-34" d="m416.69,286.85c.87.09,1.75.19,2.62.28.68-2.44,1.34-4.9,1.99-7.39.38-1.49.75-2.99,1.12-4.49-1.59-.48-3.18-.98-4.76-1.47-.32,4.36-.64,8.72-.97,13.08Z"/><path class="cls-34" d="m373.21,283.79c.54.53,1.09,1.05,1.63,1.59.48-1.13.94-2.29,1.37-3.5-.14.01-.27.02-.41.03-.86.63-1.73,1.26-2.59,1.88Z"/><path class="cls-34" d="m431.04,232.6c-.51-.35-1.02-.76-1.51-1.24-.15.03-.3.06-.44.09-.36,3.44-.73,6.87-1.12,10.29,1.61.45,3.22.88,4.83,1.29-.44-2.44-.85-4.89-1.26-7.29-.18-1.04-.34-2.08-.5-3.13Z"/><path class="cls-34" d="m333.54,253.42c2.66.94,5.33,1.85,8,2.67,1.41.44,2.82.85,4.23,1.25.36-3.26.71-6.52,1.05-9.79-4.23.81-8.45,1.62-12.68,2.44-.2,1.14-.4,2.29-.6,3.43Z"/><path class="cls-34" d="m377.71,239.59c.17-.94.33-1.89.49-2.83-1.58.3-3.17.61-4.75.91.07.15.14.3.21.45,1.35.51,2.7.98,4.04,1.46Z"/></g><path class="cls-73" d="m110.41,322.79c.87,4.11-2.51,6.22-7.87,7.76-7.25-1.58-14.59-4.12-20.33-8.44.41-.04.82-.09,1.25-.13.94-.1,1.81-.21,2.59-.31.92-.13,1.74-.27,2.47-.42,9.01-1.77,5.16-4.82,8.32-9.4,1.21-1.76,2.66-3.35,4.4-4.82,3.49-2.98,8.16-5.59,14.65-8.55,9.73-4.47,17.84-11.35,22.71-23.2,4.86-11.86,2.02-2.34,12.56-2.34s18.24-4.05,27.16-21.48c8.92-17.43,10.13-10.94,13.37-13.37,3.24-2.43,32.03-12.98,39.32-24.72,7.3-11.76,12.97-2.03,20.67,5.66,7.71,7.71,7.29,4.06,16.61,3.2,9.33-.86,16.63-2.79,22.71,3.29,6.08,6.08,5.27,4.86,18.64,6.08,13.38,1.21,13.79-3.25,20.27,6.08,6.48,9.32,14.59,14.18,25.13,20.26,10.55,6.08,20.27,7.71,25.95,20.27,5.68,12.56,9.32,7.29,20.67,18.64,6,6,13.36,18.46,18.97,28.88-.7.47-1.5.86-2.38,1.17-5.68,2.03-9.74,0-39.32-1.61-29.59-1.63-10.14.81-17.43,1.61-7.3.82-14.19,2.03-24.72,2.43-10.55.4-13.38-3.24-14.19-6.38s15.4-2.54,15.4-4.56-3.24-5.27-10.95-8.51c-7.69-3.24-11.74-1.63-23.5.81-11.76,2.43-21.08,4.87-30.82,4.87s-36.88-.82-43.37-1.63c-6.48-.81-25.53-2.84-36.08-3.24-10.53-.4-56.33,8.92-79.04,11.76-1.28.16-2.55.27-3.83.35Z"/><path class="cls-36" d="m462.96,286.37c2.1,3.55,3.95,7.21,5.43,10.93.02,0,.07,0,.07,0,3.5-.29,6.27-.95,8.42-1.95-2.4-3.69-4.98-7.25-7.68-10.71-2.11.51-4.19,1.08-6.25,1.73Z"/><path class="cls-36" d="m464.19,278.5c-3.99-4.66-8.16-9.07-12.39-13.18,2.65,4.8,5.09,9.7,7.24,14.71,1.7-.56,3.41-1.07,5.14-1.53Z"/><g class="cls-92"><path class="cls-34" d="m317.25,289.47c.08.75.16,1.5.25,2.25-1.5,1.94-3,3.89-4.51,5.82-.32.4-.64.8-.95,1.2-2.28-.25-4.56-.51-6.83-.76-.9-3.07-1.76-6.15-2.58-9.25,4.88.3,9.75.55,14.63.75Z"/><path class="cls-34" d="m254.55,269.25c.64-.35,1.29-.7,1.94-1.06.82.05,1.63.1,2.45.15.81,3.08,1.65,6.14,2.54,9.19-.42-.05-.84-.09-1.26-.14-4.07-.46-8.14-.91-12.22-1.37.76-.56,1.48-1.18,2.17-1.81,1.57-1.46,3.06-3.12,4.39-4.96Z"/><path class="cls-34" d="m280.09,227.67c.18,1.69.37,3.38.55,5.08-.72.18-1.45.35-2.17.52-.84-.09-1.69-.18-2.53-.27.9-1.15,1.8-2.29,2.7-3.44.49-.63.97-1.26,1.46-1.89Z"/><path class="cls-34" d="m240.15,280.61c.88-.19,1.76-.37,2.64-.56-.67.84-1.35,1.68-2.02,2.52-.21-.66-.43-1.3-.63-1.96Z"/><path class="cls-34" d="m311.82,243.11c.29.95.6,1.89.9,2.83-3.86,4.83-7.74,9.64-11.65,14.41-1.09-4.87-2.1-9.76-3.05-14.67,3.12-.52,6.24-1.08,9.35-1.68,1.49-.29,2.97-.59,4.46-.9Z"/><path class="cls-34" d="m243,244.99c.81-.98,1.61-1.96,2.42-2.95,3.13-3.83,6.24-7.7,9.34-11.57.95,2.94,1.93,5.87,2.97,8.76,1.2,3.35,2.47,6.67,3.8,9.95,0,.05-.02.09-.02.14-1.01.12-2.01.23-3.02.32-4.77.44-9.55.6-14.33.61-.36-1.67-.73-3.33-1.11-4.99-.02-.08-.04-.17-.06-.25,0,0,0,0,.01-.01Z"/><path class="cls-34" d="m261.87,300.83c.15-2.07.29-4.15.42-6.22.12,0,.24.01.36.02,2.3,4.59,4.69,9.1,7.22,13.49-2.87.13-5.74.25-8.61.35.21-2.54.42-5.09.61-7.63Z"/><path class="cls-34" d="m286.99,285.08c.78-.74,1.56-1.47,2.34-2.21v7.55c-.81-1.72-1.61-3.44-2.4-5.18.02-.05.04-.1.06-.15Z"/><path class="cls-34" d="m360.41,311.74c.48-1.47.96-2.94,1.43-4.42.9.76,1.89,1.3,2.98,1.4,2.38.21,4.29-2.01,5.62-4.26,1.43-2.4,2.5-5.13,3.42-7.94,2.06-.3,4.12-.63,6.17-.96,1.39,7.08,2.9,14.12,4.5,21.14.01.07.03.13.04.2-1.42,0-2.83-.02-4.25-.05-5.89-.12-11.78-.43-17.67-.72-.75-1.46-1.49-2.93-2.24-4.39Z"/><path class="cls-34" d="m284.29,243.74c0,.83,0,1.65-.01,2.48-.96.13-1.91.26-2.87.39-1.03-2.09-2.07-4.18-3.12-6.25.24.01.47.02.71.04,6.35.32,12.7.63,19.06.69.57,0,1.14,0,1.71,0,.21.92.41,1.84.61,2.76-4.97.78-9.94,1.52-14.92,2.21,0-.77.01-1.55.01-2.32,0-.96-1.17-.96-1.17,0Z"/><path class="cls-34" d="m177.7,300.8c5.08-.71,10.17-1.47,15.24-2.27.4,1.82.79,3.63,1.19,5.45-5.49.22-10.99.39-16.48.55.02-1.24.03-2.49.04-3.73Z"/><path class="cls-34" d="m216.97,247.16c5.61-.16,11.22-.34,16.83-.55.54,2.4,1.1,4.8,1.7,7.18-4.93-.27-9.86-.61-14.78-1.07-.75-.07-.74,1.42,0,1.48,5.05.47,10.11.82,15.17,1.09.14.52.27,1.04.41,1.56-6.51-.45-13.03-.81-19.55-1.06.1-2.88.17-5.76.22-8.64Z"/><path class="cls-34" d="m330.06,270.78c-1.95-4.9-3.77-9.89-5.45-14.95-.29-.87-.56-1.75-.84-2.63,1.18-1.48,2.37-2.96,3.54-4.44,1.62-.36,3.25-.73,4.87-1.11.74.08,1.48.16,2.22.24-1.5,7.61-2.94,15.24-4.34,22.89Z"/><path class="cls-34" d="m358.58,282.3c-.4-4.17-.84-8.34-1.31-12.5,1.34-.27,2.68-.54,4.01-.81,2.59,3.23,5.19,6.45,7.81,9.64-1.09.92-2.19,1.84-3.27,2.77-2.41.34-4.83.64-7.24.91Z"/><path class="cls-34" d="m219.95,295.26c-.98.06-1.95.12-2.93.18-.76-1.59-1.5-3.19-2.22-4.81-.43-.97-.84-1.95-1.25-2.93,1.77-.31,3.55-.64,5.32-.96.35,2.84.71,5.68,1.08,8.52Z"/><path class="cls-34" d="m268.49,293.27c-.61.34-1.22.69-1.82,1.04-.53-.74-1.04-1.49-1.53-2.28.15,0,.31.01.46.02.96.41,1.93.82,2.89,1.22Z"/><path class="cls-34" d="m203.93,259.94c.57-.23,1.14-.5,1.69-.81.17.02.33.04.5.06.4,2.24.82,4.47,1.25,6.7-1.8.29-3.6.57-5.4.84.49-1.59.95-3.18,1.4-4.75.2-.68.38-1.36.56-2.04Z"/><path class="cls-34" d="m312.78,273.49c-2.97.61-5.95,1.2-8.93,1.74-1.57.28-3.15.55-4.73.81-.4-2.12-.79-4.24-1.17-6.37,4.72.53,9.44,1.06,14.16,1.59.22.75.45,1.49.67,2.23Z"/><path class="cls-34" d="m263.47,264.49c-.19-.61-.37-1.23-.55-1.84,1.77.2,3.53.4,5.3.59-.08.1-.16.2-.24.3-1.5.33-3.01.64-4.51.95Z"/></g><path class="cls-83" d="m494.34,123.36l-4.07-.83s1.76-18.5-12.86-20.54c-14.62-2.04-24.14,9.9-24.14,9.9,0,0-3.7,1.02-3.79-.37-.09-1.39-.65-4.99-.65-4.99h-1.85l-.46-3.52,2.78-1.11s1.69-7.43-2.16-11.88c1.32-4.18,1.69-8.6,1.62-13.01-.07-4.5-.54-9.16-2.55-13.25-2.04-4.17-5.84-6.85-10.4-7.61-1.18-.2-2.38-.3-3.57-.36v-.76h-1.98v.7c-3.2-.06-6.41.02-9.56-.62-10.87-2.23-19.98-9.56-31.07-11.1-5.38-.75-10.52.13-15.28,2.76-4.28,2.36-8.02,5.65-12.48,7.7-1.81.83-3.69,1.35-5.61,1.67v-.12h-2.91v.46c-3.33.26-6.73.13-10.03.2-2.73.06-5.65.08-7.74,2.1-1.11,1.08-1.95,2.51-2.84,3.76-.23.33-.46.65-.7.98h-58.95s-3.7-5.55-6.2-5.83c-2.5-.28-11.19,0-11.19,0-2.09,0-3.79,1.7-3.79,3.79v1.67l-2.78,4.35-23.68,8.42,1.85,6.01.33.13-8.04,49.88h-3.47l-6.33,54.75-15.14,40.24-10.5-27.46c-.96-2.51-3.37-4.16-6.05-4.16h-47.4c-2.18,0-3.95,1.77-3.95,3.95h0c0,2.18,1.77,3.95,3.95,3.95h2.09v36.74h-10.23v-18.6h-2.7v-16.18h-4.37v16.18h-3.17v18.14l-28.93,1.88-26.3,11v40.65h-12.19c-9.9,0-17.93,8.03-17.93,17.93s8.03,17.93,17.93,17.93h171.67c9.9,0,17.93-8.03,17.93-17.93v-8.85h-6.69v-4.78h13.87v-5.26h-43.99l-7.17,7.17h-36.82v-4.78h22.47v-7.17h23.91v-19.13s18.65-4.3,18.65-35.39l48.77-153.5s-3-2.31.52-3.49h20.31l1.61-1.47h56.57v2.68h4.52v-2.68h16.06v2.93h7.78v-2.93h51.95s.5,5.44,9.54,7.45l2.26,8.03-2.26.5s-1.59,7.54,3.31,13.09l2.87.28v3.7l-1.39.09.28,5.92s-2.13,1.39-3.42.83c-1.3-.56-16.1-5.18-23.68,1.48-7.59,6.66-4.63,23.96-4.63,23.96l-1.67,1.29,10.27,10.18-5.27-11.29s-4.16-16.19,6.66-19.52c10.82-3.33,17.02,3.79,17.02,3.79l6.66-4.9v2.68l2.59-.18,2.03,12.86-1.29.28,7.03,15.17v-17.11l-1.48.09-1.85-12.03,2.41-.28-.18-3.61,7.12,2.13s4.35-12.3,19.33-9.07c14.99,3.24,7.03,26.09,7.03,26.09l8.23-12.86Zm-269.34,22.85l1.27-14.29h-2.48l6.81-48.74,15.83,6.04-21.43,56.98Zm128.33-82.7h-2.39v-1.88h-4.43v1.88h-10.99c.51-.7,1.02-1.4,1.56-2.07,1.65-2.03,4.27-1.83,6.67-1.87,3.18-.05,6.4.04,9.59-.19v4.13Zm76.92-1.32l-3.44,1.78h-51.15v-2.78h-8.05v2.31h-11.36v-4.45c1.1-.16,2.2-.37,3.28-.67,9.27-2.55,15.56-11.52,25.61-11.77,10.56-.26,19.68,6.28,29.27,9.71,4.72,1.69,9.4,2.26,14.38,2.29.48,0,.97,0,1.47.01v3.56Zm14.21,26.69l-.91-.13-2.78-8.33s3.52-1.2,3.05-4.25c-.44-2.94-10.81-14.08-11.6-14.93v-2.56c3.39.17,6.76.81,9.24,3.33,3.19,3.23,4.02,8.18,4.27,12.53.28,4.75.13,9.74-1.28,14.34Z"/><polygon class="cls-46" points="263.26 400.88 187.24 405.41 177.52 399.82 258.13 398.06 263.26 400.88"/><polygon class="cls-56" points="263.26 400.88 252.48 369.54 246.54 365.01 258.13 398.06 263.26 400.88"/><polygon class="cls-58" points="181.76 365.3 246.54 365.01 258.13 398.06 177.52 399.82 181.76 365.3"/><polygon class="cls-56" points="187.24 405.41 200.67 400.32 177.52 399.82 187.24 405.41"/><path class="cls-58" d="m272.48,381.56c-1.32-3.7-7.06-6.69-12.84-6.68l-10.46.03,1.19,3.35,11.1-.03c2.17,0,4.32,1.11,4.81,2.5l.6,1.68c.49,1.39-.86,2.52-3.03,2.53l-11.1.03,1.19,3.35,10.46-.03c5.78-.02,9.39-3.04,8.08-6.74Z"/><path class="cls-65" d="m157.83,290.17l-51.5,1.26c-2.45.06-4.4,2.04-4.34,4.41l.79,32.59c.06,2.37,2.1,4.25,4.55,4.19l51.5-1.26c2.45-.06,4.4-2.04,4.34-4.41l-.79-32.59c-.06-2.37-2.1-4.25-4.55-4.19Z"/><path class="cls-55" d="m107.72,318.47c.24,2.68.57,5.67,2.59,7.61,3.49,3.36,36.35,1.82,39.22,1.63,2.69-.18,5.56-.79,7.35-2.98,1.74-2.13,2.09-4.86,2.08-7.53,0-3.02-1.14-16.68-1.56-18.19-.81-2.95-2.69-3.83-4.04-4.19-1.43-.39-37.42-.56-39.79.25-2.79.95-4.84,2.94-5.74,5.84-.79,2.55-.41,14.39-.13,17.57Z"/><path class="cls-55" d="m163.52,295.75c-.13-2.9-1.55-5.52-4.52-6.24-1.34-.32-47.64.14-51.63.6-1.35.16-2.75.69-3.86,1.49-1.32.94-1.88,2.34-2.16,3.9-.3,1.67-.31,3.37-.27,5.06.05,1.94,1.14,27.16,1.51,28.7.1.42.4,1.01.74,1.58.73,1.23,2.04,2,3.47,2,10.09,0,52.45-.07,54.5-1.16,2.53-1.35,2.86-4.16,2.77-6.76-.05-1.44-.47-27.66-.54-29.17Zm-1.86,32.51c-.65,1.98-3.21,2.26-4.98,2.4-3.29.24-48.3.8-49.91.39-.99-.25-1.6-.75-1.91-1.55-.46-1.17-.53-2.51-.66-3.74-.19-1.9-1.09-26.95-.96-28.56.11-1.39.31-3.13,1.58-3.95,2.89-1.87,50.9-1.99,52.34-1.9,1.07.07,2.21.29,3.01,1.05.95.9,1.23,2.26,1.26,3.51.04,1.47.64,31.11.23,32.35Z"/><path class="cls-55" d="m111.38,289.67s0-.01,0-.02c0,0,0,0,0,0,0,0,0,0,0,.02Z"/><path class="cls-55" d="m111.37,289.65s0,0,0,0c0,0,0,0,0,0Z"/><path class="cls-45" d="m162.37,340.68c-.18-2.76-.36-5.52-.49-8.28-7.19.17-12.33.32-12.33.32,0,0-45.95-.69-48.42.44-2.47,1.13-6.02,9.23-4.72,11.4,1.31,2.16,60.46,1.7,60.46,1.7,0,0,2.28.05,5.92.1-.16-1.89-.3-3.78-.42-5.68Z"/><path class="cls-45" d="m162.43,332.69c-1.26-.55-9.54-.67-19.38-.61-.01.37-.02.75-.03,1.12-.13,4.48-.25,8.96-.52,13.43,12.98,0,25.65-.25,26.77-1.19,2.34-1.98-3.49-11.28-6.83-12.75Z"/><path class="cls-57" d="m165.43,333.3c-1.46-1.36-3.33-1.64-5.26-1.65-2.18-.01-4.36.04-6.54.05-1.45.01-44.27.38-46.54.41-2,.02-4.36-.37-6.26.42-.78.32-1.42.84-1.94,1.47.45.4.95.75,1.41,1.14.23-.28.49-.52.82-.7.85-.48,1.83-.47,2.78-.48,2.1-.01,58.05-.31,58.04-.35.82.14,1.58.42,2.18.99.13.12.26.25.38.38.42-.45.85-.89,1.29-1.32-.11-.12-.23-.23-.34-.34Z"/><path class="cls-55" d="m124.22,340.49c-.15-1.38-.3-2.99-1.25-4.08-.95-1.09-2.66-1.2-3.94-.72-1.67.63-2.11,2.24-2.22,3.88-.14,2.07-.06,4.22-1.09,6.09-.12.21-.14.42-.11.61-.02.46.26.92.86.92,2.65,0,5.29.02,7.94.08.62.01,1.06-.54.95-1.14-.37-1.89-.92-3.73-1.13-5.65Z"/><path class="cls-55" d="m146.4,341.02c-.29-1.54-.1-3.63-1.35-4.79-1.07-.99-2.79-.93-3.98-.21-1.49.9-1.76,2.6-1.8,4.21-.02.93.04,1.87-.16,2.79-.24,1.05-.7,2.04-1.1,3.04-.24.59.15,1.02.63,1.13,1.05.52,2.4.2,3.52.17,1.89-.04,3.77.08,5.66-.02.79-.04,1.29-.93.72-1.56-1.19-1.32-1.81-3.03-2.13-4.76Z"/><path class="cls-28" d="m164.22,347.56c-.1-.1-.2-.19-.32-.27-1.12-.79-2.65-.89-3.98-.85-.8.02-1.6.1-2.4.18-.21.02-.44.06-.67.08.03,0-.03-.01-.2,0-.12,0-.23.02-.35.02-1.8.08-3.62.08-5.43.1-1.8.02-3.73-.2-5.45.41-.84.29-1.57.94-1.58,1.9-.03,2.93,4.27,12.64,6.58,13.27,1.34.36,7.01.29,8.4.11,1.05-.14,2.06-.53,2.85-1.24.9-.81,3.66-8.8,3.62-11.81-.01-.76-.42-1.52-1.07-1.89Z"/><path class="cls-28" d="m141.2,347.61c-.1-.1-.2-.19-.32-.27-1.12-.79-2.65-.89-3.98-.85-.8.02-1.6.1-2.4.18-.21.02-.44.06-.67.08.03,0-.03-.01-.2,0-.12,0-.23.02-.35.02-1.8.08-3.62.08-5.43.1-1.8.02-3.73-.2-5.45.41-.84.29-1.57.94-1.58,1.9-.03,2.93,4.27,12.64,6.58,13.27,1.34.36,2.79.38,4.17.35,1.4-.03,2.84-.06,4.24-.25,1.05-.14,2.06-.53,2.85-1.24.9-.81,3.66-8.8,3.62-11.81-.01-.76-.42-1.52-1.07-1.89Z"/><path class="cls-28" d="m118.41,347.66c-.1-.1-.2-.19-.32-.27-1.12-.79-2.65-.89-3.98-.85-.8.02-1.6.1-2.4.18-.21.02-.44.06-.67.08.03,0-.03-.01-.2,0-.12,0-.23.02-.35.02-1.8.08-3.62.08-5.43.1-1.8.02-3.73-.2-5.45.41-.84.29-1.57.94-1.58,1.9-.03,2.93,4.27,12.64,6.58,13.27,1.34.36,2.79.38,4.17.35,1.4-.03,2.84-.06,4.24-.25,1.05-.14,2.06-.53,2.85-1.24.9-.81,3.66-8.8,3.62-11.81-.01-.76-.42-1.52-1.07-1.89Z"/><path class="cls-55" d="m161.87,345.96c-3.99.06-7.99.22-11.99.23-1.31,0-21.72-.08-28.9-.01-4.46.04-8.93.08-13.39-.11-2.26-.09-10.23.67-12.42-2.77,0,.87-.52,3.67-.14,4.48.43.94,1.4,1.49,2.38,1.67,1.02.19,66.86.58,68.46.6,1.44.02,3.07-.16,4.13-1.26.68-.71.8-3.74.85-4.71-2.11,2.56-7.5,1.84-8.98,1.86Z"/><path class="cls-55" d="m143.07,289.53s-.01-.03-.02-.04c0-.02,0-.05,0-.07-.31-1.91-1.27-3.64-2.74-4.41-.77-.4-14.1-.06-15.81.22-.69.11-1.42.35-1.95.95-.29.32-.48.74-.61,1.19-.05.2-.7,2.18-.83,2.76-.19.86,22.18-.14,21.97-.6Z"/><path class="cls-57" d="m170.85,343.51c-.16-2.03-4.09-8.97-5.42-10.21-.83-.78-1.8-1.2-2.83-1.43.05.63.06,1.26.04,1.89.54.17,1.04.42,1.46.82,1.4,1.31,5.69,9.16,4.73,9.98.02-.01.03-.03.03-.04,0,0-.02.02-.03.04-.16.2-.06.08,0,0-.44.56-1.66.53-2.29.56-1.08.04-61.16,0-63.23-.05-1.54-.04-3.2.03-4.7-.37-.49-.13-1.05-.32-1.37-.74-.49-.65-.19-1.62.07-2.31.3-.8,1.81-4.33,2.25-5.3.35-.76.79-1.49,1.54-1.91.32-.18.67-.3,1.02-.37-.04-.63-.09-1.25-.09-1.88-.42.08-.83.19-1.22.35-1.45.6-2.39,1.85-3.01,3.24-.43.96-2.14,4.89-2.44,5.94-.5,1.76-.09,3.43,1.6,4.29,1.7.87,3.77.85,5.64.88,4.54.06,64.64.14,65.67-.09,1.66-.37,2.7-1.53,2.57-3.28Z"/><path class="cls-78" d="m387.52,343.09c-.28.49-.56.97-.85,1.45,3.18-.09,6.36-.2,9.54-.33,5.46-.23,10.91-.56,16.35-.96,10.3-26.23,5.25-53.71-13.02-66.11l-.03-.15-1.68-.92c-.25-.15-.48-.31-.73-.45-.66-.37-1.32-.72-1.99-1.05l-17.91-9.87c22.93,13.07,27.55,48.17,10.31,78.39Z"/><path class="cls-76" d="m325.33,345.51c4.59-.12,9.18-.22,13.77-.29-2.02-8.23-.58-18.3,4.68-27.52,6.44-11.3,16.91-18.32,26.81-19.1-1.85-3.5-4.52-6.4-7.96-8.36-10.38-5.92-24.47-1.47-34.11,9.88-1.46,2.08-5.7,1.39-6.99,3.66-1.56,2.73-.08,8.36-1.28,11.15-3.83,11.8-1.91,23.71,5.07,30.57Z"/><path class="cls-71" d="m322.72,345.58c.87-.03,1.74-.04,2.61-.07-6.98-6.86-8.9-18.77-5.07-30.57.89-2.74,2.09-5.48,3.61-8.15,1.38-2.43,2.95-4.66,4.66-6.66,9.64-11.36,23.72-15.8,34.11-9.88,3.44,1.96,6.11,4.85,7.96,8.36,4.73,8.93,4.14,21.85-2.46,33.42-3.06,5.37-7.03,9.76-11.41,12.99,9.98-.1,19.97-.21,29.95-.49.29-.48.57-.96.85-1.45,17.23-30.22,12.61-65.32-10.31-78.39-22.93-13.08-55.49.83-72.72,31.05-9.52,16.69-12.36,34.87-9.13,50,9.12-.08,18.26.11,27.38-.17Z"/><path class="cls-24" d="m345.39,345.5c0-2.64.28-5.13.79-7.01.62-2.28,1.51-3.43,2.65-3.43s2.03,1.16,2.65,3.43c.51,1.88.79,4.37.79,7.01,0,2.64-.28,5.13-.79,7.01-.62,2.28-1.51,3.43-2.65,3.43s-2.03-1.16-2.65-3.43c-.51-1.88-.79-4.37-.79-7.01Z"/><path class="cls-59" d="m389.08,333.3c-.65-.34-1.37-.51-2.1-.51h-3.44c-.67.69-1.26,1.45-1.71,2.36-.28.57-1.03.67-1.54.4-1.24-.64-2.55-1.32-3.62-2.23-.22-.19-.41-.37-.59-.54h-3.44c-1.49.63-2.9,1.5-4.31,2.22-2.39,1.22-4.05.93-6.13-.71-.72-.57-1.49-1.05-2.28-1.51h-6.02c-.74,0-1.47.19-2.12.54l-3.28,1.75c-.64.27-1.24,1.5-1.69,3.34-.45,1.84-.73,4.31-.73,7.07,0,5.53,1.19,9.79,2.42,10.52l3.31,1.71c.65.34,1.37.51,2.1.51h3.87c.98-.51,1.93-1.09,2.87-1.67,2.2-1.35,4.76-3.18,7.48-2.83,1.36.17,2.56.85,3.79,1.4.81.36,1.65.67,2.5.94,3.45.6,6.89,1.1,10.21,2.17h2.35c.74,0,1.47-.19,2.12-.54l3.28-1.75v-20.94l-3.31-1.71Z"/><path class="cls-5" d="m385.77,355.94c.24-.06.35-.35.24-.57-.75-1.42-1.28-5.3-1.28-9.86s.54-8.43,1.28-9.86c.12-.22,0-.52-.24-.57-.03,0-.05,0-.08,0-1.06,0-1.92,4.67-1.92,10.44,0,5.77.86,10.44,1.92,10.44.03,0,.05,0,.08,0Z"/><path class="cls-5" d="m352.59,355.94c.24-.06.35-.35.24-.57-.75-1.42-1.28-5.3-1.28-9.86,0-4.56.54-8.43,1.28-9.86.12-.22,0-.52-.24-.57-.03,0-.05,0-.08,0-1.06,0-1.92,4.67-1.92,10.44,0,5.77.86,10.44,1.92,10.44.03,0,.05,0,.08,0Z"/><path class="cls-24" d="m388.93,345.5c0-2.64.28-5.13.79-7.01.62-2.28,1.51-3.43,2.65-3.43s2.03,1.16,2.65,3.43c.51,1.88.79,4.37.79,7.01s-.28,5.13-.79,7.01c-.62,2.28-1.51,3.43-2.65,3.43-1.14,0-2.03-1.16-2.65-3.43-.51-1.88-.79-4.37-.79-7.01Z"/><path class="cls-41" d="m388.93,345.5c0-2.61.28-5.08.78-6.94.58-2.14,1.38-3.23,2.38-3.23,1,0,1.8,1.09,2.38,3.23.5,1.86.78,4.32.78,6.94,0,2.61-.28,5.08-.78,6.94-.58,2.14-1.38,3.23-2.38,3.23-1,0-1.8-1.09-2.38-3.23-.5-1.86-.78-4.32-.78-6.94Z"/><ellipse class="cls-53" cx="392.08" cy="345.5" rx="2.6" ry="9.6"/><path class="cls-41" d="m391.18,353.23v-7.91c0-.58.51-.93,1.1-.79h0c.56.13.99.66.99,1.18v7.12c0,.52-.43,1.05-.99,1.18h0c-.59.14-1.1-.21-1.1-.79Z"/><path class="cls-24" d="m392.94,351.15v-3.76c0-1.26-.32-2.29-.71-2.29s-.71,1.03-.71,2.29v3.76c0,1.26.32,2.29.71,2.29s.71-1.03.71-2.29Zm-1.24-3.56v-.03c0-.93.24-1.68.52-1.68s.52.76.52,1.68v.03c0,.93-.24,1.68-.52,1.68s-.52-.76-.52-1.68Zm.41,4.92c-.22,0-.41-.59-.41-1.31s.18-1.31.41-1.31h.23c.22,0,.41.59.41,1.31s-.18,1.31-.41,1.31h-.23Z"/><path class="cls-43" d="m393.13,351.15v-3.76c0-1.26-.32-2.29-.71-2.29s-.71,1.03-.71,2.29v3.76c0,1.26.32,2.29.71,2.29s.71-1.03.71-2.29Zm-1.24-3.56v-.03c0-.93.24-1.68.52-1.68s.52.76.52,1.68v.03c0,.93-.24,1.68-.52,1.68s-.52-.76-.52-1.68Zm.41,4.92c-.22,0-.41-.59-.41-1.31s.18-1.31.41-1.31h.23c.22,0,.41.59.41,1.31s-.18,1.31-.41,1.31h-.23Z"/><path class="cls-6" d="m365.53,354.01c.84-.26,1.71-.39,2.59-.28,1.02.13,1.95.54,2.87.97,6.6.59,12.78.39,12.78.39-1.24-2.37-1.25-10.59-1.25-10.59.12-6.25,1.39-9.75,2.76-11.72h-1.74c-.67.69-1.26,1.45-1.71,2.36-.28.57-1.03.67-1.54.4-1.24-.64-2.55-1.32-3.62-2.23-.22-.19-.41-.37-.59-.54h-3.44c-1.49.63-2.9,1.5-4.31,2.22-2.39,1.22-4.05.93-6.13-.71-.72-.57-1.49-1.05-2.28-1.51h-3.41c-2.97,4.66-3.39,10.92-1.01,16.49,1.05,2.47,5.21,3.9,10.03,4.73Z"/><path class="cls-85" d="m331.25,284.59v61.73c0,3.09-2.5,5.59-5.59,5.59h-3.03v-72.91h3.03c3.09,0,5.59,2.5,5.59,5.59Z"/><path class="cls-48" d="m172.55,346.7h7.61c.98,0,1.78.8,1.78,1.78v6.4h-11.17v-6.4c0-.98.8-1.78,1.78-1.78Z" transform="translate(352.71 701.59) rotate(180)"/><polygon class="cls-27" points="314.52 268.62 293.76 268.62 176.36 286.23 176.36 344.64 293.76 362.25 314.52 362.25 314.52 268.62"/><path class="cls-27" d="m324.15,274.87v81.17c0,3.46-2.79,6.25-6.24,6.25h-3.39v-93.67h3.39c3.44,0,6.24,2.79,6.24,6.25Z"/><rect class="cls-85" x="293.76" y="268.62" width="20.76" height="93.63"/><path class="cls-9" d="m230.19,338.29c.81.74,1.67,1.43,2.55,2.08,12.99,9.39,31.2,6.46,40.58-6.54.31-.44.61-.88.9-1.34l-5.61,3.37c-1.18.69-2.64.78-3.89.26-1.3-.54-2.26-1.69-2.56-3.07l-1.5-6.49c-4.33,4.83-11.36,6.24-17.19,3.44l1.73-1.09c.34-.21.53-.6.5-.99-.03-.4-.29-.75-.66-.89l-17.25-6.97c-.31-.14-.68-.11-.97.08-.29.18-.47.49-.5.83l-1.3,18.56v.08c0,.37.19.72.52.91.33.21.76.2,1.1,0l3.55-2.21Z"/><path class="cls-61" d="m259.76,328.82c-.17-.15-.19-.4-.04-.57.15-.17.4-.19.57-.04.17.15.19.4.04.57-.15.17-.4.19-.57.04Z"/><path class="cls-61" d="m268.1,337.24c-.17-.15-.19-.4-.04-.57.15-.17.4-.19.57-.04.17.15.19.4.04.57-.15.17-.4.19-.57.04Z"/><path class="cls-61" d="m270.64,335.36c-.17-.15-.19-.4-.04-.57.15-.17.4-.19.57-.04.17.15.19.4.04.57-.15.17-.4.19-.57.04Z"/><path class="cls-61" d="m260.39,333.47c-.17-.15-.19-.4-.04-.57.15-.17.4-.19.57-.04.17.15.19.4.04.57-.15.17-.4.19-.57.04Z"/><path class="cls-61" d="m257.42,329.94c-.08-.07-.09-.18-.02-.26.07-.08.18-.09.26-.02.08.07.09.18.02.26-.07.08-.18.09-.26.02Z"/><path class="cls-61" d="m262.56,335.12c-.08-.07-.09-.18-.02-.26.07-.08.18-.09.26-.02.08.07.09.18.02.26-.07.08-.18.09-.26.02Z"/><path class="cls-61" d="m266.46,337.48c-.08-.07-.09-.18-.02-.26.07-.08.18-.09.26-.02.08.07.09.18.02.26-.07.08-.18.09-.26.02Z"/><path class="cls-61" d="m272.82,334.31c-.08-.07-.09-.18-.02-.26.07-.08.18-.09.26-.02.02.02.04.05.05.07-.06.08-.12.17-.19.25-.04,0-.08-.02-.11-.04Z"/><path class="cls-61" d="m265.51,338.75c-.17-.15-.19-.4-.04-.57.15-.17.4-.19.57-.04.17.15.19.4.04.57-.15.17-.4.19-.57.04Z"/><path class="cls-61" d="m267.84,339.57c-.18-.26-.17-.62.05-.87.26-.3.7-.33,1-.07.01.01.03.02.04.04-.35.31-.72.61-1.08.9Z"/><path class="cls-61" d="m257.88,332.36c-.17-.15-.19-.4-.04-.57.15-.17.4-.19.57-.04.17.15.19.4.04.57-.15.17-.4.19-.57.04Z"/><path class="cls-61" d="m258.58,334.98c-.17-.15-.19-.4-.04-.57.15-.17.4-.19.57-.04.17.15.19.4.04.57s-.4.19-.57.04Z"/><path class="cls-61" d="m265.92,340.96c-.15-.15-.16-.39-.02-.55.15-.17.4-.19.57-.04.05.04.08.09.1.14-.22.15-.44.3-.66.45Z"/><path class="cls-61" d="m261.75,337c-.17-.15-.19-.4-.04-.57.15-.17.4-.19.57-.04.17.15.19.4.04.57-.15.17-.4.19-.57.04Z"/><path class="cls-61" d="m260.06,331.69c-.17-.15-.19-.4-.04-.57.15-.17.4-.19.57-.04.17.15.19.4.04.57-.15.17-.4.19-.57.04Z"/><path class="cls-61" d="m270.68,336.92c-.08-.07-.09-.18-.02-.26.07-.08.18-.09.26-.02.02.01.03.03.04.05-.08.09-.16.17-.25.26-.01,0-.03-.01-.04-.03Z"/><path class="cls-61" d="m260.12,336.33c-.08-.07-.09-.18-.02-.26.07-.08.18-.09.26-.02.08.07.09.18.02.26-.07.08-.18.09-.26.02Z"/><path class="cls-61" d="m263.23,338.48c-.08-.07-.09-.18-.02-.26.07-.08.18-.09.26-.02.08.07.09.18.02.26-.07.08-.18.09-.26.02Z"/><path class="cls-61" d="m256.01,331.41c-.08-.07-.09-.18-.02-.26.07-.08.18-.09.26-.02.08.07.09.18.02.26-.07.08-.18.09-.26.02Z"/><path class="cls-61" d="m263.42,336.84c-.23-.2-.26-.55-.06-.78.2-.23.55-.26.78-.06.23.2.26.55.06.78-.2.23-.55.26-.78.06Z"/><path class="cls-9" d="m222.59,327.07c-4.88-12.83-.08-27.76,12.07-35.15.94-.56,1.91-1.08,2.9-1.54l-.66-4.13c-.06-.39.09-.8.42-1.02.3-.23.7-.27,1.04-.13l.07.03,16.6,8.4c.31.16.52.45.57.79.06.33-.06.68-.31.92l-13.12,13.19c-.28.29-.7.4-1.08.26-.38-.12-.66-.44-.72-.84l-.33-2.01c-3.92,3.47-5.61,8.76-4.63,13.76l-6.38-2.57c-1.3-.55-2.78-.42-3.99.33-1.16.74-1.9,1.95-2.01,3.33l-.45,6.39Z"/><path class="cls-9" d="m266,333.08c-.31-.13-.55-.41-.62-.75l-4.19-18.13c-.09-.39.04-.8.35-1.05.3-.25.73-.32,1.1-.16l1.88.8c-.98-5.9-5.48-10.58-11.24-11.86l4.33-4.36c.82-.81,1.29-1.93,1.29-3.09,0-.24-.02-.48-.06-.71-.23-1.36-1.06-2.51-2.29-3.16l-6.84-3.46c.27,0,.53,0,.8,0,16.03.23,28.88,13.45,28.65,29.48-.02,1.1-.09,2.19-.24,3.28l3.85,1.64c.36.16.62.5.64.9.03.37-.14.73-.45.94l-.06.05-15.94,9.59c-.3.17-.65.2-.97.07Z"/><path class="cls-61" d="m261.19,293.47c-.27-.23-.3-.63-.07-.9.23-.27.64-.3.9-.07.27.23.3.64.07.9-.23.27-.64.3-.9.07Z"/><path class="cls-61" d="m252.11,287.74c-.16-.14-.22-.34-.18-.53.37.02.73.05,1.1.09,0,.14-.04.28-.14.39-.2.23-.55.26-.78.06Z"/><path class="cls-61" d="m257.69,289.62c-.23-.2-.26-.55-.06-.78.2-.23.55-.26.78-.06.23.2.26.55.06.78s-.55.26-.78.06Z"/><path class="cls-61" d="m259.46,295.15c-.23-.2-.26-.55-.06-.78.2-.23.55-.26.78-.06.23.2.26.55.06.78-.2.23-.55.26-.78.06Z"/><path class="cls-61" d="m258.97,299.81c-.17-.15-.19-.4-.04-.57.15-.17.4-.19.57-.04.17.15.19.4.04.57-.15.17-.4.19-.57.04Z"/><path class="cls-61" d="m261.63,291.02c-.17-.15-.19-.4-.04-.57.15-.17.4-.19.57-.04.17.15.19.4.04.57-.15.17-.4.19-.57.04Z"/><path class="cls-61" d="m259.81,290.61c-.17-.15-.19-.4-.04-.57.15-.17.4-.19.57-.04.17.15.19.4.04.57-.15.17-.4.19-.57.04Z"/><path class="cls-61" d="m255.26,302.52c-.04-.13,0-.27.08-.37.15-.17.4-.19.57-.04.17.15.19.4.04.57-.03.03-.06.06-.1.08-.2-.08-.39-.16-.59-.24Z"/><path class="cls-61" d="m258.32,291.26c-.08-.07-.09-.18-.02-.26.07-.08.18-.09.26-.02.08.07.09.18.02.26-.07.08-.18.09-.26.02Z"/><path class="cls-61" d="m255.24,300.28c-.08-.07-.09-.18-.02-.26.07-.08.18-.09.26-.02.08.07.09.18.02.26-.07.08-.18.09-.26.02Z"/><path class="cls-61" d="m258.9,303.92c-.08-.07-.09-.18-.02-.26.07-.08.18-.09.26-.02.08.07.09.18.02.26-.07.08-.18.09-.26.02Z"/><path class="cls-61" d="m262.56,298.04c-.08-.07-.09-.18-.02-.26.07-.08.18-.09.26-.02.08.07.09.18.02.26-.07.08-.18.09-.26.02Z"/><path class="cls-61" d="m259.37,296.77c-.08-.07-.09-.18-.02-.26.07-.08.18-.09.26-.02.08.07.09.18.02.26-.07.08-.18.09-.26.02Z"/><path class="cls-61" d="m259.95,292.25c-.08-.07-.09-.18-.02-.26.07-.08.18-.09.26-.02s.09.18.02.26c-.07.08-.18.09-.26.02Z"/><path class="cls-61" d="m260.89,299.48c-.21-.18-.24-.5-.05-.72.18-.21.5-.24.72-.05.21.18.24.5.05.72-.18.21-.5.24-.72.05Z"/><path class="cls-61" d="m256.76,299.47c-.3-.26-.33-.7-.07-1,.26-.3.7-.33,1-.07.3.26.33.7.07,1-.26.3-.7.33-1,.07Z"/><path class="cls-61" d="m255.57,288.85c-.3-.26-.33-.7-.07-1,.06-.07.13-.13.21-.17.3.06.59.12.88.19.21.26.21.64-.02.9-.26.3-.7.33-1,.07Z"/><path class="cls-61" d="m260.55,302.27c-.17-.15-.19-.4-.04-.57.15-.17.4-.19.57-.04.17.15.19.4.04.57-.15.17-.4.19-.57.04Z"/><path class="cls-61" d="m257.88,301.86c-.17-.15-.19-.4-.04-.57.15-.17.4-.19.57-.04.17.15.19.4.04.57-.15.17-.4.19-.57.04Z"/><path class="cls-61" d="m260.72,297.11c-.08-.07-.09-.18-.02-.26.07-.08.18-.09.26-.02.08.07.09.18.02.26-.07.08-.18.09-.26.02Z"/><path class="cls-61" d="m262.44,294.92c-.08-.07-.09-.18-.02-.26.07-.08.18-.09.26-.02.08.07.09.18.02.26-.07.08-.18.09-.26.02Z"/><path class="cls-61" d="m263.13,292.68c-.08-.07-.09-.18-.02-.26.07-.08.18-.09.26-.02.08.07.09.18.02.26-.07.08-.18.09-.26.02Z"/><path class="cls-61" d="m226.11,315.95c-.42-.36-.47-1-.1-1.42.36-.42,1-.47,1.43-.1s.47,1,.1,1.43c-.36.42-1,.47-1.42.1Z"/><path class="cls-61" d="m232.61,317.87c-.27-.23-.3-.63-.07-.9.23-.27.63-.3.9-.07.27.23.3.63.07.9-.23.27-.64.3-.9.07Z"/><path class="cls-61" d="m221.83,320.82c-.23-.2-.26-.55-.06-.78.2-.23.55-.26.78-.06.23.2.26.55.06.78-.2.23-.55.26-.78.06Z"/><path class="cls-61" d="m224.3,311.19c-.23-.2-.26-.55-.06-.78.2-.23.55-.26.78-.06.23.2.26.55.06.78-.2.23-.55.26-.78.06Z"/><path class="cls-61" d="m231.21,316.63c-.23-.2-.26-.55-.06-.78.2-.23.55-.26.78-.06.23.2.26.55.06.78-.2.23-.55.26-.78.06Z"/><path class="cls-61" d="m232.06,314.56c-.23-.2-.26-.55-.06-.78.2-.23.55-.26.78-.06.23.2.26.55.06.78s-.55.26-.78.06Z"/><path class="cls-61" d="m223.64,317.45c-.23-.2-.26-.55-.06-.78.2-.23.55-.26.78-.06.23.2.26.55.06.78-.2.23-.55.26-.78.06Z"/><path class="cls-61" d="m221.93,323.43c-.17-.15-.19-.4-.04-.57.15-.17.4-.19.57-.04.17.15.19.4.04.57-.15.17-.4.19-.57.04Z"/><path class="cls-61" d="m229.24,315.27c-.32-.28-.35-.76-.08-1.08.28-.32.76-.35,1.08-.08.32.28.35.76.08,1.08-.28.32-.76.35-1.08.08Z"/><path class="cls-61" d="m229.24,311.73c-.17-.15-.19-.4-.04-.57.15-.17.4-.19.57-.04.17.15.19.4.04.57-.15.17-.4.19-.57.04Z"/><path class="cls-61" d="m224.14,314.53c-.17-.15-.19-.4-.04-.57.15-.17.4-.19.57-.04.17.15.19.4.04.57-.15.17-.4.19-.57.04Z"/><path class="cls-61" d="m221.05,317.33c-.17-.15-.19-.4-.04-.57.15-.17.4-.19.57-.04.17.15.19.4.04.57-.15.17-.4.19-.57.04Z"/><path class="cls-61" d="m220.89,320.04c.16.21.19.48.09.72-.03-.24-.06-.48-.09-.72Z"/><path class="cls-61" d="m221.9,325s.07.02.09.04c.08.07.09.18.02.26,0,0-.01.01-.02.02-.03-.11-.07-.21-.1-.32Z"/><path class="cls-61" d="m234.67,315.51c-.08-.07-.09-.18-.02-.26.07-.08.18-.09.26-.02.08.07.09.18.02.26-.07.08-.18.09-.26.02Z"/><path class="cls-61" d="m233.71,312.1c-.08-.07-.09-.18-.02-.26.07-.08.18-.09.26-.02.08.07.09.18.02.26-.07.08-.18.09-.26.02Z"/><path class="cls-61" d="m226.83,312.97c-.08-.07-.09-.18-.02-.26.07-.08.18-.09.26-.02.08.07.09.18.02.26-.07.08-.18.09-.26.02Z"/><path class="cls-61" d="m224.85,315.75c-.08-.07-.09-.18-.02-.26.07-.08.18-.09.26-.02.08.07.09.18.02.26-.07.08-.18.09-.26.02Z"/><path class="cls-61" d="m222.19,315.83c-.08-.07-.09-.18-.02-.26.07-.08.18-.09.26-.02.08.07.09.18.02.26-.07.08-.18.09-.26.02Z"/><path class="cls-61" d="m234.67,317.75c-.3-.26-.33-.7-.07-1,.14-.17.35-.25.55-.24,0,.47,0,.94.04,1.41-.18.02-.37-.04-.52-.17Z"/><path class="cls-61" d="m231.41,311.43c-.3-.26-.33-.7-.07-1,.26-.3.7-.33,1-.07.3.26.33.7.07,1-.26.3-.7.33-1,.07Z"/><path class="cls-61" d="m222.26,313.18c-.3-.26-.33-.7-.07-1,.26-.3.7-.33,1-.07.3.26.33.7.07,1-.26.3-.7.33-1,.07Z"/><path class="cls-61" d="m227.92,309.3c-.17-.15-.19-.4-.04-.57.15-.17.4-.19.57-.04.17.15.19.4.04.57-.15.17-.4.19-.57.04Z"/><path class="cls-61" d="m227.75,313.95c-.17-.15-.19-.4-.04-.57.15-.17.4-.19.57-.04.17.15.19.4.04.57-.15.17-.4.19-.57.04Z"/><path class="cls-61" d="m221.06,319.09c-.23-.2-.26-.55-.06-.78.2-.23.55-.26.78-.06.23.2.26.55.06.78-.2.23-.55.26-.78.06Z"/><rect class="cls-88" x="158.68" y="344.47" width="35.35" height="8.62" rx="1.38" ry="1.38" transform="translate(352.71 697.57) rotate(180)"/><path class="cls-48" d="m170.77,277.47h11.17v6.4c0,.98-.8,1.78-1.78,1.78h-7.61c-.98,0-1.78-.8-1.78-1.78v-6.4h0Z" transform="translate(352.71 563.13) rotate(180)"/><rect class="cls-88" x="158.68" y="279.26" width="35.35" height="8.62" rx="1.38" ry="1.38" transform="translate(352.71 567.15) rotate(180)"/><path class="cls-35" d="m331.25,284.59v61.73c0,3.09-2.5,5.59-5.59,5.59h-1.51v4.13c0,3.46-2.79,6.25-6.24,6.25h-3.39v-.04h-20.77l-99.72-14.96v3.01c0,1.31-.9,2.42-2.12,2.71-.22.05-.43.09-.67.09h-9.8c-.63,1.06-1.79,1.79-3.11,1.79h-3.93c-1.33,0-2.48-.73-3.11-1.79h-9.8c-1.55,0-2.79-1.26-2.79-2.79v-3.03c0-1.55,1.25-2.79,2.79-2.79h14.87v-56.59h-14.87c-1.55,0-2.79-1.25-2.79-2.79v-3.03c0-1.54,1.25-2.79,2.79-2.79h9.8c.63-1.06,1.78-1.79,3.11-1.79h3.93c1.32,0,2.48.73,3.11,1.79h9.8c1.55,0,2.79,1.26,2.79,2.79v1.53l99.72-14.96h24.16c3.44,0,6.24,2.79,6.24,6.25v4.13h1.51c3.09,0,5.59,2.5,5.59,5.59Z"/><path class="cls-22" d="m270.64,282.75c-6.9,8.31-13.79,16.62-20.69,24.92s-13.31,16.04-19.31,24.61c-1.42,2.03-2.98,3.82-4.81,5.48-2.05,1.85-3.77,3.71-4.81,6.31-.61,1.53.67,3.35,2.13,3.75,1.74.48,3.13-.6,3.75-2.13.58-1.44,2.29-2.75,3.53-3.88,1.78-1.62,3.29-3.43,4.71-5.37,2.84-3.9,5.54-7.87,8.56-11.64,6.5-8.11,13.24-16.04,19.88-24.04,3.79-4.57,7.58-9.13,11.37-13.7,1.05-1.26,1.24-3.07,0-4.31-1.08-1.08-3.25-1.27-4.31,0h0Z"/><path class="cls-22" d="m190.28,297.7c-1.45,5.78-2.67,11.6-3.68,17.47-.22,1.28.13,2.79,1.4,3.44,2.48,1.27,4.57.3,6.89-.78,2.02-.94,4.02-1.95,5.99-3,3.86-2.08,7.6-4.39,11.21-6.89l-4.47-3.44c-1.06,3.71-2.13,7.42-3.19,11.14-.47,1.65-1.09,3.32-1.36,5.02-.33,2.12.35,4.78,2.72,5.43,1.17.32,2.34-.24,3.44-.6.83-.28,1.67-.55,2.5-.83s1.67-.55,2.5-.83c.39-.13.94-.21,1.3-.42.69-.12.52-.2-.5-.25l-.46-.44c.22.08.12.23.18.47.11.4.19.81.27,1.22.16.8.28,1.6.35,2.41.16,1.86.13,3.72-.05,5.57-.15,1.5,1.52,3.24,3.05,3.05,2.45-.31,4.79-.8,7.1-1.68,1.54-.58,2.59-2.06,2.13-3.75-.41-1.47-2.2-2.71-3.75-2.13-1.76.67-3.61,1.22-5.48,1.46l3.05,3.05c.23-2.32.2-4.64-.1-6.95-.27-2.14-.51-4.6-1.9-6.35-1.8-2.26-4.35-1.94-6.8-1.13-2.27.75-4.54,1.51-6.81,2.26l2.96.78c.44.36.11,1.43.35.44.17-.69.39-1.37.59-2.06.43-1.5.86-3,1.29-4.5.84-2.92,1.68-5.84,2.51-8.77.69-2.42-2.24-4.99-4.47-3.44-3.1,2.15-6.3,4.16-9.59,6-1.61.9-3.25,1.77-4.9,2.59-.83.41-1.66.81-2.5,1.21-.42.19-.83.42-1.26.58-.11.13-.18.16-.22.08-.68.13-.51.21.52.22l1.4,3.44c1.01-5.87,2.24-11.69,3.68-17.47.95-3.8-4.92-5.43-5.87-1.62h0Z"/><path class="cls-76" d="m160.65,299.99s7.18-9.16,3.68-10.94c-3.5-1.79-4.5,2.42-7.72-2.38-3.23-4.8-2.72,5.6-4.97,3.82-2.25-1.78-3.8-1.84-5.66-1.15s1.6,9.56,4.48,10.71,10.19-.06,10.19-.06Z"/><path class="cls-76" d="m191.74,366.57c3.54-3.24-3.12-53.43-28.37-66.95,0,0-6.61-4.95-15.07-.12-7.68,4.38-27.24,31.55-18.2,62.75,1.72,5.95,7.23,10.02,13.43,9.97,12.9-.09,32.97,8.27,48.21-5.65Z"/><path class="cls-82" d="m151.19,304.94s-14.91,8.25-15.88,28.17c-.97,19.91,10.12-1.27,11.66-10.88,1.54-9.61,10.87-19.58,4.22-17.28Z"/><path class="cls-69" d="m311.32,320.27s-9.5-5.7-6.84-8.36,5.32-.38,6.84-5.7c1.52-5.32,6.46,4.56,7.98,2.28,1.52-2.28,3.8-3.95,5.7-3.87,1.9.08,2.28,9.19,0,11.09-2.28,1.9-13.68,4.56-13.68,4.56Z"/><path class="cls-69" d="m299.54,380.67c-4.18-1.9-7.22-40.65,11.78-60.4,0,0,4.56-6.46,13.68-4.56,8.28,1.72,34.1,20.68,35.08,51.74.19,5.93-3.63,11.25-9.28,13.04-11.77,3.73-33.27,8.35-51.25.18Z"/><path class="cls-77" d="m319.3,320.44s-14.62,7.23-16.42,26.22c-1.81,18.99,14.53,4.93,16.42-4.19,1.9-9.12,6.46-23.93,0-22.03Z"/><path class="cls-69" d="m90.61,318.05s-10.29-6.17-7.41-9.05,5.76-.41,7.41-6.17c1.65-5.76,6.99,4.94,8.64,2.47s4.11-4.28,6.17-4.2,2.47,9.96,0,12.01-14.81,4.94-14.81,4.94Z"/><path class="cls-69" d="m77.85,383.47c-4.53-2.06-7.82-44.03,12.76-65.42,0,0,4.94-6.99,14.81-4.94,8.97,1.87,36.94,22.4,38,56.04.2,6.42-3.93,12.18-10.05,14.12-12.75,4.04-36.04,9.04-55.51.19Z"/><path class="cls-77" d="m99.25,318.23s-15.83,7.83-17.79,28.4c-1.96,20.57,15.73,5.34,17.79-4.53,2.06-9.88,6.99-25.92,0-23.86Z"/><path class="cls-69" d="m224.45,316.48s-5.82-7.8-3.04-8.31c2.65-.48,4.03,2.06,6.31-.53,2.15-2.44,3.41,5.36,4.86,4.58,1.41-.75,3.13-.84,4.27-.08s-.2,6.25-1.98,6.6c-1.84.37-10.42-2.27-10.42-2.27Z"/><path class="cls-69" d="m189.94,368.18c-4.59-3.39,11.34-45,34.51-51.7,0,0,4.76-2.35,10.42,2.27,4.81,3.93,16.64,23.33,13.28,46.61-.74,5.1-4.01,9.44-8.21,10.5-9.84,2.5-32.06,5.56-50-7.69Z"/><path class="cls-77" d="m230.14,319.68s-12.93-.79-20.82,13.54c-9.75,17.71,11.58,9.2,15.64,2.28,3.66-6.25,9.87-14.7,5.18-15.82Z"/><path class="cls-39" d="m288.23,342.62s11.39,16.27,12.84,25.31c1.45,9.05,1.79,17.98.8,19.54,0,0-18.1-38.8-13.64-44.86Z"/><path class="cls-64" d="m245.8,401.53c-.3.17-.59.33-.86.47-.65-4.81-2.41-17.05-4.46-23.16-.71-2.14-3.25-9-4.92-13.57-1.07-2.91-2.1-6.85-2.71-9.32.24-.02.49-.04.74-.06,1.75-.13,3.75-.22,5.66-.25.81-.01,1.61-.01,2.35,0,2.02.03,3.72.15,4.57.41.7.21,1.77.22,2.99.12.57-.05,1.18-.12,1.8-.2.68-.1,1.38-.22,2.06-.34,2.7-.5,5.08-1.13,5.08-1.13,0,0,19.16-5.62,23.47-7.45.2-.08.37-.16.5-.23,2.24-1.14,4.42-3.33,5.39-4.37.24-.26.66-.16.77.17.6,1.82,2.11,6.56,2.78,10.08.85,4.43,2.11,11.12,2.57,13.16,1.46,6.5,7.01,18.82,8.29,21.62.13.29-.06.62-.38.65-2.09.18-4.3-.19-7.54-.24-1.44-.02-3.08.02-5.01.21-3.76.36-8.61,1.25-15.15,3.23-1.64.5-3.45.95-5.34,1.4-2.03.48-4.13.95-6.19,1.43-5.21,1.23-10.1,2.58-12.5,4.59-1.47,1.23-2.82,2.13-3.96,2.79h0Z"/><path class="cls-44" d="m298.91,388.13c-4.45-.23-10.65-1.2-25.13,3.19-7.87,2.38-19.79,3.88-24.03,7.42-3.03,2.53-5.55,3.68-6.76,4.14-.33.12-.67-.15-.62-.5.51-3.23-1.11-5.94-1.11-5.94-2.73-9.27-3.81-12.12-6.06-23.59-1.82-9.28-4.87-14.25-5.96-15.81-.19-.28-.03-.65.3-.72,1.83-.34,5.95-.63,9.69-.69.59,1.21.82,2.54.18,3.81-1.92,3.81,3.98,12.29,3.98,12.29,0,0,8.8,11.8,6.36,14.94-2.44,3.14-.08,6.29-.08,6.29,0,0,5.06.06,6.74-1.4.58-.5.62-1.14.43-1.77-.41-1.36.98-2.59,2.31-2.08,1.9.73,4.27,1.84,8.05,1.56,6.62-.5,16.9-2.89,17.96-3.92,1.06-1.04-.66-4.12,1.67-5.02.06-.02.12-.04.17-.06,1.8-.51,2.75-2.45,1.9-4.12-1.49-2.91-2.82-6.38-2.96-9.63-.07-1.62-.39-10.06-2.63-14.1-.89-1.6-1.44-3.58-1.78-5.39.2-.08.37-.16.5-.23,1.12-.57,2.23-1.4,3.18-2.22.33-.28.63-.56.91-.83.68,2.09,2,6.34,2.61,9.56.85,4.43,2.11,11.12,2.57,13.16,1.47,6.55,7.09,18.99,8.32,21.68-.24,0-.49-.02-.74-.03Z"/><path class="cls-21" d="m299.65,388.16c-.24,0-.49-.02-.74-.03-1.48-3.04-7.67-14.83-9.11-21.22-.46-2.04-1.28-8.85-2.12-13.28-.57-2.97-1.73-6.81-2.44-9.03.33-.28.63-.56.91-.83.68,2.09,2,6.34,2.61,9.56.85,4.43,2.11,11.12,2.57,13.16,1.47,6.55,7.09,18.99,8.32,21.68Z"/><path class="cls-21" d="m244.94,402c-.65-4.81-2.41-17.05-4.46-23.16-.71-2.14-3.25-9-4.92-13.57-1.07-2.91-2.1-6.85-2.71-9.32.24-.02.49-.04.74-.06.78,2.43,2.24,6.16,3.28,9.01,1.67,4.56,4.21,11.43,4.92,13.57,2.01,6.02,3.43,18.08,4,23.06h0c-.3.18-.59.33-.86.47Z"/><path class="cls-39" d="m293.95,387.89c-1.44-.02-3.08.02-5.01.21-.97-1.85-.66-5.31,1.19-3.98,1.02.73,2.61,2.42,3.83,3.78Z"/><path class="cls-39" d="m268.45,392.72c-2.03.48-4.13.95-6.19,1.43-.64-.25-1.22-.54-1.67-.87-2.02-1.49-1.21-3.88.26-2.57,1,.89,5.08,1.63,7.59,2.01Z"/><path class="cls-44" d="m251.24,362.41c-1.12-3.87-7.29-4.84-7.29-4.84l-2.34-1.93c2.02.03,3.72.15,4.57.41.7.21,1.77.22,2.99.12.57-.05,1.18-.12,1.8-.2.68-.1,1.38-.22,2.06-.34,1.53,1.33,3.48,2.8,5.11,3.38,3.28,1.17,6.83,5.34,5.43,6.35-1.4,1.01-11.2.92-12.31-2.95Z"/><path class="cls-64" d="m254.55,361.61s-2.68-3.05-5.38-5.44c.57-.05,1.18-.12,1.8-.2,1.33,1.53,2.79,2.98,4.02,3.68,3.21,1.8-.43,1.96-.43,1.96Z"/><path class="cls-62" d="m278.9,354.57s-9.04,6.35-13.64,4.44c0,0-2-3.62,5.15-5.75,7.15-2.13,12.25-2.82,8.48,1.31Z"/><path class="cls-67" d="m329.57,367.47s-9.46,7.66-11.85,12.75c-2.39,5.09-4.09,10.3-3.77,11.38,0,0,17.22-19.82,15.62-24.14Z"/><path class="cls-52" d="m321.46,394.16c2.16.85,4.87,2.19,8.39,4.46.05.03.11.07.16.1,5.11.86,10.29,1.3,15.43,1.95,1.22.15,2.44.33,3.67.51.85-1.65,1.72-3.19,2.48-4.3.78-1.14,3.44-4.76,5.19-7.17,1.12-1.53,2.4-3.68,3.17-5.04-.14-.05-.28-.1-.42-.16-1.01-.37-2.18-.76-3.29-1.1-.48-.15-.94-.28-1.39-.4-1.2-.32-2.22-.54-2.76-.53-.45,0-1.08-.17-1.78-.43-.33-.12-.68-.27-1.02-.42-.39-.17-.78-.36-1.15-.55-1.51-.75-2.8-1.52-2.8-1.52,0,0-10.34-6.55-12.58-8.36-.1-.08-.19-.16-.26-.22-1.13-1.05-2.04-2.71-2.44-3.49-.1-.19-.36-.21-.49-.03-.66.97-2.35,3.51-3.34,5.47-1.25,2.47-3.12,6.2-3.74,7.32-1.96,3.59-7.31,9.91-8.54,11.35-.13.15-.07.38.11.45,1.2.46,2.57.61,4.49,1.14.85.23,1.81.53,2.92.97Z"/><path class="cls-40" d="m344.98,400.62c.15.02.31.04.46.06,2.08.26,4.15.58,6.23.9.15-.25.3-.49.45-.74-.48-.3-.21-1.15.35-.91.05.02.1.05.15.07.87-1.5,1.81-3.24,3.08-5.73,2.64-5.16,5.28-7.58,6.19-8.31.16-.13.13-.38-.05-.47-1.02-.51-3.4-1.38-5.6-2.05-.55.62-.91,1.36-.75,2.21.49,2.57-4.42,6.57-4.42,6.57,0,0-7.18,5.47-6.27,7.74.09.23.15.46.19.67Z"/><path class="cls-40" d="m329.85,398.62c.05.03.11.07.17.1,3.39.57,6.81.96,10.22,1.34.01-.59-.5-1.15-1.17-1.09-1.24.11-2.83.37-5.01-.44-3.82-1.41-9.47-4.56-9.93-5.35-.45-.79,1.09-2.32-.14-3.24-.03-.02-.06-.04-.09-.06-.98-.6-1.21-1.91-.42-2.75,1.37-1.47,2.74-3.28,3.37-5.18.32-.94,1.93-5.86,3.93-7.87.79-.79,1.45-1.87,1.96-2.88-.1-.08-.19-.16-.26-.22-.56-.53-1.08-1.2-1.5-1.85-.14-.22-.28-.44-.4-.64-.75,1.12-2.25,3.4-3.16,5.19-1.25,2.47-3.12,6.2-3.74,7.32-1.97,3.61-7.39,10-8.57,11.38.14.04.29.07.44.11,2.66.62,6.48,1.09,14.27,6.13Z"/><path class="cls-20" d="m315.14,392.39c.14.04.29.07.44.11,1.39-1.54,7.03-7.45,8.95-10.97.62-1.13,2.25-5,3.5-7.47.84-1.65,2.17-3.72,2.97-4.91-.14-.22-.28-.44-.4-.64-.75,1.12-2.25,3.4-3.16,5.19-1.25,2.47-3.12,6.2-3.74,7.32-1.97,3.61-7.39,10-8.57,11.38Z"/><path class="cls-67" d="m318.54,393.19c.85.23,1.81.53,2.92.97.89-.93,1.29-3.02-.03-2.55-.73.26-1.95.98-2.89,1.58Z"/><path class="cls-40" d="m348.02,385.39c1.31-2.09,5.12-1.62,5.12-1.62l1.71-.74c-1.2-.32-2.22-.54-2.76-.53-.45,0-1.08-.17-1.78-.43-.33-.12-.68-.27-1.02-.42-.39-.17-.78-.36-1.15-.55-1.13.53-2.52,1.06-3.58,1.13-2.13.14-4.93,1.99-4.27,2.83.66.83,6.44,2.43,7.76.34Z"/><path class="cls-52" d="m346.21,384.36s2.09-1.35,4.09-2.3c-.33-.12-.68-.27-1.02-.42-1.04.68-2.15,1.29-2.99,1.49-2.2.52-.08,1.23-.08,1.23Z"/><path class="cls-50" d="m333.05,376.09s4.26,5.27,7.29,4.92c0,0,1.79-1.8-2.07-4.26-3.86-2.46-6.74-3.73-5.22-.66Z"/><path class="cls-81" d="m126.54,367.46c3.52,5.68,8.23,10.27,13.72,13.47,1.18.69,2.4,1.31,3.65,1.86,8.22-.74,16.56-.69,24.85-.89,3.25-.59,6.49-1.19,9.74-1.78l4.76-14.45c.43-1.29-.07-2.67-1.16-3.26-2.38-1.29-4.67-2.48-6.87-3.58-30.98-15.46-43.66-12.18-47.98-9.69-1.12.65-1.98,1.73-2.4,3.01l-1.9,5.78c-.51,1.53-.33,3.2.47,4.49l3.12,5.03Zm5.06-4.36c3.71-1.42,11.62,4.29,11.62,4.29,0,0,8.76,5.9,7.28,9.15-1.49,3.25-8.19.09-12.25-2.39-4.85-2.98-10.36-9.62-6.65-11.04Z"/><path class="cls-30" d="m136.98,376.53c-2-1.23-3.84-3.31-5.37-5.18-2.08-2.54-2.67-5.37-2.07-7.2.36-1.1,1.18-1.94,2.31-2.37,1.94-.75,5.4-.61,8.87,1.16,2.2,1.12,3.98,2.38,4.22,2.56.25.17,2.12,1.45,3.9,3.11,1.95,1.81,3.61,4.92,2.66,7.82-.05.14-.1.28-.16.41-.49,1.08-1.33,1.85-2.42,2.25-1.72.62-5.53,1.38-11.93-2.55Zm13.52,0c1.49-3.25-7.28-9.15-7.28-9.15,0,0-7.91-5.71-11.62-4.29-3.71,1.42,1.8,8.06,6.65,11.04,4.05,2.49,10.76,5.65,12.25,2.39Z"/><path class="cls-30" d="m145.76,382.64c-1.98-.56-3.86-1.16-5.49-1.71,1.18.69,2.4,1.31,3.65,1.86.61-.06,1.23-.11,1.84-.16Z"/><path class="cls-30" d="m168.76,381.91c3.25-.59,6.49-1.19,9.74-1.78l4.76-14.45c.43-1.29-.07-2.67-1.16-3.26-2.38-1.29-4.67-2.48-6.87-3.58-.07.32-.13.66-.18,1.01-1.11,7.79-4.93,16.84-9.38,22.12,1.02-.02,2.05-.04,3.07-.06Z"/><path class="cls-72" d="m130.82,350.37l-1.59,4.81c-.23.69.24,1.38.91,1.34,6.24-.39,32.28-1.22,49.3,10.29.52.35,1.24.06,1.45-.59h0c.15-.45,0-.94-.36-1.19-3.68-2.48-23.52-15.05-48.74-15.41-.43,0-.82.3-.97.74Z"/><path class="cls-49" d="m113.35,354.68l1.97-5.98,11.1,2.33v.04c.3.1-.07,2.05-.83,4.36-.76,2.3-1.63,4.09-1.94,3.99l-10.31-4.73Z"/><ellipse class="cls-33" cx="114.33" cy="351.71" rx="3.17" ry=".59" transform="translate(-255.49 350.17) rotate(-71.75)"/><path class="cls-25" d="m196.7,439.82c-.01-.91-.29-1.63-.86-2.13-1.3-1.15-3.48-.74-6.49,1.24-.51.33-1.03.71-1.56,1.12,2.97-.05,5.94-.13,8.91-.23Z"/><path class="cls-8" d="m128.94,425.54l14.97,13.26c.29.02.6.03.88.06,7.09.62,14.24.87,21.36,1.07,10.02.28,20.04.24,30.06-.09.19-.8.23-1.46.09-1.91l-2.04-5.29c-.4-1.04-1.04-1.96-1.88-2.7l-37.71-33.42h0c-.85-.74-1.87-1.27-2.96-1.53l-5.52-1.32-21.16,23.87,2.04,5.29c.4,1.04,1.05,1.97,1.88,2.7Z"/><path class="cls-12" d="m153.72,400.36c-.33-.18-.76.05-.85.42-.59,2.38-3.89,7.34-8.5,12.54-4.61,5.2-9.13,9.07-11.42,9.94-.35.13-.53.58-.31.89.02.03.05.07.08.09,1.21,1.07,6.91-3.39,12.73-9.97,5.83-6.57,9.57-12.77,8.36-13.84-.03-.03-.07-.05-.1-.07Z"/><path class="cls-12" d="m189.33,440.02c2.05-3.12,3.01-5.45,2.31-6.07-.03-.03-.07-.05-.1-.07-.33-.18-.76.05-.85.42-.32,1.29-1.43,3.33-3.12,5.76.58,0,1.17-.02,1.75-.03Z"/><path class="cls-25" d="m139.56,409.07c-2.66,3.01-5.5,5.56-7.98,7.19-3,1.98-5.19,2.39-6.49,1.24s-1.15-3.37.45-6.59c1.32-2.66,3.52-5.78,6.18-8.79s5.5-5.56,7.98-7.19c3-1.98,5.19-2.39,6.49-1.24,1.3,1.15,1.15,3.37-.45,6.59-1.32,2.66-3.52,5.78-6.18,8.79Z"/><path class="cls-47" d="m139.56,409.07c-2.64,2.98-5.45,5.51-7.9,7.12-2.82,1.86-4.83,2.29-5.97,1.28-1.14-1.01-.95-3.05.55-6.08,1.31-2.63,3.48-5.72,6.12-8.7,2.64-2.98,5.45-5.51,7.9-7.12,2.82-1.86,4.83-2.29,5.97-1.28s.95,3.05-.55,6.08c-1.31,2.63-3.48,5.72-6.12,8.7Z"/><ellipse class="cls-66" cx="135.96" cy="405.88" rx="14.63" ry="3.95" transform="translate(-257.98 238.44) rotate(-48.45)"/><path class="cls-47" d="m144.8,397.98l-7.99,9.02c-.58.66-1.52.54-2.05-.22h0c-.5-.72-.46-1.76.06-2.35l7.2-8.12c.52-.59,1.55-.75,2.32-.34h0c.82.44,1.05,1.35.46,2.01Z"/><path class="cls-25" d="m140.69,398.57l-3.8,4.28c-1.27,1.44-1.95,2.93-1.5,3.33s1.85-.45,3.13-1.89l3.8-4.28c1.27-1.44,1.95-2.93,1.5-3.33s-1.85.45-3.13,1.89Zm-2.19,5.31l-.04.04c-.94,1.06-1.97,1.68-2.3,1.39s.17-1.39,1.1-2.45l.04-.04c.94-1.06,1.97-1.68,2.3-1.39s-.17,1.39-1.1,2.45Zm4.5-6.02c.26.23-.13,1.09-.86,1.91s-1.53,1.31-1.79,1.08l-.26-.23c-.26-.23.13-1.09.86-1.91.73-.82,1.53-1.31,1.79-1.08l.26.23Z"/><path class="cls-60" d="m140.48,398.38l-3.8,4.28c-1.27,1.44-1.95,2.93-1.5,3.33s1.85-.45,3.13-1.89l3.8-4.28c1.27-1.44,1.95-2.93,1.5-3.33s-1.85.45-3.13,1.89Zm-2.19,5.31l-.04.04c-.94,1.06-1.97,1.68-2.3,1.39s.17-1.39,1.1-2.45l.04-.04c.94-1.06,1.97-1.68,2.3-1.39s-.17,1.39-1.1,2.45Zm4.5-6.02c.26.23-.13,1.09-.86,1.91s-1.53,1.31-1.79,1.08l-.26-.23c-.26-.23.13-1.09.86-1.91s1.53-1.31,1.79-1.08l.26.23Z"/><path class="cls-17" d="m144.78,438.86c7.09.62,14.24.87,21.36,1.07,4.93.14,9.85.19,14.78.18.2-.51.4-1.04.57-1.56,3.48-10.46-26.35-35.21-26.35-35.21-.98,3.95-9.28,13.34-9.28,13.34-6.45,7-11.44,9.72-14.99,10.57l13.03,11.55c.29.02.6.03.88.06Z"/><polygon class="cls-57" points="257.8 405.06 266.66 382 325.05 382.89 317.99 406.01 257.8 405.06"/><polygon class="cls-55" points="267.74 426.91 257.8 405.06 317.99 406.01 323.91 429.2 267.74 426.91"/><polygon class="cls-57" points="334.07 415.08 331.13 413.42 317.99 406.01 323.91 429.2 334.07 415.08"/><polygon class="cls-45" points="323.91 429.2 331.13 413.42 317.99 406.01 323.91 429.2"/><polygon class="cls-55" points="337.97 398.07 334.07 415.08 317.99 406.01 325.05 382.89 337.97 398.07"/><path class="cls-57" d="m334.07,415.08l3.9-17.01,4.27.03c1.53.02,2.5,1.24,2.18,2.73l-2.64,11.68c-.32,1.48-1.82,2.66-3.34,2.64l-4.37-.07Z"/><path class="cls-29" d="m332.38,403.92l3.16-2.36-5.43-7.26-3.16,2.36c-1.18.88-.92,3.22.58,5.23,1.5,2.01,3.67,2.92,4.85,2.04Z"/><ellipse class="cls-80" cx="332.83" cy="397.92" rx="2.66" ry="4.53" transform="translate(-172 278.49) rotate(-36.78)"/><polygon class="cls-80" points="307.43 382.61 302.41 405.76 307.2 428.54 288.61 427.78 281.38 405.43 288.64 382.32 307.43 382.61"/><polygon class="cls-29" points="281.38 405.43 281.38 405.43 288.61 427.78 307.2 428.54 302.42 405.77 281.38 405.43"/><path class="cls-57" d="m302.38,382.55s-.35.88-.18,1.49c.23.85.98,1.02.98,1.82,0,.05-.02.91-.82,1.44-.8.53-1.93.45-3.21.35-2.83-.23-3.49-.99-5.23-.63-.14.03-1.63.35-1.83.94-.18.51.66,1.06,1.48,1.26,1.13.28,1.79-.18,4.1-.41,1.62-.16,2.95-.3,3.66.27.52.41.59,1.1.33,1.65-.25.54-.7.67-2.14,1.74-1.25.93-1.88,1.4-2,1.85-.19.73.41,1.53,1.23,1.9.62.28,1.13.21,1.66.65.18.15.52.44.42.82-.11.44-.74.82-1.3.99-.92.27-1.38-.12-2.61.02-.52.06-1.1.14-1.61.45-.2.12-.41.25-.44.41-.06.37.86.73,1.77.8,1.29.1,1.88-.44,2.75-.18.47.13.87.45.91.84.08.67-.92,1.33-1.48,1.7-1.06.7-1.64.66-1.87,1.12-.32.63.44,1.31.6,1.45.23.21.49.35.67.43l4.34.06,6.06-23.12-6.23-.09Z"/><path class="cls-55" d="m302.51,405.75s-4.31-.04-4.3-.04c1.02.24,1.24,1.2,1.17,1.95-.04.43-.45.78-.93.91-.89.25-1.51-.37-2.84-.3-.93.05-1.87.42-1.8.83.03.18.26.33.46.47.53.36,1.13.47,1.66.56,1.26.21,1.73-.22,2.69.12.58.21,1.25.66,1.37,1.16.11.43-.24.74-.42.91-.53.48-1.07.38-1.7.67-.83.38-1.43,1.24-1.21,2.07.13.5.79,1.05,2.1,2.14,1.51,1.25,1.98,1.42,2.25,2.04.28.62.22,1.39-.31,1.82-.72.59-2.1.38-3.76.12-2.35-.37-3.04-.91-4.18-.66-.82.19-1.65.74-1.46,1.31.22.66,1.73,1.09,1.88,1.13,1.78.48,2.43-.32,5.31-.43,1.31-.05,2.48-.08,3.31.55.84.63.88,1.58.88,1.64.02.88-.75,1.02-.97,1.95-.16.66.22,1.65.22,1.65l6.46.26-5.89-22.82Z"/><path class="cls-56" d="m325.57,446.27l14.96-15.98-2.1-4.56-5.81-11.77c-.39.06-.75.27-1,.63l-20.5,30.74c4.81.33,9.63.66,14.45.94Z"/><path class="cls-46" d="m352.19,431.86l-13.76-6.13-5.81-11.77c.29-.05.59,0,.86.15h0s11.39,5.9,11.39,5.9c.58.35,1.78.99,2.42,1.33.27.14.48.38.6.66.26.64.74,1.81,1.09,2.54l3.21,7.31Z"/><path class="cls-58" d="m336.69,446.81c1.95.07,3.89.1,5.83.1l9.48-13.88c.44-.63.29-1.45-.33-1.83l-13.18-7.06c-.61-.37-1.45-.16-1.88.46l-14.47,21.47c4.85.3,9.69.57,14.54.74Z"/><path class="cls-58" d="m332.61,413.96l4.95,10.01-10.96,4.32c-.2.08-.38-.1-.3-.3l5.32-13.41s.32-.62,1-.63Z"/><path class="cls-46" d="m326.6,428.3l10.96-4.32-1.47.81c-2.94,1.62-6.06,2.79-9.26,3.46l-.22.05Z"/><path class="cls-56" d="m334.85,418.49l2.71,5.49-10.96,4.32s-.26.14-.28-.08l8.53-9.73Z"/><path class="cls-93" d="m343.75,424.35c-.05.04-.12.05-.2.03-.24-.04-.59-.31-.89-.7-.19-.24-.33-.48-.4-.7-.09-.24-.09-.44.02-.52.07-.06.19-.05.33,0,.23.1.51.34.76.66s.4.62.45.86c.03.17.01.3-.06.36Z"/><path class="cls-58" d="m364.24,418.68c.18-.16.35-.57.41-1.06.04-.3.03-.58-.02-.8l-.57-.26-10.46-4.84c-1.6-.74-3.49-.22-4.48,1.24l-6.51,9.51-.35.52c.07.21.21.46.4.7.3.39.65.66.89.7l.27-.39,6.43-9.4c.72-1.05,2.08-1.42,3.23-.89l10.33,4.78.43.2Z"/><ellipse class="cls-45" cx="364.47" cy="417.76" rx=".97" ry=".48" transform="translate(-95.1 727.85) rotate(-82.91)"/><path class="cls-38" d="m212.94,409.91s1.36-11.58,11.98-14.2c10.62-2.62,24.13,3.87,23.27,12.91-.86,9.04-3.87,15.27-3.87,15.27l-3.87-.86-6.02,3.23-1.29-3.66-5.59,2.8-7.97-4.09s-7.84-1.29-6.64-11.4Z"/><path class="cls-75" d="m226.04,398.72s5.38-8.82,8.61-8.82-1.94,11.62-1.94,11.62c0,0,8.39-.22,9.68.86s-4.09,4.73-9.47,4.73c0,0,3.87,5.59,3.66,8.82,0,0-3.23,3.87-10.54-5.16,0,0-8.61,7.89-9.25,5.99,0,0,0-7.71,4.73-10.94,0,0-8.59-6.7-8.58-7.29.02-.89.69-1.62,1.58-1.68,2.21-.15,6.75-.13,11.52,1.87Z"/><path class="cls-87" d="m227.76,399.37s-3.23,4.09-2.8,6.24c0,0,1.08,1.29,2.15,0s3.44-2.37,3.01-4.73-2.37-1.51-2.37-1.51Z"/><path class="cls-13" d="m205.71,412.15c-8.41-3.3-13.87-26.24-13.87-26.24l-3.73.65,3.28,3.28s2.72,19.2,13.92,26.37c0,0-1.96-2.81.39-4.05Z"/><path class="cls-15" d="m182.6,397.03s9.98,14.96,13.92,26.37c0,0,1.04-7.67,8.79-7.19,0,0-8.65-5.11-13.92-26.37,0,0-6.18-1.21-8.79,7.19Z"/><path class="cls-13" d="m170.45,400.24s5.67-6.65,12.14-3.22c0,0,13.74,19.13,13.92,26.37,0,0-2.17-1.57-5.91-.5,0,0-7.44-22.27-20.16-22.65Z"/><path class="cls-63" d="m170.45,400.24s6.07-5.84,12.14-3.22c0,0,2.16-7.1,8.79-7.19,0,0-1.58-2.43.45-3.93,0,0-3.35-2.04-10.66,2.86,0,0-10.71,3.67-10.73,11.47Z"/><path class="cls-42" d="m177.27,393.12s5.5-2.17,6.29-3.87,2.69-.22,1.98.66-3.85,3.11-4.73,3.62-4.89,1.77-3.53-.41Z"/><path class="cls-70" d="m177.38,384.28s1.6,6.38,3.27,7.95c.24.22.6.23.87.06l.31-.21c.29-.19.39-.57.22-.87-.8-1.43-2.79-5.43-1.64-7.45,0,0-1.12-1.2-3.04.53Z"/><path class="cls-70" d="m190.64,401.29c-.46,0-.9.25-1.17.62-.4.56-.82,1.54-.23,2.76.95,1.94,1.89.63,1.7-.05-.17-.6,1.29-3.32-.31-3.34Z"/><path class="cls-70" d="m183.67,404.6c.27-.39.74-.6,1.21-.59.68,0,1.71.23,2.36,1.41,1.04,1.89-.58,1.91-1.02,1.36-.39-.49-3.46-.86-2.55-2.18Z"/><path class="cls-13" d="m131.81,391.79c-6.33-4.09-25.75,1.13-25.75,1.13l-1.25-2.61,3.94.84s15.4-5.54,25.87-1.14c0,0-2.98-.18-2.8,1.78Z"/><path class="cls-15" d="m109.95,382.85s15.64.67,25.87-1.14c0,0-5.16,3.57-1.22,8.31,0,0-7.77-3.56-25.87,1.14,0,0-3.76-3.46,1.22-8.31Z"/><path class="cls-13" d="m106.69,373.92s-2.27,6.12,3.26,8.93c0,0,20.46,1.48,25.87-1.14,0,0-2.16-.78-3.11-3.56,0,0-19.85,3.71-26.03-4.22Z"/><path class="cls-63" d="m106.69,373.92s-1.49,6.07,3.26,8.93c0,0-4.23,4.06-1.22,8.31,0,0-2.52-.08-2.68,1.77,0,0-3.05-1.35-2.84-7.85,0,0-2.26-8.19,3.47-11.15Z"/><path class="cls-42" d="m104.61,380.95s.95,4.31.07,5.46c-.89,1.15,1.09,1.79,1.41,1s.51-3.63.47-4.37-.96-3.77-1.94-2.09Z"/><path class="cls-70" d="m98.15,384.36s5.44-1.4,7.37-.93c.27.07.45.29.44.53v.28c-.01.26-.25.46-.55.47-1.42.04-5.29.28-6.25,1.78,0,0-1.4-.25-1.02-2.13Z"/><path class="cls-70" d="m116.81,386.34c-.22-.29-.23-.66-.08-.98.23-.46.75-1.1,1.93-1.19,1.87-.13,1.34.96.75,1.1-.52.12-1.85,2.08-2.6,1.07Z"/><path class="cls-70" d="m116.02,380.66c-.16.32-.1.69.12.99.32.43.96,1,2.13.97,1.88-.05,1.14-1.09.53-1.16-.54-.07-2.24-1.87-2.79-.8Z"/><path class="cls-3" d="m107.88,415.6c-1.01-.88-3.45-2.27-.68-4.06s1.24-11.43-4.31-10.81c-5.55.63-9.83,9.8-9.83,9.8l-32.61,4.47s-5.99-8-13.76-6.09c-7.76,1.91-2,8.36-1,9.24,1.01.88,3.45,2.27.68,4.06s-1.24,11.43,4.31,10.81c5.55-.63,9.83-9.8,9.83-9.8l32.61-4.47s5.99,8,13.76,6.09c7.76-1.91,2-8.36,1-9.24Z"/><path class="cls-2" d="m99.98,405.03c-2.21,1.24-4.38,4.4-5.26,5.79-.27.43-.72.71-1.22.78l-1.94.27-1.05.15-28.62,3.95c-2.18.3-4.85-.98-8.12-3.62-3.27-2.64-6.26-1.2-6.26-1.2-2.55,2.48,6.25,4.57,6.82,6.65.57,2.08,7.96,1.09,7.96,1.09l29.68-4.09c4.6-.63,5.28-1.38,6.56-2.3s5.32-7.33,5.32-7.99c0-.66-.99-1.08-3.86.53Z"/><path class="cls-54" d="m66.52,374.67c.02.46,2.99,7.86,2.99,7.86l-.83,2.29,2.42.56-4,3.94.28,6.94,9.16.53,7.26-3.08.71-16.81-2.7-7.55-11.71.47-3.59,4.85Z"/><polygon class="cls-11" points="59.36 382.54 65.81 371.65 69.21 375.33 71.05 373.73 72.51 376.69 76.14 376.81 76.45 384.41 75.4 386.74 70.28 387.93 71.17 395.7 63.38 392.09 65.32 388.13 59.55 387.19 57.92 391.41 57.92 391.41 59.57 400.18 89.72 398.98 93.41 364.32 53.13 365.93 56.28 382.66 59.36 382.54"/><path class="cls-18" d="m91.59,358.12l-4.1.16-.22-5.51c-.32-7.98-7.07-14.21-15.05-13.89-7.98.32-14.21,7.07-13.89,15.05l.22,5.51-4.1.16-.22-5.51c-.41-10.24,7.59-18.91,17.83-19.32,10.24-.41,18.91,7.59,19.32,17.83l.22,5.51Z"/><path class="cls-4" d="m97.79,362.94c.03.66-.49,1.22-1.15,1.25l-46.75,1.87c-.66.03-1.22-.49-1.24-1.15h0c-.13-3.23,2.38-5.95,5.61-6.08l37.45-1.5c3.23-.13,5.95,2.38,6.08,5.61h0Z"/><path class="cls-10" d="m87.03,390.82l1.82-17.12c.21-1.96-1.37-3.65-3.34-3.57h0c-1.6.06-2.91,1.29-3.08,2.89l-1.82,17.12c-.21,1.96,1.37,3.65,3.34,3.57h0c1.6-.06,2.91-1.29,3.08-2.89Z"/><polygon class="cls-11" points="27.8 375.38 34.66 372.11 37.22 372.16 40.33 376.39 47.13 372.52 46.87 381.1 42.46 380.88 43.86 386.55 48.39 386.39 48.39 386.39 40.99 391.34 39.66 388.55 27.11 386.91 29.17 382.34 26.97 381.27 29.12 378.76 27.8 375.38"/><path class="cls-18" d="m247.87,438.02l-.63-2.1-1.62-1.01,11.96-1.55c.97-5.97,5.76-10.63,11.79-11.42l15.92-2.06c.83-.11,1.66.11,2.32.63.67.51,1.09,1.25,1.2,2.09l1.29,9.91h-.01s-1.02-.63-1.02-.63l-1.6-2.75-.23,5.53-1.52-2.32-1.75.28-4.7-.55-2.56-.08-1.95-2.41-3.75.96,2.26.53,2.38,1.99-2.75,2.75-1.11-.1-3.62-4.63.73,2.73,1.44,2.4,2.21,2.21,4.42-4.42,8.07.57.76,3.66,5.19,1.36h.02s.52,4.03.52,4.03c.11.83-.11,1.66-.63,2.32-.51.67-1.25,1.09-2.09,1.2l-15.92,2.06c-6.03.78-11.85-2.5-14.32-8.03l-9.13,1.19,1.67-3.81-3.25-.53Z"/><path class="cls-18" d="m191.81,422.71l2.34,1.59c1.3.88,2.87,1.21,4.45.91l8.89-2.05c.31-.07.61-.2.89-.38l27.93,18.97,1.69-1.22-1.08-4.4,1.62-2.37-25.74-17.49c.06-.32.07-.65.02-.97l-1.36-8.93s-.01-.06-.02-.12c-.29-1.55-1.17-2.88-2.47-3.77l-2.35-1.59c-2.68-1.82-6.36-1.12-8.18,1.56l-.9,1.33c1.1-.68,2.56-.7,3.7.08l1.35.92c.43.29.78.66,1.03,1.1l2.08,1.42s.02.02.03.03l1.02,6.73.15,1-1.83,2.69-.73.17-6.89,1.59s-.03,0-.04-.01l-2.34-1.59s-.03-.03-.03-.05c0,0,0,0,0-.01-.35-.1-.69-.25-1-.47l-1.35-.92c-1.14-.78-1.66-2.14-1.43-3.41l-1.01,1.49c-1.82,2.68-1.12,6.35,1.56,8.18Z"/><path class="cls-11" d="m191.25,413.04c.08-.46.25-.9.53-1.31l4.73-6.96c.28-.41.63-.74,1.02-.98,1.1-.68,2.56-.7,3.7.08l1.35.92c.43.29.78.66,1.03,1.1l-.26-.18s-.09-.01-.11.02l-2.29,3.37-3.5,5.16-2.4,3.53s-.01.03,0,.05c-.35-.1-.69-.25-1-.47l-1.35-.92c-1.14-.78-1.66-2.14-1.43-3.41Z"/><path class="cls-10" d="m262.73,437.61s0,0,0,0c0,0,0-.01,0-.02-.03-.14-.06-.29-.09-.43-.03-.15-.05-.31-.07-.47-.68-5.22,3.01-10,8.22-10.68l18.15-2.35.24,1.87.91,6.98-1.02-.62-1.6-2.75-.23,5.53-1.52-2.32-1.75.28-4.7-.55-2.56-.08-1.95-2.41-3.75.96,2.26.53,2.38,1.99-2.75,2.75-1.11-.1-3.62-4.63.73,2.73,1.44,2.4,2.21,2.21,4.42-4.42,8.07.57.76,3.66,5.19,1.36.39,2.98-18.15,2.36c-4.91.64-9.42-2.58-10.51-7.3Z"/><path class="cls-11" d="m262.56,436.68c.04.32.1.62.17.93-.15-4.84,3.4-9.1,8.3-9.74l18.15-2.35-.24-1.87-18.15,2.35c-5.22.68-8.9,5.46-8.22,10.68Z"/><polygon class="cls-18" points="242.25 443.67 240.6 439.45 241.9 436.88 245.12 438.5 245.9 440.24 245.24 442.33 247.64 444.59 244.13 446.81 240.73 445.1 242.25 443.67"/><path class="cls-19" d="m462.54,324.21c.54.14.99.48,1.27.95h0c.98,1.65.57,3.77-.94,4.94l-24.44,18.94c-.48.28-1.04.36-1.57.23s-.99-.48-1.27-.95l-5.24-8.83c-.28-.48-.36-1.04-.23-1.57.14-.54.48-.99.95-1.27.04-.03.09-.05.14-.07l29.83-12.17c.46-.25.99-.31,1.49-.18Z"/><path class="cls-19" d="m421.8,349.12l3.12,1.86-1.23,4.82,9.63-4.2c.48-.28.82-.73.95-1.27s.06-1.1-.23-1.57l-5.24-8.83c-.28-.48-.73-.82-1.27-.95s-1.1-.06-1.57.23c-.05.03-.09.06-.13.09l-3.77,3.07-.26,6.76Z"/><path class="cls-19" d="m427.12,308.5h0s0,0,.01,0c.69.18,1.01.98.67,1.61l-6.59,12.01c-.18.14-.41.19-.63.15-.22-.04-.42-.18-.53-.38l-3.9-6.57c-.04-.07-.08-.15-.09-.23-.08-.36.08-.7.37-.87l9.33-5.53c.42-.25.9-.32,1.37-.2Z"/><path class="cls-19" d="m415.23,315.2c.2.05.38.18.49.37l3.89,6.57c.06.1.1.22.11.34.03.36-.17.67-.47.81l-13.7.02c-.71,0-1.26-.66-1.09-1.36.11-.45.4-.87.83-1.12l9.33-5.53c.19-.11.41-.14.6-.09Z"/><path class="cls-68" d="m451.84,350.07h0c.55.14,1.02.49,1.31.98.6,1.02.26,2.33-.76,2.93-.03.02-.06.03-.09.05l-9.3,3.96c-.37.16-.8.01-1-.33-.2-.34-.12-.79.19-1.04l7.94-6.26s.06-.04.09-.06c.49-.29,1.07-.38,1.63-.23Z"/><path class="cls-68" d="m439.97,358.2c.2.05.38.18.49.37h0c.2.36.12.8-.19,1.04l-7.94,6.26s-.06.04-.09.06c-.49.29-1.07.38-1.63.23s-1.02-.49-1.31-.98c-.6-1.01-.26-2.33.76-2.93.03-.02.06-.03.09-.05l9.3-3.96c.17-.07.34-.08.51-.04Z"/><path class="cls-1" d="m427.27,327.67l11.25,17.39,2.65,5.51.03.06c.15.25.06.57.02.7-.11.32-.33.62-.6.77l-4.39,2.6c-.29.17-.7.22-1.05.13-.14-.04-.39-.13-.52-.33l-.03-.06-3.56-4.97-9.86-18.22-5.45-16.07,11.49,12.49Z"/><path class="cls-11" d="m413.67,313.84l6.11,18.04,9.97,18.42,3.58,5c.63,1.06,3.03,2.52,3.33,2.78l2.87,2.37s.03.03.05.04c.1.07.62.44,1.31.62s1.4.1,1.97-.24c1.5-.89,1.27-2.84,1.24-3.06,0-.02,0-.04-.01-.06l-.7-3.66c-.08-.39-.21-3.2-.84-4.26l-2.67-5.54-11.38-17.58-12.9-14.02c-.34-.58-1.1-.96-1.68-.62-.58.34-.61,1.19-.26,1.77Z"/><path class="cls-10" d="m419.1,321.97l3.26,9.63,9.97,18.42,3.58,5c.45.76,1.83,1.74,2.68,2.32.39.27.92.25,1.29-.05h0c.56-.45.54-1.31-.05-1.73-.81-.57-1.79-1.34-2.15-1.96l-3.58-5-9.97-18.42s-4.36-8.47-5.03-8.22Z"/><path class="cls-19" d="m395.66,358.2c.21-.48.58-.86,1.05-1.07l20.71-12.09,2.92-1.7-1.3,6.64,2.79,2.32-1.96,4.57-3.27.86-16.47,4.32c-.85.22-1.71.14-2.46-.18-.9-.39-1.65-1.11-2.03-2.08-.21-.52-.2-1.08.02-1.59Z"/><path class="cls-37" d="m406.86,379.05s-21.82,12.07-23.16,12.92-16.16,7.69-18.29,6.02c-2.13-1.67-17.09-21.82-10.89-26.43,6.2-4.61,52.34,7.49,52.34,7.49Z"/><path class="cls-16" d="m406.86,379.05s-39.41,17.4-41.75,16.41-1.59-5.28-3.71-8.43c-.56-.83-1.42-2.26-2.34-3.96-.46-.85-.94-1.77-1.4-2.71-2.15-4.36-4.02-9.26-2.73-10.51,2.13-2.06,12.36-11.22,24.21-13.92,8.93-2.03,15.79-4.8,18.63-6.04.82-.36,1.79-.04,2.22.75.84,1.52,2.29,4.18,3.96,7.55.57,1.15,4.18,16.45,4.58,18.42.4,1.97-1.67,2.44-1.67,2.44Z"/><path class="cls-79" d="m357.76,376.28s1.45-7.92,8.95-7.35,10.48-2.49,11.71-1.66c1.23.83-1.12,5.05-2.34,6.36s-1.99,3.16.88,3.87,3.22,5.47.97,6.24-5.85.67-5.12,2.68-.97,3.85-2.28,3.55-2.46.18-4.74-2.23c-2.28-2.4-7.17-6.49-8.03-11.45Z"/><path class="cls-23" d="m397.8,352.56s-.25-3.47-1.06-3.72-6.61,3.13-6.61,3.13c0,0,1.17,9.44,3.99,9.88,0,0,1.25-1.64,1.83-1.5s1.76.08,2.61-.92-.31-4.18-.76-6.88Z"/><path class="cls-23" d="m405.44,377.21s1.28,3.23.65,3.81-6.79,2.2-6.79,2.2c0,0-3.54-11.18-1.2-12.8,0,0,1.84.94,2.3.56s1.55-.84,2.75-.3,1.52,3.9,2.29,6.53Z"/><path class="cls-90" d="m387.88,354.97s2.54,3.8,2.59,7.73,3.41,9.93,3.34,13.03,2.89,4.68,2.89,4.68"/><path class="cls-26" d="m375.73,378.35s-6.17,4.1-9.5-.59c-3.33-4.69-2.39-7.62.72-7.31s4.16.54,7.47-.78-3.52,7.14,1.32,8.68Z"/><path class="cls-7" d="m375.91,408.27s34.95-5.85,52.53,6.45c1.32.93.63,2.99-.98,2.87-9.78-.76-31.7-2.1-39.14.49,0,0-8.25-.84-12.41-9.81Z"/><path class="cls-14" d="m373.81,410.58s-8.93-14.09-3.67-17.06c0,0,6.63-2.27,6.43,1.43,0,0-4.05,6.58.19,12.22,0,0,34.06,7.72,35.66,44.16,0,0,.59,9.85-3.91,2.97-4.5-6.87-13.62-19.51-22.61-26.67,0,0-16.12,43.84-18.38,39.91s-1.21-44,6.3-56.96Z"/><ellipse class="cls-51" cx="374.48" cy="418.93" rx="2.52" ry="1.31" transform="translate(-78.8 751.01) rotate(-84.43)"/><path class="cls-51" d="m379.32,425.81s-.91,2.57-.15,3.57,1.15,2.12,2.26.99,1.52-4.2,1.45-5.39-1.5.76-3.56.83Z"/><path class="cls-51" d="m372.64,440.06c-.55,1.81.67,4.13,1.17,4.13s2.93-1.7,2.98-3.02.41-2.7-.72-2.82-2.76-.49-3.43,1.71Z"/><path class="cls-51" d="m392.76,428.76s1.55,4.5,2.74,5.06,2.14.74,2.06-.32-4.16-8.56-4.81-4.74Z"/><path class="cls-51" d="m390.71,418.68c-.22,2.72,1.98,3.69,3.29,3.24s5.94,4.98,5.29,2.86c-.65-2.13-3.55-4.62-4.44-5.24s-3.98-2.93-4.14-.86Z"/><path class="cls-51" d="m398.65,411.13c-.11,1.06,2.08,1.68,3.14,1.24s3.23-1.04,3.55-1.09,2.12-2.38-.08-2.56c-2.19-.18-6.39.15-6.62,2.41Z"/><path class="cls-51" d="m420.98,413.41c-1.13.13-2.81.83-2.3,1.58s4.9,1.61,5.77,1.1.11-1.5-.14-1.63-3.33-1.05-3.33-1.05Z"/><path class="cls-51" d="m408.04,441.22c-.24.87-.58,4.01.17,4.38s2.07.05,2.06-.82-2.23-3.55-2.23-3.55Z"/><path class="cls-51" d="m369.27,394.31s3.42,4.7,7.13-.35c2.01-2.72-8.09-.61-7.13.35Z"/><path class="cls-89" d="m372.38,395.59s-2.52,5.54,4.28,14.71"/><path class="cls-89" d="m385.89,427.63s-.22-7.18-4.4-10.4"/><path class="cls-89" d="m395.18,416.88s-5.34-5.38-9.7-6.43"/><path class="cls-32" d="m391.87,393.81s25.55-4.37,47.93,4.62l-.65,1.88s-14.66-8.14-47.81-4.96l.53-1.54Z"/><path class="cls-32" d="m412.04,385.64s4.05,2.74,4.8,8.32l-2.06-.2s-.31-5.66-2.73-8.12Z"/><path class="cls-32" d="m410.5,401.53s4.5-1.91,6.31-7.25l-2.06-.2s-1.39,5.49-4.24,7.44Z"/><path class="cls-32" d="m418.94,384.74s4.72,3.19,5.59,9.7l-2.41-.23s-.37-6.59-3.19-9.46Z"/><path class="cls-32" d="m417.15,403.27s5.24-2.23,7.35-8.44l-2.41-.23s-1.62,6.4-4.94,8.68Z"/><path class="cls-32" d="m428.5,385.02s4.92,4.53,4.8,12.25l-2.75-.69s.73-7.73-2.04-11.55Z"/><path class="cls-32" d="m423.17,406.23s6.48-1.67,10.02-8.52l-2.75-.69s-3.01,7.15-7.26,9.21Z"/><path class="cls-32" d="m404.81,386.88s3.84,2.01,5.06,6.85l-1.84.03s-.84-4.96-3.22-6.88Z"/><path class="cls-32" d="m405.04,401.05s3.77-2.14,4.83-7.02l-1.84.03s-.68,4.98-2.99,6.99Z"/><path class="cls-32" d="m398.42,387.96s3.29,1.72,4.33,5.87l-1.57.03s-.72-4.24-2.76-5.89Z"/><path class="cls-32" d="m398.62,400.09s3.23-1.83,4.14-6.01l-1.57.03s-.58,4.26-2.56,5.98Z"/><path class="cls-86" d="m386.94,384.53c-2.02.6,2.28,3.36,1.55,6.52-.73,3.16.78,3.27.78,3.27,0,0-1.5.21-.56,3.32.94,3.11-3.17,6.14-1.11,6.61,0,0,2.8.16,9.28-9.36l-.03-.03c-.49-.44-.5-1.21-.02-1.67h0c-7.1-9.07-9.87-8.68-9.87-8.68Z"/><path class="cls-86" d="m455.15,404.52c-2.1,6.11-17.25,6.44-18.76,5.92s-1.03-5.89,1.08-12.01,5.03-10.64,6.54-10.13,13.25,10.1,11.15,16.21Z"/><path class="cls-74" d="m449.76,398.59c-5.54-2.28-6.35-6.65-5.67-7.68s2.68.37,4.14,1.9c1.83,1.92,2.67,6.25,1.53,5.78Z"/><path class="cls-31" d="m443.01,397.21s3.1,2.53,3.87,7.61c0,0-3.15-3.05-3.87-7.61Z"/><path class="cls-31" d="m448.81,399.2s-4,.09-7.73,3.62c0,0,4.36-.47,7.73-3.62Z"/></svg>